%TF.GenerationSoftware,KiCad,Pcbnew,8.0.3*%
%TF.CreationDate,2024-09-03T16:00:55-04:00*%
%TF.ProjectId,AeroCore,4165726f-436f-4726-952e-6b696361645f,rev?*%
%TF.SameCoordinates,Original*%
%TF.FileFunction,Drillmap*%
%TF.FilePolarity,Positive*%
%FSLAX45Y45*%
G04 Gerber Fmt 4.5, Leading zero omitted, Abs format (unit mm)*
G04 Created by KiCad (PCBNEW 8.0.3) date 2024-09-03 16:00:55*
%MOMM*%
%LPD*%
G01*
G04 APERTURE LIST*
%ADD10C,0.050000*%
%ADD11C,0.200000*%
%ADD12C,0.100000*%
G04 APERTURE END LIST*
D10*
X3875000Y-14475000D02*
G75*
G02*
X3075000Y-14475000I-400000J0D01*
G01*
X3075000Y-14475000D02*
G75*
G02*
X3875000Y-14475000I400000J0D01*
G01*
X6925000Y-14475000D02*
G75*
G02*
X6125000Y-14475000I-400000J0D01*
G01*
X6125000Y-14475000D02*
G75*
G02*
X6925000Y-14475000I400000J0D01*
G01*
X8000000Y-18500000D02*
G75*
G02*
X7500000Y-19000000I-500000J0D01*
G01*
X2000000Y-13500000D02*
X2000000Y-18500000D01*
X8000000Y-18500000D02*
X8000000Y-13500000D01*
X2000000Y-13500000D02*
G75*
G02*
X2500000Y-13000000I500000J0D01*
G01*
X3875000Y-17525000D02*
G75*
G02*
X3075000Y-17525000I-400000J0D01*
G01*
X3075000Y-17525000D02*
G75*
G02*
X3875000Y-17525000I400000J0D01*
G01*
X2500000Y-19000000D02*
G75*
G02*
X2000000Y-18500000I0J500000D01*
G01*
X6925000Y-17525000D02*
G75*
G02*
X6125000Y-17525000I-400000J0D01*
G01*
X6125000Y-17525000D02*
G75*
G02*
X6925000Y-17525000I400000J0D01*
G01*
X2500000Y-19000000D02*
X7500000Y-19000000D01*
X7500000Y-13000000D02*
G75*
G02*
X8000000Y-13500000I0J-500000D01*
G01*
X2500000Y-13000000D02*
X7500000Y-13000000D01*
D11*
D12*
X2160000Y-16510000D02*
X2190000Y-16540000D01*
X2190000Y-16510000D02*
X2160000Y-16540000D01*
X3085000Y-13435000D02*
X3115000Y-13465000D01*
X3115000Y-13435000D02*
X3085000Y-13465000D01*
X3085000Y-14060000D02*
X3115000Y-14090000D01*
X3115000Y-14060000D02*
X3085000Y-14090000D01*
X3385000Y-15085000D02*
X3415000Y-15115000D01*
X3415000Y-15085000D02*
X3385000Y-15115000D01*
X3460000Y-13610000D02*
X3490000Y-13640000D01*
X3490000Y-13610000D02*
X3460000Y-13640000D01*
X3460000Y-15210000D02*
X3490000Y-15240000D01*
X3490000Y-15210000D02*
X3460000Y-15240000D01*
X3460000Y-15810000D02*
X3490000Y-15840000D01*
X3490000Y-15810000D02*
X3460000Y-15840000D01*
X3460000Y-16085000D02*
X3490000Y-16115000D01*
X3490000Y-16085000D02*
X3460000Y-16115000D01*
X3485000Y-15385000D02*
X3515000Y-15415000D01*
X3515000Y-15385000D02*
X3485000Y-15415000D01*
X3608024Y-15574525D02*
X3638024Y-15604525D01*
X3638024Y-15574525D02*
X3608024Y-15604525D01*
X3835000Y-17860000D02*
X3865000Y-17890000D01*
X3865000Y-17860000D02*
X3835000Y-17890000D01*
X3835925Y-18209075D02*
X3865925Y-18239075D01*
X3865925Y-18209075D02*
X3835925Y-18239075D01*
X3837581Y-17965401D02*
X3867581Y-17995401D01*
X3867581Y-17965401D02*
X3837581Y-17995401D01*
X3843925Y-18095401D02*
X3873925Y-18125401D01*
X3873925Y-18095401D02*
X3843925Y-18125401D01*
X3868109Y-15804465D02*
X3898109Y-15834465D01*
X3898109Y-15804465D02*
X3868109Y-15834465D01*
X3873524Y-15891464D02*
X3903524Y-15921464D01*
X3903524Y-15891464D02*
X3873524Y-15921464D01*
X3960000Y-16510000D02*
X3990000Y-16540000D01*
X3990000Y-16510000D02*
X3960000Y-16540000D01*
X3994877Y-15830000D02*
X4024877Y-15860000D01*
X4024877Y-15830000D02*
X3994877Y-15860000D01*
X4014630Y-16003171D02*
X4044630Y-16033171D01*
X4044630Y-16003171D02*
X4014630Y-16033171D01*
X4084981Y-15830552D02*
X4114981Y-15860552D01*
X4114981Y-15830552D02*
X4084981Y-15860552D01*
X4110000Y-15510000D02*
X4140000Y-15540000D01*
X4140000Y-15510000D02*
X4110000Y-15540000D01*
X4160000Y-16785000D02*
X4190000Y-16815000D01*
X4190000Y-16785000D02*
X4160000Y-16815000D01*
X4209130Y-16052059D02*
X4239130Y-16082059D01*
X4239130Y-16052059D02*
X4209130Y-16082059D01*
X4235000Y-14985000D02*
X4265000Y-15015000D01*
X4265000Y-14985000D02*
X4235000Y-15015000D01*
X4260000Y-16860000D02*
X4290000Y-16890000D01*
X4290000Y-16860000D02*
X4260000Y-16890000D01*
X4374793Y-15674374D02*
X4404793Y-15704374D01*
X4404793Y-15674374D02*
X4374793Y-15704374D01*
X4410000Y-16860000D02*
X4440000Y-16890000D01*
X4440000Y-16860000D02*
X4410000Y-16890000D01*
X4420781Y-16612705D02*
X4450781Y-16642705D01*
X4450781Y-16612705D02*
X4420781Y-16642705D01*
X4446746Y-15786250D02*
X4476746Y-15816250D01*
X4476746Y-15786250D02*
X4446746Y-15816250D01*
X4510000Y-16860000D02*
X4540000Y-16890000D01*
X4540000Y-16860000D02*
X4510000Y-16890000D01*
X4555962Y-15655962D02*
X4585962Y-15685962D01*
X4585962Y-15655962D02*
X4555962Y-15685962D01*
X4585000Y-14710000D02*
X4615000Y-14740000D01*
X4615000Y-14710000D02*
X4585000Y-14740000D01*
X4887928Y-16545000D02*
X4917928Y-16575000D01*
X4917928Y-16545000D02*
X4887928Y-16575000D01*
X4985000Y-16235000D02*
X5015000Y-16265000D01*
X5015000Y-16235000D02*
X4985000Y-16265000D01*
X5000000Y-15536628D02*
X5030000Y-15566628D01*
X5030000Y-15536628D02*
X5000000Y-15566628D01*
X5110000Y-15370000D02*
X5140000Y-15400000D01*
X5140000Y-15370000D02*
X5110000Y-15400000D01*
X5157915Y-16755000D02*
X5187915Y-16785000D01*
X5187915Y-16755000D02*
X5157915Y-16785000D01*
X5160000Y-14435000D02*
X5190000Y-14465000D01*
X5190000Y-14435000D02*
X5160000Y-14465000D01*
X5177128Y-16625000D02*
X5207128Y-16655000D01*
X5207128Y-16625000D02*
X5177128Y-16655000D01*
X5185000Y-16235000D02*
X5215000Y-16265000D01*
X5215000Y-16235000D02*
X5185000Y-16265000D01*
X5235000Y-13685000D02*
X5265000Y-13715000D01*
X5265000Y-13685000D02*
X5235000Y-13715000D01*
X5261628Y-15536628D02*
X5291628Y-15566628D01*
X5291628Y-15536628D02*
X5261628Y-15566628D01*
X5285000Y-15435000D02*
X5315000Y-15465000D01*
X5315000Y-15435000D02*
X5285000Y-15465000D01*
X5285000Y-16685000D02*
X5315000Y-16715000D01*
X5315000Y-16685000D02*
X5285000Y-16715000D01*
X5335000Y-14785000D02*
X5365000Y-14815000D01*
X5365000Y-14785000D02*
X5335000Y-14815000D01*
X5335000Y-15010000D02*
X5365000Y-15040000D01*
X5365000Y-15010000D02*
X5335000Y-15040000D01*
X5365000Y-14610000D02*
X5395000Y-14640000D01*
X5395000Y-14610000D02*
X5365000Y-14640000D01*
X5385000Y-16560000D02*
X5415000Y-16590000D01*
X5415000Y-16560000D02*
X5385000Y-16590000D01*
X5435000Y-14435000D02*
X5465000Y-14465000D01*
X5465000Y-14435000D02*
X5435000Y-14465000D01*
X5435000Y-16375000D02*
X5465000Y-16405000D01*
X5465000Y-16375000D02*
X5435000Y-16405000D01*
X5435000Y-16460000D02*
X5465000Y-16490000D01*
X5465000Y-16460000D02*
X5435000Y-16490000D01*
X5485000Y-16210000D02*
X5515000Y-16240000D01*
X5515000Y-16210000D02*
X5485000Y-16240000D01*
X5510000Y-15285000D02*
X5540000Y-15315000D01*
X5540000Y-15285000D02*
X5510000Y-15315000D01*
X5644792Y-16975000D02*
X5674792Y-17005000D01*
X5674792Y-16975000D02*
X5644792Y-17005000D01*
X5855931Y-16800000D02*
X5885931Y-16830000D01*
X5885931Y-16800000D02*
X5855931Y-16830000D01*
X5860000Y-16935000D02*
X5890000Y-16965000D01*
X5890000Y-16935000D02*
X5860000Y-16965000D01*
X5990000Y-16624318D02*
X6020000Y-16654318D01*
X6020000Y-16624318D02*
X5990000Y-16654318D01*
X6355962Y-16239038D02*
X6385962Y-16269038D01*
X6385962Y-16239038D02*
X6355962Y-16269038D01*
X6410000Y-16385000D02*
X6440000Y-16415000D01*
X6440000Y-16385000D02*
X6410000Y-16415000D01*
X6675000Y-16510000D02*
X6705000Y-16540000D01*
X6705000Y-16510000D02*
X6675000Y-16540000D01*
X6735000Y-16585000D02*
X6765000Y-16615000D01*
X6765000Y-16585000D02*
X6735000Y-16615000D01*
X7085000Y-17000000D02*
X7115000Y-17030000D01*
X7115000Y-17000000D02*
X7085000Y-17030000D01*
X7135000Y-16385000D02*
X7165000Y-16415000D01*
X7165000Y-16385000D02*
X7135000Y-16415000D01*
X7160000Y-17085000D02*
X7190000Y-17115000D01*
X7190000Y-17085000D02*
X7160000Y-17115000D01*
X7370159Y-16239538D02*
X7400159Y-16269538D01*
X7400159Y-16239538D02*
X7370159Y-16269538D01*
X7385000Y-14910000D02*
X7415000Y-14940000D01*
X7415000Y-14910000D02*
X7385000Y-14940000D01*
X7385000Y-16560000D02*
X7415000Y-16590000D01*
X7415000Y-16560000D02*
X7385000Y-16590000D01*
X7460000Y-16175147D02*
X7490000Y-16205147D01*
X7490000Y-16175147D02*
X7460000Y-16205147D01*
X7510000Y-15235000D02*
X7540000Y-15265000D01*
X7540000Y-15235000D02*
X7510000Y-15265000D01*
X7560000Y-16260000D02*
X7590000Y-16290000D01*
X7590000Y-16260000D02*
X7560000Y-16290000D01*
X7635000Y-16310000D02*
X7665000Y-16340000D01*
X7665000Y-16310000D02*
X7635000Y-16340000D01*
X2363000Y-15468000D02*
G75*
G02*
X2303000Y-15468000I-30000J0D01*
G01*
X2303000Y-15468000D02*
G75*
G02*
X2363000Y-15468000I30000J0D01*
G01*
X2293000Y-15498000D02*
X2373000Y-15498000D01*
X2373000Y-15438000D02*
G75*
G02*
X2373000Y-15498000I0J-30000D01*
G01*
X2373000Y-15438000D02*
X2293000Y-15438000D01*
X2293000Y-15438000D02*
G75*
G03*
X2293000Y-15498000I0J-30000D01*
G01*
X2363000Y-16332000D02*
G75*
G02*
X2303000Y-16332000I-30000J0D01*
G01*
X2303000Y-16332000D02*
G75*
G02*
X2363000Y-16332000I30000J0D01*
G01*
X2293000Y-16362000D02*
X2373000Y-16362000D01*
X2373000Y-16302000D02*
G75*
G02*
X2373000Y-16362000I0J-30000D01*
G01*
X2373000Y-16302000D02*
X2293000Y-16302000D01*
X2293000Y-16302000D02*
G75*
G03*
X2293000Y-16362000I0J-30000D01*
G01*
X2780000Y-15468000D02*
G75*
G02*
X2720000Y-15468000I-30000J0D01*
G01*
X2720000Y-15468000D02*
G75*
G02*
X2780000Y-15468000I30000J0D01*
G01*
X2695000Y-15498000D02*
X2805000Y-15498000D01*
X2805000Y-15438000D02*
G75*
G02*
X2805000Y-15498000I0J-30000D01*
G01*
X2805000Y-15438000D02*
X2695000Y-15438000D01*
X2695000Y-15438000D02*
G75*
G03*
X2695000Y-15498000I0J-30000D01*
G01*
X2780000Y-16332000D02*
G75*
G02*
X2720000Y-16332000I-30000J0D01*
G01*
X2720000Y-16332000D02*
G75*
G02*
X2780000Y-16332000I30000J0D01*
G01*
X2695000Y-16362000D02*
X2805000Y-16362000D01*
X2805000Y-16302000D02*
G75*
G02*
X2805000Y-16362000I0J-30000D01*
G01*
X2805000Y-16302000D02*
X2695000Y-16302000D01*
X2695000Y-16302000D02*
G75*
G03*
X2695000Y-16362000I0J-30000D01*
G01*
X4535000Y-14208000D02*
X4535000Y-14288000D01*
X4495000Y-14248000D02*
X4575000Y-14248000D01*
X4535000Y-14970000D02*
X4535000Y-15050000D01*
X4495000Y-15010000D02*
X4575000Y-15010000D01*
X4910356Y-13332106D02*
X4910356Y-13261394D01*
X4839644Y-13261394D01*
X4839644Y-13332106D01*
X4910356Y-13332106D01*
X5160356Y-13332106D02*
X5160356Y-13261394D01*
X5089644Y-13261394D01*
X5089644Y-13332106D01*
X5160356Y-13332106D01*
D11*
X2258277Y-19313984D02*
X2258277Y-19113984D01*
X2258277Y-19113984D02*
X2305896Y-19113984D01*
X2305896Y-19113984D02*
X2334467Y-19123508D01*
X2334467Y-19123508D02*
X2353515Y-19142555D01*
X2353515Y-19142555D02*
X2363039Y-19161603D01*
X2363039Y-19161603D02*
X2372563Y-19199698D01*
X2372563Y-19199698D02*
X2372563Y-19228270D01*
X2372563Y-19228270D02*
X2363039Y-19266365D01*
X2363039Y-19266365D02*
X2353515Y-19285412D01*
X2353515Y-19285412D02*
X2334467Y-19304460D01*
X2334467Y-19304460D02*
X2305896Y-19313984D01*
X2305896Y-19313984D02*
X2258277Y-19313984D01*
X2458277Y-19313984D02*
X2458277Y-19180650D01*
X2458277Y-19218746D02*
X2467801Y-19199698D01*
X2467801Y-19199698D02*
X2477324Y-19190174D01*
X2477324Y-19190174D02*
X2496372Y-19180650D01*
X2496372Y-19180650D02*
X2515420Y-19180650D01*
X2582086Y-19313984D02*
X2582086Y-19180650D01*
X2582086Y-19113984D02*
X2572563Y-19123508D01*
X2572563Y-19123508D02*
X2582086Y-19133031D01*
X2582086Y-19133031D02*
X2591610Y-19123508D01*
X2591610Y-19123508D02*
X2582086Y-19113984D01*
X2582086Y-19113984D02*
X2582086Y-19133031D01*
X2705896Y-19313984D02*
X2686848Y-19304460D01*
X2686848Y-19304460D02*
X2677324Y-19285412D01*
X2677324Y-19285412D02*
X2677324Y-19113984D01*
X2810658Y-19313984D02*
X2791610Y-19304460D01*
X2791610Y-19304460D02*
X2782086Y-19285412D01*
X2782086Y-19285412D02*
X2782086Y-19113984D01*
X3039229Y-19313984D02*
X3039229Y-19113984D01*
X3039229Y-19113984D02*
X3105896Y-19256841D01*
X3105896Y-19256841D02*
X3172562Y-19113984D01*
X3172562Y-19113984D02*
X3172562Y-19313984D01*
X3353515Y-19313984D02*
X3353515Y-19209222D01*
X3353515Y-19209222D02*
X3343991Y-19190174D01*
X3343991Y-19190174D02*
X3324943Y-19180650D01*
X3324943Y-19180650D02*
X3286848Y-19180650D01*
X3286848Y-19180650D02*
X3267801Y-19190174D01*
X3353515Y-19304460D02*
X3334467Y-19313984D01*
X3334467Y-19313984D02*
X3286848Y-19313984D01*
X3286848Y-19313984D02*
X3267801Y-19304460D01*
X3267801Y-19304460D02*
X3258277Y-19285412D01*
X3258277Y-19285412D02*
X3258277Y-19266365D01*
X3258277Y-19266365D02*
X3267801Y-19247317D01*
X3267801Y-19247317D02*
X3286848Y-19237793D01*
X3286848Y-19237793D02*
X3334467Y-19237793D01*
X3334467Y-19237793D02*
X3353515Y-19228270D01*
X3448753Y-19180650D02*
X3448753Y-19380650D01*
X3448753Y-19190174D02*
X3467801Y-19180650D01*
X3467801Y-19180650D02*
X3505896Y-19180650D01*
X3505896Y-19180650D02*
X3524943Y-19190174D01*
X3524943Y-19190174D02*
X3534467Y-19199698D01*
X3534467Y-19199698D02*
X3543991Y-19218746D01*
X3543991Y-19218746D02*
X3543991Y-19275889D01*
X3543991Y-19275889D02*
X3534467Y-19294936D01*
X3534467Y-19294936D02*
X3524943Y-19304460D01*
X3524943Y-19304460D02*
X3505896Y-19313984D01*
X3505896Y-19313984D02*
X3467801Y-19313984D01*
X3467801Y-19313984D02*
X3448753Y-19304460D01*
X3629705Y-19294936D02*
X3639229Y-19304460D01*
X3639229Y-19304460D02*
X3629705Y-19313984D01*
X3629705Y-19313984D02*
X3620182Y-19304460D01*
X3620182Y-19304460D02*
X3629705Y-19294936D01*
X3629705Y-19294936D02*
X3629705Y-19313984D01*
X3629705Y-19190174D02*
X3639229Y-19199698D01*
X3639229Y-19199698D02*
X3629705Y-19209222D01*
X3629705Y-19209222D02*
X3620182Y-19199698D01*
X3620182Y-19199698D02*
X3629705Y-19190174D01*
X3629705Y-19190174D02*
X3629705Y-19209222D01*
D12*
X1967500Y-19627500D02*
X1997500Y-19657500D01*
X1997500Y-19627500D02*
X1967500Y-19657500D01*
D11*
X2296372Y-19533984D02*
X2315420Y-19533984D01*
X2315420Y-19533984D02*
X2334467Y-19543508D01*
X2334467Y-19543508D02*
X2343991Y-19553031D01*
X2343991Y-19553031D02*
X2353515Y-19572079D01*
X2353515Y-19572079D02*
X2363039Y-19610174D01*
X2363039Y-19610174D02*
X2363039Y-19657793D01*
X2363039Y-19657793D02*
X2353515Y-19695889D01*
X2353515Y-19695889D02*
X2343991Y-19714936D01*
X2343991Y-19714936D02*
X2334467Y-19724460D01*
X2334467Y-19724460D02*
X2315420Y-19733984D01*
X2315420Y-19733984D02*
X2296372Y-19733984D01*
X2296372Y-19733984D02*
X2277324Y-19724460D01*
X2277324Y-19724460D02*
X2267801Y-19714936D01*
X2267801Y-19714936D02*
X2258277Y-19695889D01*
X2258277Y-19695889D02*
X2248753Y-19657793D01*
X2248753Y-19657793D02*
X2248753Y-19610174D01*
X2248753Y-19610174D02*
X2258277Y-19572079D01*
X2258277Y-19572079D02*
X2267801Y-19553031D01*
X2267801Y-19553031D02*
X2277324Y-19543508D01*
X2277324Y-19543508D02*
X2296372Y-19533984D01*
X2448753Y-19714936D02*
X2458277Y-19724460D01*
X2458277Y-19724460D02*
X2448753Y-19733984D01*
X2448753Y-19733984D02*
X2439229Y-19724460D01*
X2439229Y-19724460D02*
X2448753Y-19714936D01*
X2448753Y-19714936D02*
X2448753Y-19733984D01*
X2524944Y-19533984D02*
X2648753Y-19533984D01*
X2648753Y-19533984D02*
X2582086Y-19610174D01*
X2582086Y-19610174D02*
X2610658Y-19610174D01*
X2610658Y-19610174D02*
X2629705Y-19619698D01*
X2629705Y-19619698D02*
X2639229Y-19629222D01*
X2639229Y-19629222D02*
X2648753Y-19648270D01*
X2648753Y-19648270D02*
X2648753Y-19695889D01*
X2648753Y-19695889D02*
X2639229Y-19714936D01*
X2639229Y-19714936D02*
X2629705Y-19724460D01*
X2629705Y-19724460D02*
X2610658Y-19733984D01*
X2610658Y-19733984D02*
X2553515Y-19733984D01*
X2553515Y-19733984D02*
X2534467Y-19724460D01*
X2534467Y-19724460D02*
X2524944Y-19714936D01*
X2772563Y-19533984D02*
X2791610Y-19533984D01*
X2791610Y-19533984D02*
X2810658Y-19543508D01*
X2810658Y-19543508D02*
X2820182Y-19553031D01*
X2820182Y-19553031D02*
X2829705Y-19572079D01*
X2829705Y-19572079D02*
X2839229Y-19610174D01*
X2839229Y-19610174D02*
X2839229Y-19657793D01*
X2839229Y-19657793D02*
X2829705Y-19695889D01*
X2829705Y-19695889D02*
X2820182Y-19714936D01*
X2820182Y-19714936D02*
X2810658Y-19724460D01*
X2810658Y-19724460D02*
X2791610Y-19733984D01*
X2791610Y-19733984D02*
X2772563Y-19733984D01*
X2772563Y-19733984D02*
X2753515Y-19724460D01*
X2753515Y-19724460D02*
X2743991Y-19714936D01*
X2743991Y-19714936D02*
X2734467Y-19695889D01*
X2734467Y-19695889D02*
X2724944Y-19657793D01*
X2724944Y-19657793D02*
X2724944Y-19610174D01*
X2724944Y-19610174D02*
X2734467Y-19572079D01*
X2734467Y-19572079D02*
X2743991Y-19553031D01*
X2743991Y-19553031D02*
X2753515Y-19543508D01*
X2753515Y-19543508D02*
X2772563Y-19533984D01*
X2963039Y-19533984D02*
X2982086Y-19533984D01*
X2982086Y-19533984D02*
X3001134Y-19543508D01*
X3001134Y-19543508D02*
X3010658Y-19553031D01*
X3010658Y-19553031D02*
X3020182Y-19572079D01*
X3020182Y-19572079D02*
X3029705Y-19610174D01*
X3029705Y-19610174D02*
X3029705Y-19657793D01*
X3029705Y-19657793D02*
X3020182Y-19695889D01*
X3020182Y-19695889D02*
X3010658Y-19714936D01*
X3010658Y-19714936D02*
X3001134Y-19724460D01*
X3001134Y-19724460D02*
X2982086Y-19733984D01*
X2982086Y-19733984D02*
X2963039Y-19733984D01*
X2963039Y-19733984D02*
X2943991Y-19724460D01*
X2943991Y-19724460D02*
X2934467Y-19714936D01*
X2934467Y-19714936D02*
X2924943Y-19695889D01*
X2924943Y-19695889D02*
X2915420Y-19657793D01*
X2915420Y-19657793D02*
X2915420Y-19610174D01*
X2915420Y-19610174D02*
X2924943Y-19572079D01*
X2924943Y-19572079D02*
X2934467Y-19553031D01*
X2934467Y-19553031D02*
X2943991Y-19543508D01*
X2943991Y-19543508D02*
X2963039Y-19533984D01*
X3115420Y-19733984D02*
X3115420Y-19600650D01*
X3115420Y-19619698D02*
X3124943Y-19610174D01*
X3124943Y-19610174D02*
X3143991Y-19600650D01*
X3143991Y-19600650D02*
X3172563Y-19600650D01*
X3172563Y-19600650D02*
X3191610Y-19610174D01*
X3191610Y-19610174D02*
X3201134Y-19629222D01*
X3201134Y-19629222D02*
X3201134Y-19733984D01*
X3201134Y-19629222D02*
X3210658Y-19610174D01*
X3210658Y-19610174D02*
X3229705Y-19600650D01*
X3229705Y-19600650D02*
X3258277Y-19600650D01*
X3258277Y-19600650D02*
X3277324Y-19610174D01*
X3277324Y-19610174D02*
X3286848Y-19629222D01*
X3286848Y-19629222D02*
X3286848Y-19733984D01*
X3382086Y-19733984D02*
X3382086Y-19600650D01*
X3382086Y-19619698D02*
X3391610Y-19610174D01*
X3391610Y-19610174D02*
X3410658Y-19600650D01*
X3410658Y-19600650D02*
X3439229Y-19600650D01*
X3439229Y-19600650D02*
X3458277Y-19610174D01*
X3458277Y-19610174D02*
X3467801Y-19629222D01*
X3467801Y-19629222D02*
X3467801Y-19733984D01*
X3467801Y-19629222D02*
X3477324Y-19610174D01*
X3477324Y-19610174D02*
X3496372Y-19600650D01*
X3496372Y-19600650D02*
X3524943Y-19600650D01*
X3524943Y-19600650D02*
X3543991Y-19610174D01*
X3543991Y-19610174D02*
X3553515Y-19629222D01*
X3553515Y-19629222D02*
X3553515Y-19733984D01*
X3943991Y-19524460D02*
X3772563Y-19781603D01*
X4201134Y-19533984D02*
X4220182Y-19533984D01*
X4220182Y-19533984D02*
X4239229Y-19543508D01*
X4239229Y-19543508D02*
X4248753Y-19553031D01*
X4248753Y-19553031D02*
X4258277Y-19572079D01*
X4258277Y-19572079D02*
X4267801Y-19610174D01*
X4267801Y-19610174D02*
X4267801Y-19657793D01*
X4267801Y-19657793D02*
X4258277Y-19695889D01*
X4258277Y-19695889D02*
X4248753Y-19714936D01*
X4248753Y-19714936D02*
X4239229Y-19724460D01*
X4239229Y-19724460D02*
X4220182Y-19733984D01*
X4220182Y-19733984D02*
X4201134Y-19733984D01*
X4201134Y-19733984D02*
X4182086Y-19724460D01*
X4182086Y-19724460D02*
X4172563Y-19714936D01*
X4172563Y-19714936D02*
X4163039Y-19695889D01*
X4163039Y-19695889D02*
X4153515Y-19657793D01*
X4153515Y-19657793D02*
X4153515Y-19610174D01*
X4153515Y-19610174D02*
X4163039Y-19572079D01*
X4163039Y-19572079D02*
X4172563Y-19553031D01*
X4172563Y-19553031D02*
X4182086Y-19543508D01*
X4182086Y-19543508D02*
X4201134Y-19533984D01*
X4353515Y-19714936D02*
X4363039Y-19724460D01*
X4363039Y-19724460D02*
X4353515Y-19733984D01*
X4353515Y-19733984D02*
X4343991Y-19724460D01*
X4343991Y-19724460D02*
X4353515Y-19714936D01*
X4353515Y-19714936D02*
X4353515Y-19733984D01*
X4486848Y-19533984D02*
X4505896Y-19533984D01*
X4505896Y-19533984D02*
X4524944Y-19543508D01*
X4524944Y-19543508D02*
X4534468Y-19553031D01*
X4534468Y-19553031D02*
X4543991Y-19572079D01*
X4543991Y-19572079D02*
X4553515Y-19610174D01*
X4553515Y-19610174D02*
X4553515Y-19657793D01*
X4553515Y-19657793D02*
X4543991Y-19695889D01*
X4543991Y-19695889D02*
X4534468Y-19714936D01*
X4534468Y-19714936D02*
X4524944Y-19724460D01*
X4524944Y-19724460D02*
X4505896Y-19733984D01*
X4505896Y-19733984D02*
X4486848Y-19733984D01*
X4486848Y-19733984D02*
X4467801Y-19724460D01*
X4467801Y-19724460D02*
X4458277Y-19714936D01*
X4458277Y-19714936D02*
X4448753Y-19695889D01*
X4448753Y-19695889D02*
X4439229Y-19657793D01*
X4439229Y-19657793D02*
X4439229Y-19610174D01*
X4439229Y-19610174D02*
X4448753Y-19572079D01*
X4448753Y-19572079D02*
X4458277Y-19553031D01*
X4458277Y-19553031D02*
X4467801Y-19543508D01*
X4467801Y-19543508D02*
X4486848Y-19533984D01*
X4743991Y-19733984D02*
X4629706Y-19733984D01*
X4686848Y-19733984D02*
X4686848Y-19533984D01*
X4686848Y-19533984D02*
X4667801Y-19562555D01*
X4667801Y-19562555D02*
X4648753Y-19581603D01*
X4648753Y-19581603D02*
X4629706Y-19591127D01*
X4934468Y-19733984D02*
X4820182Y-19733984D01*
X4877325Y-19733984D02*
X4877325Y-19533984D01*
X4877325Y-19533984D02*
X4858277Y-19562555D01*
X4858277Y-19562555D02*
X4839229Y-19581603D01*
X4839229Y-19581603D02*
X4820182Y-19591127D01*
X5048753Y-19619698D02*
X5029706Y-19610174D01*
X5029706Y-19610174D02*
X5020182Y-19600650D01*
X5020182Y-19600650D02*
X5010658Y-19581603D01*
X5010658Y-19581603D02*
X5010658Y-19572079D01*
X5010658Y-19572079D02*
X5020182Y-19553031D01*
X5020182Y-19553031D02*
X5029706Y-19543508D01*
X5029706Y-19543508D02*
X5048753Y-19533984D01*
X5048753Y-19533984D02*
X5086849Y-19533984D01*
X5086849Y-19533984D02*
X5105896Y-19543508D01*
X5105896Y-19543508D02*
X5115420Y-19553031D01*
X5115420Y-19553031D02*
X5124944Y-19572079D01*
X5124944Y-19572079D02*
X5124944Y-19581603D01*
X5124944Y-19581603D02*
X5115420Y-19600650D01*
X5115420Y-19600650D02*
X5105896Y-19610174D01*
X5105896Y-19610174D02*
X5086849Y-19619698D01*
X5086849Y-19619698D02*
X5048753Y-19619698D01*
X5048753Y-19619698D02*
X5029706Y-19629222D01*
X5029706Y-19629222D02*
X5020182Y-19638746D01*
X5020182Y-19638746D02*
X5010658Y-19657793D01*
X5010658Y-19657793D02*
X5010658Y-19695889D01*
X5010658Y-19695889D02*
X5020182Y-19714936D01*
X5020182Y-19714936D02*
X5029706Y-19724460D01*
X5029706Y-19724460D02*
X5048753Y-19733984D01*
X5048753Y-19733984D02*
X5086849Y-19733984D01*
X5086849Y-19733984D02*
X5105896Y-19724460D01*
X5105896Y-19724460D02*
X5115420Y-19714936D01*
X5115420Y-19714936D02*
X5124944Y-19695889D01*
X5124944Y-19695889D02*
X5124944Y-19657793D01*
X5124944Y-19657793D02*
X5115420Y-19638746D01*
X5115420Y-19638746D02*
X5105896Y-19629222D01*
X5105896Y-19629222D02*
X5086849Y-19619698D01*
X5201134Y-19533984D02*
X5201134Y-19572079D01*
X5277325Y-19533984D02*
X5277325Y-19572079D01*
X5572563Y-19810174D02*
X5563039Y-19800650D01*
X5563039Y-19800650D02*
X5543991Y-19772079D01*
X5543991Y-19772079D02*
X5534468Y-19753031D01*
X5534468Y-19753031D02*
X5524944Y-19724460D01*
X5524944Y-19724460D02*
X5515420Y-19676841D01*
X5515420Y-19676841D02*
X5515420Y-19638746D01*
X5515420Y-19638746D02*
X5524944Y-19591127D01*
X5524944Y-19591127D02*
X5534468Y-19562555D01*
X5534468Y-19562555D02*
X5543991Y-19543508D01*
X5543991Y-19543508D02*
X5563039Y-19514936D01*
X5563039Y-19514936D02*
X5572563Y-19505412D01*
X5629706Y-19533984D02*
X5763039Y-19533984D01*
X5763039Y-19533984D02*
X5677325Y-19733984D01*
X5943991Y-19733984D02*
X5829706Y-19733984D01*
X5886848Y-19733984D02*
X5886848Y-19533984D01*
X5886848Y-19533984D02*
X5867801Y-19562555D01*
X5867801Y-19562555D02*
X5848753Y-19581603D01*
X5848753Y-19581603D02*
X5829706Y-19591127D01*
X6182087Y-19733984D02*
X6182087Y-19533984D01*
X6267801Y-19733984D02*
X6267801Y-19629222D01*
X6267801Y-19629222D02*
X6258277Y-19610174D01*
X6258277Y-19610174D02*
X6239230Y-19600650D01*
X6239230Y-19600650D02*
X6210658Y-19600650D01*
X6210658Y-19600650D02*
X6191610Y-19610174D01*
X6191610Y-19610174D02*
X6182087Y-19619698D01*
X6391610Y-19733984D02*
X6372563Y-19724460D01*
X6372563Y-19724460D02*
X6363039Y-19714936D01*
X6363039Y-19714936D02*
X6353515Y-19695889D01*
X6353515Y-19695889D02*
X6353515Y-19638746D01*
X6353515Y-19638746D02*
X6363039Y-19619698D01*
X6363039Y-19619698D02*
X6372563Y-19610174D01*
X6372563Y-19610174D02*
X6391610Y-19600650D01*
X6391610Y-19600650D02*
X6420182Y-19600650D01*
X6420182Y-19600650D02*
X6439230Y-19610174D01*
X6439230Y-19610174D02*
X6448753Y-19619698D01*
X6448753Y-19619698D02*
X6458277Y-19638746D01*
X6458277Y-19638746D02*
X6458277Y-19695889D01*
X6458277Y-19695889D02*
X6448753Y-19714936D01*
X6448753Y-19714936D02*
X6439230Y-19724460D01*
X6439230Y-19724460D02*
X6420182Y-19733984D01*
X6420182Y-19733984D02*
X6391610Y-19733984D01*
X6572563Y-19733984D02*
X6553515Y-19724460D01*
X6553515Y-19724460D02*
X6543991Y-19705412D01*
X6543991Y-19705412D02*
X6543991Y-19533984D01*
X6724944Y-19724460D02*
X6705896Y-19733984D01*
X6705896Y-19733984D02*
X6667801Y-19733984D01*
X6667801Y-19733984D02*
X6648753Y-19724460D01*
X6648753Y-19724460D02*
X6639230Y-19705412D01*
X6639230Y-19705412D02*
X6639230Y-19629222D01*
X6639230Y-19629222D02*
X6648753Y-19610174D01*
X6648753Y-19610174D02*
X6667801Y-19600650D01*
X6667801Y-19600650D02*
X6705896Y-19600650D01*
X6705896Y-19600650D02*
X6724944Y-19610174D01*
X6724944Y-19610174D02*
X6734468Y-19629222D01*
X6734468Y-19629222D02*
X6734468Y-19648270D01*
X6734468Y-19648270D02*
X6639230Y-19667317D01*
X6810658Y-19724460D02*
X6829706Y-19733984D01*
X6829706Y-19733984D02*
X6867801Y-19733984D01*
X6867801Y-19733984D02*
X6886849Y-19724460D01*
X6886849Y-19724460D02*
X6896372Y-19705412D01*
X6896372Y-19705412D02*
X6896372Y-19695889D01*
X6896372Y-19695889D02*
X6886849Y-19676841D01*
X6886849Y-19676841D02*
X6867801Y-19667317D01*
X6867801Y-19667317D02*
X6839230Y-19667317D01*
X6839230Y-19667317D02*
X6820182Y-19657793D01*
X6820182Y-19657793D02*
X6810658Y-19638746D01*
X6810658Y-19638746D02*
X6810658Y-19629222D01*
X6810658Y-19629222D02*
X6820182Y-19610174D01*
X6820182Y-19610174D02*
X6839230Y-19600650D01*
X6839230Y-19600650D02*
X6867801Y-19600650D01*
X6867801Y-19600650D02*
X6886849Y-19610174D01*
X6963039Y-19810174D02*
X6972563Y-19800650D01*
X6972563Y-19800650D02*
X6991611Y-19772079D01*
X6991611Y-19772079D02*
X7001134Y-19753031D01*
X7001134Y-19753031D02*
X7010658Y-19724460D01*
X7010658Y-19724460D02*
X7020182Y-19676841D01*
X7020182Y-19676841D02*
X7020182Y-19638746D01*
X7020182Y-19638746D02*
X7010658Y-19591127D01*
X7010658Y-19591127D02*
X7001134Y-19562555D01*
X7001134Y-19562555D02*
X6991611Y-19543508D01*
X6991611Y-19543508D02*
X6972563Y-19514936D01*
X6972563Y-19514936D02*
X6963039Y-19505412D01*
D12*
X1997500Y-19906500D02*
G75*
G02*
X1937500Y-19906500I-30000J0D01*
G01*
X1937500Y-19906500D02*
G75*
G02*
X1997500Y-19906500I30000J0D01*
G01*
D11*
X2296372Y-19797984D02*
X2315420Y-19797984D01*
X2315420Y-19797984D02*
X2334467Y-19807508D01*
X2334467Y-19807508D02*
X2343991Y-19817031D01*
X2343991Y-19817031D02*
X2353515Y-19836079D01*
X2353515Y-19836079D02*
X2363039Y-19874174D01*
X2363039Y-19874174D02*
X2363039Y-19921793D01*
X2363039Y-19921793D02*
X2353515Y-19959889D01*
X2353515Y-19959889D02*
X2343991Y-19978936D01*
X2343991Y-19978936D02*
X2334467Y-19988460D01*
X2334467Y-19988460D02*
X2315420Y-19997984D01*
X2315420Y-19997984D02*
X2296372Y-19997984D01*
X2296372Y-19997984D02*
X2277324Y-19988460D01*
X2277324Y-19988460D02*
X2267801Y-19978936D01*
X2267801Y-19978936D02*
X2258277Y-19959889D01*
X2258277Y-19959889D02*
X2248753Y-19921793D01*
X2248753Y-19921793D02*
X2248753Y-19874174D01*
X2248753Y-19874174D02*
X2258277Y-19836079D01*
X2258277Y-19836079D02*
X2267801Y-19817031D01*
X2267801Y-19817031D02*
X2277324Y-19807508D01*
X2277324Y-19807508D02*
X2296372Y-19797984D01*
X2448753Y-19978936D02*
X2458277Y-19988460D01*
X2458277Y-19988460D02*
X2448753Y-19997984D01*
X2448753Y-19997984D02*
X2439229Y-19988460D01*
X2439229Y-19988460D02*
X2448753Y-19978936D01*
X2448753Y-19978936D02*
X2448753Y-19997984D01*
X2629705Y-19797984D02*
X2591610Y-19797984D01*
X2591610Y-19797984D02*
X2572563Y-19807508D01*
X2572563Y-19807508D02*
X2563039Y-19817031D01*
X2563039Y-19817031D02*
X2543991Y-19845603D01*
X2543991Y-19845603D02*
X2534467Y-19883698D01*
X2534467Y-19883698D02*
X2534467Y-19959889D01*
X2534467Y-19959889D02*
X2543991Y-19978936D01*
X2543991Y-19978936D02*
X2553515Y-19988460D01*
X2553515Y-19988460D02*
X2572563Y-19997984D01*
X2572563Y-19997984D02*
X2610658Y-19997984D01*
X2610658Y-19997984D02*
X2629705Y-19988460D01*
X2629705Y-19988460D02*
X2639229Y-19978936D01*
X2639229Y-19978936D02*
X2648753Y-19959889D01*
X2648753Y-19959889D02*
X2648753Y-19912270D01*
X2648753Y-19912270D02*
X2639229Y-19893222D01*
X2639229Y-19893222D02*
X2629705Y-19883698D01*
X2629705Y-19883698D02*
X2610658Y-19874174D01*
X2610658Y-19874174D02*
X2572563Y-19874174D01*
X2572563Y-19874174D02*
X2553515Y-19883698D01*
X2553515Y-19883698D02*
X2543991Y-19893222D01*
X2543991Y-19893222D02*
X2534467Y-19912270D01*
X2772563Y-19797984D02*
X2791610Y-19797984D01*
X2791610Y-19797984D02*
X2810658Y-19807508D01*
X2810658Y-19807508D02*
X2820182Y-19817031D01*
X2820182Y-19817031D02*
X2829705Y-19836079D01*
X2829705Y-19836079D02*
X2839229Y-19874174D01*
X2839229Y-19874174D02*
X2839229Y-19921793D01*
X2839229Y-19921793D02*
X2829705Y-19959889D01*
X2829705Y-19959889D02*
X2820182Y-19978936D01*
X2820182Y-19978936D02*
X2810658Y-19988460D01*
X2810658Y-19988460D02*
X2791610Y-19997984D01*
X2791610Y-19997984D02*
X2772563Y-19997984D01*
X2772563Y-19997984D02*
X2753515Y-19988460D01*
X2753515Y-19988460D02*
X2743991Y-19978936D01*
X2743991Y-19978936D02*
X2734467Y-19959889D01*
X2734467Y-19959889D02*
X2724944Y-19921793D01*
X2724944Y-19921793D02*
X2724944Y-19874174D01*
X2724944Y-19874174D02*
X2734467Y-19836079D01*
X2734467Y-19836079D02*
X2743991Y-19817031D01*
X2743991Y-19817031D02*
X2753515Y-19807508D01*
X2753515Y-19807508D02*
X2772563Y-19797984D01*
X2963039Y-19797984D02*
X2982086Y-19797984D01*
X2982086Y-19797984D02*
X3001134Y-19807508D01*
X3001134Y-19807508D02*
X3010658Y-19817031D01*
X3010658Y-19817031D02*
X3020182Y-19836079D01*
X3020182Y-19836079D02*
X3029705Y-19874174D01*
X3029705Y-19874174D02*
X3029705Y-19921793D01*
X3029705Y-19921793D02*
X3020182Y-19959889D01*
X3020182Y-19959889D02*
X3010658Y-19978936D01*
X3010658Y-19978936D02*
X3001134Y-19988460D01*
X3001134Y-19988460D02*
X2982086Y-19997984D01*
X2982086Y-19997984D02*
X2963039Y-19997984D01*
X2963039Y-19997984D02*
X2943991Y-19988460D01*
X2943991Y-19988460D02*
X2934467Y-19978936D01*
X2934467Y-19978936D02*
X2924943Y-19959889D01*
X2924943Y-19959889D02*
X2915420Y-19921793D01*
X2915420Y-19921793D02*
X2915420Y-19874174D01*
X2915420Y-19874174D02*
X2924943Y-19836079D01*
X2924943Y-19836079D02*
X2934467Y-19817031D01*
X2934467Y-19817031D02*
X2943991Y-19807508D01*
X2943991Y-19807508D02*
X2963039Y-19797984D01*
X3115420Y-19997984D02*
X3115420Y-19864650D01*
X3115420Y-19883698D02*
X3124943Y-19874174D01*
X3124943Y-19874174D02*
X3143991Y-19864650D01*
X3143991Y-19864650D02*
X3172563Y-19864650D01*
X3172563Y-19864650D02*
X3191610Y-19874174D01*
X3191610Y-19874174D02*
X3201134Y-19893222D01*
X3201134Y-19893222D02*
X3201134Y-19997984D01*
X3201134Y-19893222D02*
X3210658Y-19874174D01*
X3210658Y-19874174D02*
X3229705Y-19864650D01*
X3229705Y-19864650D02*
X3258277Y-19864650D01*
X3258277Y-19864650D02*
X3277324Y-19874174D01*
X3277324Y-19874174D02*
X3286848Y-19893222D01*
X3286848Y-19893222D02*
X3286848Y-19997984D01*
X3382086Y-19997984D02*
X3382086Y-19864650D01*
X3382086Y-19883698D02*
X3391610Y-19874174D01*
X3391610Y-19874174D02*
X3410658Y-19864650D01*
X3410658Y-19864650D02*
X3439229Y-19864650D01*
X3439229Y-19864650D02*
X3458277Y-19874174D01*
X3458277Y-19874174D02*
X3467801Y-19893222D01*
X3467801Y-19893222D02*
X3467801Y-19997984D01*
X3467801Y-19893222D02*
X3477324Y-19874174D01*
X3477324Y-19874174D02*
X3496372Y-19864650D01*
X3496372Y-19864650D02*
X3524943Y-19864650D01*
X3524943Y-19864650D02*
X3543991Y-19874174D01*
X3543991Y-19874174D02*
X3553515Y-19893222D01*
X3553515Y-19893222D02*
X3553515Y-19997984D01*
X3943991Y-19788460D02*
X3772563Y-20045603D01*
X4201134Y-19797984D02*
X4220182Y-19797984D01*
X4220182Y-19797984D02*
X4239229Y-19807508D01*
X4239229Y-19807508D02*
X4248753Y-19817031D01*
X4248753Y-19817031D02*
X4258277Y-19836079D01*
X4258277Y-19836079D02*
X4267801Y-19874174D01*
X4267801Y-19874174D02*
X4267801Y-19921793D01*
X4267801Y-19921793D02*
X4258277Y-19959889D01*
X4258277Y-19959889D02*
X4248753Y-19978936D01*
X4248753Y-19978936D02*
X4239229Y-19988460D01*
X4239229Y-19988460D02*
X4220182Y-19997984D01*
X4220182Y-19997984D02*
X4201134Y-19997984D01*
X4201134Y-19997984D02*
X4182086Y-19988460D01*
X4182086Y-19988460D02*
X4172563Y-19978936D01*
X4172563Y-19978936D02*
X4163039Y-19959889D01*
X4163039Y-19959889D02*
X4153515Y-19921793D01*
X4153515Y-19921793D02*
X4153515Y-19874174D01*
X4153515Y-19874174D02*
X4163039Y-19836079D01*
X4163039Y-19836079D02*
X4172563Y-19817031D01*
X4172563Y-19817031D02*
X4182086Y-19807508D01*
X4182086Y-19807508D02*
X4201134Y-19797984D01*
X4353515Y-19978936D02*
X4363039Y-19988460D01*
X4363039Y-19988460D02*
X4353515Y-19997984D01*
X4353515Y-19997984D02*
X4343991Y-19988460D01*
X4343991Y-19988460D02*
X4353515Y-19978936D01*
X4353515Y-19978936D02*
X4353515Y-19997984D01*
X4486848Y-19797984D02*
X4505896Y-19797984D01*
X4505896Y-19797984D02*
X4524944Y-19807508D01*
X4524944Y-19807508D02*
X4534468Y-19817031D01*
X4534468Y-19817031D02*
X4543991Y-19836079D01*
X4543991Y-19836079D02*
X4553515Y-19874174D01*
X4553515Y-19874174D02*
X4553515Y-19921793D01*
X4553515Y-19921793D02*
X4543991Y-19959889D01*
X4543991Y-19959889D02*
X4534468Y-19978936D01*
X4534468Y-19978936D02*
X4524944Y-19988460D01*
X4524944Y-19988460D02*
X4505896Y-19997984D01*
X4505896Y-19997984D02*
X4486848Y-19997984D01*
X4486848Y-19997984D02*
X4467801Y-19988460D01*
X4467801Y-19988460D02*
X4458277Y-19978936D01*
X4458277Y-19978936D02*
X4448753Y-19959889D01*
X4448753Y-19959889D02*
X4439229Y-19921793D01*
X4439229Y-19921793D02*
X4439229Y-19874174D01*
X4439229Y-19874174D02*
X4448753Y-19836079D01*
X4448753Y-19836079D02*
X4458277Y-19817031D01*
X4458277Y-19817031D02*
X4467801Y-19807508D01*
X4467801Y-19807508D02*
X4486848Y-19797984D01*
X4629706Y-19817031D02*
X4639229Y-19807508D01*
X4639229Y-19807508D02*
X4658277Y-19797984D01*
X4658277Y-19797984D02*
X4705896Y-19797984D01*
X4705896Y-19797984D02*
X4724944Y-19807508D01*
X4724944Y-19807508D02*
X4734468Y-19817031D01*
X4734468Y-19817031D02*
X4743991Y-19836079D01*
X4743991Y-19836079D02*
X4743991Y-19855127D01*
X4743991Y-19855127D02*
X4734468Y-19883698D01*
X4734468Y-19883698D02*
X4620182Y-19997984D01*
X4620182Y-19997984D02*
X4743991Y-19997984D01*
X4810658Y-19797984D02*
X4934468Y-19797984D01*
X4934468Y-19797984D02*
X4867801Y-19874174D01*
X4867801Y-19874174D02*
X4896372Y-19874174D01*
X4896372Y-19874174D02*
X4915420Y-19883698D01*
X4915420Y-19883698D02*
X4924944Y-19893222D01*
X4924944Y-19893222D02*
X4934468Y-19912270D01*
X4934468Y-19912270D02*
X4934468Y-19959889D01*
X4934468Y-19959889D02*
X4924944Y-19978936D01*
X4924944Y-19978936D02*
X4915420Y-19988460D01*
X4915420Y-19988460D02*
X4896372Y-19997984D01*
X4896372Y-19997984D02*
X4839229Y-19997984D01*
X4839229Y-19997984D02*
X4820182Y-19988460D01*
X4820182Y-19988460D02*
X4810658Y-19978936D01*
X5105896Y-19797984D02*
X5067801Y-19797984D01*
X5067801Y-19797984D02*
X5048753Y-19807508D01*
X5048753Y-19807508D02*
X5039229Y-19817031D01*
X5039229Y-19817031D02*
X5020182Y-19845603D01*
X5020182Y-19845603D02*
X5010658Y-19883698D01*
X5010658Y-19883698D02*
X5010658Y-19959889D01*
X5010658Y-19959889D02*
X5020182Y-19978936D01*
X5020182Y-19978936D02*
X5029706Y-19988460D01*
X5029706Y-19988460D02*
X5048753Y-19997984D01*
X5048753Y-19997984D02*
X5086849Y-19997984D01*
X5086849Y-19997984D02*
X5105896Y-19988460D01*
X5105896Y-19988460D02*
X5115420Y-19978936D01*
X5115420Y-19978936D02*
X5124944Y-19959889D01*
X5124944Y-19959889D02*
X5124944Y-19912270D01*
X5124944Y-19912270D02*
X5115420Y-19893222D01*
X5115420Y-19893222D02*
X5105896Y-19883698D01*
X5105896Y-19883698D02*
X5086849Y-19874174D01*
X5086849Y-19874174D02*
X5048753Y-19874174D01*
X5048753Y-19874174D02*
X5029706Y-19883698D01*
X5029706Y-19883698D02*
X5020182Y-19893222D01*
X5020182Y-19893222D02*
X5010658Y-19912270D01*
X5201134Y-19797984D02*
X5201134Y-19836079D01*
X5277325Y-19797984D02*
X5277325Y-19836079D01*
X5572563Y-20074174D02*
X5563039Y-20064650D01*
X5563039Y-20064650D02*
X5543991Y-20036079D01*
X5543991Y-20036079D02*
X5534468Y-20017031D01*
X5534468Y-20017031D02*
X5524944Y-19988460D01*
X5524944Y-19988460D02*
X5515420Y-19940841D01*
X5515420Y-19940841D02*
X5515420Y-19902746D01*
X5515420Y-19902746D02*
X5524944Y-19855127D01*
X5524944Y-19855127D02*
X5534468Y-19826555D01*
X5534468Y-19826555D02*
X5543991Y-19807508D01*
X5543991Y-19807508D02*
X5563039Y-19778936D01*
X5563039Y-19778936D02*
X5572563Y-19769412D01*
X5686848Y-19797984D02*
X5705896Y-19797984D01*
X5705896Y-19797984D02*
X5724944Y-19807508D01*
X5724944Y-19807508D02*
X5734468Y-19817031D01*
X5734468Y-19817031D02*
X5743991Y-19836079D01*
X5743991Y-19836079D02*
X5753515Y-19874174D01*
X5753515Y-19874174D02*
X5753515Y-19921793D01*
X5753515Y-19921793D02*
X5743991Y-19959889D01*
X5743991Y-19959889D02*
X5734468Y-19978936D01*
X5734468Y-19978936D02*
X5724944Y-19988460D01*
X5724944Y-19988460D02*
X5705896Y-19997984D01*
X5705896Y-19997984D02*
X5686848Y-19997984D01*
X5686848Y-19997984D02*
X5667801Y-19988460D01*
X5667801Y-19988460D02*
X5658277Y-19978936D01*
X5658277Y-19978936D02*
X5648753Y-19959889D01*
X5648753Y-19959889D02*
X5639229Y-19921793D01*
X5639229Y-19921793D02*
X5639229Y-19874174D01*
X5639229Y-19874174D02*
X5648753Y-19836079D01*
X5648753Y-19836079D02*
X5658277Y-19817031D01*
X5658277Y-19817031D02*
X5667801Y-19807508D01*
X5667801Y-19807508D02*
X5686848Y-19797984D01*
X5991610Y-19997984D02*
X5991610Y-19797984D01*
X6077325Y-19997984D02*
X6077325Y-19893222D01*
X6077325Y-19893222D02*
X6067801Y-19874174D01*
X6067801Y-19874174D02*
X6048753Y-19864650D01*
X6048753Y-19864650D02*
X6020182Y-19864650D01*
X6020182Y-19864650D02*
X6001134Y-19874174D01*
X6001134Y-19874174D02*
X5991610Y-19883698D01*
X6201134Y-19997984D02*
X6182087Y-19988460D01*
X6182087Y-19988460D02*
X6172563Y-19978936D01*
X6172563Y-19978936D02*
X6163039Y-19959889D01*
X6163039Y-19959889D02*
X6163039Y-19902746D01*
X6163039Y-19902746D02*
X6172563Y-19883698D01*
X6172563Y-19883698D02*
X6182087Y-19874174D01*
X6182087Y-19874174D02*
X6201134Y-19864650D01*
X6201134Y-19864650D02*
X6229706Y-19864650D01*
X6229706Y-19864650D02*
X6248753Y-19874174D01*
X6248753Y-19874174D02*
X6258277Y-19883698D01*
X6258277Y-19883698D02*
X6267801Y-19902746D01*
X6267801Y-19902746D02*
X6267801Y-19959889D01*
X6267801Y-19959889D02*
X6258277Y-19978936D01*
X6258277Y-19978936D02*
X6248753Y-19988460D01*
X6248753Y-19988460D02*
X6229706Y-19997984D01*
X6229706Y-19997984D02*
X6201134Y-19997984D01*
X6382087Y-19997984D02*
X6363039Y-19988460D01*
X6363039Y-19988460D02*
X6353515Y-19969412D01*
X6353515Y-19969412D02*
X6353515Y-19797984D01*
X6534468Y-19988460D02*
X6515420Y-19997984D01*
X6515420Y-19997984D02*
X6477325Y-19997984D01*
X6477325Y-19997984D02*
X6458277Y-19988460D01*
X6458277Y-19988460D02*
X6448753Y-19969412D01*
X6448753Y-19969412D02*
X6448753Y-19893222D01*
X6448753Y-19893222D02*
X6458277Y-19874174D01*
X6458277Y-19874174D02*
X6477325Y-19864650D01*
X6477325Y-19864650D02*
X6515420Y-19864650D01*
X6515420Y-19864650D02*
X6534468Y-19874174D01*
X6534468Y-19874174D02*
X6543991Y-19893222D01*
X6543991Y-19893222D02*
X6543991Y-19912270D01*
X6543991Y-19912270D02*
X6448753Y-19931317D01*
X6620182Y-19988460D02*
X6639230Y-19997984D01*
X6639230Y-19997984D02*
X6677325Y-19997984D01*
X6677325Y-19997984D02*
X6696372Y-19988460D01*
X6696372Y-19988460D02*
X6705896Y-19969412D01*
X6705896Y-19969412D02*
X6705896Y-19959889D01*
X6705896Y-19959889D02*
X6696372Y-19940841D01*
X6696372Y-19940841D02*
X6677325Y-19931317D01*
X6677325Y-19931317D02*
X6648753Y-19931317D01*
X6648753Y-19931317D02*
X6629706Y-19921793D01*
X6629706Y-19921793D02*
X6620182Y-19902746D01*
X6620182Y-19902746D02*
X6620182Y-19893222D01*
X6620182Y-19893222D02*
X6629706Y-19874174D01*
X6629706Y-19874174D02*
X6648753Y-19864650D01*
X6648753Y-19864650D02*
X6677325Y-19864650D01*
X6677325Y-19864650D02*
X6696372Y-19874174D01*
X6943992Y-19921793D02*
X7096373Y-19921793D01*
X7020182Y-19997984D02*
X7020182Y-19845603D01*
X7429706Y-19864650D02*
X7429706Y-19997984D01*
X7382087Y-19788460D02*
X7334468Y-19931317D01*
X7334468Y-19931317D02*
X7458277Y-19931317D01*
X7677325Y-19988460D02*
X7696373Y-19997984D01*
X7696373Y-19997984D02*
X7734468Y-19997984D01*
X7734468Y-19997984D02*
X7753515Y-19988460D01*
X7753515Y-19988460D02*
X7763039Y-19969412D01*
X7763039Y-19969412D02*
X7763039Y-19959889D01*
X7763039Y-19959889D02*
X7753515Y-19940841D01*
X7753515Y-19940841D02*
X7734468Y-19931317D01*
X7734468Y-19931317D02*
X7705896Y-19931317D01*
X7705896Y-19931317D02*
X7686849Y-19921793D01*
X7686849Y-19921793D02*
X7677325Y-19902746D01*
X7677325Y-19902746D02*
X7677325Y-19893222D01*
X7677325Y-19893222D02*
X7686849Y-19874174D01*
X7686849Y-19874174D02*
X7705896Y-19864650D01*
X7705896Y-19864650D02*
X7734468Y-19864650D01*
X7734468Y-19864650D02*
X7753515Y-19874174D01*
X7877325Y-19997984D02*
X7858277Y-19988460D01*
X7858277Y-19988460D02*
X7848754Y-19969412D01*
X7848754Y-19969412D02*
X7848754Y-19797984D01*
X7982087Y-19997984D02*
X7963039Y-19988460D01*
X7963039Y-19988460D02*
X7953515Y-19978936D01*
X7953515Y-19978936D02*
X7943992Y-19959889D01*
X7943992Y-19959889D02*
X7943992Y-19902746D01*
X7943992Y-19902746D02*
X7953515Y-19883698D01*
X7953515Y-19883698D02*
X7963039Y-19874174D01*
X7963039Y-19874174D02*
X7982087Y-19864650D01*
X7982087Y-19864650D02*
X8010658Y-19864650D01*
X8010658Y-19864650D02*
X8029706Y-19874174D01*
X8029706Y-19874174D02*
X8039230Y-19883698D01*
X8039230Y-19883698D02*
X8048754Y-19902746D01*
X8048754Y-19902746D02*
X8048754Y-19959889D01*
X8048754Y-19959889D02*
X8039230Y-19978936D01*
X8039230Y-19978936D02*
X8029706Y-19988460D01*
X8029706Y-19988460D02*
X8010658Y-19997984D01*
X8010658Y-19997984D02*
X7982087Y-19997984D01*
X8105896Y-19864650D02*
X8182087Y-19864650D01*
X8134468Y-19797984D02*
X8134468Y-19969412D01*
X8134468Y-19969412D02*
X8143992Y-19988460D01*
X8143992Y-19988460D02*
X8163039Y-19997984D01*
X8163039Y-19997984D02*
X8182087Y-19997984D01*
X8239230Y-19988460D02*
X8258277Y-19997984D01*
X8258277Y-19997984D02*
X8296373Y-19997984D01*
X8296373Y-19997984D02*
X8315420Y-19988460D01*
X8315420Y-19988460D02*
X8324944Y-19969412D01*
X8324944Y-19969412D02*
X8324944Y-19959889D01*
X8324944Y-19959889D02*
X8315420Y-19940841D01*
X8315420Y-19940841D02*
X8296373Y-19931317D01*
X8296373Y-19931317D02*
X8267801Y-19931317D01*
X8267801Y-19931317D02*
X8248754Y-19921793D01*
X8248754Y-19921793D02*
X8239230Y-19902746D01*
X8239230Y-19902746D02*
X8239230Y-19893222D01*
X8239230Y-19893222D02*
X8248754Y-19874174D01*
X8248754Y-19874174D02*
X8267801Y-19864650D01*
X8267801Y-19864650D02*
X8296373Y-19864650D01*
X8296373Y-19864650D02*
X8315420Y-19874174D01*
X8391611Y-20074174D02*
X8401135Y-20064650D01*
X8401135Y-20064650D02*
X8420182Y-20036079D01*
X8420182Y-20036079D02*
X8429706Y-20017031D01*
X8429706Y-20017031D02*
X8439230Y-19988460D01*
X8439230Y-19988460D02*
X8448754Y-19940841D01*
X8448754Y-19940841D02*
X8448754Y-19902746D01*
X8448754Y-19902746D02*
X8439230Y-19855127D01*
X8439230Y-19855127D02*
X8429706Y-19826555D01*
X8429706Y-19826555D02*
X8420182Y-19807508D01*
X8420182Y-19807508D02*
X8401135Y-19778936D01*
X8401135Y-19778936D02*
X8391611Y-19769412D01*
D12*
X1957500Y-20130500D02*
X1957500Y-20210500D01*
X1917500Y-20170500D02*
X1997500Y-20170500D01*
D11*
X2296372Y-20061984D02*
X2315420Y-20061984D01*
X2315420Y-20061984D02*
X2334467Y-20071508D01*
X2334467Y-20071508D02*
X2343991Y-20081031D01*
X2343991Y-20081031D02*
X2353515Y-20100079D01*
X2353515Y-20100079D02*
X2363039Y-20138174D01*
X2363039Y-20138174D02*
X2363039Y-20185793D01*
X2363039Y-20185793D02*
X2353515Y-20223889D01*
X2353515Y-20223889D02*
X2343991Y-20242936D01*
X2343991Y-20242936D02*
X2334467Y-20252460D01*
X2334467Y-20252460D02*
X2315420Y-20261984D01*
X2315420Y-20261984D02*
X2296372Y-20261984D01*
X2296372Y-20261984D02*
X2277324Y-20252460D01*
X2277324Y-20252460D02*
X2267801Y-20242936D01*
X2267801Y-20242936D02*
X2258277Y-20223889D01*
X2258277Y-20223889D02*
X2248753Y-20185793D01*
X2248753Y-20185793D02*
X2248753Y-20138174D01*
X2248753Y-20138174D02*
X2258277Y-20100079D01*
X2258277Y-20100079D02*
X2267801Y-20081031D01*
X2267801Y-20081031D02*
X2277324Y-20071508D01*
X2277324Y-20071508D02*
X2296372Y-20061984D01*
X2448753Y-20242936D02*
X2458277Y-20252460D01*
X2458277Y-20252460D02*
X2448753Y-20261984D01*
X2448753Y-20261984D02*
X2439229Y-20252460D01*
X2439229Y-20252460D02*
X2448753Y-20242936D01*
X2448753Y-20242936D02*
X2448753Y-20261984D01*
X2572563Y-20147698D02*
X2553515Y-20138174D01*
X2553515Y-20138174D02*
X2543991Y-20128650D01*
X2543991Y-20128650D02*
X2534467Y-20109603D01*
X2534467Y-20109603D02*
X2534467Y-20100079D01*
X2534467Y-20100079D02*
X2543991Y-20081031D01*
X2543991Y-20081031D02*
X2553515Y-20071508D01*
X2553515Y-20071508D02*
X2572563Y-20061984D01*
X2572563Y-20061984D02*
X2610658Y-20061984D01*
X2610658Y-20061984D02*
X2629705Y-20071508D01*
X2629705Y-20071508D02*
X2639229Y-20081031D01*
X2639229Y-20081031D02*
X2648753Y-20100079D01*
X2648753Y-20100079D02*
X2648753Y-20109603D01*
X2648753Y-20109603D02*
X2639229Y-20128650D01*
X2639229Y-20128650D02*
X2629705Y-20138174D01*
X2629705Y-20138174D02*
X2610658Y-20147698D01*
X2610658Y-20147698D02*
X2572563Y-20147698D01*
X2572563Y-20147698D02*
X2553515Y-20157222D01*
X2553515Y-20157222D02*
X2543991Y-20166746D01*
X2543991Y-20166746D02*
X2534467Y-20185793D01*
X2534467Y-20185793D02*
X2534467Y-20223889D01*
X2534467Y-20223889D02*
X2543991Y-20242936D01*
X2543991Y-20242936D02*
X2553515Y-20252460D01*
X2553515Y-20252460D02*
X2572563Y-20261984D01*
X2572563Y-20261984D02*
X2610658Y-20261984D01*
X2610658Y-20261984D02*
X2629705Y-20252460D01*
X2629705Y-20252460D02*
X2639229Y-20242936D01*
X2639229Y-20242936D02*
X2648753Y-20223889D01*
X2648753Y-20223889D02*
X2648753Y-20185793D01*
X2648753Y-20185793D02*
X2639229Y-20166746D01*
X2639229Y-20166746D02*
X2629705Y-20157222D01*
X2629705Y-20157222D02*
X2610658Y-20147698D01*
X2772563Y-20061984D02*
X2791610Y-20061984D01*
X2791610Y-20061984D02*
X2810658Y-20071508D01*
X2810658Y-20071508D02*
X2820182Y-20081031D01*
X2820182Y-20081031D02*
X2829705Y-20100079D01*
X2829705Y-20100079D02*
X2839229Y-20138174D01*
X2839229Y-20138174D02*
X2839229Y-20185793D01*
X2839229Y-20185793D02*
X2829705Y-20223889D01*
X2829705Y-20223889D02*
X2820182Y-20242936D01*
X2820182Y-20242936D02*
X2810658Y-20252460D01*
X2810658Y-20252460D02*
X2791610Y-20261984D01*
X2791610Y-20261984D02*
X2772563Y-20261984D01*
X2772563Y-20261984D02*
X2753515Y-20252460D01*
X2753515Y-20252460D02*
X2743991Y-20242936D01*
X2743991Y-20242936D02*
X2734467Y-20223889D01*
X2734467Y-20223889D02*
X2724944Y-20185793D01*
X2724944Y-20185793D02*
X2724944Y-20138174D01*
X2724944Y-20138174D02*
X2734467Y-20100079D01*
X2734467Y-20100079D02*
X2743991Y-20081031D01*
X2743991Y-20081031D02*
X2753515Y-20071508D01*
X2753515Y-20071508D02*
X2772563Y-20061984D01*
X2963039Y-20061984D02*
X2982086Y-20061984D01*
X2982086Y-20061984D02*
X3001134Y-20071508D01*
X3001134Y-20071508D02*
X3010658Y-20081031D01*
X3010658Y-20081031D02*
X3020182Y-20100079D01*
X3020182Y-20100079D02*
X3029705Y-20138174D01*
X3029705Y-20138174D02*
X3029705Y-20185793D01*
X3029705Y-20185793D02*
X3020182Y-20223889D01*
X3020182Y-20223889D02*
X3010658Y-20242936D01*
X3010658Y-20242936D02*
X3001134Y-20252460D01*
X3001134Y-20252460D02*
X2982086Y-20261984D01*
X2982086Y-20261984D02*
X2963039Y-20261984D01*
X2963039Y-20261984D02*
X2943991Y-20252460D01*
X2943991Y-20252460D02*
X2934467Y-20242936D01*
X2934467Y-20242936D02*
X2924943Y-20223889D01*
X2924943Y-20223889D02*
X2915420Y-20185793D01*
X2915420Y-20185793D02*
X2915420Y-20138174D01*
X2915420Y-20138174D02*
X2924943Y-20100079D01*
X2924943Y-20100079D02*
X2934467Y-20081031D01*
X2934467Y-20081031D02*
X2943991Y-20071508D01*
X2943991Y-20071508D02*
X2963039Y-20061984D01*
X3115420Y-20261984D02*
X3115420Y-20128650D01*
X3115420Y-20147698D02*
X3124943Y-20138174D01*
X3124943Y-20138174D02*
X3143991Y-20128650D01*
X3143991Y-20128650D02*
X3172563Y-20128650D01*
X3172563Y-20128650D02*
X3191610Y-20138174D01*
X3191610Y-20138174D02*
X3201134Y-20157222D01*
X3201134Y-20157222D02*
X3201134Y-20261984D01*
X3201134Y-20157222D02*
X3210658Y-20138174D01*
X3210658Y-20138174D02*
X3229705Y-20128650D01*
X3229705Y-20128650D02*
X3258277Y-20128650D01*
X3258277Y-20128650D02*
X3277324Y-20138174D01*
X3277324Y-20138174D02*
X3286848Y-20157222D01*
X3286848Y-20157222D02*
X3286848Y-20261984D01*
X3382086Y-20261984D02*
X3382086Y-20128650D01*
X3382086Y-20147698D02*
X3391610Y-20138174D01*
X3391610Y-20138174D02*
X3410658Y-20128650D01*
X3410658Y-20128650D02*
X3439229Y-20128650D01*
X3439229Y-20128650D02*
X3458277Y-20138174D01*
X3458277Y-20138174D02*
X3467801Y-20157222D01*
X3467801Y-20157222D02*
X3467801Y-20261984D01*
X3467801Y-20157222D02*
X3477324Y-20138174D01*
X3477324Y-20138174D02*
X3496372Y-20128650D01*
X3496372Y-20128650D02*
X3524943Y-20128650D01*
X3524943Y-20128650D02*
X3543991Y-20138174D01*
X3543991Y-20138174D02*
X3553515Y-20157222D01*
X3553515Y-20157222D02*
X3553515Y-20261984D01*
X3943991Y-20052460D02*
X3772563Y-20309603D01*
X4201134Y-20061984D02*
X4220182Y-20061984D01*
X4220182Y-20061984D02*
X4239229Y-20071508D01*
X4239229Y-20071508D02*
X4248753Y-20081031D01*
X4248753Y-20081031D02*
X4258277Y-20100079D01*
X4258277Y-20100079D02*
X4267801Y-20138174D01*
X4267801Y-20138174D02*
X4267801Y-20185793D01*
X4267801Y-20185793D02*
X4258277Y-20223889D01*
X4258277Y-20223889D02*
X4248753Y-20242936D01*
X4248753Y-20242936D02*
X4239229Y-20252460D01*
X4239229Y-20252460D02*
X4220182Y-20261984D01*
X4220182Y-20261984D02*
X4201134Y-20261984D01*
X4201134Y-20261984D02*
X4182086Y-20252460D01*
X4182086Y-20252460D02*
X4172563Y-20242936D01*
X4172563Y-20242936D02*
X4163039Y-20223889D01*
X4163039Y-20223889D02*
X4153515Y-20185793D01*
X4153515Y-20185793D02*
X4153515Y-20138174D01*
X4153515Y-20138174D02*
X4163039Y-20100079D01*
X4163039Y-20100079D02*
X4172563Y-20081031D01*
X4172563Y-20081031D02*
X4182086Y-20071508D01*
X4182086Y-20071508D02*
X4201134Y-20061984D01*
X4353515Y-20242936D02*
X4363039Y-20252460D01*
X4363039Y-20252460D02*
X4353515Y-20261984D01*
X4353515Y-20261984D02*
X4343991Y-20252460D01*
X4343991Y-20252460D02*
X4353515Y-20242936D01*
X4353515Y-20242936D02*
X4353515Y-20261984D01*
X4486848Y-20061984D02*
X4505896Y-20061984D01*
X4505896Y-20061984D02*
X4524944Y-20071508D01*
X4524944Y-20071508D02*
X4534468Y-20081031D01*
X4534468Y-20081031D02*
X4543991Y-20100079D01*
X4543991Y-20100079D02*
X4553515Y-20138174D01*
X4553515Y-20138174D02*
X4553515Y-20185793D01*
X4553515Y-20185793D02*
X4543991Y-20223889D01*
X4543991Y-20223889D02*
X4534468Y-20242936D01*
X4534468Y-20242936D02*
X4524944Y-20252460D01*
X4524944Y-20252460D02*
X4505896Y-20261984D01*
X4505896Y-20261984D02*
X4486848Y-20261984D01*
X4486848Y-20261984D02*
X4467801Y-20252460D01*
X4467801Y-20252460D02*
X4458277Y-20242936D01*
X4458277Y-20242936D02*
X4448753Y-20223889D01*
X4448753Y-20223889D02*
X4439229Y-20185793D01*
X4439229Y-20185793D02*
X4439229Y-20138174D01*
X4439229Y-20138174D02*
X4448753Y-20100079D01*
X4448753Y-20100079D02*
X4458277Y-20081031D01*
X4458277Y-20081031D02*
X4467801Y-20071508D01*
X4467801Y-20071508D02*
X4486848Y-20061984D01*
X4620182Y-20061984D02*
X4743991Y-20061984D01*
X4743991Y-20061984D02*
X4677325Y-20138174D01*
X4677325Y-20138174D02*
X4705896Y-20138174D01*
X4705896Y-20138174D02*
X4724944Y-20147698D01*
X4724944Y-20147698D02*
X4734468Y-20157222D01*
X4734468Y-20157222D02*
X4743991Y-20176270D01*
X4743991Y-20176270D02*
X4743991Y-20223889D01*
X4743991Y-20223889D02*
X4734468Y-20242936D01*
X4734468Y-20242936D02*
X4724944Y-20252460D01*
X4724944Y-20252460D02*
X4705896Y-20261984D01*
X4705896Y-20261984D02*
X4648753Y-20261984D01*
X4648753Y-20261984D02*
X4629706Y-20252460D01*
X4629706Y-20252460D02*
X4620182Y-20242936D01*
X4934468Y-20261984D02*
X4820182Y-20261984D01*
X4877325Y-20261984D02*
X4877325Y-20061984D01*
X4877325Y-20061984D02*
X4858277Y-20090555D01*
X4858277Y-20090555D02*
X4839229Y-20109603D01*
X4839229Y-20109603D02*
X4820182Y-20119127D01*
X5115420Y-20061984D02*
X5020182Y-20061984D01*
X5020182Y-20061984D02*
X5010658Y-20157222D01*
X5010658Y-20157222D02*
X5020182Y-20147698D01*
X5020182Y-20147698D02*
X5039229Y-20138174D01*
X5039229Y-20138174D02*
X5086849Y-20138174D01*
X5086849Y-20138174D02*
X5105896Y-20147698D01*
X5105896Y-20147698D02*
X5115420Y-20157222D01*
X5115420Y-20157222D02*
X5124944Y-20176270D01*
X5124944Y-20176270D02*
X5124944Y-20223889D01*
X5124944Y-20223889D02*
X5115420Y-20242936D01*
X5115420Y-20242936D02*
X5105896Y-20252460D01*
X5105896Y-20252460D02*
X5086849Y-20261984D01*
X5086849Y-20261984D02*
X5039229Y-20261984D01*
X5039229Y-20261984D02*
X5020182Y-20252460D01*
X5020182Y-20252460D02*
X5010658Y-20242936D01*
X5201134Y-20061984D02*
X5201134Y-20100079D01*
X5277325Y-20061984D02*
X5277325Y-20100079D01*
X5572563Y-20338174D02*
X5563039Y-20328650D01*
X5563039Y-20328650D02*
X5543991Y-20300079D01*
X5543991Y-20300079D02*
X5534468Y-20281031D01*
X5534468Y-20281031D02*
X5524944Y-20252460D01*
X5524944Y-20252460D02*
X5515420Y-20204841D01*
X5515420Y-20204841D02*
X5515420Y-20166746D01*
X5515420Y-20166746D02*
X5524944Y-20119127D01*
X5524944Y-20119127D02*
X5534468Y-20090555D01*
X5534468Y-20090555D02*
X5543991Y-20071508D01*
X5543991Y-20071508D02*
X5563039Y-20042936D01*
X5563039Y-20042936D02*
X5572563Y-20033412D01*
X5639229Y-20081031D02*
X5648753Y-20071508D01*
X5648753Y-20071508D02*
X5667801Y-20061984D01*
X5667801Y-20061984D02*
X5715420Y-20061984D01*
X5715420Y-20061984D02*
X5734468Y-20071508D01*
X5734468Y-20071508D02*
X5743991Y-20081031D01*
X5743991Y-20081031D02*
X5753515Y-20100079D01*
X5753515Y-20100079D02*
X5753515Y-20119127D01*
X5753515Y-20119127D02*
X5743991Y-20147698D01*
X5743991Y-20147698D02*
X5629706Y-20261984D01*
X5629706Y-20261984D02*
X5753515Y-20261984D01*
X5991610Y-20261984D02*
X5991610Y-20061984D01*
X6077325Y-20261984D02*
X6077325Y-20157222D01*
X6077325Y-20157222D02*
X6067801Y-20138174D01*
X6067801Y-20138174D02*
X6048753Y-20128650D01*
X6048753Y-20128650D02*
X6020182Y-20128650D01*
X6020182Y-20128650D02*
X6001134Y-20138174D01*
X6001134Y-20138174D02*
X5991610Y-20147698D01*
X6201134Y-20261984D02*
X6182087Y-20252460D01*
X6182087Y-20252460D02*
X6172563Y-20242936D01*
X6172563Y-20242936D02*
X6163039Y-20223889D01*
X6163039Y-20223889D02*
X6163039Y-20166746D01*
X6163039Y-20166746D02*
X6172563Y-20147698D01*
X6172563Y-20147698D02*
X6182087Y-20138174D01*
X6182087Y-20138174D02*
X6201134Y-20128650D01*
X6201134Y-20128650D02*
X6229706Y-20128650D01*
X6229706Y-20128650D02*
X6248753Y-20138174D01*
X6248753Y-20138174D02*
X6258277Y-20147698D01*
X6258277Y-20147698D02*
X6267801Y-20166746D01*
X6267801Y-20166746D02*
X6267801Y-20223889D01*
X6267801Y-20223889D02*
X6258277Y-20242936D01*
X6258277Y-20242936D02*
X6248753Y-20252460D01*
X6248753Y-20252460D02*
X6229706Y-20261984D01*
X6229706Y-20261984D02*
X6201134Y-20261984D01*
X6382087Y-20261984D02*
X6363039Y-20252460D01*
X6363039Y-20252460D02*
X6353515Y-20233412D01*
X6353515Y-20233412D02*
X6353515Y-20061984D01*
X6534468Y-20252460D02*
X6515420Y-20261984D01*
X6515420Y-20261984D02*
X6477325Y-20261984D01*
X6477325Y-20261984D02*
X6458277Y-20252460D01*
X6458277Y-20252460D02*
X6448753Y-20233412D01*
X6448753Y-20233412D02*
X6448753Y-20157222D01*
X6448753Y-20157222D02*
X6458277Y-20138174D01*
X6458277Y-20138174D02*
X6477325Y-20128650D01*
X6477325Y-20128650D02*
X6515420Y-20128650D01*
X6515420Y-20128650D02*
X6534468Y-20138174D01*
X6534468Y-20138174D02*
X6543991Y-20157222D01*
X6543991Y-20157222D02*
X6543991Y-20176270D01*
X6543991Y-20176270D02*
X6448753Y-20195317D01*
X6620182Y-20252460D02*
X6639230Y-20261984D01*
X6639230Y-20261984D02*
X6677325Y-20261984D01*
X6677325Y-20261984D02*
X6696372Y-20252460D01*
X6696372Y-20252460D02*
X6705896Y-20233412D01*
X6705896Y-20233412D02*
X6705896Y-20223889D01*
X6705896Y-20223889D02*
X6696372Y-20204841D01*
X6696372Y-20204841D02*
X6677325Y-20195317D01*
X6677325Y-20195317D02*
X6648753Y-20195317D01*
X6648753Y-20195317D02*
X6629706Y-20185793D01*
X6629706Y-20185793D02*
X6620182Y-20166746D01*
X6620182Y-20166746D02*
X6620182Y-20157222D01*
X6620182Y-20157222D02*
X6629706Y-20138174D01*
X6629706Y-20138174D02*
X6648753Y-20128650D01*
X6648753Y-20128650D02*
X6677325Y-20128650D01*
X6677325Y-20128650D02*
X6696372Y-20138174D01*
X6772563Y-20338174D02*
X6782087Y-20328650D01*
X6782087Y-20328650D02*
X6801134Y-20300079D01*
X6801134Y-20300079D02*
X6810658Y-20281031D01*
X6810658Y-20281031D02*
X6820182Y-20252460D01*
X6820182Y-20252460D02*
X6829706Y-20204841D01*
X6829706Y-20204841D02*
X6829706Y-20166746D01*
X6829706Y-20166746D02*
X6820182Y-20119127D01*
X6820182Y-20119127D02*
X6810658Y-20090555D01*
X6810658Y-20090555D02*
X6801134Y-20071508D01*
X6801134Y-20071508D02*
X6782087Y-20042936D01*
X6782087Y-20042936D02*
X6772563Y-20033412D01*
D12*
X1982856Y-20469856D02*
X1982856Y-20399144D01*
X1912144Y-20399144D01*
X1912144Y-20469856D01*
X1982856Y-20469856D01*
D11*
X2363039Y-20525984D02*
X2248753Y-20525984D01*
X2305896Y-20525984D02*
X2305896Y-20325984D01*
X2305896Y-20325984D02*
X2286848Y-20354555D01*
X2286848Y-20354555D02*
X2267801Y-20373603D01*
X2267801Y-20373603D02*
X2248753Y-20383127D01*
X2448753Y-20506936D02*
X2458277Y-20516460D01*
X2458277Y-20516460D02*
X2448753Y-20525984D01*
X2448753Y-20525984D02*
X2439229Y-20516460D01*
X2439229Y-20516460D02*
X2448753Y-20506936D01*
X2448753Y-20506936D02*
X2448753Y-20525984D01*
X2582086Y-20325984D02*
X2601134Y-20325984D01*
X2601134Y-20325984D02*
X2620182Y-20335508D01*
X2620182Y-20335508D02*
X2629705Y-20345031D01*
X2629705Y-20345031D02*
X2639229Y-20364079D01*
X2639229Y-20364079D02*
X2648753Y-20402174D01*
X2648753Y-20402174D02*
X2648753Y-20449793D01*
X2648753Y-20449793D02*
X2639229Y-20487889D01*
X2639229Y-20487889D02*
X2629705Y-20506936D01*
X2629705Y-20506936D02*
X2620182Y-20516460D01*
X2620182Y-20516460D02*
X2601134Y-20525984D01*
X2601134Y-20525984D02*
X2582086Y-20525984D01*
X2582086Y-20525984D02*
X2563039Y-20516460D01*
X2563039Y-20516460D02*
X2553515Y-20506936D01*
X2553515Y-20506936D02*
X2543991Y-20487889D01*
X2543991Y-20487889D02*
X2534467Y-20449793D01*
X2534467Y-20449793D02*
X2534467Y-20402174D01*
X2534467Y-20402174D02*
X2543991Y-20364079D01*
X2543991Y-20364079D02*
X2553515Y-20345031D01*
X2553515Y-20345031D02*
X2563039Y-20335508D01*
X2563039Y-20335508D02*
X2582086Y-20325984D01*
X2772563Y-20325984D02*
X2791610Y-20325984D01*
X2791610Y-20325984D02*
X2810658Y-20335508D01*
X2810658Y-20335508D02*
X2820182Y-20345031D01*
X2820182Y-20345031D02*
X2829705Y-20364079D01*
X2829705Y-20364079D02*
X2839229Y-20402174D01*
X2839229Y-20402174D02*
X2839229Y-20449793D01*
X2839229Y-20449793D02*
X2829705Y-20487889D01*
X2829705Y-20487889D02*
X2820182Y-20506936D01*
X2820182Y-20506936D02*
X2810658Y-20516460D01*
X2810658Y-20516460D02*
X2791610Y-20525984D01*
X2791610Y-20525984D02*
X2772563Y-20525984D01*
X2772563Y-20525984D02*
X2753515Y-20516460D01*
X2753515Y-20516460D02*
X2743991Y-20506936D01*
X2743991Y-20506936D02*
X2734467Y-20487889D01*
X2734467Y-20487889D02*
X2724944Y-20449793D01*
X2724944Y-20449793D02*
X2724944Y-20402174D01*
X2724944Y-20402174D02*
X2734467Y-20364079D01*
X2734467Y-20364079D02*
X2743991Y-20345031D01*
X2743991Y-20345031D02*
X2753515Y-20335508D01*
X2753515Y-20335508D02*
X2772563Y-20325984D01*
X2963039Y-20325984D02*
X2982086Y-20325984D01*
X2982086Y-20325984D02*
X3001134Y-20335508D01*
X3001134Y-20335508D02*
X3010658Y-20345031D01*
X3010658Y-20345031D02*
X3020182Y-20364079D01*
X3020182Y-20364079D02*
X3029705Y-20402174D01*
X3029705Y-20402174D02*
X3029705Y-20449793D01*
X3029705Y-20449793D02*
X3020182Y-20487889D01*
X3020182Y-20487889D02*
X3010658Y-20506936D01*
X3010658Y-20506936D02*
X3001134Y-20516460D01*
X3001134Y-20516460D02*
X2982086Y-20525984D01*
X2982086Y-20525984D02*
X2963039Y-20525984D01*
X2963039Y-20525984D02*
X2943991Y-20516460D01*
X2943991Y-20516460D02*
X2934467Y-20506936D01*
X2934467Y-20506936D02*
X2924943Y-20487889D01*
X2924943Y-20487889D02*
X2915420Y-20449793D01*
X2915420Y-20449793D02*
X2915420Y-20402174D01*
X2915420Y-20402174D02*
X2924943Y-20364079D01*
X2924943Y-20364079D02*
X2934467Y-20345031D01*
X2934467Y-20345031D02*
X2943991Y-20335508D01*
X2943991Y-20335508D02*
X2963039Y-20325984D01*
X3115420Y-20525984D02*
X3115420Y-20392650D01*
X3115420Y-20411698D02*
X3124943Y-20402174D01*
X3124943Y-20402174D02*
X3143991Y-20392650D01*
X3143991Y-20392650D02*
X3172563Y-20392650D01*
X3172563Y-20392650D02*
X3191610Y-20402174D01*
X3191610Y-20402174D02*
X3201134Y-20421222D01*
X3201134Y-20421222D02*
X3201134Y-20525984D01*
X3201134Y-20421222D02*
X3210658Y-20402174D01*
X3210658Y-20402174D02*
X3229705Y-20392650D01*
X3229705Y-20392650D02*
X3258277Y-20392650D01*
X3258277Y-20392650D02*
X3277324Y-20402174D01*
X3277324Y-20402174D02*
X3286848Y-20421222D01*
X3286848Y-20421222D02*
X3286848Y-20525984D01*
X3382086Y-20525984D02*
X3382086Y-20392650D01*
X3382086Y-20411698D02*
X3391610Y-20402174D01*
X3391610Y-20402174D02*
X3410658Y-20392650D01*
X3410658Y-20392650D02*
X3439229Y-20392650D01*
X3439229Y-20392650D02*
X3458277Y-20402174D01*
X3458277Y-20402174D02*
X3467801Y-20421222D01*
X3467801Y-20421222D02*
X3467801Y-20525984D01*
X3467801Y-20421222D02*
X3477324Y-20402174D01*
X3477324Y-20402174D02*
X3496372Y-20392650D01*
X3496372Y-20392650D02*
X3524943Y-20392650D01*
X3524943Y-20392650D02*
X3543991Y-20402174D01*
X3543991Y-20402174D02*
X3553515Y-20421222D01*
X3553515Y-20421222D02*
X3553515Y-20525984D01*
X3943991Y-20316460D02*
X3772563Y-20573603D01*
X4201134Y-20325984D02*
X4220182Y-20325984D01*
X4220182Y-20325984D02*
X4239229Y-20335508D01*
X4239229Y-20335508D02*
X4248753Y-20345031D01*
X4248753Y-20345031D02*
X4258277Y-20364079D01*
X4258277Y-20364079D02*
X4267801Y-20402174D01*
X4267801Y-20402174D02*
X4267801Y-20449793D01*
X4267801Y-20449793D02*
X4258277Y-20487889D01*
X4258277Y-20487889D02*
X4248753Y-20506936D01*
X4248753Y-20506936D02*
X4239229Y-20516460D01*
X4239229Y-20516460D02*
X4220182Y-20525984D01*
X4220182Y-20525984D02*
X4201134Y-20525984D01*
X4201134Y-20525984D02*
X4182086Y-20516460D01*
X4182086Y-20516460D02*
X4172563Y-20506936D01*
X4172563Y-20506936D02*
X4163039Y-20487889D01*
X4163039Y-20487889D02*
X4153515Y-20449793D01*
X4153515Y-20449793D02*
X4153515Y-20402174D01*
X4153515Y-20402174D02*
X4163039Y-20364079D01*
X4163039Y-20364079D02*
X4172563Y-20345031D01*
X4172563Y-20345031D02*
X4182086Y-20335508D01*
X4182086Y-20335508D02*
X4201134Y-20325984D01*
X4353515Y-20506936D02*
X4363039Y-20516460D01*
X4363039Y-20516460D02*
X4353515Y-20525984D01*
X4353515Y-20525984D02*
X4343991Y-20516460D01*
X4343991Y-20516460D02*
X4353515Y-20506936D01*
X4353515Y-20506936D02*
X4353515Y-20525984D01*
X4486848Y-20325984D02*
X4505896Y-20325984D01*
X4505896Y-20325984D02*
X4524944Y-20335508D01*
X4524944Y-20335508D02*
X4534468Y-20345031D01*
X4534468Y-20345031D02*
X4543991Y-20364079D01*
X4543991Y-20364079D02*
X4553515Y-20402174D01*
X4553515Y-20402174D02*
X4553515Y-20449793D01*
X4553515Y-20449793D02*
X4543991Y-20487889D01*
X4543991Y-20487889D02*
X4534468Y-20506936D01*
X4534468Y-20506936D02*
X4524944Y-20516460D01*
X4524944Y-20516460D02*
X4505896Y-20525984D01*
X4505896Y-20525984D02*
X4486848Y-20525984D01*
X4486848Y-20525984D02*
X4467801Y-20516460D01*
X4467801Y-20516460D02*
X4458277Y-20506936D01*
X4458277Y-20506936D02*
X4448753Y-20487889D01*
X4448753Y-20487889D02*
X4439229Y-20449793D01*
X4439229Y-20449793D02*
X4439229Y-20402174D01*
X4439229Y-20402174D02*
X4448753Y-20364079D01*
X4448753Y-20364079D02*
X4458277Y-20345031D01*
X4458277Y-20345031D02*
X4467801Y-20335508D01*
X4467801Y-20335508D02*
X4486848Y-20325984D01*
X4620182Y-20325984D02*
X4743991Y-20325984D01*
X4743991Y-20325984D02*
X4677325Y-20402174D01*
X4677325Y-20402174D02*
X4705896Y-20402174D01*
X4705896Y-20402174D02*
X4724944Y-20411698D01*
X4724944Y-20411698D02*
X4734468Y-20421222D01*
X4734468Y-20421222D02*
X4743991Y-20440270D01*
X4743991Y-20440270D02*
X4743991Y-20487889D01*
X4743991Y-20487889D02*
X4734468Y-20506936D01*
X4734468Y-20506936D02*
X4724944Y-20516460D01*
X4724944Y-20516460D02*
X4705896Y-20525984D01*
X4705896Y-20525984D02*
X4648753Y-20525984D01*
X4648753Y-20525984D02*
X4629706Y-20516460D01*
X4629706Y-20516460D02*
X4620182Y-20506936D01*
X4839229Y-20525984D02*
X4877325Y-20525984D01*
X4877325Y-20525984D02*
X4896372Y-20516460D01*
X4896372Y-20516460D02*
X4905896Y-20506936D01*
X4905896Y-20506936D02*
X4924944Y-20478365D01*
X4924944Y-20478365D02*
X4934468Y-20440270D01*
X4934468Y-20440270D02*
X4934468Y-20364079D01*
X4934468Y-20364079D02*
X4924944Y-20345031D01*
X4924944Y-20345031D02*
X4915420Y-20335508D01*
X4915420Y-20335508D02*
X4896372Y-20325984D01*
X4896372Y-20325984D02*
X4858277Y-20325984D01*
X4858277Y-20325984D02*
X4839229Y-20335508D01*
X4839229Y-20335508D02*
X4829706Y-20345031D01*
X4829706Y-20345031D02*
X4820182Y-20364079D01*
X4820182Y-20364079D02*
X4820182Y-20411698D01*
X4820182Y-20411698D02*
X4829706Y-20430746D01*
X4829706Y-20430746D02*
X4839229Y-20440270D01*
X4839229Y-20440270D02*
X4858277Y-20449793D01*
X4858277Y-20449793D02*
X4896372Y-20449793D01*
X4896372Y-20449793D02*
X4915420Y-20440270D01*
X4915420Y-20440270D02*
X4924944Y-20430746D01*
X4924944Y-20430746D02*
X4934468Y-20411698D01*
X5105896Y-20392650D02*
X5105896Y-20525984D01*
X5058277Y-20316460D02*
X5010658Y-20459317D01*
X5010658Y-20459317D02*
X5134468Y-20459317D01*
X5201134Y-20325984D02*
X5201134Y-20364079D01*
X5277325Y-20325984D02*
X5277325Y-20364079D01*
X5572563Y-20602174D02*
X5563039Y-20592650D01*
X5563039Y-20592650D02*
X5543991Y-20564079D01*
X5543991Y-20564079D02*
X5534468Y-20545031D01*
X5534468Y-20545031D02*
X5524944Y-20516460D01*
X5524944Y-20516460D02*
X5515420Y-20468841D01*
X5515420Y-20468841D02*
X5515420Y-20430746D01*
X5515420Y-20430746D02*
X5524944Y-20383127D01*
X5524944Y-20383127D02*
X5534468Y-20354555D01*
X5534468Y-20354555D02*
X5543991Y-20335508D01*
X5543991Y-20335508D02*
X5563039Y-20306936D01*
X5563039Y-20306936D02*
X5572563Y-20297412D01*
X5639229Y-20345031D02*
X5648753Y-20335508D01*
X5648753Y-20335508D02*
X5667801Y-20325984D01*
X5667801Y-20325984D02*
X5715420Y-20325984D01*
X5715420Y-20325984D02*
X5734468Y-20335508D01*
X5734468Y-20335508D02*
X5743991Y-20345031D01*
X5743991Y-20345031D02*
X5753515Y-20364079D01*
X5753515Y-20364079D02*
X5753515Y-20383127D01*
X5753515Y-20383127D02*
X5743991Y-20411698D01*
X5743991Y-20411698D02*
X5629706Y-20525984D01*
X5629706Y-20525984D02*
X5753515Y-20525984D01*
X5991610Y-20525984D02*
X5991610Y-20325984D01*
X6077325Y-20525984D02*
X6077325Y-20421222D01*
X6077325Y-20421222D02*
X6067801Y-20402174D01*
X6067801Y-20402174D02*
X6048753Y-20392650D01*
X6048753Y-20392650D02*
X6020182Y-20392650D01*
X6020182Y-20392650D02*
X6001134Y-20402174D01*
X6001134Y-20402174D02*
X5991610Y-20411698D01*
X6201134Y-20525984D02*
X6182087Y-20516460D01*
X6182087Y-20516460D02*
X6172563Y-20506936D01*
X6172563Y-20506936D02*
X6163039Y-20487889D01*
X6163039Y-20487889D02*
X6163039Y-20430746D01*
X6163039Y-20430746D02*
X6172563Y-20411698D01*
X6172563Y-20411698D02*
X6182087Y-20402174D01*
X6182087Y-20402174D02*
X6201134Y-20392650D01*
X6201134Y-20392650D02*
X6229706Y-20392650D01*
X6229706Y-20392650D02*
X6248753Y-20402174D01*
X6248753Y-20402174D02*
X6258277Y-20411698D01*
X6258277Y-20411698D02*
X6267801Y-20430746D01*
X6267801Y-20430746D02*
X6267801Y-20487889D01*
X6267801Y-20487889D02*
X6258277Y-20506936D01*
X6258277Y-20506936D02*
X6248753Y-20516460D01*
X6248753Y-20516460D02*
X6229706Y-20525984D01*
X6229706Y-20525984D02*
X6201134Y-20525984D01*
X6382087Y-20525984D02*
X6363039Y-20516460D01*
X6363039Y-20516460D02*
X6353515Y-20497412D01*
X6353515Y-20497412D02*
X6353515Y-20325984D01*
X6534468Y-20516460D02*
X6515420Y-20525984D01*
X6515420Y-20525984D02*
X6477325Y-20525984D01*
X6477325Y-20525984D02*
X6458277Y-20516460D01*
X6458277Y-20516460D02*
X6448753Y-20497412D01*
X6448753Y-20497412D02*
X6448753Y-20421222D01*
X6448753Y-20421222D02*
X6458277Y-20402174D01*
X6458277Y-20402174D02*
X6477325Y-20392650D01*
X6477325Y-20392650D02*
X6515420Y-20392650D01*
X6515420Y-20392650D02*
X6534468Y-20402174D01*
X6534468Y-20402174D02*
X6543991Y-20421222D01*
X6543991Y-20421222D02*
X6543991Y-20440270D01*
X6543991Y-20440270D02*
X6448753Y-20459317D01*
X6620182Y-20516460D02*
X6639230Y-20525984D01*
X6639230Y-20525984D02*
X6677325Y-20525984D01*
X6677325Y-20525984D02*
X6696372Y-20516460D01*
X6696372Y-20516460D02*
X6705896Y-20497412D01*
X6705896Y-20497412D02*
X6705896Y-20487889D01*
X6705896Y-20487889D02*
X6696372Y-20468841D01*
X6696372Y-20468841D02*
X6677325Y-20459317D01*
X6677325Y-20459317D02*
X6648753Y-20459317D01*
X6648753Y-20459317D02*
X6629706Y-20449793D01*
X6629706Y-20449793D02*
X6620182Y-20430746D01*
X6620182Y-20430746D02*
X6620182Y-20421222D01*
X6620182Y-20421222D02*
X6629706Y-20402174D01*
X6629706Y-20402174D02*
X6648753Y-20392650D01*
X6648753Y-20392650D02*
X6677325Y-20392650D01*
X6677325Y-20392650D02*
X6696372Y-20402174D01*
X6772563Y-20602174D02*
X6782087Y-20592650D01*
X6782087Y-20592650D02*
X6801134Y-20564079D01*
X6801134Y-20564079D02*
X6810658Y-20545031D01*
X6810658Y-20545031D02*
X6820182Y-20516460D01*
X6820182Y-20516460D02*
X6829706Y-20468841D01*
X6829706Y-20468841D02*
X6829706Y-20430746D01*
X6829706Y-20430746D02*
X6820182Y-20383127D01*
X6820182Y-20383127D02*
X6810658Y-20354555D01*
X6810658Y-20354555D02*
X6801134Y-20335508D01*
X6801134Y-20335508D02*
X6782087Y-20306936D01*
X6782087Y-20306936D02*
X6772563Y-20297412D01*
M02*
