M48
; DRILL file {KiCad 8.0.3} date 2024-09-03T16:00:33-0400
; FORMAT={-:-/ absolute / metric / decimal}
; #@! TF.CreationDate,2024-09-03T16:00:33-04:00
; #@! TF.GenerationSoftware,Kicad,Pcbnew,8.0.3
; #@! TF.FileFunction,Plated,1,2,PTH
FMAT,2
METRIC
; #@! TA.AperFunction,Plated,PTH,ViaDrill
T1C0.300
; #@! TA.AperFunction,Plated,PTH,ComponentDrill
T2C0.600
; #@! TA.AperFunction,Plated,PTH,ComponentDrill
T3C0.800
; #@! TA.AperFunction,Plated,PTH,ComponentDrill
T4C1.000
%
G90
G05
T1
X21.75Y-165.25
X31.0Y-134.5
X31.0Y-140.75
X34.0Y-151.0
X34.75Y-136.25
X34.75Y-152.25
X34.75Y-158.25
X34.75Y-161.0
X35.0Y-154.0
X36.23Y-155.895
X38.5Y-178.75
X38.509Y-182.241
X38.526Y-179.804
X38.589Y-181.104
X38.831Y-158.195
X38.885Y-159.065
X39.75Y-165.25
X40.099Y-158.45
X40.296Y-160.182
X41.0Y-158.456
X41.25Y-155.25
X41.75Y-168.0
X42.241Y-160.671
X42.5Y-150.0
X42.75Y-168.75
X43.898Y-156.894
X44.25Y-168.75
X44.358Y-166.277
X44.617Y-158.012
X45.25Y-168.75
X45.71Y-156.71
X46.0Y-147.25
X49.029Y-165.6
X50.0Y-162.5
X50.15Y-155.516
X51.25Y-153.85
X51.729Y-167.7
X51.75Y-144.5
X51.921Y-166.4
X52.0Y-162.5
X52.5Y-137.0
X52.766Y-155.516
X53.0Y-154.5
X53.0Y-167.0
X53.5Y-148.0
X53.5Y-150.25
X53.8Y-146.25
X54.0Y-165.75
X54.5Y-144.5
X54.5Y-163.9
X54.5Y-164.75
X55.0Y-162.25
X55.25Y-153.0
X56.598Y-169.9
X58.709Y-168.15
X58.75Y-169.5
X60.05Y-166.393
X63.71Y-162.54
X64.25Y-164.0
X66.9Y-165.25
X67.5Y-166.0
X71.0Y-170.15
X71.5Y-164.0
X71.75Y-171.0
X73.852Y-162.545
X74.0Y-149.25
X74.0Y-165.75
X74.75Y-161.901
X75.25Y-152.5
X75.75Y-162.75
X76.5Y-163.25
T3
X45.35Y-142.48
X45.35Y-150.1
T4
X48.75Y-132.968
X51.25Y-132.968
T2
X22.93Y-154.68G85X23.73Y-154.68
G05
X22.93Y-163.32G85X23.73Y-163.32
G05
X26.95Y-154.68G85X28.05Y-154.68
G05
X26.95Y-163.32G85X28.05Y-163.32
G05
M30
