%TF.GenerationSoftware,KiCad,Pcbnew,8.0.3*%
%TF.CreationDate,2024-09-03T15:58:32-04:00*%
%TF.ProjectId,AeroCore,4165726f-436f-4726-952e-6b696361645f,rev?*%
%TF.SameCoordinates,Original*%
%TF.FileFunction,Paste,Top*%
%TF.FilePolarity,Positive*%
%FSLAX46Y46*%
G04 Gerber Fmt 4.6, Leading zero omitted, Abs format (unit mm)*
G04 Created by KiCad (PCBNEW 8.0.3) date 2024-09-03 15:58:32*
%MOMM*%
%LPD*%
G01*
G04 APERTURE LIST*
G04 Aperture macros list*
%AMRoundRect*
0 Rectangle with rounded corners*
0 $1 Rounding radius*
0 $2 $3 $4 $5 $6 $7 $8 $9 X,Y pos of 4 corners*
0 Add a 4 corners polygon primitive as box body*
4,1,4,$2,$3,$4,$5,$6,$7,$8,$9,$2,$3,0*
0 Add four circle primitives for the rounded corners*
1,1,$1+$1,$2,$3*
1,1,$1+$1,$4,$5*
1,1,$1+$1,$6,$7*
1,1,$1+$1,$8,$9*
0 Add four rect primitives between the rounded corners*
20,1,$1+$1,$2,$3,$4,$5,0*
20,1,$1+$1,$4,$5,$6,$7,0*
20,1,$1+$1,$6,$7,$8,$9,0*
20,1,$1+$1,$8,$9,$2,$3,0*%
%AMFreePoly0*
4,1,14,0.135355,0.295355,0.150000,0.260000,0.150000,-0.250000,0.135355,-0.285355,0.100000,-0.300000,0.000000,-0.300000,-0.035355,-0.285355,-0.135355,-0.185355,-0.150000,-0.150000,-0.150000,0.260000,-0.135355,0.295355,-0.100000,0.310000,0.100000,0.310000,0.135355,0.295355,0.135355,0.295355,$1*%
%AMFreePoly1*
4,1,14,0.135355,0.295355,0.150000,0.260000,0.150000,-0.150000,0.135355,-0.185355,0.035355,-0.285355,0.000000,-0.300000,-0.100000,-0.300000,-0.135355,-0.285355,-0.150000,-0.250000,-0.150000,0.260000,-0.135355,0.295355,-0.100000,0.310000,0.100000,0.310000,0.135355,0.295355,0.135355,0.295355,$1*%
%AMFreePoly2*
4,1,14,0.295355,0.135355,0.310000,0.100000,0.310000,-0.100000,0.295355,-0.135355,0.260000,-0.150000,-0.250000,-0.150000,-0.285355,-0.135355,-0.300000,-0.100000,-0.300000,0.000000,-0.285355,0.035355,-0.185355,0.135355,-0.150000,0.150000,0.260000,0.150000,0.295355,0.135355,0.295355,0.135355,$1*%
%AMFreePoly3*
4,1,14,0.295355,0.135355,0.310000,0.100000,0.310000,-0.100000,0.295355,-0.135355,0.260000,-0.150000,-0.150000,-0.150000,-0.185355,-0.135355,-0.285355,-0.035355,-0.300000,0.000000,-0.300000,0.100000,-0.285355,0.135355,-0.250000,0.150000,0.260000,0.150000,0.295355,0.135355,0.295355,0.135355,$1*%
%AMFreePoly4*
4,1,14,0.285355,0.135355,0.300000,0.100000,0.300000,0.000000,0.285355,-0.035355,0.185355,-0.135355,0.150000,-0.150000,-0.250000,-0.150000,-0.285355,-0.135355,-0.300000,-0.100000,-0.300000,0.100000,-0.285355,0.135355,-0.250000,0.150000,0.250000,0.150000,0.285355,0.135355,0.285355,0.135355,$1*%
%AMFreePoly5*
4,1,14,0.185355,0.135355,0.285355,0.035355,0.300000,0.000000,0.300000,-0.100000,0.285355,-0.135355,0.250000,-0.150000,-0.250000,-0.150000,-0.285355,-0.135355,-0.300000,-0.100000,-0.300000,0.100000,-0.285355,0.135355,-0.250000,0.150000,0.150000,0.150000,0.185355,0.135355,0.185355,0.135355,$1*%
G04 Aperture macros list end*
%ADD10RoundRect,0.237500X-0.250000X-0.237500X0.250000X-0.237500X0.250000X0.237500X-0.250000X0.237500X0*%
%ADD11RoundRect,0.237500X-0.287500X-0.237500X0.287500X-0.237500X0.287500X0.237500X-0.287500X0.237500X0*%
%ADD12RoundRect,0.237500X0.237500X-0.300000X0.237500X0.300000X-0.237500X0.300000X-0.237500X-0.300000X0*%
%ADD13RoundRect,0.237500X-0.237500X0.300000X-0.237500X-0.300000X0.237500X-0.300000X0.237500X0.300000X0*%
%ADD14RoundRect,0.250000X0.650000X-0.350000X0.650000X0.350000X-0.650000X0.350000X-0.650000X-0.350000X0*%
%ADD15RoundRect,0.150000X0.625000X-0.150000X0.625000X0.150000X-0.625000X0.150000X-0.625000X-0.150000X0*%
%ADD16RoundRect,0.237500X-0.300000X-0.237500X0.300000X-0.237500X0.300000X0.237500X-0.300000X0.237500X0*%
%ADD17RoundRect,0.237500X0.287500X0.237500X-0.287500X0.237500X-0.287500X-0.237500X0.287500X-0.237500X0*%
%ADD18RoundRect,0.150000X0.512500X0.150000X-0.512500X0.150000X-0.512500X-0.150000X0.512500X-0.150000X0*%
%ADD19RoundRect,0.237500X0.250000X0.237500X-0.250000X0.237500X-0.250000X-0.237500X0.250000X-0.237500X0*%
%ADD20RoundRect,0.237500X-0.237500X0.250000X-0.237500X-0.250000X0.237500X-0.250000X0.237500X0.250000X0*%
%ADD21RoundRect,0.250000X-0.337500X-0.475000X0.337500X-0.475000X0.337500X0.475000X-0.337500X0.475000X0*%
%ADD22RoundRect,0.250000X0.475000X-0.337500X0.475000X0.337500X-0.475000X0.337500X-0.475000X-0.337500X0*%
%ADD23R,2.100000X0.750000*%
%ADD24R,1.000000X1.150000*%
%ADD25RoundRect,0.112500X-0.187500X-0.112500X0.187500X-0.112500X0.187500X0.112500X-0.187500X0.112500X0*%
%ADD26RoundRect,0.250000X0.337500X0.475000X-0.337500X0.475000X-0.337500X-0.475000X0.337500X-0.475000X0*%
%ADD27RoundRect,0.150000X-0.587500X-0.150000X0.587500X-0.150000X0.587500X0.150000X-0.587500X0.150000X0*%
%ADD28RoundRect,0.225000X-0.375000X0.225000X-0.375000X-0.225000X0.375000X-0.225000X0.375000X0.225000X0*%
%ADD29RoundRect,0.237500X0.237500X-0.250000X0.237500X0.250000X-0.237500X0.250000X-0.237500X-0.250000X0*%
%ADD30R,0.300000X0.500000*%
%ADD31R,0.500000X0.300000*%
%ADD32R,1.000000X0.900000*%
%ADD33R,1.160000X0.600000*%
%ADD34R,1.160000X0.300000*%
%ADD35R,0.500000X0.280000*%
%ADD36R,0.280000X0.500000*%
%ADD37R,1.400000X1.400000*%
%ADD38FreePoly0,90.000000*%
%ADD39R,0.610000X0.200000*%
%ADD40FreePoly1,90.000000*%
%ADD41FreePoly2,90.000000*%
%ADD42R,0.200000X0.610000*%
%ADD43FreePoly3,90.000000*%
%ADD44R,0.010000X0.010000*%
%ADD45FreePoly4,90.000000*%
%ADD46FreePoly5,90.000000*%
%ADD47RoundRect,0.249999X-0.395001X-0.395001X0.395001X-0.395001X0.395001X0.395001X-0.395001X0.395001X0*%
%ADD48RoundRect,0.050000X-0.387500X-0.050000X0.387500X-0.050000X0.387500X0.050000X-0.387500X0.050000X0*%
%ADD49RoundRect,0.050000X-0.050000X-0.387500X0.050000X-0.387500X0.050000X0.387500X-0.050000X0.387500X0*%
%ADD50RoundRect,0.040000X-0.040000X-0.605000X0.040000X-0.605000X0.040000X0.605000X-0.040000X0.605000X0*%
%ADD51RoundRect,0.062500X-0.387500X-0.062500X0.387500X-0.062500X0.387500X0.062500X-0.387500X0.062500X0*%
%ADD52RoundRect,0.150000X-0.512500X-0.150000X0.512500X-0.150000X0.512500X0.150000X-0.512500X0.150000X0*%
G04 APERTURE END LIST*
D10*
%TO.C,R17*%
X41962500Y-185000000D03*
X43787500Y-185000000D03*
%TD*%
%TO.C,R16*%
X37962500Y-185000000D03*
X39787500Y-185000000D03*
%TD*%
D11*
%TO.C,D8*%
X42000000Y-188000000D03*
X43750000Y-188000000D03*
%TD*%
%TO.C,D7*%
X38000000Y-188000000D03*
X39750000Y-188000000D03*
%TD*%
D12*
%TO.C,C13*%
X46000000Y-177862500D03*
X46000000Y-176137500D03*
%TD*%
D13*
%TO.C,C7*%
X47500000Y-169975000D03*
X47500000Y-168250000D03*
%TD*%
%TO.C,C10*%
X55500000Y-185400000D03*
X55500000Y-187125000D03*
%TD*%
D14*
%TO.C,J4*%
X76125000Y-149200000D03*
X76125000Y-154800000D03*
D15*
X72250000Y-150500000D03*
X72250000Y-151500000D03*
X72250000Y-152500000D03*
X72250000Y-153500000D03*
%TD*%
D12*
%TO.C,C14*%
X49000000Y-177862500D03*
X49000000Y-176137500D03*
%TD*%
%TO.C,C15*%
X52000000Y-177862500D03*
X52000000Y-176137500D03*
%TD*%
D16*
%TO.C,C22*%
X48487500Y-143100000D03*
X50212500Y-143100000D03*
%TD*%
D11*
%TO.C,D3*%
X34125000Y-188000000D03*
X35875000Y-188000000D03*
%TD*%
D12*
%TO.C,C17*%
X58000000Y-177862500D03*
X58000000Y-176137500D03*
%TD*%
%TO.C,C16*%
X55000000Y-177862500D03*
X55000000Y-176137500D03*
%TD*%
D17*
%TO.C,D5*%
X64750000Y-133750000D03*
X63000000Y-133750000D03*
%TD*%
D12*
%TO.C,C21*%
X70000000Y-159137500D03*
X70000000Y-160862500D03*
%TD*%
D18*
%TO.C,U3*%
X59775000Y-138900000D03*
X59775000Y-137950000D03*
X59775000Y-137000000D03*
X57500000Y-137000000D03*
X57500000Y-138900000D03*
%TD*%
D13*
%TO.C,C11*%
X52500000Y-185387500D03*
X52500000Y-187112500D03*
%TD*%
%TO.C,C9*%
X50500000Y-168250000D03*
X50500000Y-169975000D03*
%TD*%
D19*
%TO.C,R3*%
X33162500Y-163000000D03*
X31337500Y-163000000D03*
%TD*%
D20*
%TO.C,R12*%
X57750000Y-154425000D03*
X57750000Y-156250000D03*
%TD*%
%TO.C,R9*%
X28000000Y-168250000D03*
X28000000Y-170075000D03*
%TD*%
D21*
%TO.C,C1*%
X29006250Y-139000000D03*
X26931250Y-139000000D03*
%TD*%
D22*
%TO.C,C5*%
X56500000Y-166000000D03*
X56500000Y-163925000D03*
%TD*%
D23*
%TO.C,J2*%
X76500000Y-139940000D03*
X72900000Y-139940000D03*
X76500000Y-141210000D03*
X72900000Y-141210000D03*
X76500000Y-142480000D03*
X72900000Y-142480000D03*
X76500000Y-143750000D03*
X72900000Y-143750000D03*
X76500000Y-145020000D03*
X72900000Y-145020000D03*
%TD*%
D21*
%TO.C,C2*%
X29043750Y-141500000D03*
X26968750Y-141500000D03*
%TD*%
D24*
%TO.C,Y2*%
X57500000Y-160750000D03*
X57500000Y-159000000D03*
X56100000Y-159000000D03*
X56100000Y-160750000D03*
%TD*%
D13*
%TO.C,C8*%
X53500000Y-168250000D03*
X53500000Y-169975000D03*
%TD*%
D25*
%TO.C,D2*%
X24550000Y-175250000D03*
X22450000Y-175250000D03*
%TD*%
D10*
%TO.C,R15*%
X48437500Y-150600000D03*
X50262500Y-150600000D03*
%TD*%
%TO.C,R4*%
X31337500Y-155000000D03*
X33162500Y-155000000D03*
%TD*%
D26*
%TO.C,C4*%
X59575000Y-134000000D03*
X57500000Y-134000000D03*
%TD*%
D10*
%TO.C,R1*%
X31337500Y-156750000D03*
X33162500Y-156750000D03*
%TD*%
D20*
%TO.C,R6*%
X29006250Y-134587500D03*
X29006250Y-136412500D03*
%TD*%
D22*
%TO.C,C6*%
X59250000Y-166000000D03*
X59250000Y-163925000D03*
%TD*%
D20*
%TO.C,R5*%
X26006250Y-136412500D03*
X26006250Y-134587500D03*
%TD*%
D10*
%TO.C,R11*%
X63250000Y-138000000D03*
X65075000Y-138000000D03*
%TD*%
D13*
%TO.C,C12*%
X49500000Y-185387500D03*
X49500000Y-187112500D03*
%TD*%
D26*
%TO.C,C3*%
X31462500Y-139000000D03*
X33537500Y-139000000D03*
%TD*%
D10*
%TO.C,R2*%
X31337500Y-161000000D03*
X33162500Y-161000000D03*
%TD*%
D27*
%TO.C,Q1*%
X36125000Y-137550000D03*
X36125000Y-139450000D03*
X38000000Y-138500000D03*
%TD*%
D28*
%TO.C,D1*%
X32506250Y-137150000D03*
X32506250Y-133850000D03*
%TD*%
D11*
%TO.C,D4*%
X30250000Y-188000000D03*
X32000000Y-188000000D03*
%TD*%
D10*
%TO.C,R10*%
X35787500Y-185000000D03*
X33962500Y-185000000D03*
%TD*%
%TO.C,R14*%
X37737500Y-156250000D03*
X39562500Y-156250000D03*
%TD*%
%TO.C,R8*%
X32037500Y-185000000D03*
X30212500Y-185000000D03*
%TD*%
D20*
%TO.C,R13*%
X59500000Y-158925000D03*
X59500000Y-160750000D03*
%TD*%
D29*
%TO.C,R7*%
X41750000Y-163250000D03*
X41750000Y-165075000D03*
%TD*%
D30*
%TO.C,U5*%
X74250000Y-168330000D03*
X73750000Y-168330000D03*
D31*
X73130000Y-168700000D03*
X73130000Y-169200000D03*
X73130000Y-169700000D03*
D30*
X73750000Y-170070000D03*
X74250000Y-170070000D03*
D31*
X74870000Y-169700000D03*
X74870000Y-169200000D03*
X74870000Y-168700000D03*
%TD*%
D32*
%TO.C,RST1*%
X22700000Y-150550000D03*
X22700000Y-146450000D03*
X24300000Y-150550000D03*
X24300000Y-146450000D03*
%TD*%
D33*
%TO.C,J1*%
X28080000Y-155800000D03*
X28080000Y-156600000D03*
D34*
X28080000Y-157750000D03*
X28080000Y-158750000D03*
X28080000Y-159250000D03*
X28080000Y-160250000D03*
D33*
X28080000Y-161400000D03*
X28080000Y-162200000D03*
X28080000Y-162200000D03*
X28080000Y-161400000D03*
D34*
X28080000Y-160750000D03*
X28080000Y-159750000D03*
X28080000Y-158250000D03*
X28080000Y-157250000D03*
D33*
X28080000Y-156600000D03*
X28080000Y-155800000D03*
%TD*%
D35*
%TO.C,U6*%
X74630000Y-159870000D03*
X74630000Y-160370000D03*
D36*
X74500000Y-161000000D03*
X74000000Y-161000000D03*
X73500000Y-161000000D03*
X73000000Y-161000000D03*
D35*
X72870000Y-160370000D03*
X72870000Y-159870000D03*
D36*
X73000000Y-159240000D03*
X73500000Y-159240000D03*
X74000000Y-159240000D03*
X74500000Y-159240000D03*
%TD*%
D37*
%TO.C,U7*%
X49400000Y-146100000D03*
D38*
X47950000Y-147100000D03*
D39*
X48000000Y-146700000D03*
X48000000Y-146300000D03*
X48000000Y-145900000D03*
X48000000Y-145500000D03*
D40*
X47950000Y-145100000D03*
D41*
X48400000Y-144650000D03*
D42*
X48800000Y-144700000D03*
X49200000Y-144700000D03*
X49600000Y-144700000D03*
X50000000Y-144700000D03*
D43*
X50400000Y-144650000D03*
D44*
X50850000Y-145100000D03*
D39*
X50800000Y-145500000D03*
X50800000Y-145900000D03*
X50800000Y-146300000D03*
X50800000Y-146700000D03*
D44*
X50850000Y-147100000D03*
D45*
X50400000Y-147550000D03*
D42*
X50000000Y-147500000D03*
X49600000Y-147500000D03*
X49200000Y-147500000D03*
X48800000Y-147500000D03*
D46*
X48400000Y-147550000D03*
%TD*%
D47*
%TO.C,U1*%
X49000000Y-159262500D03*
X49000000Y-160862500D03*
X50600000Y-159262500D03*
X50600000Y-160862500D03*
D48*
X46362500Y-157462500D03*
X46362500Y-157862500D03*
X46362500Y-158262500D03*
X46362500Y-158662500D03*
X46362500Y-159062500D03*
X46362500Y-159462500D03*
X46362500Y-159862500D03*
X46362500Y-160262500D03*
X46362500Y-160662500D03*
X46362500Y-161062500D03*
X46362500Y-161462500D03*
X46362500Y-161862500D03*
X46362500Y-162262500D03*
X46362500Y-162662500D03*
D49*
X47200000Y-163500000D03*
X47600000Y-163500000D03*
X48000000Y-163500000D03*
X48400000Y-163500000D03*
X48800000Y-163500000D03*
X49200000Y-163500000D03*
X49600000Y-163500000D03*
X50000000Y-163500000D03*
X50400000Y-163500000D03*
X50800000Y-163500000D03*
X51200000Y-163500000D03*
X51600000Y-163500000D03*
X52000000Y-163500000D03*
X52400000Y-163500000D03*
D48*
X53237500Y-162662500D03*
X53237500Y-162262500D03*
X53237500Y-161862500D03*
X53237500Y-161462500D03*
X53237500Y-161062500D03*
X53237500Y-160662500D03*
X53237500Y-160262500D03*
X53237500Y-159862500D03*
X53237500Y-159462500D03*
X53237500Y-159062500D03*
X53237500Y-158662500D03*
X53237500Y-158262500D03*
X53237500Y-157862500D03*
X53237500Y-157462500D03*
D49*
X52400000Y-156625000D03*
X52000000Y-156625000D03*
X51600000Y-156625000D03*
X51200000Y-156625000D03*
X50800000Y-156625000D03*
X50400000Y-156625000D03*
X50000000Y-156625000D03*
X49600000Y-156625000D03*
X49200000Y-156625000D03*
X48800000Y-156625000D03*
X48400000Y-156625000D03*
X48000000Y-156625000D03*
X47600000Y-156625000D03*
X47200000Y-156625000D03*
%TD*%
D32*
%TO.C,BOOT1*%
X22700000Y-173050000D03*
X22700000Y-168950000D03*
X24300000Y-173050000D03*
X24300000Y-168950000D03*
%TD*%
D50*
%TO.C,U4*%
X38575000Y-152500000D03*
D51*
X37150000Y-151750000D03*
X37150000Y-152250000D03*
X37150000Y-152750000D03*
X37150000Y-153250000D03*
X40000000Y-153250000D03*
X40000000Y-152750000D03*
X40000000Y-152250000D03*
X40000000Y-151750000D03*
%TD*%
D52*
%TO.C,U2*%
X38000000Y-133500000D03*
X38000000Y-135400000D03*
X35725000Y-135400000D03*
X35725000Y-134450000D03*
X35725000Y-133500000D03*
%TD*%
M02*
