%TF.GenerationSoftware,KiCad,Pcbnew,8.0.3*%
%TF.CreationDate,2024-09-03T15:58:32-04:00*%
%TF.ProjectId,AeroCore,4165726f-436f-4726-952e-6b696361645f,rev?*%
%TF.SameCoordinates,Original*%
%TF.FileFunction,Copper,L2,Bot*%
%TF.FilePolarity,Positive*%
%FSLAX46Y46*%
G04 Gerber Fmt 4.6, Leading zero omitted, Abs format (unit mm)*
G04 Created by KiCad (PCBNEW 8.0.3) date 2024-09-03 15:58:32*
%MOMM*%
%LPD*%
G01*
G04 APERTURE LIST*
G04 Aperture macros list*
%AMRoundRect*
0 Rectangle with rounded corners*
0 $1 Rounding radius*
0 $2 $3 $4 $5 $6 $7 $8 $9 X,Y pos of 4 corners*
0 Add a 4 corners polygon primitive as box body*
4,1,4,$2,$3,$4,$5,$6,$7,$8,$9,$2,$3,0*
0 Add four circle primitives for the rounded corners*
1,1,$1+$1,$2,$3*
1,1,$1+$1,$4,$5*
1,1,$1+$1,$6,$7*
1,1,$1+$1,$8,$9*
0 Add four rect primitives between the rounded corners*
20,1,$1+$1,$2,$3,$4,$5,0*
20,1,$1+$1,$4,$5,$6,$7,0*
20,1,$1+$1,$6,$7,$8,$9,0*
20,1,$1+$1,$8,$9,$2,$3,0*%
G04 Aperture macros list end*
%TA.AperFunction,ComponentPad*%
%ADD10R,1.600000X1.600000*%
%TD*%
%TA.AperFunction,ComponentPad*%
%ADD11O,1.600000X1.600000*%
%TD*%
%TA.AperFunction,ComponentPad*%
%ADD12RoundRect,0.250000X-0.600000X-0.750000X0.600000X-0.750000X0.600000X0.750000X-0.600000X0.750000X0*%
%TD*%
%TA.AperFunction,ComponentPad*%
%ADD13O,1.700000X2.000000*%
%TD*%
%TA.AperFunction,ComponentPad*%
%ADD14O,2.000000X0.900000*%
%TD*%
%TA.AperFunction,ComponentPad*%
%ADD15O,1.700000X0.900000*%
%TD*%
%TA.AperFunction,ViaPad*%
%ADD16C,0.600000*%
%TD*%
%TA.AperFunction,Conductor*%
%ADD17C,0.200000*%
%TD*%
G04 APERTURE END LIST*
D10*
%TO.P,D6,1,K*%
%TO.N,/CS_1*%
X45350000Y-150100000D03*
D11*
%TO.P,D6,2,A*%
%TO.N,Net-(D6-A)*%
X45350000Y-142480000D03*
%TD*%
D12*
%TO.P,J3,1,Pin_1*%
%TO.N,/VBAT*%
X48750000Y-132967500D03*
D13*
%TO.P,J3,2,Pin_2*%
%TO.N,GND*%
X51250000Y-132967500D03*
%TD*%
D14*
%TO.P,J1,S1,SHIELD*%
%TO.N,unconnected-(J1-SHIELD-PadS1)*%
X27500000Y-154680000D03*
D15*
X23330000Y-154680000D03*
D14*
X27500000Y-163320000D03*
D15*
X23330000Y-163320000D03*
%TD*%
D16*
%TO.N,Net-(D1-K)*%
X31000000Y-140750000D03*
X31000000Y-134500000D03*
%TO.N,/D16*%
X38500000Y-178750000D03*
X54000000Y-165750000D03*
%TO.N,/D13*%
X38525814Y-179804009D03*
%TO.N,/D14*%
X38509252Y-182240752D03*
%TO.N,/D15*%
X38589252Y-181104009D03*
%TO.N,/D14*%
X44250000Y-168750000D03*
%TO.N,/D15*%
X45250000Y-168749998D03*
%TO.N,/D13*%
X42750000Y-168750000D03*
%TO.N,/CS_1*%
X42500000Y-150000000D03*
X41250000Y-155250000D03*
%TO.N,/D-*%
X34750000Y-158250000D03*
X38831092Y-158194649D03*
X43897926Y-156893741D03*
%TO.N,/D+*%
X34750000Y-160999998D03*
%TO.N,/D-*%
X53000000Y-154500000D03*
%TO.N,/D+*%
X51250000Y-153850000D03*
%TO.N,/+3v3*%
X45709620Y-156709620D03*
X52766277Y-155516277D03*
X50150000Y-155516277D03*
X52000000Y-162500000D03*
X50000000Y-162500000D03*
%TO.N,/SCL*%
X42241296Y-160670587D03*
X64250000Y-164000000D03*
%TO.N,/SDA*%
X40296296Y-160181706D03*
X63709620Y-162540380D03*
%TO.N,/SWDIO*%
X53000000Y-167000000D03*
X58750000Y-169500000D03*
%TO.N,/SWCLK*%
X51729147Y-167700000D03*
X56597919Y-169900000D03*
%TO.N,/~{RESET}*%
X21750000Y-165250000D03*
X39750000Y-165250000D03*
X44357806Y-166277046D03*
X51921275Y-166400000D03*
X58709311Y-168150000D03*
%TO.N,GND*%
X74000000Y-149250000D03*
X75250000Y-152500000D03*
%TO.N,/CS_3*%
X54500000Y-164750000D03*
X74750004Y-161901467D03*
%TO.N,/CS_2*%
X44617461Y-158012500D03*
X71750000Y-171000000D03*
%TO.N,/MOSI0*%
X66900000Y-165250000D03*
%TO.N,/XIN*%
X54500000Y-163899997D03*
X49029278Y-165600000D03*
%TO.N,/+3v3*%
X54500000Y-144500000D03*
X51750000Y-144500000D03*
X53500000Y-148000000D03*
X53500000Y-150250000D03*
%TO.N,/MISO0*%
X38885242Y-159064645D03*
%TO.N,/SCK0*%
X40098773Y-158450000D03*
%TO.N,/MISO0*%
X71000000Y-170150000D03*
X74000000Y-165750000D03*
X73851586Y-162545381D03*
X53800000Y-146250000D03*
%TO.N,/MOSI0*%
X40999807Y-158455516D03*
X75750000Y-162750000D03*
X55250000Y-153000000D03*
%TO.N,GND*%
X41750000Y-168000000D03*
X55000000Y-162250000D03*
%TO.N,/QSPI_CS*%
X36230238Y-155895246D03*
X34000000Y-151000000D03*
%TO.N,/QSPI_D1*%
X34750000Y-152250000D03*
X35000000Y-154000000D03*
%TO.N,/VBUS*%
X34750000Y-136250000D03*
X52500000Y-137000000D03*
%TO.N,/SCK0*%
X46000000Y-147250000D03*
%TO.N,GND*%
X67500000Y-166000000D03*
X60050000Y-166393178D03*
%TO.N,/SCK0*%
X76500000Y-163250000D03*
X71500000Y-164000000D03*
%TD*%
D17*
%TO.N,/SCL*%
X42241296Y-160670587D02*
X43967461Y-158944422D01*
X44348222Y-157362500D02*
X57612500Y-157362500D01*
X43967461Y-158944422D02*
X43967461Y-157743261D01*
X43967461Y-157743261D02*
X44348222Y-157362500D01*
X57612500Y-157362500D02*
X64250000Y-164000000D01*
%TO.N,/SDA*%
X44684314Y-153250000D02*
X42850000Y-155084314D01*
X42850000Y-157628002D02*
X40296296Y-160181706D01*
X63709620Y-162540380D02*
X54419240Y-153250000D01*
X42850000Y-155084314D02*
X42850000Y-157628002D01*
X54419240Y-153250000D02*
X44684314Y-153250000D01*
%TO.N,Net-(D1-K)*%
X31000000Y-134500000D02*
X31000000Y-140750000D01*
%TO.N,/D16*%
X40348529Y-176901471D02*
X38500000Y-178750000D01*
X42350000Y-166900000D02*
X42350000Y-168248529D01*
X42350000Y-168248529D02*
X40348529Y-170250000D01*
%TO.N,/D14*%
X37850000Y-180730761D02*
X37850000Y-181581500D01*
%TO.N,/D16*%
X54000000Y-165750000D02*
X50014710Y-165750000D01*
X40348529Y-170250000D02*
X40348529Y-176901471D01*
X44250000Y-165000000D02*
X42350000Y-166900000D01*
%TO.N,/D14*%
X38126752Y-180454009D02*
X37850000Y-180730761D01*
%TO.N,/D13*%
X42750000Y-175579823D02*
X38525814Y-179804009D01*
%TO.N,/D16*%
X45450000Y-166200000D02*
X44250000Y-165000000D01*
%TO.N,/D15*%
X45250000Y-168749998D02*
X45250000Y-176055809D01*
%TO.N,/D14*%
X44250000Y-168750000D02*
X44250000Y-174999062D01*
%TO.N,/D13*%
X42750000Y-168750000D02*
X42750000Y-175579823D01*
%TO.N,/D15*%
X40201800Y-181104009D02*
X38589252Y-181104009D01*
%TO.N,/D16*%
X50014710Y-165750000D02*
X49564710Y-166200000D01*
%TO.N,/D15*%
X45250000Y-176055809D02*
X40201800Y-181104009D01*
%TO.N,/D14*%
X44250000Y-174999062D02*
X38795053Y-180454009D01*
%TO.N,/D16*%
X49564710Y-166200000D02*
X45450000Y-166200000D01*
%TO.N,/D14*%
X37850000Y-181581500D02*
X38509252Y-182240752D01*
X38795053Y-180454009D02*
X38126752Y-180454009D01*
%TO.N,GND*%
X41750000Y-168000000D02*
X41750000Y-166934314D01*
X52650000Y-164600000D02*
X55000000Y-162250000D01*
%TO.N,/~{RESET}*%
X53084315Y-166150000D02*
X52171275Y-166150000D01*
%TO.N,/SWCLK*%
X53929147Y-169900000D02*
X51729147Y-167700000D01*
%TO.N,/XIN*%
X54500000Y-163899997D02*
X53249997Y-165150000D01*
%TO.N,/SWCLK*%
X56597919Y-169900000D02*
X53929147Y-169900000D01*
%TO.N,/XIN*%
X49479278Y-165150000D02*
X49029278Y-165600000D01*
%TO.N,GND*%
X41750000Y-166934314D02*
X44084314Y-164600000D01*
%TO.N,/~{RESET}*%
X52171275Y-166150000D02*
X51921275Y-166400000D01*
%TO.N,GND*%
X44084314Y-164600000D02*
X52650000Y-164600000D01*
%TO.N,/~{RESET}*%
X51671275Y-166650000D02*
X44730760Y-166650000D01*
X51921275Y-166400000D02*
X51671275Y-166650000D01*
X55084315Y-168150000D02*
X53084315Y-166150000D01*
X58709311Y-168150000D02*
X55084315Y-168150000D01*
%TO.N,/XIN*%
X53249997Y-165150000D02*
X49479278Y-165150000D01*
%TO.N,/~{RESET}*%
X44730760Y-166650000D02*
X44357806Y-166277046D01*
%TO.N,/CS_3*%
X74750004Y-161901467D02*
X75051471Y-161600000D01*
X63936176Y-167443178D02*
X57193178Y-167443178D01*
X77550000Y-166200000D02*
X72000000Y-171750000D01*
X57193178Y-167443178D02*
X54500000Y-164750000D01*
X76665686Y-161600000D02*
X77550000Y-162484314D01*
X75051471Y-161600000D02*
X76665686Y-161600000D01*
X72000000Y-171750000D02*
X68242998Y-171750000D01*
X77550000Y-162484314D02*
X77550000Y-166200000D01*
X68242998Y-171750000D02*
X63936176Y-167443178D01*
%TO.N,/SCK0*%
X40098773Y-149335542D02*
X40098773Y-158450000D01*
X46000000Y-147250000D02*
X42184315Y-147250000D01*
%TO.N,/CS_1*%
X41250000Y-151250000D02*
X42500000Y-150000000D01*
%TO.N,/MISO0*%
X42618629Y-146250000D02*
X39448773Y-149419856D01*
%TO.N,/SCK0*%
X42184315Y-147250000D02*
X40098773Y-149335542D01*
%TO.N,/MISO0*%
X53800000Y-146250000D02*
X42618629Y-146250000D01*
%TO.N,/CS_1*%
X41250000Y-155250000D02*
X41250000Y-151250000D01*
%TO.N,/MISO0*%
X39448773Y-149419856D02*
X39448773Y-158501114D01*
X39448773Y-158501114D02*
X38885242Y-159064645D01*
%TO.N,/D-*%
X34750000Y-158250000D02*
X38775741Y-158250000D01*
%TO.N,/CS_2*%
X59400000Y-166662417D02*
X59400000Y-165412417D01*
%TO.N,/D-*%
X38775741Y-158250000D02*
X38831092Y-158194649D01*
%TO.N,/MOSI0*%
X42450000Y-157365686D02*
X41360170Y-158455516D01*
%TO.N,/D-*%
X48000000Y-154250000D02*
X46500000Y-154250000D01*
%TO.N,/MOSI0*%
X54734925Y-153000000D02*
X54584926Y-152850000D01*
X44668629Y-152700000D02*
X42450000Y-154918629D01*
%TO.N,/CS_2*%
X52000083Y-158012500D02*
X44617461Y-158012500D01*
%TO.N,/D-*%
X46500000Y-154250000D02*
X43897926Y-156852074D01*
%TO.N,/MOSI0*%
X41360170Y-158455516D02*
X40999807Y-158455516D01*
%TO.N,/CS_2*%
X59400000Y-165412417D02*
X52000083Y-158012500D01*
%TO.N,/MOSI0*%
X52481372Y-152850000D02*
X52331372Y-152700000D01*
X55250000Y-153000000D02*
X54734925Y-153000000D01*
%TO.N,/CS_2*%
X68058684Y-171000000D02*
X64101862Y-167043178D01*
%TO.N,/MOSI0*%
X42450000Y-154918629D02*
X42450000Y-157365686D01*
X54584926Y-152850000D02*
X52481372Y-152850000D01*
%TO.N,/D-*%
X53000000Y-154500000D02*
X48250000Y-154500000D01*
%TO.N,/CS_2*%
X59780761Y-167043178D02*
X59400000Y-166662417D01*
X71750000Y-171000000D02*
X68058684Y-171000000D01*
%TO.N,/MOSI0*%
X52331372Y-152700000D02*
X44668629Y-152700000D01*
%TO.N,/CS_2*%
X64101862Y-167043178D02*
X59780761Y-167043178D01*
%TO.N,/D-*%
X43750000Y-157000000D02*
X43791667Y-157000000D01*
X48250000Y-154500000D02*
X48000000Y-154250000D01*
X43791667Y-157000000D02*
X43897926Y-156893741D01*
X43897926Y-156852074D02*
X43897926Y-156893741D01*
X43750000Y-157000000D02*
X43750000Y-157000000D01*
%TO.N,/D+*%
X44650000Y-153850000D02*
X51250000Y-153850000D01*
X43250000Y-158250000D02*
X43250000Y-155250000D01*
X40250000Y-161250000D02*
X43250000Y-158250000D01*
X43250000Y-155250000D02*
X44650000Y-153850000D01*
%TO.N,/+3v3*%
X52766277Y-155516277D02*
X50150000Y-155516277D01*
X50016277Y-155650000D02*
X50150000Y-155516277D01*
X45709620Y-156709620D02*
X46769240Y-155650000D01*
X46769240Y-155650000D02*
X50016277Y-155650000D01*
%TO.N,/D+*%
X40250000Y-161250000D02*
X35000002Y-161250000D01*
X35000002Y-161250000D02*
X34750000Y-160999998D01*
X40500000Y-161000000D02*
X40250000Y-161250000D01*
%TO.N,/QSPI_CS*%
X36046717Y-155895246D02*
X36230238Y-155895246D01*
X34000000Y-151000000D02*
X34000000Y-153848529D01*
X34000000Y-153848529D02*
X36046717Y-155895246D01*
%TO.N,unconnected-(J1-SHIELD-PadS1)*%
X23330000Y-163320000D02*
X23330000Y-154680000D01*
X23330000Y-163320000D02*
X27500000Y-163320000D01*
X27500000Y-154680000D02*
X23330000Y-154680000D01*
%TO.N,/+3v3*%
X50000000Y-162500000D02*
X52000000Y-162500000D01*
%TO.N,/SWDIO*%
X58750000Y-169500000D02*
X58500000Y-169250000D01*
X58500000Y-169250000D02*
X55250000Y-169250000D01*
X55250000Y-169250000D02*
X53000000Y-167000000D01*
%TO.N,GND*%
X67500000Y-166000000D02*
X60443178Y-166000000D01*
%TO.N,/MOSI0*%
X66850000Y-165200000D02*
X66900000Y-165250000D01*
X66850000Y-164600000D02*
X66850000Y-165200000D01*
%TO.N,GND*%
X60443178Y-166000000D02*
X60050000Y-166393178D01*
%TO.N,/~{RESET}*%
X39750000Y-165250000D02*
X21750000Y-165250000D01*
%TO.N,GND*%
X75250000Y-152500000D02*
X75250000Y-150500000D01*
X75250000Y-150500000D02*
X74000000Y-149250000D01*
%TO.N,/SCK0*%
X76500000Y-162580761D02*
X76500000Y-163250000D01*
X76019239Y-162100000D02*
X76500000Y-162580761D01*
X75480761Y-162100000D02*
X76019239Y-162100000D01*
%TO.N,/MOSI0*%
X73560942Y-164939058D02*
X75750000Y-162750000D01*
%TO.N,/SCK0*%
X71500000Y-164000000D02*
X73580761Y-164000000D01*
%TO.N,/MOSI0*%
X67189058Y-164939058D02*
X73560942Y-164939058D01*
%TO.N,/SCK0*%
X73580761Y-164000000D02*
X75480761Y-162100000D01*
%TO.N,/MOSI0*%
X66850000Y-164600000D02*
X67189058Y-164939058D01*
%TO.N,/MISO0*%
X53800000Y-146250000D02*
X54315685Y-146250000D01*
X54315685Y-146250000D02*
X70611066Y-162545381D01*
X70611066Y-162545381D02*
X73851586Y-162545381D01*
X71000000Y-168750000D02*
X71000000Y-170150000D01*
X74000000Y-165750000D02*
X71000000Y-168750000D01*
%TO.N,/+3v3*%
X51750000Y-144500000D02*
X54500000Y-144500000D01*
X53500000Y-150250000D02*
X53500000Y-148000000D01*
%TO.N,/MOSI0*%
X55250000Y-153000000D02*
X66850000Y-164600000D01*
%TO.N,/SCK0*%
X46000000Y-147250000D02*
X54750000Y-147250000D01*
X54750000Y-147250000D02*
X71500000Y-164000000D01*
%TO.N,/QSPI_D1*%
X34750000Y-153750000D02*
X35000000Y-154000000D01*
X34750000Y-152250000D02*
X34750000Y-153750000D01*
%TO.N,/VBUS*%
X35500000Y-137000000D02*
X34750000Y-136250000D01*
X52500000Y-137000000D02*
X35500000Y-137000000D01*
%TD*%
%TA.AperFunction,Conductor*%
%TO.N,GND*%
G36*
X57379442Y-157982685D02*
G01*
X57400084Y-157999319D01*
X63419298Y-164018534D01*
X63452783Y-164079857D01*
X63454837Y-164092331D01*
X63464630Y-164179249D01*
X63524210Y-164349521D01*
X63581329Y-164440425D01*
X63620184Y-164502262D01*
X63747738Y-164629816D01*
X63900478Y-164725789D01*
X64059074Y-164781284D01*
X64070745Y-164785368D01*
X64070750Y-164785369D01*
X64249996Y-164805565D01*
X64250000Y-164805565D01*
X64250004Y-164805565D01*
X64429249Y-164785369D01*
X64429252Y-164785368D01*
X64429255Y-164785368D01*
X64599522Y-164725789D01*
X64752262Y-164629816D01*
X64879816Y-164502262D01*
X64975789Y-164349522D01*
X65035368Y-164179255D01*
X65037276Y-164162322D01*
X65055565Y-164000003D01*
X65055565Y-163999999D01*
X65052837Y-163975788D01*
X65051408Y-163963108D01*
X65063462Y-163894288D01*
X65110810Y-163842908D01*
X65178420Y-163825283D01*
X65244826Y-163847008D01*
X65262309Y-163861544D01*
X66153306Y-164752541D01*
X66186791Y-164813864D01*
X66181807Y-164883556D01*
X66176690Y-164893945D01*
X66177231Y-164894206D01*
X66174210Y-164900478D01*
X66114633Y-165070737D01*
X66114630Y-165070750D01*
X66094435Y-165249996D01*
X66094435Y-165250003D01*
X66114630Y-165429249D01*
X66114631Y-165429254D01*
X66174211Y-165599523D01*
X66265471Y-165744761D01*
X66270184Y-165752262D01*
X66397738Y-165879816D01*
X66412552Y-165889124D01*
X66536396Y-165966941D01*
X66550478Y-165975789D01*
X66619452Y-165999924D01*
X66720745Y-166035368D01*
X66720750Y-166035369D01*
X66899996Y-166055565D01*
X66900000Y-166055565D01*
X66900004Y-166055565D01*
X67079249Y-166035369D01*
X67079252Y-166035368D01*
X67079255Y-166035368D01*
X67249522Y-165975789D01*
X67402262Y-165879816D01*
X67529816Y-165752262D01*
X67617919Y-165612047D01*
X67627006Y-165597586D01*
X67679341Y-165551295D01*
X67732000Y-165539558D01*
X73061843Y-165539558D01*
X73128882Y-165559243D01*
X73174637Y-165612047D01*
X73184581Y-165681205D01*
X73155556Y-165744761D01*
X73149524Y-165751239D01*
X70631286Y-168269478D01*
X70519481Y-168381282D01*
X70519477Y-168381287D01*
X70477196Y-168454522D01*
X70440424Y-168518211D01*
X70440423Y-168518212D01*
X70415868Y-168609851D01*
X70399499Y-168670943D01*
X70399499Y-168670945D01*
X70399499Y-168839046D01*
X70399500Y-168839059D01*
X70399500Y-169567587D01*
X70379815Y-169634626D01*
X70372450Y-169644896D01*
X70370186Y-169647734D01*
X70274211Y-169800476D01*
X70214631Y-169970745D01*
X70214630Y-169970750D01*
X70194435Y-170149996D01*
X70194435Y-170150002D01*
X70207011Y-170261616D01*
X70194957Y-170330438D01*
X70147608Y-170381818D01*
X70083791Y-170399500D01*
X68358781Y-170399500D01*
X68291742Y-170379815D01*
X68271100Y-170363181D01*
X64589452Y-166681533D01*
X64589450Y-166681530D01*
X64470579Y-166562659D01*
X64470578Y-166562658D01*
X64377346Y-166508831D01*
X64333647Y-166483601D01*
X64180919Y-166442677D01*
X64022805Y-166442677D01*
X64015209Y-166442677D01*
X64015193Y-166442678D01*
X60124500Y-166442678D01*
X60057461Y-166422993D01*
X60011706Y-166370189D01*
X60000500Y-166318678D01*
X60000500Y-165501476D01*
X60000501Y-165501463D01*
X60000501Y-165333362D01*
X60000501Y-165333360D01*
X59959577Y-165180632D01*
X59924677Y-165120184D01*
X59880520Y-165043701D01*
X59768716Y-164931897D01*
X59768715Y-164931896D01*
X59764385Y-164927566D01*
X59764374Y-164927556D01*
X53011499Y-158174681D01*
X52978014Y-158113358D01*
X52982998Y-158043666D01*
X53024870Y-157987733D01*
X53090334Y-157963316D01*
X53099180Y-157963000D01*
X57312403Y-157963000D01*
X57379442Y-157982685D01*
G37*
%TD.AperFunction*%
%TA.AperFunction,Conductor*%
G36*
X75002702Y-130500617D02*
G01*
X75386771Y-130517386D01*
X75397506Y-130518326D01*
X75775971Y-130568152D01*
X75786597Y-130570025D01*
X76159284Y-130652648D01*
X76169710Y-130655442D01*
X76533765Y-130770227D01*
X76543911Y-130773920D01*
X76896578Y-130920000D01*
X76906369Y-130924566D01*
X77244942Y-131100816D01*
X77254310Y-131106224D01*
X77576244Y-131311318D01*
X77585105Y-131317523D01*
X77887930Y-131549889D01*
X77896217Y-131556843D01*
X78177635Y-131814715D01*
X78185284Y-131822364D01*
X78443156Y-132103782D01*
X78450110Y-132112069D01*
X78682476Y-132414894D01*
X78688681Y-132423755D01*
X78893775Y-132745689D01*
X78899183Y-132755057D01*
X79075430Y-133093623D01*
X79080002Y-133103427D01*
X79226075Y-133456078D01*
X79229775Y-133466244D01*
X79344554Y-133830278D01*
X79347354Y-133840727D01*
X79429971Y-134213389D01*
X79431849Y-134224042D01*
X79481671Y-134602473D01*
X79482614Y-134613249D01*
X79499382Y-134997297D01*
X79499500Y-135002706D01*
X79499500Y-184997293D01*
X79499382Y-185002702D01*
X79482614Y-185386750D01*
X79481671Y-185397526D01*
X79431849Y-185775957D01*
X79429971Y-185786610D01*
X79347354Y-186159272D01*
X79344554Y-186169721D01*
X79229775Y-186533755D01*
X79226075Y-186543921D01*
X79080002Y-186896572D01*
X79075430Y-186906376D01*
X78899183Y-187244942D01*
X78893775Y-187254310D01*
X78688681Y-187576244D01*
X78682476Y-187585105D01*
X78450110Y-187887930D01*
X78443156Y-187896217D01*
X78185284Y-188177635D01*
X78177635Y-188185284D01*
X77896217Y-188443156D01*
X77887930Y-188450110D01*
X77585105Y-188682476D01*
X77576244Y-188688681D01*
X77254310Y-188893775D01*
X77244942Y-188899183D01*
X76906376Y-189075430D01*
X76896572Y-189080002D01*
X76543921Y-189226075D01*
X76533755Y-189229775D01*
X76169721Y-189344554D01*
X76159272Y-189347354D01*
X75786610Y-189429971D01*
X75775957Y-189431849D01*
X75397526Y-189481671D01*
X75386750Y-189482614D01*
X75002703Y-189499382D01*
X74997294Y-189499500D01*
X25002706Y-189499500D01*
X24997297Y-189499382D01*
X24613249Y-189482614D01*
X24602473Y-189481671D01*
X24224042Y-189431849D01*
X24213389Y-189429971D01*
X23840727Y-189347354D01*
X23830278Y-189344554D01*
X23466244Y-189229775D01*
X23456078Y-189226075D01*
X23103427Y-189080002D01*
X23093623Y-189075430D01*
X22755057Y-188899183D01*
X22745689Y-188893775D01*
X22423755Y-188688681D01*
X22414894Y-188682476D01*
X22112069Y-188450110D01*
X22103782Y-188443156D01*
X21822364Y-188185284D01*
X21814715Y-188177635D01*
X21556843Y-187896217D01*
X21549889Y-187887930D01*
X21317523Y-187585105D01*
X21311318Y-187576244D01*
X21106224Y-187254310D01*
X21100816Y-187244942D01*
X20924569Y-186906376D01*
X20919997Y-186896572D01*
X20773924Y-186543921D01*
X20770224Y-186533755D01*
X20655442Y-186169710D01*
X20652648Y-186159284D01*
X20570025Y-185786597D01*
X20568152Y-185775971D01*
X20518326Y-185397506D01*
X20517386Y-185386771D01*
X20500618Y-185002702D01*
X20500500Y-184997293D01*
X20500500Y-175250000D01*
X30244693Y-175250000D01*
X30263912Y-175665697D01*
X30263912Y-175665702D01*
X30263913Y-175665707D01*
X30321403Y-176077845D01*
X30321405Y-176077853D01*
X30416679Y-176482933D01*
X30548929Y-176877514D01*
X30717010Y-177258177D01*
X30717020Y-177258198D01*
X30919506Y-177621731D01*
X30919509Y-177621735D01*
X30919511Y-177621739D01*
X31154687Y-177965054D01*
X31154689Y-177965056D01*
X31154696Y-177965066D01*
X31416760Y-178280656D01*
X31420538Y-178285206D01*
X31714794Y-178579462D01*
X31714805Y-178579471D01*
X32034933Y-178845303D01*
X32034939Y-178845307D01*
X32034946Y-178845313D01*
X32378261Y-179080489D01*
X32378267Y-179080492D01*
X32378268Y-179080493D01*
X32649509Y-179231573D01*
X32741812Y-179282985D01*
X32784304Y-179301747D01*
X33122485Y-179451070D01*
X33122488Y-179451071D01*
X33122495Y-179451074D01*
X33517064Y-179583320D01*
X33922152Y-179678596D01*
X34334303Y-179736088D01*
X34750000Y-179755307D01*
X35165697Y-179736088D01*
X35577848Y-179678596D01*
X35982936Y-179583320D01*
X36377505Y-179451074D01*
X36758188Y-179282985D01*
X37121739Y-179080489D01*
X37465054Y-178845313D01*
X37507913Y-178809722D01*
X37572058Y-178782040D01*
X37640993Y-178793432D01*
X37692826Y-178840284D01*
X37710347Y-178891235D01*
X37714631Y-178929251D01*
X37714631Y-178929254D01*
X37774211Y-179099523D01*
X37857184Y-179231573D01*
X37876184Y-179298810D01*
X37857184Y-179363516D01*
X37800026Y-179454483D01*
X37740445Y-179624754D01*
X37740444Y-179624759D01*
X37720249Y-179804005D01*
X37720249Y-179804011D01*
X37734551Y-179930946D01*
X37722497Y-179999768D01*
X37699013Y-180032510D01*
X37646232Y-180085292D01*
X37646230Y-180085295D01*
X37369481Y-180362043D01*
X37369480Y-180362045D01*
X37328038Y-180433825D01*
X37290423Y-180498976D01*
X37249499Y-180651704D01*
X37249499Y-180651706D01*
X37249499Y-180819807D01*
X37249500Y-180819820D01*
X37249500Y-181494830D01*
X37249499Y-181494848D01*
X37249499Y-181660554D01*
X37249498Y-181660554D01*
X37261276Y-181704509D01*
X37290423Y-181813285D01*
X37294291Y-181819985D01*
X37299955Y-181829796D01*
X37299957Y-181829798D01*
X37369477Y-181950212D01*
X37369481Y-181950217D01*
X37488349Y-182069085D01*
X37488355Y-182069090D01*
X37678550Y-182259285D01*
X37712035Y-182320608D01*
X37714089Y-182333082D01*
X37723882Y-182420001D01*
X37783462Y-182590273D01*
X37879436Y-182743014D01*
X38006990Y-182870568D01*
X38159730Y-182966541D01*
X38329997Y-183026120D01*
X38330002Y-183026121D01*
X38509248Y-183046317D01*
X38509252Y-183046317D01*
X38509256Y-183046317D01*
X38688501Y-183026121D01*
X38688504Y-183026120D01*
X38688507Y-183026120D01*
X38858774Y-182966541D01*
X39011514Y-182870568D01*
X39139068Y-182743014D01*
X39235041Y-182590274D01*
X39294620Y-182420007D01*
X39304414Y-182333082D01*
X39314817Y-182240755D01*
X39314817Y-182240748D01*
X39294621Y-182061502D01*
X39294620Y-182061497D01*
X39235038Y-181891222D01*
X39232021Y-181884957D01*
X39234109Y-181883951D01*
X39218084Y-181827245D01*
X39238451Y-181760410D01*
X39291719Y-181715196D01*
X39342078Y-181704509D01*
X40115131Y-181704509D01*
X40115147Y-181704510D01*
X40122743Y-181704510D01*
X40280854Y-181704510D01*
X40280857Y-181704510D01*
X40433585Y-181663586D01*
X40495124Y-181628056D01*
X40570516Y-181584529D01*
X40682320Y-181472725D01*
X40682320Y-181472723D01*
X40692524Y-181462520D01*
X40692528Y-181462515D01*
X45608506Y-176546537D01*
X45608511Y-176546533D01*
X45618714Y-176536329D01*
X45618716Y-176536329D01*
X45730520Y-176424525D01*
X45778076Y-176342155D01*
X45801853Y-176300972D01*
X45801854Y-176300970D01*
X45809577Y-176287594D01*
X45850501Y-176134866D01*
X45850501Y-175976752D01*
X45850501Y-175969157D01*
X45850500Y-175969139D01*
X45850500Y-169332410D01*
X45870185Y-169265371D01*
X45877555Y-169255095D01*
X45879810Y-169252265D01*
X45879816Y-169252260D01*
X45975789Y-169099520D01*
X46035368Y-168929253D01*
X46039528Y-168892336D01*
X46055565Y-168750001D01*
X46055565Y-168749994D01*
X46035369Y-168570748D01*
X46035368Y-168570743D01*
X46016986Y-168518211D01*
X45975789Y-168400476D01*
X45879816Y-168247736D01*
X45752262Y-168120182D01*
X45599523Y-168024209D01*
X45429254Y-167964629D01*
X45429249Y-167964628D01*
X45250004Y-167944433D01*
X45249996Y-167944433D01*
X45070750Y-167964628D01*
X45070737Y-167964631D01*
X44900478Y-168024207D01*
X44815969Y-168077308D01*
X44748732Y-168096308D01*
X44684026Y-168077308D01*
X44599522Y-168024211D01*
X44599518Y-168024209D01*
X44429262Y-167964633D01*
X44429249Y-167964630D01*
X44250004Y-167944435D01*
X44249996Y-167944435D01*
X44070750Y-167964630D01*
X44070745Y-167964631D01*
X43900476Y-168024211D01*
X43747737Y-168120184D01*
X43620184Y-168247737D01*
X43604994Y-168271913D01*
X43552659Y-168318204D01*
X43483605Y-168328852D01*
X43419757Y-168300477D01*
X43395006Y-168271913D01*
X43379815Y-168247737D01*
X43252262Y-168120184D01*
X43099524Y-168024212D01*
X43099523Y-168024211D01*
X43033544Y-168001124D01*
X42976769Y-167960402D01*
X42951022Y-167895449D01*
X42950500Y-167884083D01*
X42950500Y-167200096D01*
X42970185Y-167133057D01*
X42986815Y-167112419D01*
X43460578Y-166638655D01*
X43521901Y-166605171D01*
X43591593Y-166610155D01*
X43647526Y-166652027D01*
X43653253Y-166660365D01*
X43662111Y-166674462D01*
X43727990Y-166779308D01*
X43855544Y-166906862D01*
X43945886Y-166963628D01*
X43986359Y-166989059D01*
X44008284Y-167002835D01*
X44178551Y-167062414D01*
X44265474Y-167072207D01*
X44329885Y-167099272D01*
X44339270Y-167107746D01*
X44362044Y-167130520D01*
X44362046Y-167130521D01*
X44362050Y-167130524D01*
X44482554Y-167200096D01*
X44498976Y-167209577D01*
X44651703Y-167250501D01*
X44651705Y-167250501D01*
X44817414Y-167250501D01*
X44817430Y-167250500D01*
X50863580Y-167250500D01*
X50930619Y-167270185D01*
X50976374Y-167322989D01*
X50986318Y-167392147D01*
X50980621Y-167415455D01*
X50943780Y-167520737D01*
X50943777Y-167520750D01*
X50923582Y-167699996D01*
X50923582Y-167700003D01*
X50943777Y-167879249D01*
X50943778Y-167879254D01*
X51003358Y-168049523D01*
X51068877Y-168153795D01*
X51099331Y-168202262D01*
X51226885Y-168329816D01*
X51379625Y-168425789D01*
X51549892Y-168485368D01*
X51636816Y-168495161D01*
X51701227Y-168522226D01*
X51710612Y-168530700D01*
X53444286Y-170264374D01*
X53444296Y-170264385D01*
X53448626Y-170268715D01*
X53448627Y-170268716D01*
X53560431Y-170380520D01*
X53631691Y-170421661D01*
X53647242Y-170430639D01*
X53647244Y-170430641D01*
X53681055Y-170450162D01*
X53697362Y-170459577D01*
X53850090Y-170500501D01*
X53850093Y-170500501D01*
X54015800Y-170500501D01*
X54015816Y-170500500D01*
X56015507Y-170500500D01*
X56082546Y-170520185D01*
X56092822Y-170527555D01*
X56095655Y-170529814D01*
X56095657Y-170529816D01*
X56248397Y-170625789D01*
X56267142Y-170632348D01*
X56418664Y-170685368D01*
X56418669Y-170685369D01*
X56597915Y-170705565D01*
X56597919Y-170705565D01*
X56597923Y-170705565D01*
X56777168Y-170685369D01*
X56777171Y-170685368D01*
X56777174Y-170685368D01*
X56947441Y-170625789D01*
X57100181Y-170529816D01*
X57227735Y-170402262D01*
X57323708Y-170249522D01*
X57383287Y-170079255D01*
X57383288Y-170079250D01*
X57396655Y-169960616D01*
X57423722Y-169896202D01*
X57481316Y-169856647D01*
X57519875Y-169850500D01*
X57956293Y-169850500D01*
X58023332Y-169870185D01*
X58061287Y-169908528D01*
X58120184Y-170002262D01*
X58247738Y-170129816D01*
X58336120Y-170185350D01*
X58382721Y-170214632D01*
X58400478Y-170225789D01*
X58538860Y-170274211D01*
X58570745Y-170285368D01*
X58570750Y-170285369D01*
X58749996Y-170305565D01*
X58750000Y-170305565D01*
X58750004Y-170305565D01*
X58929249Y-170285369D01*
X58929252Y-170285368D01*
X58929255Y-170285368D01*
X59099522Y-170225789D01*
X59252262Y-170129816D01*
X59379816Y-170002262D01*
X59475789Y-169849522D01*
X59535368Y-169679255D01*
X59538920Y-169647734D01*
X59555565Y-169500003D01*
X59555565Y-169499996D01*
X59535369Y-169320750D01*
X59535368Y-169320745D01*
X59511404Y-169252260D01*
X59475789Y-169150478D01*
X59379816Y-168997738D01*
X59274414Y-168892336D01*
X59240929Y-168831013D01*
X59245913Y-168761321D01*
X59274410Y-168716978D01*
X59339127Y-168652262D01*
X59435100Y-168499522D01*
X59494679Y-168329255D01*
X59494680Y-168329249D01*
X59514449Y-168153795D01*
X59541515Y-168089381D01*
X59599110Y-168049825D01*
X59637669Y-168043678D01*
X63636079Y-168043678D01*
X63703118Y-168063363D01*
X63723760Y-168079997D01*
X66276111Y-170632348D01*
X66309596Y-170693671D01*
X66304612Y-170763363D01*
X66262740Y-170819296D01*
X66197276Y-170843713D01*
X66160041Y-170840735D01*
X66077858Y-170821406D01*
X66077845Y-170821403D01*
X65665707Y-170763913D01*
X65665702Y-170763912D01*
X65665697Y-170763912D01*
X65250000Y-170744693D01*
X64834303Y-170763912D01*
X64834297Y-170763912D01*
X64834292Y-170763913D01*
X64422154Y-170821403D01*
X64422146Y-170821405D01*
X64017066Y-170916679D01*
X63622485Y-171048929D01*
X63241822Y-171217010D01*
X63241801Y-171217020D01*
X62878268Y-171419506D01*
X62878262Y-171419510D01*
X62534943Y-171654689D01*
X62534933Y-171654696D01*
X62214805Y-171920528D01*
X62214785Y-171920546D01*
X61920546Y-172214785D01*
X61920528Y-172214805D01*
X61654696Y-172534933D01*
X61654689Y-172534943D01*
X61419510Y-172878262D01*
X61419506Y-172878268D01*
X61217020Y-173241801D01*
X61217010Y-173241822D01*
X61048929Y-173622485D01*
X60916679Y-174017066D01*
X60821405Y-174422146D01*
X60821403Y-174422154D01*
X60763913Y-174834292D01*
X60763912Y-174834297D01*
X60763912Y-174834303D01*
X60744693Y-175250000D01*
X60763912Y-175665697D01*
X60763912Y-175665702D01*
X60763913Y-175665707D01*
X60821403Y-176077845D01*
X60821405Y-176077853D01*
X60916679Y-176482933D01*
X61048929Y-176877514D01*
X61217010Y-177258177D01*
X61217020Y-177258198D01*
X61419506Y-177621731D01*
X61419509Y-177621735D01*
X61419511Y-177621739D01*
X61654687Y-177965054D01*
X61654689Y-177965056D01*
X61654696Y-177965066D01*
X61916760Y-178280656D01*
X61920538Y-178285206D01*
X62214794Y-178579462D01*
X62214805Y-178579471D01*
X62534933Y-178845303D01*
X62534939Y-178845307D01*
X62534946Y-178845313D01*
X62878261Y-179080489D01*
X62878267Y-179080492D01*
X62878268Y-179080493D01*
X63149509Y-179231573D01*
X63241812Y-179282985D01*
X63284304Y-179301747D01*
X63622485Y-179451070D01*
X63622488Y-179451071D01*
X63622495Y-179451074D01*
X64017064Y-179583320D01*
X64422152Y-179678596D01*
X64834303Y-179736088D01*
X65250000Y-179755307D01*
X65665697Y-179736088D01*
X66077848Y-179678596D01*
X66482936Y-179583320D01*
X66877505Y-179451074D01*
X67258188Y-179282985D01*
X67621739Y-179080489D01*
X67965054Y-178845313D01*
X68285206Y-178579462D01*
X68579462Y-178285206D01*
X68845313Y-177965054D01*
X69080489Y-177621739D01*
X69282985Y-177258188D01*
X69451074Y-176877505D01*
X69583320Y-176482936D01*
X69678596Y-176077848D01*
X69736088Y-175665697D01*
X69755307Y-175250000D01*
X69736088Y-174834303D01*
X69678596Y-174422152D01*
X69583320Y-174017064D01*
X69451074Y-173622495D01*
X69282985Y-173241812D01*
X69097263Y-172908377D01*
X69080493Y-172878268D01*
X69080492Y-172878267D01*
X69080489Y-172878261D01*
X68851909Y-172544575D01*
X68830264Y-172478145D01*
X68847969Y-172410556D01*
X68899405Y-172363269D01*
X68954210Y-172350500D01*
X71913331Y-172350500D01*
X71913347Y-172350501D01*
X71920943Y-172350501D01*
X72079054Y-172350501D01*
X72079057Y-172350501D01*
X72231785Y-172309577D01*
X72281904Y-172280639D01*
X72368716Y-172230520D01*
X72480520Y-172118716D01*
X72480520Y-172118714D01*
X72490728Y-172108507D01*
X72490730Y-172108504D01*
X77908506Y-166690728D01*
X77908511Y-166690724D01*
X77918714Y-166680520D01*
X77918716Y-166680520D01*
X78030520Y-166568716D01*
X78092873Y-166460717D01*
X78103288Y-166442678D01*
X78109576Y-166431787D01*
X78110628Y-166427862D01*
X78150500Y-166279058D01*
X78150500Y-166120943D01*
X78150500Y-166120942D01*
X78150500Y-162573373D01*
X78150501Y-162573360D01*
X78150501Y-162405259D01*
X78150501Y-162405257D01*
X78109577Y-162252529D01*
X78073720Y-162190423D01*
X78030520Y-162115598D01*
X77918716Y-162003794D01*
X77918715Y-162003793D01*
X77914385Y-161999463D01*
X77914374Y-161999453D01*
X77153276Y-161238355D01*
X77153274Y-161238352D01*
X77034403Y-161119481D01*
X77034402Y-161119480D01*
X76947590Y-161069360D01*
X76947590Y-161069359D01*
X76947586Y-161069358D01*
X76897471Y-161040423D01*
X76744743Y-160999499D01*
X76586629Y-160999499D01*
X76579033Y-160999499D01*
X76579017Y-160999500D01*
X75138141Y-160999500D01*
X75138125Y-160999499D01*
X75130529Y-160999499D01*
X74972414Y-160999499D01*
X74912341Y-161015596D01*
X74819685Y-161040423D01*
X74819682Y-161040425D01*
X74739593Y-161086663D01*
X74691479Y-161102495D01*
X74570754Y-161116097D01*
X74400482Y-161175677D01*
X74247741Y-161271651D01*
X74120188Y-161399204D01*
X74024215Y-161551943D01*
X73987082Y-161658065D01*
X73946360Y-161714841D01*
X73881407Y-161740588D01*
X73856164Y-161740331D01*
X73851591Y-161739816D01*
X73851582Y-161739816D01*
X73672336Y-161760011D01*
X73672331Y-161760012D01*
X73502062Y-161819592D01*
X73349322Y-161915566D01*
X73346489Y-161917826D01*
X73344310Y-161918715D01*
X73343428Y-161919270D01*
X73343330Y-161919115D01*
X73281803Y-161944236D01*
X73269174Y-161944881D01*
X70911163Y-161944881D01*
X70844124Y-161925196D01*
X70823482Y-161908562D01*
X54803275Y-145888355D01*
X54803273Y-145888352D01*
X54684402Y-145769481D01*
X54684394Y-145769475D01*
X54582621Y-145710717D01*
X54582619Y-145710716D01*
X54547475Y-145690425D01*
X54547474Y-145690424D01*
X54534948Y-145687067D01*
X54394742Y-145649499D01*
X54394739Y-145649499D01*
X54382411Y-145649499D01*
X54315372Y-145629814D01*
X54305097Y-145622445D01*
X54302262Y-145620184D01*
X54149523Y-145524211D01*
X53979254Y-145464631D01*
X53979249Y-145464630D01*
X53800004Y-145444435D01*
X53799996Y-145444435D01*
X53620750Y-145464630D01*
X53620745Y-145464631D01*
X53450476Y-145524211D01*
X53297736Y-145620185D01*
X53294903Y-145622445D01*
X53292724Y-145623334D01*
X53291842Y-145623889D01*
X53291744Y-145623734D01*
X53230217Y-145648855D01*
X53217588Y-145649500D01*
X42539569Y-145649500D01*
X42498648Y-145660464D01*
X42498648Y-145660465D01*
X42461380Y-145670451D01*
X42386843Y-145690423D01*
X42386838Y-145690426D01*
X42249919Y-145769475D01*
X42249911Y-145769481D01*
X38968254Y-149051138D01*
X38968252Y-149051141D01*
X38918134Y-149137950D01*
X38918132Y-149137952D01*
X38889198Y-149188065D01*
X38889197Y-149188066D01*
X38882079Y-149214630D01*
X38848272Y-149340799D01*
X38848272Y-149340801D01*
X38848272Y-149508902D01*
X38848273Y-149508915D01*
X38848273Y-157276334D01*
X38828588Y-157343373D01*
X38775784Y-157389128D01*
X38738157Y-157399554D01*
X38651841Y-157409279D01*
X38651837Y-157409280D01*
X38481568Y-157468860D01*
X38328829Y-157564833D01*
X38280482Y-157613181D01*
X38219159Y-157646666D01*
X38192801Y-157649500D01*
X35332412Y-157649500D01*
X35265373Y-157629815D01*
X35255097Y-157622445D01*
X35252263Y-157620185D01*
X35252262Y-157620184D01*
X35195496Y-157584515D01*
X35099523Y-157524211D01*
X34929254Y-157464631D01*
X34929249Y-157464630D01*
X34750004Y-157444435D01*
X34749996Y-157444435D01*
X34570750Y-157464630D01*
X34570745Y-157464631D01*
X34400476Y-157524211D01*
X34247737Y-157620184D01*
X34120184Y-157747737D01*
X34024211Y-157900476D01*
X33964631Y-158070745D01*
X33964630Y-158070750D01*
X33944435Y-158249996D01*
X33944435Y-158250003D01*
X33964630Y-158429249D01*
X33964631Y-158429254D01*
X34024211Y-158599523D01*
X34111404Y-158738289D01*
X34120184Y-158752262D01*
X34247738Y-158879816D01*
X34400478Y-158975789D01*
X34436470Y-158988383D01*
X34570745Y-159035368D01*
X34570750Y-159035369D01*
X34749996Y-159055565D01*
X34750000Y-159055565D01*
X34750004Y-159055565D01*
X34929249Y-159035369D01*
X34929252Y-159035368D01*
X34929255Y-159035368D01*
X35099522Y-158975789D01*
X35252262Y-158879816D01*
X35252267Y-158879810D01*
X35255097Y-158877555D01*
X35257275Y-158876665D01*
X35258158Y-158876111D01*
X35258255Y-158876265D01*
X35319783Y-158851145D01*
X35332412Y-158850500D01*
X37965049Y-158850500D01*
X38032088Y-158870185D01*
X38077843Y-158922989D01*
X38088269Y-158988383D01*
X38079677Y-159064641D01*
X38079677Y-159064648D01*
X38099872Y-159243894D01*
X38099873Y-159243899D01*
X38159453Y-159414168D01*
X38185686Y-159455917D01*
X38255426Y-159566907D01*
X38382980Y-159694461D01*
X38535720Y-159790434D01*
X38655035Y-159832184D01*
X38705987Y-159850013D01*
X38705992Y-159850014D01*
X38885238Y-159870210D01*
X38885242Y-159870210D01*
X38885246Y-159870210D01*
X39064491Y-159850014D01*
X39064494Y-159850013D01*
X39064497Y-159850013D01*
X39234764Y-159790434D01*
X39383801Y-159696787D01*
X39451036Y-159677787D01*
X39517871Y-159698154D01*
X39563085Y-159751422D01*
X39572324Y-159820678D01*
X39566814Y-159842735D01*
X39510928Y-160002448D01*
X39510926Y-160002456D01*
X39490731Y-160181702D01*
X39490731Y-160181709D01*
X39510926Y-160360955D01*
X39510927Y-160360960D01*
X39554172Y-160484545D01*
X39557733Y-160554324D01*
X39523004Y-160614952D01*
X39461011Y-160647179D01*
X39437130Y-160649500D01*
X35543708Y-160649500D01*
X35476669Y-160629815D01*
X35438714Y-160591472D01*
X35415372Y-160554324D01*
X35379816Y-160497736D01*
X35252262Y-160370182D01*
X35237577Y-160360955D01*
X35099523Y-160274209D01*
X34929254Y-160214629D01*
X34929249Y-160214628D01*
X34750004Y-160194433D01*
X34749996Y-160194433D01*
X34570750Y-160214628D01*
X34570745Y-160214629D01*
X34400476Y-160274209D01*
X34247737Y-160370182D01*
X34120184Y-160497735D01*
X34024211Y-160650474D01*
X33964631Y-160820743D01*
X33964630Y-160820748D01*
X33944435Y-160999994D01*
X33944435Y-161000001D01*
X33964630Y-161179247D01*
X33964631Y-161179252D01*
X34024211Y-161349521D01*
X34091089Y-161455956D01*
X34120184Y-161502260D01*
X34247738Y-161629814D01*
X34292699Y-161658065D01*
X34383057Y-161714841D01*
X34400478Y-161725787D01*
X34538860Y-161774209D01*
X34570745Y-161785366D01*
X34570750Y-161785367D01*
X34746351Y-161805152D01*
X34764561Y-161808597D01*
X34768215Y-161809576D01*
X34768217Y-161809577D01*
X34920944Y-161850500D01*
X34920945Y-161850500D01*
X40163331Y-161850500D01*
X40163347Y-161850501D01*
X40170943Y-161850501D01*
X40329054Y-161850501D01*
X40329057Y-161850501D01*
X40481785Y-161809577D01*
X40543040Y-161774211D01*
X40618716Y-161730520D01*
X40730520Y-161618716D01*
X40730520Y-161618714D01*
X40740721Y-161608514D01*
X40740724Y-161608509D01*
X40980519Y-161368716D01*
X40980518Y-161368716D01*
X41039087Y-161310147D01*
X41333639Y-161015594D01*
X41394960Y-160982111D01*
X41464652Y-160987095D01*
X41520585Y-161028967D01*
X41526311Y-161037304D01*
X41611480Y-161172849D01*
X41739034Y-161300403D01*
X41891774Y-161396376D01*
X42043559Y-161449488D01*
X42062041Y-161455955D01*
X42062046Y-161455956D01*
X42241292Y-161476152D01*
X42241296Y-161476152D01*
X42241300Y-161476152D01*
X42420545Y-161455956D01*
X42420548Y-161455955D01*
X42420551Y-161455955D01*
X42590818Y-161396376D01*
X42743558Y-161300403D01*
X42871112Y-161172849D01*
X42967085Y-161020109D01*
X43026664Y-160849842D01*
X43036457Y-160762916D01*
X43063522Y-160698505D01*
X43071986Y-160689130D01*
X44325967Y-159435150D01*
X44325972Y-159435146D01*
X44336175Y-159424942D01*
X44336177Y-159424942D01*
X44447981Y-159313138D01*
X44500909Y-159221463D01*
X44527038Y-159176207D01*
X44567962Y-159023479D01*
X44567962Y-158934455D01*
X44587647Y-158867416D01*
X44640451Y-158821661D01*
X44678079Y-158811235D01*
X44796710Y-158797869D01*
X44796713Y-158797868D01*
X44796716Y-158797868D01*
X44966983Y-158738289D01*
X45119723Y-158642316D01*
X45119728Y-158642310D01*
X45122558Y-158640055D01*
X45124736Y-158639165D01*
X45125619Y-158638611D01*
X45125716Y-158638765D01*
X45187244Y-158613645D01*
X45199873Y-158613000D01*
X51699986Y-158613000D01*
X51767025Y-158632685D01*
X51787667Y-158649319D01*
X58763181Y-165624833D01*
X58796666Y-165686156D01*
X58799500Y-165712514D01*
X58799500Y-166575747D01*
X58799499Y-166575765D01*
X58799499Y-166718678D01*
X58779814Y-166785717D01*
X58727010Y-166831472D01*
X58675499Y-166842678D01*
X57493275Y-166842678D01*
X57426236Y-166822993D01*
X57405594Y-166806359D01*
X55330700Y-164731465D01*
X55297215Y-164670142D01*
X55295163Y-164657686D01*
X55285368Y-164570745D01*
X55225789Y-164400478D01*
X55219813Y-164390967D01*
X55200815Y-164323730D01*
X55219817Y-164259023D01*
X55225789Y-164249519D01*
X55285368Y-164079252D01*
X55285369Y-164079246D01*
X55305565Y-163900000D01*
X55305565Y-163899993D01*
X55285369Y-163720747D01*
X55285368Y-163720742D01*
X55264442Y-163660940D01*
X55225789Y-163550475D01*
X55129816Y-163397735D01*
X55002262Y-163270181D01*
X54931611Y-163225788D01*
X54849523Y-163174208D01*
X54679254Y-163114628D01*
X54679249Y-163114627D01*
X54500004Y-163094432D01*
X54499996Y-163094432D01*
X54320750Y-163114627D01*
X54320745Y-163114628D01*
X54150476Y-163174208D01*
X53997737Y-163270181D01*
X53870184Y-163397734D01*
X53774210Y-163550475D01*
X53714630Y-163720747D01*
X53704837Y-163807665D01*
X53677770Y-163872079D01*
X53669298Y-163881462D01*
X53037581Y-164513181D01*
X52976258Y-164546666D01*
X52949900Y-164549500D01*
X49558335Y-164549500D01*
X49400221Y-164549500D01*
X49247493Y-164590423D01*
X49247492Y-164590423D01*
X49247490Y-164590424D01*
X49247487Y-164590425D01*
X49197374Y-164619359D01*
X49197373Y-164619360D01*
X49168436Y-164636066D01*
X49110564Y-164669478D01*
X49010743Y-164769299D01*
X48949420Y-164802783D01*
X48936946Y-164804837D01*
X48850028Y-164814630D01*
X48679756Y-164874210D01*
X48527015Y-164970184D01*
X48399462Y-165097737D01*
X48303488Y-165250478D01*
X48243908Y-165420750D01*
X48236176Y-165489383D01*
X48209110Y-165553797D01*
X48151515Y-165593352D01*
X48112956Y-165599500D01*
X45750097Y-165599500D01*
X45683058Y-165579815D01*
X45662416Y-165563181D01*
X44737590Y-164638355D01*
X44737588Y-164638352D01*
X44618718Y-164519482D01*
X44618716Y-164519480D01*
X44481785Y-164440423D01*
X44329058Y-164399499D01*
X44329057Y-164399499D01*
X44170943Y-164399499D01*
X44063587Y-164428265D01*
X44018210Y-164440424D01*
X44018209Y-164440425D01*
X43976285Y-164464631D01*
X43976283Y-164464632D01*
X43881290Y-164519475D01*
X43881282Y-164519481D01*
X41869481Y-166531282D01*
X41869479Y-166531285D01*
X41860282Y-166547215D01*
X41839417Y-166583356D01*
X41819361Y-166618094D01*
X41819359Y-166618096D01*
X41790425Y-166668209D01*
X41790424Y-166668210D01*
X41784389Y-166690732D01*
X41749499Y-166820943D01*
X41749499Y-166820945D01*
X41749499Y-166989046D01*
X41749500Y-166989059D01*
X41749500Y-167948431D01*
X41729815Y-168015470D01*
X41713181Y-168036112D01*
X39868010Y-169881282D01*
X39868008Y-169881284D01*
X39852280Y-169908528D01*
X39837268Y-169934530D01*
X39788952Y-170018215D01*
X39748028Y-170170943D01*
X39748028Y-170170945D01*
X39748028Y-170339046D01*
X39748029Y-170339059D01*
X39748029Y-176601373D01*
X39728344Y-176668412D01*
X39711710Y-176689054D01*
X38959429Y-177441334D01*
X38898106Y-177474819D01*
X38828414Y-177469835D01*
X38772481Y-177427963D01*
X38748064Y-177362499D01*
X38762916Y-177294226D01*
X38763309Y-177293512D01*
X38782985Y-177258188D01*
X38951074Y-176877505D01*
X39083320Y-176482936D01*
X39178596Y-176077848D01*
X39236088Y-175665697D01*
X39255307Y-175250000D01*
X39236088Y-174834303D01*
X39178596Y-174422152D01*
X39083320Y-174017064D01*
X38951074Y-173622495D01*
X38782985Y-173241812D01*
X38597263Y-172908377D01*
X38580493Y-172878268D01*
X38580492Y-172878267D01*
X38580489Y-172878261D01*
X38345313Y-172534946D01*
X38345307Y-172534939D01*
X38345303Y-172534933D01*
X38079471Y-172214805D01*
X38079462Y-172214794D01*
X37785206Y-171920538D01*
X37672529Y-171826972D01*
X37465066Y-171654696D01*
X37465056Y-171654689D01*
X37465054Y-171654687D01*
X37121739Y-171419511D01*
X37121735Y-171419509D01*
X37121731Y-171419506D01*
X36758198Y-171217020D01*
X36758177Y-171217010D01*
X36377514Y-171048929D01*
X35982933Y-170916679D01*
X35577853Y-170821405D01*
X35577845Y-170821403D01*
X35165707Y-170763913D01*
X35165702Y-170763912D01*
X35165697Y-170763912D01*
X34750000Y-170744693D01*
X34334303Y-170763912D01*
X34334297Y-170763912D01*
X34334292Y-170763913D01*
X33922154Y-170821403D01*
X33922146Y-170821405D01*
X33517066Y-170916679D01*
X33122485Y-171048929D01*
X32741822Y-171217010D01*
X32741801Y-171217020D01*
X32378268Y-171419506D01*
X32378262Y-171419510D01*
X32034943Y-171654689D01*
X32034933Y-171654696D01*
X31714805Y-171920528D01*
X31714785Y-171920546D01*
X31420546Y-172214785D01*
X31420528Y-172214805D01*
X31154696Y-172534933D01*
X31154689Y-172534943D01*
X30919510Y-172878262D01*
X30919506Y-172878268D01*
X30717020Y-173241801D01*
X30717010Y-173241822D01*
X30548929Y-173622485D01*
X30416679Y-174017066D01*
X30321405Y-174422146D01*
X30321403Y-174422154D01*
X30263913Y-174834292D01*
X30263912Y-174834297D01*
X30263912Y-174834303D01*
X30244693Y-175250000D01*
X20500500Y-175250000D01*
X20500500Y-165249996D01*
X20944435Y-165249996D01*
X20944435Y-165250003D01*
X20964630Y-165429249D01*
X20964631Y-165429254D01*
X21024211Y-165599523D01*
X21115471Y-165744761D01*
X21120184Y-165752262D01*
X21247738Y-165879816D01*
X21262552Y-165889124D01*
X21386396Y-165966941D01*
X21400478Y-165975789D01*
X21469452Y-165999924D01*
X21570745Y-166035368D01*
X21570750Y-166035369D01*
X21749996Y-166055565D01*
X21750000Y-166055565D01*
X21750004Y-166055565D01*
X21929249Y-166035369D01*
X21929252Y-166035368D01*
X21929255Y-166035368D01*
X22099522Y-165975789D01*
X22252262Y-165879816D01*
X22252267Y-165879810D01*
X22255097Y-165877555D01*
X22257275Y-165876665D01*
X22258158Y-165876111D01*
X22258255Y-165876265D01*
X22319783Y-165851145D01*
X22332412Y-165850500D01*
X39167588Y-165850500D01*
X39234627Y-165870185D01*
X39244903Y-165877555D01*
X39247736Y-165879814D01*
X39247738Y-165879816D01*
X39326410Y-165929249D01*
X39386396Y-165966941D01*
X39400478Y-165975789D01*
X39469452Y-165999924D01*
X39570745Y-166035368D01*
X39570750Y-166035369D01*
X39749996Y-166055565D01*
X39750000Y-166055565D01*
X39750004Y-166055565D01*
X39929249Y-166035369D01*
X39929252Y-166035368D01*
X39929255Y-166035368D01*
X40099522Y-165975789D01*
X40252262Y-165879816D01*
X40379816Y-165752262D01*
X40475789Y-165599522D01*
X40535368Y-165429255D01*
X40535369Y-165429249D01*
X40555565Y-165250003D01*
X40555565Y-165249996D01*
X40535369Y-165070750D01*
X40535368Y-165070745D01*
X40486782Y-164931895D01*
X40475789Y-164900478D01*
X40379816Y-164747738D01*
X40252262Y-164620184D01*
X40204901Y-164590425D01*
X40099523Y-164524211D01*
X39929254Y-164464631D01*
X39929249Y-164464630D01*
X39750004Y-164444435D01*
X39749996Y-164444435D01*
X39570750Y-164464630D01*
X39570745Y-164464631D01*
X39400476Y-164524211D01*
X39247736Y-164620185D01*
X39244903Y-164622445D01*
X39242724Y-164623334D01*
X39241842Y-164623889D01*
X39241744Y-164623734D01*
X39180217Y-164648855D01*
X39167588Y-164649500D01*
X22332412Y-164649500D01*
X22265373Y-164629815D01*
X22255097Y-164622445D01*
X22252263Y-164620185D01*
X22252262Y-164620184D01*
X22195496Y-164584515D01*
X22099523Y-164524211D01*
X21929254Y-164464631D01*
X21929249Y-164464630D01*
X21750004Y-164444435D01*
X21749996Y-164444435D01*
X21570750Y-164464630D01*
X21570745Y-164464631D01*
X21400476Y-164524211D01*
X21247737Y-164620184D01*
X21120184Y-164747737D01*
X21024211Y-164900476D01*
X20964631Y-165070745D01*
X20964630Y-165070750D01*
X20944435Y-165249996D01*
X20500500Y-165249996D01*
X20500500Y-154586379D01*
X21979500Y-154586379D01*
X21979500Y-154773620D01*
X22016025Y-154957243D01*
X22016027Y-154957251D01*
X22087676Y-155130228D01*
X22087681Y-155130237D01*
X22191697Y-155285907D01*
X22191700Y-155285911D01*
X22324088Y-155418299D01*
X22324092Y-155418302D01*
X22479762Y-155522318D01*
X22479768Y-155522321D01*
X22479769Y-155522322D01*
X22652749Y-155593973D01*
X22652751Y-155593973D01*
X22652953Y-155594057D01*
X22707356Y-155637898D01*
X22729421Y-155704192D01*
X22729500Y-155708618D01*
X22729500Y-162291381D01*
X22709815Y-162358420D01*
X22657011Y-162404175D01*
X22652953Y-162405942D01*
X22479772Y-162477676D01*
X22479762Y-162477681D01*
X22324092Y-162581697D01*
X22324088Y-162581700D01*
X22191700Y-162714088D01*
X22191697Y-162714092D01*
X22087681Y-162869762D01*
X22087676Y-162869771D01*
X22016027Y-163042748D01*
X22016025Y-163042756D01*
X21979500Y-163226379D01*
X21979500Y-163413620D01*
X22016025Y-163597243D01*
X22016027Y-163597251D01*
X22087676Y-163770228D01*
X22087681Y-163770237D01*
X22191697Y-163925907D01*
X22191700Y-163925911D01*
X22324088Y-164058299D01*
X22324092Y-164058302D01*
X22479762Y-164162318D01*
X22479768Y-164162321D01*
X22479769Y-164162322D01*
X22652749Y-164233973D01*
X22778685Y-164259023D01*
X22836379Y-164270499D01*
X22836383Y-164270500D01*
X22836384Y-164270500D01*
X23823617Y-164270500D01*
X23823618Y-164270499D01*
X24007251Y-164233973D01*
X24180231Y-164162322D01*
X24335908Y-164058302D01*
X24437392Y-163956817D01*
X24498713Y-163923334D01*
X24525072Y-163920500D01*
X26154928Y-163920500D01*
X26221967Y-163940185D01*
X26242604Y-163956814D01*
X26304323Y-164018533D01*
X26344093Y-164058303D01*
X26499762Y-164162318D01*
X26499768Y-164162321D01*
X26499769Y-164162322D01*
X26672749Y-164233973D01*
X26798685Y-164259023D01*
X26856379Y-164270499D01*
X26856383Y-164270500D01*
X26856384Y-164270500D01*
X28143617Y-164270500D01*
X28143618Y-164270499D01*
X28327251Y-164233973D01*
X28500231Y-164162322D01*
X28655908Y-164058302D01*
X28788302Y-163925908D01*
X28892322Y-163770231D01*
X28963973Y-163597251D01*
X29000500Y-163413616D01*
X29000500Y-163226384D01*
X28963973Y-163042749D01*
X28892322Y-162869769D01*
X28892321Y-162869768D01*
X28892318Y-162869762D01*
X28788302Y-162714092D01*
X28788299Y-162714088D01*
X28655911Y-162581700D01*
X28655907Y-162581697D01*
X28533634Y-162499996D01*
X49194435Y-162499996D01*
X49194435Y-162500003D01*
X49214630Y-162679249D01*
X49214631Y-162679254D01*
X49274211Y-162849523D01*
X49286933Y-162869769D01*
X49370184Y-163002262D01*
X49497738Y-163129816D01*
X49569961Y-163175197D01*
X49632721Y-163214632D01*
X49650478Y-163225789D01*
X49734173Y-163255075D01*
X49820745Y-163285368D01*
X49820750Y-163285369D01*
X49999996Y-163305565D01*
X50000000Y-163305565D01*
X50000004Y-163305565D01*
X50179249Y-163285369D01*
X50179252Y-163285368D01*
X50179255Y-163285368D01*
X50349522Y-163225789D01*
X50502262Y-163129816D01*
X50502267Y-163129810D01*
X50505097Y-163127555D01*
X50507275Y-163126665D01*
X50508158Y-163126111D01*
X50508255Y-163126265D01*
X50569783Y-163101145D01*
X50582412Y-163100500D01*
X51417588Y-163100500D01*
X51484627Y-163120185D01*
X51494903Y-163127555D01*
X51497736Y-163129814D01*
X51497738Y-163129816D01*
X51650478Y-163225789D01*
X51734173Y-163255075D01*
X51820745Y-163285368D01*
X51820750Y-163285369D01*
X51999996Y-163305565D01*
X52000000Y-163305565D01*
X52000004Y-163305565D01*
X52179249Y-163285369D01*
X52179252Y-163285368D01*
X52179255Y-163285368D01*
X52349522Y-163225789D01*
X52502262Y-163129816D01*
X52629816Y-163002262D01*
X52725789Y-162849522D01*
X52785368Y-162679255D01*
X52797298Y-162573373D01*
X52805565Y-162500003D01*
X52805565Y-162499996D01*
X52785369Y-162320750D01*
X52785368Y-162320745D01*
X52752864Y-162227853D01*
X52725789Y-162150478D01*
X52703872Y-162115598D01*
X52630900Y-161999463D01*
X52629816Y-161997738D01*
X52502262Y-161870184D01*
X52470934Y-161850499D01*
X52349523Y-161774211D01*
X52179254Y-161714631D01*
X52179249Y-161714630D01*
X52000004Y-161694435D01*
X51999996Y-161694435D01*
X51820750Y-161714630D01*
X51820745Y-161714631D01*
X51650476Y-161774211D01*
X51497736Y-161870185D01*
X51494903Y-161872445D01*
X51492724Y-161873334D01*
X51491842Y-161873889D01*
X51491744Y-161873734D01*
X51430217Y-161898855D01*
X51417588Y-161899500D01*
X50582412Y-161899500D01*
X50515373Y-161879815D01*
X50505097Y-161872445D01*
X50502263Y-161870185D01*
X50502262Y-161870184D01*
X50445496Y-161834515D01*
X50349523Y-161774211D01*
X50179254Y-161714631D01*
X50179249Y-161714630D01*
X50000004Y-161694435D01*
X49999996Y-161694435D01*
X49820750Y-161714630D01*
X49820745Y-161714631D01*
X49650476Y-161774211D01*
X49497737Y-161870184D01*
X49370184Y-161997737D01*
X49274211Y-162150476D01*
X49214631Y-162320745D01*
X49214630Y-162320750D01*
X49194435Y-162499996D01*
X28533634Y-162499996D01*
X28500237Y-162477681D01*
X28500228Y-162477676D01*
X28327251Y-162406027D01*
X28327243Y-162406025D01*
X28143620Y-162369500D01*
X28143616Y-162369500D01*
X27593597Y-162369500D01*
X27526558Y-162349815D01*
X27480803Y-162297011D01*
X27470859Y-162227853D01*
X27486210Y-162183499D01*
X27532984Y-162102485D01*
X27570500Y-161962475D01*
X27570500Y-161817525D01*
X27532984Y-161677515D01*
X27499036Y-161618716D01*
X27460511Y-161551988D01*
X27460506Y-161551982D01*
X27358017Y-161449493D01*
X27358011Y-161449488D01*
X27232488Y-161377017D01*
X27232489Y-161377017D01*
X27201509Y-161368716D01*
X27092475Y-161339500D01*
X26947525Y-161339500D01*
X26838491Y-161368716D01*
X26807511Y-161377017D01*
X26681988Y-161449488D01*
X26681982Y-161449493D01*
X26579493Y-161551982D01*
X26579488Y-161551988D01*
X26507017Y-161677511D01*
X26507016Y-161677515D01*
X26469500Y-161817525D01*
X26469500Y-161962475D01*
X26480572Y-162003794D01*
X26507017Y-162102488D01*
X26579488Y-162228011D01*
X26579493Y-162228017D01*
X26601455Y-162249979D01*
X26634940Y-162311302D01*
X26629956Y-162380994D01*
X26588084Y-162436927D01*
X26561227Y-162452221D01*
X26499772Y-162477676D01*
X26499762Y-162477681D01*
X26344093Y-162581696D01*
X26293351Y-162632438D01*
X26242607Y-162683182D01*
X26181287Y-162716666D01*
X26154928Y-162719500D01*
X24525072Y-162719500D01*
X24458033Y-162699815D01*
X24437395Y-162683185D01*
X24335908Y-162581698D01*
X24335907Y-162581697D01*
X24335906Y-162581696D01*
X24180237Y-162477681D01*
X24180227Y-162477676D01*
X24007047Y-162405942D01*
X23952644Y-162362101D01*
X23930579Y-162295806D01*
X23930500Y-162291381D01*
X23930500Y-155708618D01*
X23950185Y-155641579D01*
X24002989Y-155595824D01*
X24007047Y-155594057D01*
X24007248Y-155593973D01*
X24007251Y-155593973D01*
X24180231Y-155522322D01*
X24335908Y-155418302D01*
X24437392Y-155316817D01*
X24498713Y-155283334D01*
X24525072Y-155280500D01*
X26154928Y-155280500D01*
X26221967Y-155300185D01*
X26242604Y-155316814D01*
X26318773Y-155392983D01*
X26344093Y-155418303D01*
X26499762Y-155522318D01*
X26499769Y-155522322D01*
X26561227Y-155547779D01*
X26615629Y-155591618D01*
X26637695Y-155657912D01*
X26620417Y-155725611D01*
X26601457Y-155750019D01*
X26579488Y-155771988D01*
X26507017Y-155897511D01*
X26507016Y-155897515D01*
X26469500Y-156037525D01*
X26469500Y-156182475D01*
X26501432Y-156301645D01*
X26507017Y-156322488D01*
X26579488Y-156448011D01*
X26579490Y-156448013D01*
X26579491Y-156448015D01*
X26681985Y-156550509D01*
X26681986Y-156550510D01*
X26681988Y-156550511D01*
X26807511Y-156622982D01*
X26807512Y-156622982D01*
X26807515Y-156622984D01*
X26947525Y-156660500D01*
X26947528Y-156660500D01*
X27092472Y-156660500D01*
X27092475Y-156660500D01*
X27232485Y-156622984D01*
X27358015Y-156550509D01*
X27460509Y-156448015D01*
X27532984Y-156322485D01*
X27570500Y-156182475D01*
X27570500Y-156037525D01*
X27532984Y-155897515D01*
X27486209Y-155816499D01*
X27469737Y-155748600D01*
X27492589Y-155682573D01*
X27547510Y-155639383D01*
X27593597Y-155630500D01*
X28143617Y-155630500D01*
X28143618Y-155630499D01*
X28327251Y-155593973D01*
X28500231Y-155522322D01*
X28655908Y-155418302D01*
X28788302Y-155285908D01*
X28892322Y-155130231D01*
X28963973Y-154957251D01*
X29000500Y-154773616D01*
X29000500Y-154586384D01*
X28963973Y-154402749D01*
X28892322Y-154229769D01*
X28892321Y-154229768D01*
X28892318Y-154229762D01*
X28788302Y-154074092D01*
X28788299Y-154074088D01*
X28655911Y-153941700D01*
X28655907Y-153941697D01*
X28500237Y-153837681D01*
X28500228Y-153837676D01*
X28327251Y-153766027D01*
X28327243Y-153766025D01*
X28143620Y-153729500D01*
X28143616Y-153729500D01*
X26856384Y-153729500D01*
X26856379Y-153729500D01*
X26672756Y-153766025D01*
X26672748Y-153766027D01*
X26499771Y-153837676D01*
X26499762Y-153837681D01*
X26344093Y-153941696D01*
X26312554Y-153973236D01*
X26242607Y-154043182D01*
X26181287Y-154076666D01*
X26154928Y-154079500D01*
X24525072Y-154079500D01*
X24458033Y-154059815D01*
X24437395Y-154043185D01*
X24335908Y-153941698D01*
X24335907Y-153941697D01*
X24335906Y-153941696D01*
X24180237Y-153837681D01*
X24180228Y-153837676D01*
X24007251Y-153766027D01*
X24007243Y-153766025D01*
X23823620Y-153729500D01*
X23823616Y-153729500D01*
X22836384Y-153729500D01*
X22836379Y-153729500D01*
X22652756Y-153766025D01*
X22652748Y-153766027D01*
X22479771Y-153837676D01*
X22479762Y-153837681D01*
X22324092Y-153941697D01*
X22324088Y-153941700D01*
X22191700Y-154074088D01*
X22191697Y-154074092D01*
X22087681Y-154229762D01*
X22087676Y-154229771D01*
X22016027Y-154402748D01*
X22016025Y-154402756D01*
X21979500Y-154586379D01*
X20500500Y-154586379D01*
X20500500Y-150999996D01*
X33194435Y-150999996D01*
X33194435Y-151000003D01*
X33214630Y-151179249D01*
X33214631Y-151179254D01*
X33274211Y-151349523D01*
X33323869Y-151428552D01*
X33346539Y-151464632D01*
X33370185Y-151502263D01*
X33372445Y-151505097D01*
X33373334Y-151507275D01*
X33373889Y-151508158D01*
X33373734Y-151508255D01*
X33398855Y-151569783D01*
X33399500Y-151582412D01*
X33399500Y-153761859D01*
X33399499Y-153761877D01*
X33399499Y-153927583D01*
X33399498Y-153927583D01*
X33440423Y-154080314D01*
X33462593Y-154118712D01*
X33462594Y-154118716D01*
X33519475Y-154217238D01*
X33519481Y-154217246D01*
X33638349Y-154336114D01*
X33638355Y-154336119D01*
X35461530Y-156159294D01*
X35490890Y-156206019D01*
X35504449Y-156244769D01*
X35504450Y-156244770D01*
X35530871Y-156286819D01*
X35600422Y-156397508D01*
X35727976Y-156525062D01*
X35768470Y-156550506D01*
X35879630Y-156620353D01*
X35880716Y-156621035D01*
X36050983Y-156680614D01*
X36050988Y-156680615D01*
X36230234Y-156700811D01*
X36230238Y-156700811D01*
X36230242Y-156700811D01*
X36409487Y-156680615D01*
X36409490Y-156680614D01*
X36409493Y-156680614D01*
X36579760Y-156621035D01*
X36732500Y-156525062D01*
X36860054Y-156397508D01*
X36956027Y-156244768D01*
X37015606Y-156074501D01*
X37015607Y-156074495D01*
X37035803Y-155895249D01*
X37035803Y-155895242D01*
X37015607Y-155715996D01*
X37015606Y-155715991D01*
X37008445Y-155695526D01*
X36956027Y-155545724D01*
X36860054Y-155392984D01*
X36732500Y-155265430D01*
X36660974Y-155220487D01*
X36579761Y-155169457D01*
X36409492Y-155109877D01*
X36409487Y-155109876D01*
X36230242Y-155089681D01*
X36230235Y-155089681D01*
X36163887Y-155097156D01*
X36095065Y-155085101D01*
X36062323Y-155061617D01*
X35650791Y-154650085D01*
X35617306Y-154588762D01*
X35622290Y-154519070D01*
X35633475Y-154496437D01*
X35707658Y-154378377D01*
X35725788Y-154349524D01*
X35730479Y-154336119D01*
X35785368Y-154179255D01*
X35785369Y-154179249D01*
X35805565Y-154000003D01*
X35805565Y-153999996D01*
X35785369Y-153820750D01*
X35785368Y-153820745D01*
X35725788Y-153650476D01*
X35629815Y-153497737D01*
X35502260Y-153370182D01*
X35502258Y-153370181D01*
X35408527Y-153311285D01*
X35362237Y-153258951D01*
X35350500Y-153206292D01*
X35350500Y-152832412D01*
X35370185Y-152765373D01*
X35377555Y-152755097D01*
X35379810Y-152752267D01*
X35379816Y-152752262D01*
X35475789Y-152599522D01*
X35535368Y-152429255D01*
X35542024Y-152370184D01*
X35555565Y-152250003D01*
X35555565Y-152249996D01*
X35535369Y-152070750D01*
X35535368Y-152070745D01*
X35475788Y-151900476D01*
X35379815Y-151747737D01*
X35252262Y-151620184D01*
X35099523Y-151524211D01*
X34929254Y-151464631D01*
X34929250Y-151464630D01*
X34849269Y-151455619D01*
X34784855Y-151428552D01*
X34745300Y-151370957D01*
X34743163Y-151301120D01*
X34746112Y-151291444D01*
X34785366Y-151179262D01*
X34785369Y-151179249D01*
X34805565Y-151000003D01*
X34805565Y-150999996D01*
X34785369Y-150820750D01*
X34785368Y-150820745D01*
X34772989Y-150785367D01*
X34725789Y-150650478D01*
X34629816Y-150497738D01*
X34502262Y-150370184D01*
X34469379Y-150349522D01*
X34349523Y-150274211D01*
X34179254Y-150214631D01*
X34179249Y-150214630D01*
X34000004Y-150194435D01*
X33999996Y-150194435D01*
X33820750Y-150214630D01*
X33820745Y-150214631D01*
X33650476Y-150274211D01*
X33497737Y-150370184D01*
X33370184Y-150497737D01*
X33274211Y-150650476D01*
X33214631Y-150820745D01*
X33214630Y-150820750D01*
X33194435Y-150999996D01*
X20500500Y-150999996D01*
X20500500Y-135002706D01*
X20500618Y-134997297D01*
X20507070Y-134849522D01*
X20517386Y-134613226D01*
X20518326Y-134602495D01*
X20531820Y-134499996D01*
X30194435Y-134499996D01*
X30194435Y-134500003D01*
X30214630Y-134679249D01*
X30214631Y-134679254D01*
X30274211Y-134849523D01*
X30327360Y-134934108D01*
X30367064Y-134997297D01*
X30370185Y-135002263D01*
X30372445Y-135005097D01*
X30373334Y-135007275D01*
X30373889Y-135008158D01*
X30373734Y-135008255D01*
X30398855Y-135069783D01*
X30399500Y-135082412D01*
X30399500Y-140167587D01*
X30379815Y-140234626D01*
X30372450Y-140244896D01*
X30370186Y-140247734D01*
X30274211Y-140400476D01*
X30214631Y-140570745D01*
X30214630Y-140570750D01*
X30194435Y-140749996D01*
X30194435Y-140750003D01*
X30214630Y-140929249D01*
X30214631Y-140929254D01*
X30274211Y-141099523D01*
X30321343Y-141174532D01*
X30370184Y-141252262D01*
X30497738Y-141379816D01*
X30650478Y-141475789D01*
X30820739Y-141535366D01*
X30820745Y-141535368D01*
X30820750Y-141535369D01*
X30999996Y-141555565D01*
X31000000Y-141555565D01*
X31000004Y-141555565D01*
X31179249Y-141535369D01*
X31179251Y-141535368D01*
X31179255Y-141535368D01*
X31179258Y-141535366D01*
X31179262Y-141535366D01*
X31313622Y-141488351D01*
X31383400Y-141484788D01*
X31444028Y-141519517D01*
X31476256Y-141581510D01*
X31469851Y-141651086D01*
X31442260Y-141693071D01*
X31420547Y-141714784D01*
X31420528Y-141714805D01*
X31154696Y-142034933D01*
X31154689Y-142034943D01*
X30919510Y-142378262D01*
X30919506Y-142378268D01*
X30717020Y-142741801D01*
X30717010Y-142741822D01*
X30548929Y-143122485D01*
X30416679Y-143517066D01*
X30321405Y-143922146D01*
X30321403Y-143922154D01*
X30263913Y-144334292D01*
X30263912Y-144334297D01*
X30263912Y-144334303D01*
X30244693Y-144750000D01*
X30263912Y-145165697D01*
X30263912Y-145165702D01*
X30263913Y-145165707D01*
X30321403Y-145577845D01*
X30321405Y-145577853D01*
X30416679Y-145982933D01*
X30548929Y-146377514D01*
X30717010Y-146758177D01*
X30717020Y-146758198D01*
X30919506Y-147121731D01*
X30919509Y-147121735D01*
X30919511Y-147121739D01*
X31154687Y-147465054D01*
X31154689Y-147465056D01*
X31154696Y-147465066D01*
X31416760Y-147780656D01*
X31420538Y-147785206D01*
X31714794Y-148079462D01*
X31714805Y-148079471D01*
X32034933Y-148345303D01*
X32034939Y-148345307D01*
X32034946Y-148345313D01*
X32378261Y-148580489D01*
X32741812Y-148782985D01*
X32793730Y-148805909D01*
X33122485Y-148951070D01*
X33122488Y-148951071D01*
X33122495Y-148951074D01*
X33517064Y-149083320D01*
X33922152Y-149178596D01*
X34334303Y-149236088D01*
X34750000Y-149255307D01*
X35165697Y-149236088D01*
X35577848Y-149178596D01*
X35982936Y-149083320D01*
X36377505Y-148951074D01*
X36758188Y-148782985D01*
X37121739Y-148580489D01*
X37465054Y-148345313D01*
X37785206Y-148079462D01*
X38079462Y-147785206D01*
X38345313Y-147465054D01*
X38580489Y-147121739D01*
X38782985Y-146758188D01*
X38951074Y-146377505D01*
X39083320Y-145982936D01*
X39178596Y-145577848D01*
X39236088Y-145165697D01*
X39255307Y-144750000D01*
X39243749Y-144499996D01*
X50944435Y-144499996D01*
X50944435Y-144500003D01*
X50964630Y-144679249D01*
X50964631Y-144679254D01*
X51024211Y-144849523D01*
X51120184Y-145002262D01*
X51247738Y-145129816D01*
X51400478Y-145225789D01*
X51570745Y-145285368D01*
X51570750Y-145285369D01*
X51749996Y-145305565D01*
X51750000Y-145305565D01*
X51750004Y-145305565D01*
X51929249Y-145285369D01*
X51929252Y-145285368D01*
X51929255Y-145285368D01*
X52099522Y-145225789D01*
X52252262Y-145129816D01*
X52252267Y-145129810D01*
X52255097Y-145127555D01*
X52257275Y-145126665D01*
X52258158Y-145126111D01*
X52258255Y-145126265D01*
X52319783Y-145101145D01*
X52332412Y-145100500D01*
X53917588Y-145100500D01*
X53984627Y-145120185D01*
X53994903Y-145127555D01*
X53997736Y-145129814D01*
X53997738Y-145129816D01*
X54150478Y-145225789D01*
X54320745Y-145285368D01*
X54320750Y-145285369D01*
X54499996Y-145305565D01*
X54500000Y-145305565D01*
X54500004Y-145305565D01*
X54679249Y-145285369D01*
X54679252Y-145285368D01*
X54679255Y-145285368D01*
X54849522Y-145225789D01*
X55002262Y-145129816D01*
X55129816Y-145002262D01*
X55225789Y-144849522D01*
X55260613Y-144750000D01*
X60744693Y-144750000D01*
X60763912Y-145165697D01*
X60763912Y-145165702D01*
X60763913Y-145165707D01*
X60821403Y-145577845D01*
X60821405Y-145577853D01*
X60916679Y-145982933D01*
X61048929Y-146377514D01*
X61217010Y-146758177D01*
X61217020Y-146758198D01*
X61419506Y-147121731D01*
X61419509Y-147121735D01*
X61419511Y-147121739D01*
X61654687Y-147465054D01*
X61654689Y-147465056D01*
X61654696Y-147465066D01*
X61916760Y-147780656D01*
X61920538Y-147785206D01*
X62214794Y-148079462D01*
X62214805Y-148079471D01*
X62534933Y-148345303D01*
X62534939Y-148345307D01*
X62534946Y-148345313D01*
X62878261Y-148580489D01*
X63241812Y-148782985D01*
X63293730Y-148805909D01*
X63622485Y-148951070D01*
X63622488Y-148951071D01*
X63622495Y-148951074D01*
X64017064Y-149083320D01*
X64422152Y-149178596D01*
X64834303Y-149236088D01*
X65250000Y-149255307D01*
X65665697Y-149236088D01*
X66077848Y-149178596D01*
X66482936Y-149083320D01*
X66877505Y-148951074D01*
X67258188Y-148782985D01*
X67621739Y-148580489D01*
X67965054Y-148345313D01*
X68285206Y-148079462D01*
X68579462Y-147785206D01*
X68845313Y-147465054D01*
X69080489Y-147121739D01*
X69282985Y-146758188D01*
X69451074Y-146377505D01*
X69583320Y-145982936D01*
X69678596Y-145577848D01*
X69736088Y-145165697D01*
X69755307Y-144750000D01*
X69736088Y-144334303D01*
X69678596Y-143922152D01*
X69583320Y-143517064D01*
X69451074Y-143122495D01*
X69282985Y-142741812D01*
X69097263Y-142408377D01*
X69080493Y-142378268D01*
X69080492Y-142378267D01*
X69080489Y-142378261D01*
X68845313Y-142034946D01*
X68845307Y-142034939D01*
X68845303Y-142034933D01*
X68579471Y-141714805D01*
X68579462Y-141714794D01*
X68285206Y-141420538D01*
X68285194Y-141420528D01*
X67965066Y-141154696D01*
X67965056Y-141154689D01*
X67965054Y-141154687D01*
X67621739Y-140919511D01*
X67621735Y-140919509D01*
X67621731Y-140919506D01*
X67258198Y-140717020D01*
X67258177Y-140717010D01*
X66877514Y-140548929D01*
X66482933Y-140416679D01*
X66077853Y-140321405D01*
X66077845Y-140321403D01*
X65665707Y-140263913D01*
X65665702Y-140263912D01*
X65665697Y-140263912D01*
X65250000Y-140244693D01*
X64834303Y-140263912D01*
X64834297Y-140263912D01*
X64834292Y-140263913D01*
X64422154Y-140321403D01*
X64422146Y-140321405D01*
X64017066Y-140416679D01*
X63622485Y-140548929D01*
X63241822Y-140717010D01*
X63241801Y-140717020D01*
X62878268Y-140919506D01*
X62878262Y-140919510D01*
X62534943Y-141154689D01*
X62534933Y-141154696D01*
X62214805Y-141420528D01*
X62214785Y-141420546D01*
X61920546Y-141714785D01*
X61920528Y-141714805D01*
X61654696Y-142034933D01*
X61654689Y-142034943D01*
X61419510Y-142378262D01*
X61419506Y-142378268D01*
X61217020Y-142741801D01*
X61217010Y-142741822D01*
X61048929Y-143122485D01*
X60916679Y-143517066D01*
X60821405Y-143922146D01*
X60821403Y-143922154D01*
X60763913Y-144334292D01*
X60763912Y-144334297D01*
X60763912Y-144334303D01*
X60744693Y-144750000D01*
X55260613Y-144750000D01*
X55285368Y-144679255D01*
X55305565Y-144500000D01*
X55286894Y-144334292D01*
X55285369Y-144320750D01*
X55285368Y-144320745D01*
X55225788Y-144150476D01*
X55129815Y-143997737D01*
X55002262Y-143870184D01*
X54849523Y-143774211D01*
X54679254Y-143714631D01*
X54679249Y-143714630D01*
X54500004Y-143694435D01*
X54499996Y-143694435D01*
X54320750Y-143714630D01*
X54320745Y-143714631D01*
X54150476Y-143774211D01*
X53997736Y-143870185D01*
X53994903Y-143872445D01*
X53992724Y-143873334D01*
X53991842Y-143873889D01*
X53991744Y-143873734D01*
X53930217Y-143898855D01*
X53917588Y-143899500D01*
X52332412Y-143899500D01*
X52265373Y-143879815D01*
X52255097Y-143872445D01*
X52252263Y-143870185D01*
X52252262Y-143870184D01*
X52195496Y-143834515D01*
X52099523Y-143774211D01*
X51929254Y-143714631D01*
X51929249Y-143714630D01*
X51750004Y-143694435D01*
X51749996Y-143694435D01*
X51570750Y-143714630D01*
X51570745Y-143714631D01*
X51400476Y-143774211D01*
X51247737Y-143870184D01*
X51120184Y-143997737D01*
X51024211Y-144150476D01*
X50964631Y-144320745D01*
X50964630Y-144320750D01*
X50944435Y-144499996D01*
X39243749Y-144499996D01*
X39236088Y-144334303D01*
X39178596Y-143922152D01*
X39083320Y-143517064D01*
X38951074Y-143122495D01*
X38782985Y-142741812D01*
X38637156Y-142479998D01*
X44044532Y-142479998D01*
X44044532Y-142480001D01*
X44064364Y-142706686D01*
X44064366Y-142706697D01*
X44123258Y-142926488D01*
X44123261Y-142926497D01*
X44219431Y-143132732D01*
X44219432Y-143132734D01*
X44349954Y-143319141D01*
X44510858Y-143480045D01*
X44510861Y-143480047D01*
X44697266Y-143610568D01*
X44903504Y-143706739D01*
X45123308Y-143765635D01*
X45285230Y-143779801D01*
X45349998Y-143785468D01*
X45350000Y-143785468D01*
X45350002Y-143785468D01*
X45406673Y-143780509D01*
X45576692Y-143765635D01*
X45796496Y-143706739D01*
X46002734Y-143610568D01*
X46189139Y-143480047D01*
X46350047Y-143319139D01*
X46480568Y-143132734D01*
X46576739Y-142926496D01*
X46635635Y-142706692D01*
X46655468Y-142480000D01*
X46635635Y-142253308D01*
X46590916Y-142086415D01*
X46576741Y-142033511D01*
X46576738Y-142033502D01*
X46480568Y-141827267D01*
X46480567Y-141827265D01*
X46386604Y-141693071D01*
X46350047Y-141640861D01*
X46350045Y-141640858D01*
X46189141Y-141479954D01*
X46002734Y-141349432D01*
X46002732Y-141349431D01*
X45796497Y-141253261D01*
X45796488Y-141253258D01*
X45576697Y-141194366D01*
X45576693Y-141194365D01*
X45576692Y-141194365D01*
X45576691Y-141194364D01*
X45576686Y-141194364D01*
X45350002Y-141174532D01*
X45349998Y-141174532D01*
X45123313Y-141194364D01*
X45123302Y-141194366D01*
X44903511Y-141253258D01*
X44903502Y-141253261D01*
X44697267Y-141349431D01*
X44697265Y-141349432D01*
X44510858Y-141479954D01*
X44349954Y-141640858D01*
X44219432Y-141827265D01*
X44219431Y-141827267D01*
X44123261Y-142033502D01*
X44123258Y-142033511D01*
X44064366Y-142253302D01*
X44064364Y-142253313D01*
X44044532Y-142479998D01*
X38637156Y-142479998D01*
X38597263Y-142408377D01*
X38580493Y-142378268D01*
X38580492Y-142378267D01*
X38580489Y-142378261D01*
X38345313Y-142034946D01*
X38345307Y-142034939D01*
X38345303Y-142034933D01*
X38079471Y-141714805D01*
X38079462Y-141714794D01*
X37785206Y-141420538D01*
X37785194Y-141420528D01*
X37465066Y-141154696D01*
X37465056Y-141154689D01*
X37465054Y-141154687D01*
X37121739Y-140919511D01*
X37121735Y-140919509D01*
X37121731Y-140919506D01*
X36758198Y-140717020D01*
X36758177Y-140717010D01*
X36377514Y-140548929D01*
X35982933Y-140416679D01*
X35577853Y-140321405D01*
X35577845Y-140321403D01*
X35165707Y-140263913D01*
X35165702Y-140263912D01*
X35165697Y-140263912D01*
X34750000Y-140244693D01*
X34334303Y-140263912D01*
X34334297Y-140263912D01*
X34334292Y-140263913D01*
X33922154Y-140321403D01*
X33922146Y-140321405D01*
X33517066Y-140416679D01*
X33122485Y-140548929D01*
X32741822Y-140717010D01*
X32741801Y-140717020D01*
X32378268Y-140919506D01*
X32378262Y-140919510D01*
X32034943Y-141154689D01*
X32034933Y-141154696D01*
X31913220Y-141255766D01*
X31849069Y-141283450D01*
X31780134Y-141272057D01*
X31728303Y-141225203D01*
X31710030Y-141157765D01*
X31725251Y-141106990D01*
X31722769Y-141105795D01*
X31725786Y-141099529D01*
X31725787Y-141099523D01*
X31725789Y-141099522D01*
X31785368Y-140929255D01*
X31786466Y-140919510D01*
X31805565Y-140750003D01*
X31805565Y-140749996D01*
X31785369Y-140570750D01*
X31785368Y-140570745D01*
X31725788Y-140400476D01*
X31639979Y-140263913D01*
X31629816Y-140247738D01*
X31629814Y-140247736D01*
X31629813Y-140247734D01*
X31627550Y-140244896D01*
X31626659Y-140242715D01*
X31626111Y-140241842D01*
X31626264Y-140241745D01*
X31601144Y-140180209D01*
X31600500Y-140167587D01*
X31600500Y-136249996D01*
X33944435Y-136249996D01*
X33944435Y-136250003D01*
X33964630Y-136429249D01*
X33964631Y-136429254D01*
X34024211Y-136599523D01*
X34120184Y-136752262D01*
X34247738Y-136879816D01*
X34400478Y-136975789D01*
X34570745Y-137035368D01*
X34657669Y-137045161D01*
X34722080Y-137072226D01*
X34731465Y-137080700D01*
X35015139Y-137364374D01*
X35015149Y-137364385D01*
X35019479Y-137368715D01*
X35019480Y-137368716D01*
X35131284Y-137480520D01*
X35218095Y-137530639D01*
X35218097Y-137530641D01*
X35256151Y-137552611D01*
X35268215Y-137559577D01*
X35420943Y-137600500D01*
X51917588Y-137600500D01*
X51984627Y-137620185D01*
X51994903Y-137627555D01*
X51997736Y-137629814D01*
X51997738Y-137629816D01*
X52150478Y-137725789D01*
X52320745Y-137785368D01*
X52320750Y-137785369D01*
X52499996Y-137805565D01*
X52500000Y-137805565D01*
X52500004Y-137805565D01*
X52679249Y-137785369D01*
X52679252Y-137785368D01*
X52679255Y-137785368D01*
X52849522Y-137725789D01*
X53002262Y-137629816D01*
X53129816Y-137502262D01*
X53225789Y-137349522D01*
X53285368Y-137179255D01*
X53285369Y-137179249D01*
X53305565Y-137000003D01*
X53305565Y-136999996D01*
X53285369Y-136820750D01*
X53285368Y-136820745D01*
X53225788Y-136650476D01*
X53129815Y-136497737D01*
X53002262Y-136370184D01*
X52849523Y-136274211D01*
X52679254Y-136214631D01*
X52679249Y-136214630D01*
X52500004Y-136194435D01*
X52499996Y-136194435D01*
X52320750Y-136214630D01*
X52320745Y-136214631D01*
X52150476Y-136274211D01*
X51997736Y-136370185D01*
X51994903Y-136372445D01*
X51992724Y-136373334D01*
X51991842Y-136373889D01*
X51991744Y-136373734D01*
X51930217Y-136398855D01*
X51917588Y-136399500D01*
X35800097Y-136399500D01*
X35733058Y-136379815D01*
X35712416Y-136363181D01*
X35580700Y-136231465D01*
X35547215Y-136170142D01*
X35545163Y-136157686D01*
X35535368Y-136070745D01*
X35475789Y-135900478D01*
X35379816Y-135747738D01*
X35252262Y-135620184D01*
X35099523Y-135524211D01*
X34929254Y-135464631D01*
X34929249Y-135464630D01*
X34750004Y-135444435D01*
X34749996Y-135444435D01*
X34570750Y-135464630D01*
X34570745Y-135464631D01*
X34400476Y-135524211D01*
X34247737Y-135620184D01*
X34120184Y-135747737D01*
X34024211Y-135900476D01*
X33964631Y-136070745D01*
X33964630Y-136070750D01*
X33944435Y-136249996D01*
X31600500Y-136249996D01*
X31600500Y-135082412D01*
X31620185Y-135015373D01*
X31627555Y-135005097D01*
X31629810Y-135002267D01*
X31629816Y-135002262D01*
X31725789Y-134849522D01*
X31785368Y-134679255D01*
X31793414Y-134607843D01*
X31805565Y-134500003D01*
X31805565Y-134499996D01*
X31785369Y-134320750D01*
X31785368Y-134320745D01*
X31749650Y-134218670D01*
X31725789Y-134150478D01*
X31723746Y-134147227D01*
X31654383Y-134036836D01*
X31629816Y-133997738D01*
X31502262Y-133870184D01*
X31430443Y-133825057D01*
X31349523Y-133774211D01*
X31179254Y-133714631D01*
X31179249Y-133714630D01*
X31000004Y-133694435D01*
X30999996Y-133694435D01*
X30820750Y-133714630D01*
X30820745Y-133714631D01*
X30650476Y-133774211D01*
X30497737Y-133870184D01*
X30370184Y-133997737D01*
X30274211Y-134150476D01*
X30214631Y-134320745D01*
X30214630Y-134320750D01*
X30194435Y-134499996D01*
X20531820Y-134499996D01*
X20568152Y-134224025D01*
X20570025Y-134213405D01*
X20652649Y-133840709D01*
X20655440Y-133830295D01*
X20770230Y-133466227D01*
X20773917Y-133456095D01*
X20920003Y-133103412D01*
X20924561Y-133093638D01*
X21100822Y-132755045D01*
X21106217Y-132745700D01*
X21311325Y-132423744D01*
X21317515Y-132414905D01*
X21507368Y-132167483D01*
X47399500Y-132167483D01*
X47399500Y-133767501D01*
X47399501Y-133767518D01*
X47410000Y-133870296D01*
X47410001Y-133870299D01*
X47452231Y-133997738D01*
X47465186Y-134036834D01*
X47557288Y-134186156D01*
X47681344Y-134310212D01*
X47830666Y-134402314D01*
X47997203Y-134457499D01*
X48099991Y-134468000D01*
X49400008Y-134467999D01*
X49502797Y-134457499D01*
X49669334Y-134402314D01*
X49818656Y-134310212D01*
X49942712Y-134186156D01*
X50034814Y-134036834D01*
X50034814Y-134036831D01*
X50038448Y-134030941D01*
X50090395Y-133984216D01*
X50159358Y-133972993D01*
X50223440Y-134000836D01*
X50231668Y-134008356D01*
X50370535Y-134147223D01*
X50370540Y-134147227D01*
X50542442Y-134272120D01*
X50731782Y-134368595D01*
X50933871Y-134434257D01*
X51000000Y-134444731D01*
X51000000Y-133400512D01*
X51057007Y-133433425D01*
X51184174Y-133467500D01*
X51315826Y-133467500D01*
X51442993Y-133433425D01*
X51500000Y-133400512D01*
X51500000Y-134444730D01*
X51566126Y-134434257D01*
X51566129Y-134434257D01*
X51768217Y-134368595D01*
X51957557Y-134272120D01*
X52129459Y-134147227D01*
X52129464Y-134147223D01*
X52279723Y-133996964D01*
X52279727Y-133996959D01*
X52404620Y-133825057D01*
X52501095Y-133635717D01*
X52566757Y-133433630D01*
X52566757Y-133433627D01*
X52600000Y-133223746D01*
X52600000Y-133217500D01*
X51683012Y-133217500D01*
X51715925Y-133160493D01*
X51750000Y-133033326D01*
X51750000Y-132901674D01*
X51715925Y-132774507D01*
X51683012Y-132717500D01*
X52600000Y-132717500D01*
X52600000Y-132711253D01*
X52566757Y-132501372D01*
X52566757Y-132501369D01*
X52501095Y-132299282D01*
X52404620Y-132109942D01*
X52279727Y-131938040D01*
X52279723Y-131938035D01*
X52129464Y-131787776D01*
X52129459Y-131787772D01*
X51957557Y-131662879D01*
X51768215Y-131566403D01*
X51566124Y-131500741D01*
X51500000Y-131490268D01*
X51500000Y-132534488D01*
X51442993Y-132501575D01*
X51315826Y-132467500D01*
X51184174Y-132467500D01*
X51057007Y-132501575D01*
X51000000Y-132534488D01*
X51000000Y-131490268D01*
X50999999Y-131490268D01*
X50933875Y-131500741D01*
X50731784Y-131566403D01*
X50542442Y-131662879D01*
X50370541Y-131787771D01*
X50231668Y-131926644D01*
X50170345Y-131960128D01*
X50100653Y-131955144D01*
X50044720Y-131913272D01*
X50038448Y-131904058D01*
X49985597Y-131818373D01*
X49942712Y-131748844D01*
X49818656Y-131624788D01*
X49669334Y-131532686D01*
X49502797Y-131477501D01*
X49502795Y-131477500D01*
X49400010Y-131467000D01*
X48099998Y-131467000D01*
X48099981Y-131467001D01*
X47997203Y-131477500D01*
X47997200Y-131477501D01*
X47830668Y-131532685D01*
X47830663Y-131532687D01*
X47681342Y-131624789D01*
X47557289Y-131748842D01*
X47465187Y-131898163D01*
X47465185Y-131898168D01*
X47460180Y-131913272D01*
X47410001Y-132064703D01*
X47410001Y-132064704D01*
X47410000Y-132064704D01*
X47399500Y-132167483D01*
X21507368Y-132167483D01*
X21549896Y-132112060D01*
X21556834Y-132103791D01*
X21814726Y-131822352D01*
X21822352Y-131814726D01*
X22103791Y-131556834D01*
X22112060Y-131549896D01*
X22414905Y-131317515D01*
X22423744Y-131311325D01*
X22745700Y-131106217D01*
X22755045Y-131100822D01*
X23093638Y-130924561D01*
X23103412Y-130920003D01*
X23456095Y-130773917D01*
X23466227Y-130770230D01*
X23830295Y-130655440D01*
X23840709Y-130652649D01*
X24213405Y-130570025D01*
X24224025Y-130568152D01*
X24602495Y-130518326D01*
X24613226Y-130517386D01*
X24997297Y-130500617D01*
X25002706Y-130500500D01*
X25065892Y-130500500D01*
X74934108Y-130500500D01*
X74997294Y-130500500D01*
X75002702Y-130500617D01*
G37*
%TD.AperFunction*%
%TD*%
M02*
