%TF.GenerationSoftware,KiCad,Pcbnew,8.0.3*%
%TF.CreationDate,2024-09-03T15:58:32-04:00*%
%TF.ProjectId,AeroCore,4165726f-436f-4726-952e-6b696361645f,rev?*%
%TF.SameCoordinates,Original*%
%TF.FileFunction,Legend,Top*%
%TF.FilePolarity,Positive*%
%FSLAX46Y46*%
G04 Gerber Fmt 4.6, Leading zero omitted, Abs format (unit mm)*
G04 Created by KiCad (PCBNEW 8.0.3) date 2024-09-03 15:58:32*
%MOMM*%
%LPD*%
G01*
G04 APERTURE LIST*
%ADD10C,0.100000*%
%ADD11C,0.300000*%
%ADD12C,0.150000*%
%ADD13C,0.000000*%
%ADD14C,0.120000*%
%ADD15C,0.250000*%
G04 APERTURE END LIST*
D10*
X38494353Y-142987951D02*
X39506250Y-143000000D01*
X31000000Y-143000000D02*
G75*
G02*
X38494353Y-142987951I3750000J-1750000D01*
G01*
X23506250Y-143000000D02*
X31000000Y-143000000D01*
X39506250Y-143000000D02*
X39506250Y-131000000D01*
X23506250Y-131000000D02*
X23506250Y-143000000D01*
X23506250Y-131000000D02*
X39506250Y-131000000D01*
X35650000Y-157750000D02*
X35650000Y-149250000D01*
X41650000Y-157750000D02*
X35650000Y-157750000D01*
X41650000Y-149250000D02*
X41650000Y-157750000D01*
X35650000Y-149250000D02*
X41650000Y-149250000D01*
X53850000Y-152100000D02*
X53850000Y-140600000D01*
X42350000Y-140600000D02*
X42350000Y-152100000D01*
X53850000Y-140600000D02*
X42350000Y-140600000D01*
X73500000Y-136500000D02*
X73500000Y-132500000D01*
X77500000Y-136500000D02*
X69500000Y-136500000D01*
X77500000Y-132500000D02*
X77500000Y-136500000D01*
X69500000Y-132500000D02*
X77500000Y-132500000D01*
X73000000Y-136000000D02*
X71500000Y-135000000D01*
X70000000Y-136000000D01*
X71500000Y-133000000D01*
X73000000Y-136000000D01*
G36*
X73000000Y-136000000D02*
G01*
X71500000Y-135000000D01*
X70000000Y-136000000D01*
X71500000Y-133000000D01*
X73000000Y-136000000D01*
G37*
X66500000Y-158000000D02*
X66500000Y-163500000D01*
X77500000Y-158000000D02*
X66500000Y-158000000D01*
X77500000Y-163500000D02*
X77500000Y-158000000D01*
X66500000Y-163500000D02*
X77500000Y-163500000D01*
X77500000Y-166000000D02*
X70500000Y-166000000D01*
X77500000Y-171000000D02*
X77500000Y-166000000D01*
X70500000Y-171000000D02*
X77500000Y-171000000D01*
X70500000Y-166000000D02*
X70500000Y-171000000D01*
X69500000Y-136500000D02*
X69500000Y-132500000D01*
X42350000Y-152100000D02*
X53850000Y-152100000D01*
D11*
D12*
X42232142Y-184024819D02*
X41898809Y-183548628D01*
X41660714Y-184024819D02*
X41660714Y-183024819D01*
X41660714Y-183024819D02*
X42041666Y-183024819D01*
X42041666Y-183024819D02*
X42136904Y-183072438D01*
X42136904Y-183072438D02*
X42184523Y-183120057D01*
X42184523Y-183120057D02*
X42232142Y-183215295D01*
X42232142Y-183215295D02*
X42232142Y-183358152D01*
X42232142Y-183358152D02*
X42184523Y-183453390D01*
X42184523Y-183453390D02*
X42136904Y-183501009D01*
X42136904Y-183501009D02*
X42041666Y-183548628D01*
X42041666Y-183548628D02*
X41660714Y-183548628D01*
X43184523Y-184024819D02*
X42613095Y-184024819D01*
X42898809Y-184024819D02*
X42898809Y-183024819D01*
X42898809Y-183024819D02*
X42803571Y-183167676D01*
X42803571Y-183167676D02*
X42708333Y-183262914D01*
X42708333Y-183262914D02*
X42613095Y-183310533D01*
X43517857Y-183024819D02*
X44184523Y-183024819D01*
X44184523Y-183024819D02*
X43755952Y-184024819D01*
X38232142Y-184024819D02*
X37898809Y-183548628D01*
X37660714Y-184024819D02*
X37660714Y-183024819D01*
X37660714Y-183024819D02*
X38041666Y-183024819D01*
X38041666Y-183024819D02*
X38136904Y-183072438D01*
X38136904Y-183072438D02*
X38184523Y-183120057D01*
X38184523Y-183120057D02*
X38232142Y-183215295D01*
X38232142Y-183215295D02*
X38232142Y-183358152D01*
X38232142Y-183358152D02*
X38184523Y-183453390D01*
X38184523Y-183453390D02*
X38136904Y-183501009D01*
X38136904Y-183501009D02*
X38041666Y-183548628D01*
X38041666Y-183548628D02*
X37660714Y-183548628D01*
X39184523Y-184024819D02*
X38613095Y-184024819D01*
X38898809Y-184024819D02*
X38898809Y-183024819D01*
X38898809Y-183024819D02*
X38803571Y-183167676D01*
X38803571Y-183167676D02*
X38708333Y-183262914D01*
X38708333Y-183262914D02*
X38613095Y-183310533D01*
X40041666Y-183024819D02*
X39851190Y-183024819D01*
X39851190Y-183024819D02*
X39755952Y-183072438D01*
X39755952Y-183072438D02*
X39708333Y-183120057D01*
X39708333Y-183120057D02*
X39613095Y-183262914D01*
X39613095Y-183262914D02*
X39565476Y-183453390D01*
X39565476Y-183453390D02*
X39565476Y-183834342D01*
X39565476Y-183834342D02*
X39613095Y-183929580D01*
X39613095Y-183929580D02*
X39660714Y-183977200D01*
X39660714Y-183977200D02*
X39755952Y-184024819D01*
X39755952Y-184024819D02*
X39946428Y-184024819D01*
X39946428Y-184024819D02*
X40041666Y-183977200D01*
X40041666Y-183977200D02*
X40089285Y-183929580D01*
X40089285Y-183929580D02*
X40136904Y-183834342D01*
X40136904Y-183834342D02*
X40136904Y-183596247D01*
X40136904Y-183596247D02*
X40089285Y-183501009D01*
X40089285Y-183501009D02*
X40041666Y-183453390D01*
X40041666Y-183453390D02*
X39946428Y-183405771D01*
X39946428Y-183405771D02*
X39755952Y-183405771D01*
X39755952Y-183405771D02*
X39660714Y-183453390D01*
X39660714Y-183453390D02*
X39613095Y-183501009D01*
X39613095Y-183501009D02*
X39565476Y-183596247D01*
X42136905Y-187024819D02*
X42136905Y-186024819D01*
X42136905Y-186024819D02*
X42375000Y-186024819D01*
X42375000Y-186024819D02*
X42517857Y-186072438D01*
X42517857Y-186072438D02*
X42613095Y-186167676D01*
X42613095Y-186167676D02*
X42660714Y-186262914D01*
X42660714Y-186262914D02*
X42708333Y-186453390D01*
X42708333Y-186453390D02*
X42708333Y-186596247D01*
X42708333Y-186596247D02*
X42660714Y-186786723D01*
X42660714Y-186786723D02*
X42613095Y-186881961D01*
X42613095Y-186881961D02*
X42517857Y-186977200D01*
X42517857Y-186977200D02*
X42375000Y-187024819D01*
X42375000Y-187024819D02*
X42136905Y-187024819D01*
X43279762Y-186453390D02*
X43184524Y-186405771D01*
X43184524Y-186405771D02*
X43136905Y-186358152D01*
X43136905Y-186358152D02*
X43089286Y-186262914D01*
X43089286Y-186262914D02*
X43089286Y-186215295D01*
X43089286Y-186215295D02*
X43136905Y-186120057D01*
X43136905Y-186120057D02*
X43184524Y-186072438D01*
X43184524Y-186072438D02*
X43279762Y-186024819D01*
X43279762Y-186024819D02*
X43470238Y-186024819D01*
X43470238Y-186024819D02*
X43565476Y-186072438D01*
X43565476Y-186072438D02*
X43613095Y-186120057D01*
X43613095Y-186120057D02*
X43660714Y-186215295D01*
X43660714Y-186215295D02*
X43660714Y-186262914D01*
X43660714Y-186262914D02*
X43613095Y-186358152D01*
X43613095Y-186358152D02*
X43565476Y-186405771D01*
X43565476Y-186405771D02*
X43470238Y-186453390D01*
X43470238Y-186453390D02*
X43279762Y-186453390D01*
X43279762Y-186453390D02*
X43184524Y-186501009D01*
X43184524Y-186501009D02*
X43136905Y-186548628D01*
X43136905Y-186548628D02*
X43089286Y-186643866D01*
X43089286Y-186643866D02*
X43089286Y-186834342D01*
X43089286Y-186834342D02*
X43136905Y-186929580D01*
X43136905Y-186929580D02*
X43184524Y-186977200D01*
X43184524Y-186977200D02*
X43279762Y-187024819D01*
X43279762Y-187024819D02*
X43470238Y-187024819D01*
X43470238Y-187024819D02*
X43565476Y-186977200D01*
X43565476Y-186977200D02*
X43613095Y-186929580D01*
X43613095Y-186929580D02*
X43660714Y-186834342D01*
X43660714Y-186834342D02*
X43660714Y-186643866D01*
X43660714Y-186643866D02*
X43613095Y-186548628D01*
X43613095Y-186548628D02*
X43565476Y-186501009D01*
X43565476Y-186501009D02*
X43470238Y-186453390D01*
X38136905Y-187024819D02*
X38136905Y-186024819D01*
X38136905Y-186024819D02*
X38375000Y-186024819D01*
X38375000Y-186024819D02*
X38517857Y-186072438D01*
X38517857Y-186072438D02*
X38613095Y-186167676D01*
X38613095Y-186167676D02*
X38660714Y-186262914D01*
X38660714Y-186262914D02*
X38708333Y-186453390D01*
X38708333Y-186453390D02*
X38708333Y-186596247D01*
X38708333Y-186596247D02*
X38660714Y-186786723D01*
X38660714Y-186786723D02*
X38613095Y-186881961D01*
X38613095Y-186881961D02*
X38517857Y-186977200D01*
X38517857Y-186977200D02*
X38375000Y-187024819D01*
X38375000Y-187024819D02*
X38136905Y-187024819D01*
X39041667Y-186024819D02*
X39708333Y-186024819D01*
X39708333Y-186024819D02*
X39279762Y-187024819D01*
D11*
D12*
X44859580Y-177642857D02*
X44907200Y-177690476D01*
X44907200Y-177690476D02*
X44954819Y-177833333D01*
X44954819Y-177833333D02*
X44954819Y-177928571D01*
X44954819Y-177928571D02*
X44907200Y-178071428D01*
X44907200Y-178071428D02*
X44811961Y-178166666D01*
X44811961Y-178166666D02*
X44716723Y-178214285D01*
X44716723Y-178214285D02*
X44526247Y-178261904D01*
X44526247Y-178261904D02*
X44383390Y-178261904D01*
X44383390Y-178261904D02*
X44192914Y-178214285D01*
X44192914Y-178214285D02*
X44097676Y-178166666D01*
X44097676Y-178166666D02*
X44002438Y-178071428D01*
X44002438Y-178071428D02*
X43954819Y-177928571D01*
X43954819Y-177928571D02*
X43954819Y-177833333D01*
X43954819Y-177833333D02*
X44002438Y-177690476D01*
X44002438Y-177690476D02*
X44050057Y-177642857D01*
X44954819Y-176690476D02*
X44954819Y-177261904D01*
X44954819Y-176976190D02*
X43954819Y-176976190D01*
X43954819Y-176976190D02*
X44097676Y-177071428D01*
X44097676Y-177071428D02*
X44192914Y-177166666D01*
X44192914Y-177166666D02*
X44240533Y-177261904D01*
X43954819Y-176357142D02*
X43954819Y-175738095D01*
X43954819Y-175738095D02*
X44335771Y-176071428D01*
X44335771Y-176071428D02*
X44335771Y-175928571D01*
X44335771Y-175928571D02*
X44383390Y-175833333D01*
X44383390Y-175833333D02*
X44431009Y-175785714D01*
X44431009Y-175785714D02*
X44526247Y-175738095D01*
X44526247Y-175738095D02*
X44764342Y-175738095D01*
X44764342Y-175738095D02*
X44859580Y-175785714D01*
X44859580Y-175785714D02*
X44907200Y-175833333D01*
X44907200Y-175833333D02*
X44954819Y-175928571D01*
X44954819Y-175928571D02*
X44954819Y-176214285D01*
X44954819Y-176214285D02*
X44907200Y-176309523D01*
X44907200Y-176309523D02*
X44859580Y-176357142D01*
X49359580Y-169279166D02*
X49407200Y-169326785D01*
X49407200Y-169326785D02*
X49454819Y-169469642D01*
X49454819Y-169469642D02*
X49454819Y-169564880D01*
X49454819Y-169564880D02*
X49407200Y-169707737D01*
X49407200Y-169707737D02*
X49311961Y-169802975D01*
X49311961Y-169802975D02*
X49216723Y-169850594D01*
X49216723Y-169850594D02*
X49026247Y-169898213D01*
X49026247Y-169898213D02*
X48883390Y-169898213D01*
X48883390Y-169898213D02*
X48692914Y-169850594D01*
X48692914Y-169850594D02*
X48597676Y-169802975D01*
X48597676Y-169802975D02*
X48502438Y-169707737D01*
X48502438Y-169707737D02*
X48454819Y-169564880D01*
X48454819Y-169564880D02*
X48454819Y-169469642D01*
X48454819Y-169469642D02*
X48502438Y-169326785D01*
X48502438Y-169326785D02*
X48550057Y-169279166D01*
X48454819Y-168945832D02*
X48454819Y-168279166D01*
X48454819Y-168279166D02*
X49454819Y-168707737D01*
X57289580Y-186905357D02*
X57337200Y-186952976D01*
X57337200Y-186952976D02*
X57384819Y-187095833D01*
X57384819Y-187095833D02*
X57384819Y-187191071D01*
X57384819Y-187191071D02*
X57337200Y-187333928D01*
X57337200Y-187333928D02*
X57241961Y-187429166D01*
X57241961Y-187429166D02*
X57146723Y-187476785D01*
X57146723Y-187476785D02*
X56956247Y-187524404D01*
X56956247Y-187524404D02*
X56813390Y-187524404D01*
X56813390Y-187524404D02*
X56622914Y-187476785D01*
X56622914Y-187476785D02*
X56527676Y-187429166D01*
X56527676Y-187429166D02*
X56432438Y-187333928D01*
X56432438Y-187333928D02*
X56384819Y-187191071D01*
X56384819Y-187191071D02*
X56384819Y-187095833D01*
X56384819Y-187095833D02*
X56432438Y-186952976D01*
X56432438Y-186952976D02*
X56480057Y-186905357D01*
X57384819Y-185952976D02*
X57384819Y-186524404D01*
X57384819Y-186238690D02*
X56384819Y-186238690D01*
X56384819Y-186238690D02*
X56527676Y-186333928D01*
X56527676Y-186333928D02*
X56622914Y-186429166D01*
X56622914Y-186429166D02*
X56670533Y-186524404D01*
X56384819Y-185333928D02*
X56384819Y-185238690D01*
X56384819Y-185238690D02*
X56432438Y-185143452D01*
X56432438Y-185143452D02*
X56480057Y-185095833D01*
X56480057Y-185095833D02*
X56575295Y-185048214D01*
X56575295Y-185048214D02*
X56765771Y-185000595D01*
X56765771Y-185000595D02*
X57003866Y-185000595D01*
X57003866Y-185000595D02*
X57194342Y-185048214D01*
X57194342Y-185048214D02*
X57289580Y-185095833D01*
X57289580Y-185095833D02*
X57337200Y-185143452D01*
X57337200Y-185143452D02*
X57384819Y-185238690D01*
X57384819Y-185238690D02*
X57384819Y-185333928D01*
X57384819Y-185333928D02*
X57337200Y-185429166D01*
X57337200Y-185429166D02*
X57289580Y-185476785D01*
X57289580Y-185476785D02*
X57194342Y-185524404D01*
X57194342Y-185524404D02*
X57003866Y-185572023D01*
X57003866Y-185572023D02*
X56765771Y-185572023D01*
X56765771Y-185572023D02*
X56575295Y-185524404D01*
X56575295Y-185524404D02*
X56480057Y-185476785D01*
X56480057Y-185476785D02*
X56432438Y-185429166D01*
X56432438Y-185429166D02*
X56384819Y-185333928D01*
X73704819Y-152333333D02*
X74419104Y-152333333D01*
X74419104Y-152333333D02*
X74561961Y-152380952D01*
X74561961Y-152380952D02*
X74657200Y-152476190D01*
X74657200Y-152476190D02*
X74704819Y-152619047D01*
X74704819Y-152619047D02*
X74704819Y-152714285D01*
X74038152Y-151428571D02*
X74704819Y-151428571D01*
X73657200Y-151666666D02*
X74371485Y-151904761D01*
X74371485Y-151904761D02*
X74371485Y-151285714D01*
X47929580Y-177642857D02*
X47977200Y-177690476D01*
X47977200Y-177690476D02*
X48024819Y-177833333D01*
X48024819Y-177833333D02*
X48024819Y-177928571D01*
X48024819Y-177928571D02*
X47977200Y-178071428D01*
X47977200Y-178071428D02*
X47881961Y-178166666D01*
X47881961Y-178166666D02*
X47786723Y-178214285D01*
X47786723Y-178214285D02*
X47596247Y-178261904D01*
X47596247Y-178261904D02*
X47453390Y-178261904D01*
X47453390Y-178261904D02*
X47262914Y-178214285D01*
X47262914Y-178214285D02*
X47167676Y-178166666D01*
X47167676Y-178166666D02*
X47072438Y-178071428D01*
X47072438Y-178071428D02*
X47024819Y-177928571D01*
X47024819Y-177928571D02*
X47024819Y-177833333D01*
X47024819Y-177833333D02*
X47072438Y-177690476D01*
X47072438Y-177690476D02*
X47120057Y-177642857D01*
X48024819Y-176690476D02*
X48024819Y-177261904D01*
X48024819Y-176976190D02*
X47024819Y-176976190D01*
X47024819Y-176976190D02*
X47167676Y-177071428D01*
X47167676Y-177071428D02*
X47262914Y-177166666D01*
X47262914Y-177166666D02*
X47310533Y-177261904D01*
X47358152Y-175833333D02*
X48024819Y-175833333D01*
X46977200Y-176071428D02*
X47691485Y-176309523D01*
X47691485Y-176309523D02*
X47691485Y-175690476D01*
X50929580Y-177642857D02*
X50977200Y-177690476D01*
X50977200Y-177690476D02*
X51024819Y-177833333D01*
X51024819Y-177833333D02*
X51024819Y-177928571D01*
X51024819Y-177928571D02*
X50977200Y-178071428D01*
X50977200Y-178071428D02*
X50881961Y-178166666D01*
X50881961Y-178166666D02*
X50786723Y-178214285D01*
X50786723Y-178214285D02*
X50596247Y-178261904D01*
X50596247Y-178261904D02*
X50453390Y-178261904D01*
X50453390Y-178261904D02*
X50262914Y-178214285D01*
X50262914Y-178214285D02*
X50167676Y-178166666D01*
X50167676Y-178166666D02*
X50072438Y-178071428D01*
X50072438Y-178071428D02*
X50024819Y-177928571D01*
X50024819Y-177928571D02*
X50024819Y-177833333D01*
X50024819Y-177833333D02*
X50072438Y-177690476D01*
X50072438Y-177690476D02*
X50120057Y-177642857D01*
X51024819Y-176690476D02*
X51024819Y-177261904D01*
X51024819Y-176976190D02*
X50024819Y-176976190D01*
X50024819Y-176976190D02*
X50167676Y-177071428D01*
X50167676Y-177071428D02*
X50262914Y-177166666D01*
X50262914Y-177166666D02*
X50310533Y-177261904D01*
X50024819Y-175785714D02*
X50024819Y-176261904D01*
X50024819Y-176261904D02*
X50501009Y-176309523D01*
X50501009Y-176309523D02*
X50453390Y-176261904D01*
X50453390Y-176261904D02*
X50405771Y-176166666D01*
X50405771Y-176166666D02*
X50405771Y-175928571D01*
X50405771Y-175928571D02*
X50453390Y-175833333D01*
X50453390Y-175833333D02*
X50501009Y-175785714D01*
X50501009Y-175785714D02*
X50596247Y-175738095D01*
X50596247Y-175738095D02*
X50834342Y-175738095D01*
X50834342Y-175738095D02*
X50929580Y-175785714D01*
X50929580Y-175785714D02*
X50977200Y-175833333D01*
X50977200Y-175833333D02*
X51024819Y-175928571D01*
X51024819Y-175928571D02*
X51024819Y-176166666D01*
X51024819Y-176166666D02*
X50977200Y-176261904D01*
X50977200Y-176261904D02*
X50929580Y-176309523D01*
X48707142Y-142029580D02*
X48659523Y-142077200D01*
X48659523Y-142077200D02*
X48516666Y-142124819D01*
X48516666Y-142124819D02*
X48421428Y-142124819D01*
X48421428Y-142124819D02*
X48278571Y-142077200D01*
X48278571Y-142077200D02*
X48183333Y-141981961D01*
X48183333Y-141981961D02*
X48135714Y-141886723D01*
X48135714Y-141886723D02*
X48088095Y-141696247D01*
X48088095Y-141696247D02*
X48088095Y-141553390D01*
X48088095Y-141553390D02*
X48135714Y-141362914D01*
X48135714Y-141362914D02*
X48183333Y-141267676D01*
X48183333Y-141267676D02*
X48278571Y-141172438D01*
X48278571Y-141172438D02*
X48421428Y-141124819D01*
X48421428Y-141124819D02*
X48516666Y-141124819D01*
X48516666Y-141124819D02*
X48659523Y-141172438D01*
X48659523Y-141172438D02*
X48707142Y-141220057D01*
X49088095Y-141220057D02*
X49135714Y-141172438D01*
X49135714Y-141172438D02*
X49230952Y-141124819D01*
X49230952Y-141124819D02*
X49469047Y-141124819D01*
X49469047Y-141124819D02*
X49564285Y-141172438D01*
X49564285Y-141172438D02*
X49611904Y-141220057D01*
X49611904Y-141220057D02*
X49659523Y-141315295D01*
X49659523Y-141315295D02*
X49659523Y-141410533D01*
X49659523Y-141410533D02*
X49611904Y-141553390D01*
X49611904Y-141553390D02*
X49040476Y-142124819D01*
X49040476Y-142124819D02*
X49659523Y-142124819D01*
X50040476Y-141220057D02*
X50088095Y-141172438D01*
X50088095Y-141172438D02*
X50183333Y-141124819D01*
X50183333Y-141124819D02*
X50421428Y-141124819D01*
X50421428Y-141124819D02*
X50516666Y-141172438D01*
X50516666Y-141172438D02*
X50564285Y-141220057D01*
X50564285Y-141220057D02*
X50611904Y-141315295D01*
X50611904Y-141315295D02*
X50611904Y-141410533D01*
X50611904Y-141410533D02*
X50564285Y-141553390D01*
X50564285Y-141553390D02*
X49992857Y-142124819D01*
X49992857Y-142124819D02*
X50611904Y-142124819D01*
X34261905Y-187024819D02*
X34261905Y-186024819D01*
X34261905Y-186024819D02*
X34500000Y-186024819D01*
X34500000Y-186024819D02*
X34642857Y-186072438D01*
X34642857Y-186072438D02*
X34738095Y-186167676D01*
X34738095Y-186167676D02*
X34785714Y-186262914D01*
X34785714Y-186262914D02*
X34833333Y-186453390D01*
X34833333Y-186453390D02*
X34833333Y-186596247D01*
X34833333Y-186596247D02*
X34785714Y-186786723D01*
X34785714Y-186786723D02*
X34738095Y-186881961D01*
X34738095Y-186881961D02*
X34642857Y-186977200D01*
X34642857Y-186977200D02*
X34500000Y-187024819D01*
X34500000Y-187024819D02*
X34261905Y-187024819D01*
X35166667Y-186024819D02*
X35785714Y-186024819D01*
X35785714Y-186024819D02*
X35452381Y-186405771D01*
X35452381Y-186405771D02*
X35595238Y-186405771D01*
X35595238Y-186405771D02*
X35690476Y-186453390D01*
X35690476Y-186453390D02*
X35738095Y-186501009D01*
X35738095Y-186501009D02*
X35785714Y-186596247D01*
X35785714Y-186596247D02*
X35785714Y-186834342D01*
X35785714Y-186834342D02*
X35738095Y-186929580D01*
X35738095Y-186929580D02*
X35690476Y-186977200D01*
X35690476Y-186977200D02*
X35595238Y-187024819D01*
X35595238Y-187024819D02*
X35309524Y-187024819D01*
X35309524Y-187024819D02*
X35214286Y-186977200D01*
X35214286Y-186977200D02*
X35166667Y-186929580D01*
X56929580Y-177642857D02*
X56977200Y-177690476D01*
X56977200Y-177690476D02*
X57024819Y-177833333D01*
X57024819Y-177833333D02*
X57024819Y-177928571D01*
X57024819Y-177928571D02*
X56977200Y-178071428D01*
X56977200Y-178071428D02*
X56881961Y-178166666D01*
X56881961Y-178166666D02*
X56786723Y-178214285D01*
X56786723Y-178214285D02*
X56596247Y-178261904D01*
X56596247Y-178261904D02*
X56453390Y-178261904D01*
X56453390Y-178261904D02*
X56262914Y-178214285D01*
X56262914Y-178214285D02*
X56167676Y-178166666D01*
X56167676Y-178166666D02*
X56072438Y-178071428D01*
X56072438Y-178071428D02*
X56024819Y-177928571D01*
X56024819Y-177928571D02*
X56024819Y-177833333D01*
X56024819Y-177833333D02*
X56072438Y-177690476D01*
X56072438Y-177690476D02*
X56120057Y-177642857D01*
X57024819Y-176690476D02*
X57024819Y-177261904D01*
X57024819Y-176976190D02*
X56024819Y-176976190D01*
X56024819Y-176976190D02*
X56167676Y-177071428D01*
X56167676Y-177071428D02*
X56262914Y-177166666D01*
X56262914Y-177166666D02*
X56310533Y-177261904D01*
X56024819Y-176357142D02*
X56024819Y-175690476D01*
X56024819Y-175690476D02*
X57024819Y-176119047D01*
X53929580Y-177642857D02*
X53977200Y-177690476D01*
X53977200Y-177690476D02*
X54024819Y-177833333D01*
X54024819Y-177833333D02*
X54024819Y-177928571D01*
X54024819Y-177928571D02*
X53977200Y-178071428D01*
X53977200Y-178071428D02*
X53881961Y-178166666D01*
X53881961Y-178166666D02*
X53786723Y-178214285D01*
X53786723Y-178214285D02*
X53596247Y-178261904D01*
X53596247Y-178261904D02*
X53453390Y-178261904D01*
X53453390Y-178261904D02*
X53262914Y-178214285D01*
X53262914Y-178214285D02*
X53167676Y-178166666D01*
X53167676Y-178166666D02*
X53072438Y-178071428D01*
X53072438Y-178071428D02*
X53024819Y-177928571D01*
X53024819Y-177928571D02*
X53024819Y-177833333D01*
X53024819Y-177833333D02*
X53072438Y-177690476D01*
X53072438Y-177690476D02*
X53120057Y-177642857D01*
X54024819Y-176690476D02*
X54024819Y-177261904D01*
X54024819Y-176976190D02*
X53024819Y-176976190D01*
X53024819Y-176976190D02*
X53167676Y-177071428D01*
X53167676Y-177071428D02*
X53262914Y-177166666D01*
X53262914Y-177166666D02*
X53310533Y-177261904D01*
X53024819Y-175833333D02*
X53024819Y-176023809D01*
X53024819Y-176023809D02*
X53072438Y-176119047D01*
X53072438Y-176119047D02*
X53120057Y-176166666D01*
X53120057Y-176166666D02*
X53262914Y-176261904D01*
X53262914Y-176261904D02*
X53453390Y-176309523D01*
X53453390Y-176309523D02*
X53834342Y-176309523D01*
X53834342Y-176309523D02*
X53929580Y-176261904D01*
X53929580Y-176261904D02*
X53977200Y-176214285D01*
X53977200Y-176214285D02*
X54024819Y-176119047D01*
X54024819Y-176119047D02*
X54024819Y-175928571D01*
X54024819Y-175928571D02*
X53977200Y-175833333D01*
X53977200Y-175833333D02*
X53929580Y-175785714D01*
X53929580Y-175785714D02*
X53834342Y-175738095D01*
X53834342Y-175738095D02*
X53596247Y-175738095D01*
X53596247Y-175738095D02*
X53501009Y-175785714D01*
X53501009Y-175785714D02*
X53453390Y-175833333D01*
X53453390Y-175833333D02*
X53405771Y-175928571D01*
X53405771Y-175928571D02*
X53405771Y-176119047D01*
X53405771Y-176119047D02*
X53453390Y-176214285D01*
X53453390Y-176214285D02*
X53501009Y-176261904D01*
X53501009Y-176261904D02*
X53596247Y-176309523D01*
X63011905Y-132704819D02*
X63011905Y-131704819D01*
X63011905Y-131704819D02*
X63250000Y-131704819D01*
X63250000Y-131704819D02*
X63392857Y-131752438D01*
X63392857Y-131752438D02*
X63488095Y-131847676D01*
X63488095Y-131847676D02*
X63535714Y-131942914D01*
X63535714Y-131942914D02*
X63583333Y-132133390D01*
X63583333Y-132133390D02*
X63583333Y-132276247D01*
X63583333Y-132276247D02*
X63535714Y-132466723D01*
X63535714Y-132466723D02*
X63488095Y-132561961D01*
X63488095Y-132561961D02*
X63392857Y-132657200D01*
X63392857Y-132657200D02*
X63250000Y-132704819D01*
X63250000Y-132704819D02*
X63011905Y-132704819D01*
X64488095Y-131704819D02*
X64011905Y-131704819D01*
X64011905Y-131704819D02*
X63964286Y-132181009D01*
X63964286Y-132181009D02*
X64011905Y-132133390D01*
X64011905Y-132133390D02*
X64107143Y-132085771D01*
X64107143Y-132085771D02*
X64345238Y-132085771D01*
X64345238Y-132085771D02*
X64440476Y-132133390D01*
X64440476Y-132133390D02*
X64488095Y-132181009D01*
X64488095Y-132181009D02*
X64535714Y-132276247D01*
X64535714Y-132276247D02*
X64535714Y-132514342D01*
X64535714Y-132514342D02*
X64488095Y-132609580D01*
X64488095Y-132609580D02*
X64440476Y-132657200D01*
X64440476Y-132657200D02*
X64345238Y-132704819D01*
X64345238Y-132704819D02*
X64107143Y-132704819D01*
X64107143Y-132704819D02*
X64011905Y-132657200D01*
X64011905Y-132657200D02*
X63964286Y-132609580D01*
X68929580Y-160642857D02*
X68977200Y-160690476D01*
X68977200Y-160690476D02*
X69024819Y-160833333D01*
X69024819Y-160833333D02*
X69024819Y-160928571D01*
X69024819Y-160928571D02*
X68977200Y-161071428D01*
X68977200Y-161071428D02*
X68881961Y-161166666D01*
X68881961Y-161166666D02*
X68786723Y-161214285D01*
X68786723Y-161214285D02*
X68596247Y-161261904D01*
X68596247Y-161261904D02*
X68453390Y-161261904D01*
X68453390Y-161261904D02*
X68262914Y-161214285D01*
X68262914Y-161214285D02*
X68167676Y-161166666D01*
X68167676Y-161166666D02*
X68072438Y-161071428D01*
X68072438Y-161071428D02*
X68024819Y-160928571D01*
X68024819Y-160928571D02*
X68024819Y-160833333D01*
X68024819Y-160833333D02*
X68072438Y-160690476D01*
X68072438Y-160690476D02*
X68120057Y-160642857D01*
X68120057Y-160261904D02*
X68072438Y-160214285D01*
X68072438Y-160214285D02*
X68024819Y-160119047D01*
X68024819Y-160119047D02*
X68024819Y-159880952D01*
X68024819Y-159880952D02*
X68072438Y-159785714D01*
X68072438Y-159785714D02*
X68120057Y-159738095D01*
X68120057Y-159738095D02*
X68215295Y-159690476D01*
X68215295Y-159690476D02*
X68310533Y-159690476D01*
X68310533Y-159690476D02*
X68453390Y-159738095D01*
X68453390Y-159738095D02*
X69024819Y-160309523D01*
X69024819Y-160309523D02*
X69024819Y-159690476D01*
X69024819Y-158738095D02*
X69024819Y-159309523D01*
X69024819Y-159023809D02*
X68024819Y-159023809D01*
X68024819Y-159023809D02*
X68167676Y-159119047D01*
X68167676Y-159119047D02*
X68262914Y-159214285D01*
X68262914Y-159214285D02*
X68310533Y-159309523D01*
X57875595Y-139804819D02*
X57875595Y-140614342D01*
X57875595Y-140614342D02*
X57923214Y-140709580D01*
X57923214Y-140709580D02*
X57970833Y-140757200D01*
X57970833Y-140757200D02*
X58066071Y-140804819D01*
X58066071Y-140804819D02*
X58256547Y-140804819D01*
X58256547Y-140804819D02*
X58351785Y-140757200D01*
X58351785Y-140757200D02*
X58399404Y-140709580D01*
X58399404Y-140709580D02*
X58447023Y-140614342D01*
X58447023Y-140614342D02*
X58447023Y-139804819D01*
X58827976Y-139804819D02*
X59447023Y-139804819D01*
X59447023Y-139804819D02*
X59113690Y-140185771D01*
X59113690Y-140185771D02*
X59256547Y-140185771D01*
X59256547Y-140185771D02*
X59351785Y-140233390D01*
X59351785Y-140233390D02*
X59399404Y-140281009D01*
X59399404Y-140281009D02*
X59447023Y-140376247D01*
X59447023Y-140376247D02*
X59447023Y-140614342D01*
X59447023Y-140614342D02*
X59399404Y-140709580D01*
X59399404Y-140709580D02*
X59351785Y-140757200D01*
X59351785Y-140757200D02*
X59256547Y-140804819D01*
X59256547Y-140804819D02*
X58970833Y-140804819D01*
X58970833Y-140804819D02*
X58875595Y-140757200D01*
X58875595Y-140757200D02*
X58827976Y-140709580D01*
X54289580Y-186892857D02*
X54337200Y-186940476D01*
X54337200Y-186940476D02*
X54384819Y-187083333D01*
X54384819Y-187083333D02*
X54384819Y-187178571D01*
X54384819Y-187178571D02*
X54337200Y-187321428D01*
X54337200Y-187321428D02*
X54241961Y-187416666D01*
X54241961Y-187416666D02*
X54146723Y-187464285D01*
X54146723Y-187464285D02*
X53956247Y-187511904D01*
X53956247Y-187511904D02*
X53813390Y-187511904D01*
X53813390Y-187511904D02*
X53622914Y-187464285D01*
X53622914Y-187464285D02*
X53527676Y-187416666D01*
X53527676Y-187416666D02*
X53432438Y-187321428D01*
X53432438Y-187321428D02*
X53384819Y-187178571D01*
X53384819Y-187178571D02*
X53384819Y-187083333D01*
X53384819Y-187083333D02*
X53432438Y-186940476D01*
X53432438Y-186940476D02*
X53480057Y-186892857D01*
X54384819Y-185940476D02*
X54384819Y-186511904D01*
X54384819Y-186226190D02*
X53384819Y-186226190D01*
X53384819Y-186226190D02*
X53527676Y-186321428D01*
X53527676Y-186321428D02*
X53622914Y-186416666D01*
X53622914Y-186416666D02*
X53670533Y-186511904D01*
X54384819Y-184988095D02*
X54384819Y-185559523D01*
X54384819Y-185273809D02*
X53384819Y-185273809D01*
X53384819Y-185273809D02*
X53527676Y-185369047D01*
X53527676Y-185369047D02*
X53622914Y-185464285D01*
X53622914Y-185464285D02*
X53670533Y-185559523D01*
X43684819Y-147028094D02*
X42684819Y-147028094D01*
X42684819Y-147028094D02*
X42684819Y-146789999D01*
X42684819Y-146789999D02*
X42732438Y-146647142D01*
X42732438Y-146647142D02*
X42827676Y-146551904D01*
X42827676Y-146551904D02*
X42922914Y-146504285D01*
X42922914Y-146504285D02*
X43113390Y-146456666D01*
X43113390Y-146456666D02*
X43256247Y-146456666D01*
X43256247Y-146456666D02*
X43446723Y-146504285D01*
X43446723Y-146504285D02*
X43541961Y-146551904D01*
X43541961Y-146551904D02*
X43637200Y-146647142D01*
X43637200Y-146647142D02*
X43684819Y-146789999D01*
X43684819Y-146789999D02*
X43684819Y-147028094D01*
X42684819Y-145599523D02*
X42684819Y-145789999D01*
X42684819Y-145789999D02*
X42732438Y-145885237D01*
X42732438Y-145885237D02*
X42780057Y-145932856D01*
X42780057Y-145932856D02*
X42922914Y-146028094D01*
X42922914Y-146028094D02*
X43113390Y-146075713D01*
X43113390Y-146075713D02*
X43494342Y-146075713D01*
X43494342Y-146075713D02*
X43589580Y-146028094D01*
X43589580Y-146028094D02*
X43637200Y-145980475D01*
X43637200Y-145980475D02*
X43684819Y-145885237D01*
X43684819Y-145885237D02*
X43684819Y-145694761D01*
X43684819Y-145694761D02*
X43637200Y-145599523D01*
X43637200Y-145599523D02*
X43589580Y-145551904D01*
X43589580Y-145551904D02*
X43494342Y-145504285D01*
X43494342Y-145504285D02*
X43256247Y-145504285D01*
X43256247Y-145504285D02*
X43161009Y-145551904D01*
X43161009Y-145551904D02*
X43113390Y-145599523D01*
X43113390Y-145599523D02*
X43065771Y-145694761D01*
X43065771Y-145694761D02*
X43065771Y-145885237D01*
X43065771Y-145885237D02*
X43113390Y-145980475D01*
X43113390Y-145980475D02*
X43161009Y-146028094D01*
X43161009Y-146028094D02*
X43256247Y-146075713D01*
X44004819Y-150361904D02*
X43004819Y-150361904D01*
X44004819Y-149790476D02*
X43433390Y-150219047D01*
X43004819Y-149790476D02*
X43576247Y-150361904D01*
X52289580Y-169279166D02*
X52337200Y-169326785D01*
X52337200Y-169326785D02*
X52384819Y-169469642D01*
X52384819Y-169469642D02*
X52384819Y-169564880D01*
X52384819Y-169564880D02*
X52337200Y-169707737D01*
X52337200Y-169707737D02*
X52241961Y-169802975D01*
X52241961Y-169802975D02*
X52146723Y-169850594D01*
X52146723Y-169850594D02*
X51956247Y-169898213D01*
X51956247Y-169898213D02*
X51813390Y-169898213D01*
X51813390Y-169898213D02*
X51622914Y-169850594D01*
X51622914Y-169850594D02*
X51527676Y-169802975D01*
X51527676Y-169802975D02*
X51432438Y-169707737D01*
X51432438Y-169707737D02*
X51384819Y-169564880D01*
X51384819Y-169564880D02*
X51384819Y-169469642D01*
X51384819Y-169469642D02*
X51432438Y-169326785D01*
X51432438Y-169326785D02*
X51480057Y-169279166D01*
X52384819Y-168802975D02*
X52384819Y-168612499D01*
X52384819Y-168612499D02*
X52337200Y-168517261D01*
X52337200Y-168517261D02*
X52289580Y-168469642D01*
X52289580Y-168469642D02*
X52146723Y-168374404D01*
X52146723Y-168374404D02*
X51956247Y-168326785D01*
X51956247Y-168326785D02*
X51575295Y-168326785D01*
X51575295Y-168326785D02*
X51480057Y-168374404D01*
X51480057Y-168374404D02*
X51432438Y-168422023D01*
X51432438Y-168422023D02*
X51384819Y-168517261D01*
X51384819Y-168517261D02*
X51384819Y-168707737D01*
X51384819Y-168707737D02*
X51432438Y-168802975D01*
X51432438Y-168802975D02*
X51480057Y-168850594D01*
X51480057Y-168850594D02*
X51575295Y-168898213D01*
X51575295Y-168898213D02*
X51813390Y-168898213D01*
X51813390Y-168898213D02*
X51908628Y-168850594D01*
X51908628Y-168850594D02*
X51956247Y-168802975D01*
X51956247Y-168802975D02*
X52003866Y-168707737D01*
X52003866Y-168707737D02*
X52003866Y-168517261D01*
X52003866Y-168517261D02*
X51956247Y-168422023D01*
X51956247Y-168422023D02*
X51908628Y-168374404D01*
X51908628Y-168374404D02*
X51813390Y-168326785D01*
X32083333Y-164954819D02*
X31750000Y-164478628D01*
X31511905Y-164954819D02*
X31511905Y-163954819D01*
X31511905Y-163954819D02*
X31892857Y-163954819D01*
X31892857Y-163954819D02*
X31988095Y-164002438D01*
X31988095Y-164002438D02*
X32035714Y-164050057D01*
X32035714Y-164050057D02*
X32083333Y-164145295D01*
X32083333Y-164145295D02*
X32083333Y-164288152D01*
X32083333Y-164288152D02*
X32035714Y-164383390D01*
X32035714Y-164383390D02*
X31988095Y-164431009D01*
X31988095Y-164431009D02*
X31892857Y-164478628D01*
X31892857Y-164478628D02*
X31511905Y-164478628D01*
X32416667Y-163954819D02*
X33035714Y-163954819D01*
X33035714Y-163954819D02*
X32702381Y-164335771D01*
X32702381Y-164335771D02*
X32845238Y-164335771D01*
X32845238Y-164335771D02*
X32940476Y-164383390D01*
X32940476Y-164383390D02*
X32988095Y-164431009D01*
X32988095Y-164431009D02*
X33035714Y-164526247D01*
X33035714Y-164526247D02*
X33035714Y-164764342D01*
X33035714Y-164764342D02*
X32988095Y-164859580D01*
X32988095Y-164859580D02*
X32940476Y-164907200D01*
X32940476Y-164907200D02*
X32845238Y-164954819D01*
X32845238Y-164954819D02*
X32559524Y-164954819D01*
X32559524Y-164954819D02*
X32464286Y-164907200D01*
X32464286Y-164907200D02*
X32416667Y-164859580D01*
X59634819Y-155980357D02*
X59158628Y-156313690D01*
X59634819Y-156551785D02*
X58634819Y-156551785D01*
X58634819Y-156551785D02*
X58634819Y-156170833D01*
X58634819Y-156170833D02*
X58682438Y-156075595D01*
X58682438Y-156075595D02*
X58730057Y-156027976D01*
X58730057Y-156027976D02*
X58825295Y-155980357D01*
X58825295Y-155980357D02*
X58968152Y-155980357D01*
X58968152Y-155980357D02*
X59063390Y-156027976D01*
X59063390Y-156027976D02*
X59111009Y-156075595D01*
X59111009Y-156075595D02*
X59158628Y-156170833D01*
X59158628Y-156170833D02*
X59158628Y-156551785D01*
X59634819Y-155027976D02*
X59634819Y-155599404D01*
X59634819Y-155313690D02*
X58634819Y-155313690D01*
X58634819Y-155313690D02*
X58777676Y-155408928D01*
X58777676Y-155408928D02*
X58872914Y-155504166D01*
X58872914Y-155504166D02*
X58920533Y-155599404D01*
X58730057Y-154647023D02*
X58682438Y-154599404D01*
X58682438Y-154599404D02*
X58634819Y-154504166D01*
X58634819Y-154504166D02*
X58634819Y-154266071D01*
X58634819Y-154266071D02*
X58682438Y-154170833D01*
X58682438Y-154170833D02*
X58730057Y-154123214D01*
X58730057Y-154123214D02*
X58825295Y-154075595D01*
X58825295Y-154075595D02*
X58920533Y-154075595D01*
X58920533Y-154075595D02*
X59063390Y-154123214D01*
X59063390Y-154123214D02*
X59634819Y-154694642D01*
X59634819Y-154694642D02*
X59634819Y-154075595D01*
X26954819Y-169329166D02*
X26478628Y-169662499D01*
X26954819Y-169900594D02*
X25954819Y-169900594D01*
X25954819Y-169900594D02*
X25954819Y-169519642D01*
X25954819Y-169519642D02*
X26002438Y-169424404D01*
X26002438Y-169424404D02*
X26050057Y-169376785D01*
X26050057Y-169376785D02*
X26145295Y-169329166D01*
X26145295Y-169329166D02*
X26288152Y-169329166D01*
X26288152Y-169329166D02*
X26383390Y-169376785D01*
X26383390Y-169376785D02*
X26431009Y-169424404D01*
X26431009Y-169424404D02*
X26478628Y-169519642D01*
X26478628Y-169519642D02*
X26478628Y-169900594D01*
X26954819Y-168852975D02*
X26954819Y-168662499D01*
X26954819Y-168662499D02*
X26907200Y-168567261D01*
X26907200Y-168567261D02*
X26859580Y-168519642D01*
X26859580Y-168519642D02*
X26716723Y-168424404D01*
X26716723Y-168424404D02*
X26526247Y-168376785D01*
X26526247Y-168376785D02*
X26145295Y-168376785D01*
X26145295Y-168376785D02*
X26050057Y-168424404D01*
X26050057Y-168424404D02*
X26002438Y-168472023D01*
X26002438Y-168472023D02*
X25954819Y-168567261D01*
X25954819Y-168567261D02*
X25954819Y-168757737D01*
X25954819Y-168757737D02*
X26002438Y-168852975D01*
X26002438Y-168852975D02*
X26050057Y-168900594D01*
X26050057Y-168900594D02*
X26145295Y-168948213D01*
X26145295Y-168948213D02*
X26383390Y-168948213D01*
X26383390Y-168948213D02*
X26478628Y-168900594D01*
X26478628Y-168900594D02*
X26526247Y-168852975D01*
X26526247Y-168852975D02*
X26573866Y-168757737D01*
X26573866Y-168757737D02*
X26573866Y-168567261D01*
X26573866Y-168567261D02*
X26526247Y-168472023D01*
X26526247Y-168472023D02*
X26478628Y-168424404D01*
X26478628Y-168424404D02*
X26383390Y-168376785D01*
X24839583Y-139359580D02*
X24791964Y-139407200D01*
X24791964Y-139407200D02*
X24649107Y-139454819D01*
X24649107Y-139454819D02*
X24553869Y-139454819D01*
X24553869Y-139454819D02*
X24411012Y-139407200D01*
X24411012Y-139407200D02*
X24315774Y-139311961D01*
X24315774Y-139311961D02*
X24268155Y-139216723D01*
X24268155Y-139216723D02*
X24220536Y-139026247D01*
X24220536Y-139026247D02*
X24220536Y-138883390D01*
X24220536Y-138883390D02*
X24268155Y-138692914D01*
X24268155Y-138692914D02*
X24315774Y-138597676D01*
X24315774Y-138597676D02*
X24411012Y-138502438D01*
X24411012Y-138502438D02*
X24553869Y-138454819D01*
X24553869Y-138454819D02*
X24649107Y-138454819D01*
X24649107Y-138454819D02*
X24791964Y-138502438D01*
X24791964Y-138502438D02*
X24839583Y-138550057D01*
X25791964Y-139454819D02*
X25220536Y-139454819D01*
X25506250Y-139454819D02*
X25506250Y-138454819D01*
X25506250Y-138454819D02*
X25411012Y-138597676D01*
X25411012Y-138597676D02*
X25315774Y-138692914D01*
X25315774Y-138692914D02*
X25220536Y-138740533D01*
X55329580Y-165129166D02*
X55377200Y-165176785D01*
X55377200Y-165176785D02*
X55424819Y-165319642D01*
X55424819Y-165319642D02*
X55424819Y-165414880D01*
X55424819Y-165414880D02*
X55377200Y-165557737D01*
X55377200Y-165557737D02*
X55281961Y-165652975D01*
X55281961Y-165652975D02*
X55186723Y-165700594D01*
X55186723Y-165700594D02*
X54996247Y-165748213D01*
X54996247Y-165748213D02*
X54853390Y-165748213D01*
X54853390Y-165748213D02*
X54662914Y-165700594D01*
X54662914Y-165700594D02*
X54567676Y-165652975D01*
X54567676Y-165652975D02*
X54472438Y-165557737D01*
X54472438Y-165557737D02*
X54424819Y-165414880D01*
X54424819Y-165414880D02*
X54424819Y-165319642D01*
X54424819Y-165319642D02*
X54472438Y-165176785D01*
X54472438Y-165176785D02*
X54520057Y-165129166D01*
X54424819Y-164224404D02*
X54424819Y-164700594D01*
X54424819Y-164700594D02*
X54901009Y-164748213D01*
X54901009Y-164748213D02*
X54853390Y-164700594D01*
X54853390Y-164700594D02*
X54805771Y-164605356D01*
X54805771Y-164605356D02*
X54805771Y-164367261D01*
X54805771Y-164367261D02*
X54853390Y-164272023D01*
X54853390Y-164272023D02*
X54901009Y-164224404D01*
X54901009Y-164224404D02*
X54996247Y-164176785D01*
X54996247Y-164176785D02*
X55234342Y-164176785D01*
X55234342Y-164176785D02*
X55329580Y-164224404D01*
X55329580Y-164224404D02*
X55377200Y-164272023D01*
X55377200Y-164272023D02*
X55424819Y-164367261D01*
X55424819Y-164367261D02*
X55424819Y-164605356D01*
X55424819Y-164605356D02*
X55377200Y-164700594D01*
X55377200Y-164700594D02*
X55329580Y-164748213D01*
X74366666Y-137259819D02*
X74366666Y-137974104D01*
X74366666Y-137974104D02*
X74319047Y-138116961D01*
X74319047Y-138116961D02*
X74223809Y-138212200D01*
X74223809Y-138212200D02*
X74080952Y-138259819D01*
X74080952Y-138259819D02*
X73985714Y-138259819D01*
X74795238Y-137355057D02*
X74842857Y-137307438D01*
X74842857Y-137307438D02*
X74938095Y-137259819D01*
X74938095Y-137259819D02*
X75176190Y-137259819D01*
X75176190Y-137259819D02*
X75271428Y-137307438D01*
X75271428Y-137307438D02*
X75319047Y-137355057D01*
X75319047Y-137355057D02*
X75366666Y-137450295D01*
X75366666Y-137450295D02*
X75366666Y-137545533D01*
X75366666Y-137545533D02*
X75319047Y-137688390D01*
X75319047Y-137688390D02*
X74747619Y-138259819D01*
X74747619Y-138259819D02*
X75366666Y-138259819D01*
X24839583Y-141859580D02*
X24791964Y-141907200D01*
X24791964Y-141907200D02*
X24649107Y-141954819D01*
X24649107Y-141954819D02*
X24553869Y-141954819D01*
X24553869Y-141954819D02*
X24411012Y-141907200D01*
X24411012Y-141907200D02*
X24315774Y-141811961D01*
X24315774Y-141811961D02*
X24268155Y-141716723D01*
X24268155Y-141716723D02*
X24220536Y-141526247D01*
X24220536Y-141526247D02*
X24220536Y-141383390D01*
X24220536Y-141383390D02*
X24268155Y-141192914D01*
X24268155Y-141192914D02*
X24315774Y-141097676D01*
X24315774Y-141097676D02*
X24411012Y-141002438D01*
X24411012Y-141002438D02*
X24553869Y-140954819D01*
X24553869Y-140954819D02*
X24649107Y-140954819D01*
X24649107Y-140954819D02*
X24791964Y-141002438D01*
X24791964Y-141002438D02*
X24839583Y-141050057D01*
X25220536Y-141050057D02*
X25268155Y-141002438D01*
X25268155Y-141002438D02*
X25363393Y-140954819D01*
X25363393Y-140954819D02*
X25601488Y-140954819D01*
X25601488Y-140954819D02*
X25696726Y-141002438D01*
X25696726Y-141002438D02*
X25744345Y-141050057D01*
X25744345Y-141050057D02*
X25791964Y-141145295D01*
X25791964Y-141145295D02*
X25791964Y-141240533D01*
X25791964Y-141240533D02*
X25744345Y-141383390D01*
X25744345Y-141383390D02*
X25172917Y-141954819D01*
X25172917Y-141954819D02*
X25791964Y-141954819D01*
X54578628Y-160351190D02*
X55054819Y-160351190D01*
X54054819Y-160684523D02*
X54578628Y-160351190D01*
X54578628Y-160351190D02*
X54054819Y-160017857D01*
X54150057Y-159732142D02*
X54102438Y-159684523D01*
X54102438Y-159684523D02*
X54054819Y-159589285D01*
X54054819Y-159589285D02*
X54054819Y-159351190D01*
X54054819Y-159351190D02*
X54102438Y-159255952D01*
X54102438Y-159255952D02*
X54150057Y-159208333D01*
X54150057Y-159208333D02*
X54245295Y-159160714D01*
X54245295Y-159160714D02*
X54340533Y-159160714D01*
X54340533Y-159160714D02*
X54483390Y-159208333D01*
X54483390Y-159208333D02*
X55054819Y-159779761D01*
X55054819Y-159779761D02*
X55054819Y-159160714D01*
X55359580Y-169279166D02*
X55407200Y-169326785D01*
X55407200Y-169326785D02*
X55454819Y-169469642D01*
X55454819Y-169469642D02*
X55454819Y-169564880D01*
X55454819Y-169564880D02*
X55407200Y-169707737D01*
X55407200Y-169707737D02*
X55311961Y-169802975D01*
X55311961Y-169802975D02*
X55216723Y-169850594D01*
X55216723Y-169850594D02*
X55026247Y-169898213D01*
X55026247Y-169898213D02*
X54883390Y-169898213D01*
X54883390Y-169898213D02*
X54692914Y-169850594D01*
X54692914Y-169850594D02*
X54597676Y-169802975D01*
X54597676Y-169802975D02*
X54502438Y-169707737D01*
X54502438Y-169707737D02*
X54454819Y-169564880D01*
X54454819Y-169564880D02*
X54454819Y-169469642D01*
X54454819Y-169469642D02*
X54502438Y-169326785D01*
X54502438Y-169326785D02*
X54550057Y-169279166D01*
X54883390Y-168707737D02*
X54835771Y-168802975D01*
X54835771Y-168802975D02*
X54788152Y-168850594D01*
X54788152Y-168850594D02*
X54692914Y-168898213D01*
X54692914Y-168898213D02*
X54645295Y-168898213D01*
X54645295Y-168898213D02*
X54550057Y-168850594D01*
X54550057Y-168850594D02*
X54502438Y-168802975D01*
X54502438Y-168802975D02*
X54454819Y-168707737D01*
X54454819Y-168707737D02*
X54454819Y-168517261D01*
X54454819Y-168517261D02*
X54502438Y-168422023D01*
X54502438Y-168422023D02*
X54550057Y-168374404D01*
X54550057Y-168374404D02*
X54645295Y-168326785D01*
X54645295Y-168326785D02*
X54692914Y-168326785D01*
X54692914Y-168326785D02*
X54788152Y-168374404D01*
X54788152Y-168374404D02*
X54835771Y-168422023D01*
X54835771Y-168422023D02*
X54883390Y-168517261D01*
X54883390Y-168517261D02*
X54883390Y-168707737D01*
X54883390Y-168707737D02*
X54931009Y-168802975D01*
X54931009Y-168802975D02*
X54978628Y-168850594D01*
X54978628Y-168850594D02*
X55073866Y-168898213D01*
X55073866Y-168898213D02*
X55264342Y-168898213D01*
X55264342Y-168898213D02*
X55359580Y-168850594D01*
X55359580Y-168850594D02*
X55407200Y-168802975D01*
X55407200Y-168802975D02*
X55454819Y-168707737D01*
X55454819Y-168707737D02*
X55454819Y-168517261D01*
X55454819Y-168517261D02*
X55407200Y-168422023D01*
X55407200Y-168422023D02*
X55359580Y-168374404D01*
X55359580Y-168374404D02*
X55264342Y-168326785D01*
X55264342Y-168326785D02*
X55073866Y-168326785D01*
X55073866Y-168326785D02*
X54978628Y-168374404D01*
X54978628Y-168374404D02*
X54931009Y-168422023D01*
X54931009Y-168422023D02*
X54883390Y-168517261D01*
X22011905Y-177454819D02*
X22011905Y-176454819D01*
X22011905Y-176454819D02*
X22250000Y-176454819D01*
X22250000Y-176454819D02*
X22392857Y-176502438D01*
X22392857Y-176502438D02*
X22488095Y-176597676D01*
X22488095Y-176597676D02*
X22535714Y-176692914D01*
X22535714Y-176692914D02*
X22583333Y-176883390D01*
X22583333Y-176883390D02*
X22583333Y-177026247D01*
X22583333Y-177026247D02*
X22535714Y-177216723D01*
X22535714Y-177216723D02*
X22488095Y-177311961D01*
X22488095Y-177311961D02*
X22392857Y-177407200D01*
X22392857Y-177407200D02*
X22250000Y-177454819D01*
X22250000Y-177454819D02*
X22011905Y-177454819D01*
X22964286Y-176550057D02*
X23011905Y-176502438D01*
X23011905Y-176502438D02*
X23107143Y-176454819D01*
X23107143Y-176454819D02*
X23345238Y-176454819D01*
X23345238Y-176454819D02*
X23440476Y-176502438D01*
X23440476Y-176502438D02*
X23488095Y-176550057D01*
X23488095Y-176550057D02*
X23535714Y-176645295D01*
X23535714Y-176645295D02*
X23535714Y-176740533D01*
X23535714Y-176740533D02*
X23488095Y-176883390D01*
X23488095Y-176883390D02*
X22916667Y-177454819D01*
X22916667Y-177454819D02*
X23535714Y-177454819D01*
X48707142Y-149624819D02*
X48373809Y-149148628D01*
X48135714Y-149624819D02*
X48135714Y-148624819D01*
X48135714Y-148624819D02*
X48516666Y-148624819D01*
X48516666Y-148624819D02*
X48611904Y-148672438D01*
X48611904Y-148672438D02*
X48659523Y-148720057D01*
X48659523Y-148720057D02*
X48707142Y-148815295D01*
X48707142Y-148815295D02*
X48707142Y-148958152D01*
X48707142Y-148958152D02*
X48659523Y-149053390D01*
X48659523Y-149053390D02*
X48611904Y-149101009D01*
X48611904Y-149101009D02*
X48516666Y-149148628D01*
X48516666Y-149148628D02*
X48135714Y-149148628D01*
X49659523Y-149624819D02*
X49088095Y-149624819D01*
X49373809Y-149624819D02*
X49373809Y-148624819D01*
X49373809Y-148624819D02*
X49278571Y-148767676D01*
X49278571Y-148767676D02*
X49183333Y-148862914D01*
X49183333Y-148862914D02*
X49088095Y-148910533D01*
X50564285Y-148624819D02*
X50088095Y-148624819D01*
X50088095Y-148624819D02*
X50040476Y-149101009D01*
X50040476Y-149101009D02*
X50088095Y-149053390D01*
X50088095Y-149053390D02*
X50183333Y-149005771D01*
X50183333Y-149005771D02*
X50421428Y-149005771D01*
X50421428Y-149005771D02*
X50516666Y-149053390D01*
X50516666Y-149053390D02*
X50564285Y-149101009D01*
X50564285Y-149101009D02*
X50611904Y-149196247D01*
X50611904Y-149196247D02*
X50611904Y-149434342D01*
X50611904Y-149434342D02*
X50564285Y-149529580D01*
X50564285Y-149529580D02*
X50516666Y-149577200D01*
X50516666Y-149577200D02*
X50421428Y-149624819D01*
X50421428Y-149624819D02*
X50183333Y-149624819D01*
X50183333Y-149624819D02*
X50088095Y-149577200D01*
X50088095Y-149577200D02*
X50040476Y-149529580D01*
X32083333Y-153954819D02*
X31750000Y-153478628D01*
X31511905Y-153954819D02*
X31511905Y-152954819D01*
X31511905Y-152954819D02*
X31892857Y-152954819D01*
X31892857Y-152954819D02*
X31988095Y-153002438D01*
X31988095Y-153002438D02*
X32035714Y-153050057D01*
X32035714Y-153050057D02*
X32083333Y-153145295D01*
X32083333Y-153145295D02*
X32083333Y-153288152D01*
X32083333Y-153288152D02*
X32035714Y-153383390D01*
X32035714Y-153383390D02*
X31988095Y-153431009D01*
X31988095Y-153431009D02*
X31892857Y-153478628D01*
X31892857Y-153478628D02*
X31511905Y-153478628D01*
X32940476Y-153288152D02*
X32940476Y-153954819D01*
X32702381Y-152907200D02*
X32464286Y-153621485D01*
X32464286Y-153621485D02*
X33083333Y-153621485D01*
X58333333Y-132609580D02*
X58285714Y-132657200D01*
X58285714Y-132657200D02*
X58142857Y-132704819D01*
X58142857Y-132704819D02*
X58047619Y-132704819D01*
X58047619Y-132704819D02*
X57904762Y-132657200D01*
X57904762Y-132657200D02*
X57809524Y-132561961D01*
X57809524Y-132561961D02*
X57761905Y-132466723D01*
X57761905Y-132466723D02*
X57714286Y-132276247D01*
X57714286Y-132276247D02*
X57714286Y-132133390D01*
X57714286Y-132133390D02*
X57761905Y-131942914D01*
X57761905Y-131942914D02*
X57809524Y-131847676D01*
X57809524Y-131847676D02*
X57904762Y-131752438D01*
X57904762Y-131752438D02*
X58047619Y-131704819D01*
X58047619Y-131704819D02*
X58142857Y-131704819D01*
X58142857Y-131704819D02*
X58285714Y-131752438D01*
X58285714Y-131752438D02*
X58333333Y-131800057D01*
X59190476Y-132038152D02*
X59190476Y-132704819D01*
X58952381Y-131657200D02*
X58714286Y-132371485D01*
X58714286Y-132371485D02*
X59333333Y-132371485D01*
X32083333Y-158704819D02*
X31750000Y-158228628D01*
X31511905Y-158704819D02*
X31511905Y-157704819D01*
X31511905Y-157704819D02*
X31892857Y-157704819D01*
X31892857Y-157704819D02*
X31988095Y-157752438D01*
X31988095Y-157752438D02*
X32035714Y-157800057D01*
X32035714Y-157800057D02*
X32083333Y-157895295D01*
X32083333Y-157895295D02*
X32083333Y-158038152D01*
X32083333Y-158038152D02*
X32035714Y-158133390D01*
X32035714Y-158133390D02*
X31988095Y-158181009D01*
X31988095Y-158181009D02*
X31892857Y-158228628D01*
X31892857Y-158228628D02*
X31511905Y-158228628D01*
X33035714Y-158704819D02*
X32464286Y-158704819D01*
X32750000Y-158704819D02*
X32750000Y-157704819D01*
X32750000Y-157704819D02*
X32654762Y-157847676D01*
X32654762Y-157847676D02*
X32559524Y-157942914D01*
X32559524Y-157942914D02*
X32464286Y-157990533D01*
X27961069Y-135666666D02*
X27484878Y-135999999D01*
X27961069Y-136238094D02*
X26961069Y-136238094D01*
X26961069Y-136238094D02*
X26961069Y-135857142D01*
X26961069Y-135857142D02*
X27008688Y-135761904D01*
X27008688Y-135761904D02*
X27056307Y-135714285D01*
X27056307Y-135714285D02*
X27151545Y-135666666D01*
X27151545Y-135666666D02*
X27294402Y-135666666D01*
X27294402Y-135666666D02*
X27389640Y-135714285D01*
X27389640Y-135714285D02*
X27437259Y-135761904D01*
X27437259Y-135761904D02*
X27484878Y-135857142D01*
X27484878Y-135857142D02*
X27484878Y-136238094D01*
X26961069Y-134809523D02*
X26961069Y-134999999D01*
X26961069Y-134999999D02*
X27008688Y-135095237D01*
X27008688Y-135095237D02*
X27056307Y-135142856D01*
X27056307Y-135142856D02*
X27199164Y-135238094D01*
X27199164Y-135238094D02*
X27389640Y-135285713D01*
X27389640Y-135285713D02*
X27770592Y-135285713D01*
X27770592Y-135285713D02*
X27865830Y-135238094D01*
X27865830Y-135238094D02*
X27913450Y-135190475D01*
X27913450Y-135190475D02*
X27961069Y-135095237D01*
X27961069Y-135095237D02*
X27961069Y-134904761D01*
X27961069Y-134904761D02*
X27913450Y-134809523D01*
X27913450Y-134809523D02*
X27865830Y-134761904D01*
X27865830Y-134761904D02*
X27770592Y-134714285D01*
X27770592Y-134714285D02*
X27532497Y-134714285D01*
X27532497Y-134714285D02*
X27437259Y-134761904D01*
X27437259Y-134761904D02*
X27389640Y-134809523D01*
X27389640Y-134809523D02*
X27342021Y-134904761D01*
X27342021Y-134904761D02*
X27342021Y-135095237D01*
X27342021Y-135095237D02*
X27389640Y-135190475D01*
X27389640Y-135190475D02*
X27437259Y-135238094D01*
X27437259Y-135238094D02*
X27532497Y-135285713D01*
X61359580Y-165099166D02*
X61407200Y-165146785D01*
X61407200Y-165146785D02*
X61454819Y-165289642D01*
X61454819Y-165289642D02*
X61454819Y-165384880D01*
X61454819Y-165384880D02*
X61407200Y-165527737D01*
X61407200Y-165527737D02*
X61311961Y-165622975D01*
X61311961Y-165622975D02*
X61216723Y-165670594D01*
X61216723Y-165670594D02*
X61026247Y-165718213D01*
X61026247Y-165718213D02*
X60883390Y-165718213D01*
X60883390Y-165718213D02*
X60692914Y-165670594D01*
X60692914Y-165670594D02*
X60597676Y-165622975D01*
X60597676Y-165622975D02*
X60502438Y-165527737D01*
X60502438Y-165527737D02*
X60454819Y-165384880D01*
X60454819Y-165384880D02*
X60454819Y-165289642D01*
X60454819Y-165289642D02*
X60502438Y-165146785D01*
X60502438Y-165146785D02*
X60550057Y-165099166D01*
X60454819Y-164242023D02*
X60454819Y-164432499D01*
X60454819Y-164432499D02*
X60502438Y-164527737D01*
X60502438Y-164527737D02*
X60550057Y-164575356D01*
X60550057Y-164575356D02*
X60692914Y-164670594D01*
X60692914Y-164670594D02*
X60883390Y-164718213D01*
X60883390Y-164718213D02*
X61264342Y-164718213D01*
X61264342Y-164718213D02*
X61359580Y-164670594D01*
X61359580Y-164670594D02*
X61407200Y-164622975D01*
X61407200Y-164622975D02*
X61454819Y-164527737D01*
X61454819Y-164527737D02*
X61454819Y-164337261D01*
X61454819Y-164337261D02*
X61407200Y-164242023D01*
X61407200Y-164242023D02*
X61359580Y-164194404D01*
X61359580Y-164194404D02*
X61264342Y-164146785D01*
X61264342Y-164146785D02*
X61026247Y-164146785D01*
X61026247Y-164146785D02*
X60931009Y-164194404D01*
X60931009Y-164194404D02*
X60883390Y-164242023D01*
X60883390Y-164242023D02*
X60835771Y-164337261D01*
X60835771Y-164337261D02*
X60835771Y-164527737D01*
X60835771Y-164527737D02*
X60883390Y-164622975D01*
X60883390Y-164622975D02*
X60931009Y-164670594D01*
X60931009Y-164670594D02*
X61026247Y-164718213D01*
X25048569Y-135666666D02*
X24572378Y-135999999D01*
X25048569Y-136238094D02*
X24048569Y-136238094D01*
X24048569Y-136238094D02*
X24048569Y-135857142D01*
X24048569Y-135857142D02*
X24096188Y-135761904D01*
X24096188Y-135761904D02*
X24143807Y-135714285D01*
X24143807Y-135714285D02*
X24239045Y-135666666D01*
X24239045Y-135666666D02*
X24381902Y-135666666D01*
X24381902Y-135666666D02*
X24477140Y-135714285D01*
X24477140Y-135714285D02*
X24524759Y-135761904D01*
X24524759Y-135761904D02*
X24572378Y-135857142D01*
X24572378Y-135857142D02*
X24572378Y-136238094D01*
X24048569Y-134761904D02*
X24048569Y-135238094D01*
X24048569Y-135238094D02*
X24524759Y-135285713D01*
X24524759Y-135285713D02*
X24477140Y-135238094D01*
X24477140Y-135238094D02*
X24429521Y-135142856D01*
X24429521Y-135142856D02*
X24429521Y-134904761D01*
X24429521Y-134904761D02*
X24477140Y-134809523D01*
X24477140Y-134809523D02*
X24524759Y-134761904D01*
X24524759Y-134761904D02*
X24619997Y-134714285D01*
X24619997Y-134714285D02*
X24858092Y-134714285D01*
X24858092Y-134714285D02*
X24953330Y-134761904D01*
X24953330Y-134761904D02*
X25000950Y-134809523D01*
X25000950Y-134809523D02*
X25048569Y-134904761D01*
X25048569Y-134904761D02*
X25048569Y-135142856D01*
X25048569Y-135142856D02*
X25000950Y-135238094D01*
X25000950Y-135238094D02*
X24953330Y-135285713D01*
X63519642Y-137024819D02*
X63186309Y-136548628D01*
X62948214Y-137024819D02*
X62948214Y-136024819D01*
X62948214Y-136024819D02*
X63329166Y-136024819D01*
X63329166Y-136024819D02*
X63424404Y-136072438D01*
X63424404Y-136072438D02*
X63472023Y-136120057D01*
X63472023Y-136120057D02*
X63519642Y-136215295D01*
X63519642Y-136215295D02*
X63519642Y-136358152D01*
X63519642Y-136358152D02*
X63472023Y-136453390D01*
X63472023Y-136453390D02*
X63424404Y-136501009D01*
X63424404Y-136501009D02*
X63329166Y-136548628D01*
X63329166Y-136548628D02*
X62948214Y-136548628D01*
X64472023Y-137024819D02*
X63900595Y-137024819D01*
X64186309Y-137024819D02*
X64186309Y-136024819D01*
X64186309Y-136024819D02*
X64091071Y-136167676D01*
X64091071Y-136167676D02*
X63995833Y-136262914D01*
X63995833Y-136262914D02*
X63900595Y-136310533D01*
X65424404Y-137024819D02*
X64852976Y-137024819D01*
X65138690Y-137024819D02*
X65138690Y-136024819D01*
X65138690Y-136024819D02*
X65043452Y-136167676D01*
X65043452Y-136167676D02*
X64948214Y-136262914D01*
X64948214Y-136262914D02*
X64852976Y-136310533D01*
X51289580Y-186892857D02*
X51337200Y-186940476D01*
X51337200Y-186940476D02*
X51384819Y-187083333D01*
X51384819Y-187083333D02*
X51384819Y-187178571D01*
X51384819Y-187178571D02*
X51337200Y-187321428D01*
X51337200Y-187321428D02*
X51241961Y-187416666D01*
X51241961Y-187416666D02*
X51146723Y-187464285D01*
X51146723Y-187464285D02*
X50956247Y-187511904D01*
X50956247Y-187511904D02*
X50813390Y-187511904D01*
X50813390Y-187511904D02*
X50622914Y-187464285D01*
X50622914Y-187464285D02*
X50527676Y-187416666D01*
X50527676Y-187416666D02*
X50432438Y-187321428D01*
X50432438Y-187321428D02*
X50384819Y-187178571D01*
X50384819Y-187178571D02*
X50384819Y-187083333D01*
X50384819Y-187083333D02*
X50432438Y-186940476D01*
X50432438Y-186940476D02*
X50480057Y-186892857D01*
X51384819Y-185940476D02*
X51384819Y-186511904D01*
X51384819Y-186226190D02*
X50384819Y-186226190D01*
X50384819Y-186226190D02*
X50527676Y-186321428D01*
X50527676Y-186321428D02*
X50622914Y-186416666D01*
X50622914Y-186416666D02*
X50670533Y-186511904D01*
X50480057Y-185559523D02*
X50432438Y-185511904D01*
X50432438Y-185511904D02*
X50384819Y-185416666D01*
X50384819Y-185416666D02*
X50384819Y-185178571D01*
X50384819Y-185178571D02*
X50432438Y-185083333D01*
X50432438Y-185083333D02*
X50480057Y-185035714D01*
X50480057Y-185035714D02*
X50575295Y-184988095D01*
X50575295Y-184988095D02*
X50670533Y-184988095D01*
X50670533Y-184988095D02*
X50813390Y-185035714D01*
X50813390Y-185035714D02*
X51384819Y-185607142D01*
X51384819Y-185607142D02*
X51384819Y-184988095D01*
X30833333Y-141359580D02*
X30785714Y-141407200D01*
X30785714Y-141407200D02*
X30642857Y-141454819D01*
X30642857Y-141454819D02*
X30547619Y-141454819D01*
X30547619Y-141454819D02*
X30404762Y-141407200D01*
X30404762Y-141407200D02*
X30309524Y-141311961D01*
X30309524Y-141311961D02*
X30261905Y-141216723D01*
X30261905Y-141216723D02*
X30214286Y-141026247D01*
X30214286Y-141026247D02*
X30214286Y-140883390D01*
X30214286Y-140883390D02*
X30261905Y-140692914D01*
X30261905Y-140692914D02*
X30309524Y-140597676D01*
X30309524Y-140597676D02*
X30404762Y-140502438D01*
X30404762Y-140502438D02*
X30547619Y-140454819D01*
X30547619Y-140454819D02*
X30642857Y-140454819D01*
X30642857Y-140454819D02*
X30785714Y-140502438D01*
X30785714Y-140502438D02*
X30833333Y-140550057D01*
X31166667Y-140454819D02*
X31785714Y-140454819D01*
X31785714Y-140454819D02*
X31452381Y-140835771D01*
X31452381Y-140835771D02*
X31595238Y-140835771D01*
X31595238Y-140835771D02*
X31690476Y-140883390D01*
X31690476Y-140883390D02*
X31738095Y-140931009D01*
X31738095Y-140931009D02*
X31785714Y-141026247D01*
X31785714Y-141026247D02*
X31785714Y-141264342D01*
X31785714Y-141264342D02*
X31738095Y-141359580D01*
X31738095Y-141359580D02*
X31690476Y-141407200D01*
X31690476Y-141407200D02*
X31595238Y-141454819D01*
X31595238Y-141454819D02*
X31309524Y-141454819D01*
X31309524Y-141454819D02*
X31214286Y-141407200D01*
X31214286Y-141407200D02*
X31166667Y-141359580D01*
X32083333Y-159954819D02*
X31750000Y-159478628D01*
X31511905Y-159954819D02*
X31511905Y-158954819D01*
X31511905Y-158954819D02*
X31892857Y-158954819D01*
X31892857Y-158954819D02*
X31988095Y-159002438D01*
X31988095Y-159002438D02*
X32035714Y-159050057D01*
X32035714Y-159050057D02*
X32083333Y-159145295D01*
X32083333Y-159145295D02*
X32083333Y-159288152D01*
X32083333Y-159288152D02*
X32035714Y-159383390D01*
X32035714Y-159383390D02*
X31988095Y-159431009D01*
X31988095Y-159431009D02*
X31892857Y-159478628D01*
X31892857Y-159478628D02*
X31511905Y-159478628D01*
X32464286Y-159050057D02*
X32511905Y-159002438D01*
X32511905Y-159002438D02*
X32607143Y-158954819D01*
X32607143Y-158954819D02*
X32845238Y-158954819D01*
X32845238Y-158954819D02*
X32940476Y-159002438D01*
X32940476Y-159002438D02*
X32988095Y-159050057D01*
X32988095Y-159050057D02*
X33035714Y-159145295D01*
X33035714Y-159145295D02*
X33035714Y-159240533D01*
X33035714Y-159240533D02*
X32988095Y-159383390D01*
X32988095Y-159383390D02*
X32416667Y-159954819D01*
X32416667Y-159954819D02*
X33035714Y-159954819D01*
X38404761Y-141550057D02*
X38309523Y-141502438D01*
X38309523Y-141502438D02*
X38214285Y-141407200D01*
X38214285Y-141407200D02*
X38071428Y-141264342D01*
X38071428Y-141264342D02*
X37976190Y-141216723D01*
X37976190Y-141216723D02*
X37880952Y-141216723D01*
X37928571Y-141454819D02*
X37833333Y-141407200D01*
X37833333Y-141407200D02*
X37738095Y-141311961D01*
X37738095Y-141311961D02*
X37690476Y-141121485D01*
X37690476Y-141121485D02*
X37690476Y-140788152D01*
X37690476Y-140788152D02*
X37738095Y-140597676D01*
X37738095Y-140597676D02*
X37833333Y-140502438D01*
X37833333Y-140502438D02*
X37928571Y-140454819D01*
X37928571Y-140454819D02*
X38119047Y-140454819D01*
X38119047Y-140454819D02*
X38214285Y-140502438D01*
X38214285Y-140502438D02*
X38309523Y-140597676D01*
X38309523Y-140597676D02*
X38357142Y-140788152D01*
X38357142Y-140788152D02*
X38357142Y-141121485D01*
X38357142Y-141121485D02*
X38309523Y-141311961D01*
X38309523Y-141311961D02*
X38214285Y-141407200D01*
X38214285Y-141407200D02*
X38119047Y-141454819D01*
X38119047Y-141454819D02*
X37928571Y-141454819D01*
X39309523Y-141454819D02*
X38738095Y-141454819D01*
X39023809Y-141454819D02*
X39023809Y-140454819D01*
X39023809Y-140454819D02*
X38928571Y-140597676D01*
X38928571Y-140597676D02*
X38833333Y-140692914D01*
X38833333Y-140692914D02*
X38738095Y-140740533D01*
X31273569Y-136238094D02*
X30273569Y-136238094D01*
X30273569Y-136238094D02*
X30273569Y-135999999D01*
X30273569Y-135999999D02*
X30321188Y-135857142D01*
X30321188Y-135857142D02*
X30416426Y-135761904D01*
X30416426Y-135761904D02*
X30511664Y-135714285D01*
X30511664Y-135714285D02*
X30702140Y-135666666D01*
X30702140Y-135666666D02*
X30844997Y-135666666D01*
X30844997Y-135666666D02*
X31035473Y-135714285D01*
X31035473Y-135714285D02*
X31130711Y-135761904D01*
X31130711Y-135761904D02*
X31225950Y-135857142D01*
X31225950Y-135857142D02*
X31273569Y-135999999D01*
X31273569Y-135999999D02*
X31273569Y-136238094D01*
X31273569Y-134714285D02*
X31273569Y-135285713D01*
X31273569Y-134999999D02*
X30273569Y-134999999D01*
X30273569Y-134999999D02*
X30416426Y-135095237D01*
X30416426Y-135095237D02*
X30511664Y-135190475D01*
X30511664Y-135190475D02*
X30559283Y-135285713D01*
X30386905Y-187024819D02*
X30386905Y-186024819D01*
X30386905Y-186024819D02*
X30625000Y-186024819D01*
X30625000Y-186024819D02*
X30767857Y-186072438D01*
X30767857Y-186072438D02*
X30863095Y-186167676D01*
X30863095Y-186167676D02*
X30910714Y-186262914D01*
X30910714Y-186262914D02*
X30958333Y-186453390D01*
X30958333Y-186453390D02*
X30958333Y-186596247D01*
X30958333Y-186596247D02*
X30910714Y-186786723D01*
X30910714Y-186786723D02*
X30863095Y-186881961D01*
X30863095Y-186881961D02*
X30767857Y-186977200D01*
X30767857Y-186977200D02*
X30625000Y-187024819D01*
X30625000Y-187024819D02*
X30386905Y-187024819D01*
X31815476Y-186358152D02*
X31815476Y-187024819D01*
X31577381Y-185977200D02*
X31339286Y-186691485D01*
X31339286Y-186691485D02*
X31958333Y-186691485D01*
X34232142Y-183954819D02*
X33898809Y-183478628D01*
X33660714Y-183954819D02*
X33660714Y-182954819D01*
X33660714Y-182954819D02*
X34041666Y-182954819D01*
X34041666Y-182954819D02*
X34136904Y-183002438D01*
X34136904Y-183002438D02*
X34184523Y-183050057D01*
X34184523Y-183050057D02*
X34232142Y-183145295D01*
X34232142Y-183145295D02*
X34232142Y-183288152D01*
X34232142Y-183288152D02*
X34184523Y-183383390D01*
X34184523Y-183383390D02*
X34136904Y-183431009D01*
X34136904Y-183431009D02*
X34041666Y-183478628D01*
X34041666Y-183478628D02*
X33660714Y-183478628D01*
X35184523Y-183954819D02*
X34613095Y-183954819D01*
X34898809Y-183954819D02*
X34898809Y-182954819D01*
X34898809Y-182954819D02*
X34803571Y-183097676D01*
X34803571Y-183097676D02*
X34708333Y-183192914D01*
X34708333Y-183192914D02*
X34613095Y-183240533D01*
X35803571Y-182954819D02*
X35898809Y-182954819D01*
X35898809Y-182954819D02*
X35994047Y-183002438D01*
X35994047Y-183002438D02*
X36041666Y-183050057D01*
X36041666Y-183050057D02*
X36089285Y-183145295D01*
X36089285Y-183145295D02*
X36136904Y-183335771D01*
X36136904Y-183335771D02*
X36136904Y-183573866D01*
X36136904Y-183573866D02*
X36089285Y-183764342D01*
X36089285Y-183764342D02*
X36041666Y-183859580D01*
X36041666Y-183859580D02*
X35994047Y-183907200D01*
X35994047Y-183907200D02*
X35898809Y-183954819D01*
X35898809Y-183954819D02*
X35803571Y-183954819D01*
X35803571Y-183954819D02*
X35708333Y-183907200D01*
X35708333Y-183907200D02*
X35660714Y-183859580D01*
X35660714Y-183859580D02*
X35613095Y-183764342D01*
X35613095Y-183764342D02*
X35565476Y-183573866D01*
X35565476Y-183573866D02*
X35565476Y-183335771D01*
X35565476Y-183335771D02*
X35613095Y-183145295D01*
X35613095Y-183145295D02*
X35660714Y-183050057D01*
X35660714Y-183050057D02*
X35708333Y-183002438D01*
X35708333Y-183002438D02*
X35803571Y-182954819D01*
X38007142Y-155204819D02*
X37673809Y-154728628D01*
X37435714Y-155204819D02*
X37435714Y-154204819D01*
X37435714Y-154204819D02*
X37816666Y-154204819D01*
X37816666Y-154204819D02*
X37911904Y-154252438D01*
X37911904Y-154252438D02*
X37959523Y-154300057D01*
X37959523Y-154300057D02*
X38007142Y-154395295D01*
X38007142Y-154395295D02*
X38007142Y-154538152D01*
X38007142Y-154538152D02*
X37959523Y-154633390D01*
X37959523Y-154633390D02*
X37911904Y-154681009D01*
X37911904Y-154681009D02*
X37816666Y-154728628D01*
X37816666Y-154728628D02*
X37435714Y-154728628D01*
X38959523Y-155204819D02*
X38388095Y-155204819D01*
X38673809Y-155204819D02*
X38673809Y-154204819D01*
X38673809Y-154204819D02*
X38578571Y-154347676D01*
X38578571Y-154347676D02*
X38483333Y-154442914D01*
X38483333Y-154442914D02*
X38388095Y-154490533D01*
X39816666Y-154538152D02*
X39816666Y-155204819D01*
X39578571Y-154157200D02*
X39340476Y-154871485D01*
X39340476Y-154871485D02*
X39959523Y-154871485D01*
X30958333Y-183954819D02*
X30625000Y-183478628D01*
X30386905Y-183954819D02*
X30386905Y-182954819D01*
X30386905Y-182954819D02*
X30767857Y-182954819D01*
X30767857Y-182954819D02*
X30863095Y-183002438D01*
X30863095Y-183002438D02*
X30910714Y-183050057D01*
X30910714Y-183050057D02*
X30958333Y-183145295D01*
X30958333Y-183145295D02*
X30958333Y-183288152D01*
X30958333Y-183288152D02*
X30910714Y-183383390D01*
X30910714Y-183383390D02*
X30863095Y-183431009D01*
X30863095Y-183431009D02*
X30767857Y-183478628D01*
X30767857Y-183478628D02*
X30386905Y-183478628D01*
X31529762Y-183383390D02*
X31434524Y-183335771D01*
X31434524Y-183335771D02*
X31386905Y-183288152D01*
X31386905Y-183288152D02*
X31339286Y-183192914D01*
X31339286Y-183192914D02*
X31339286Y-183145295D01*
X31339286Y-183145295D02*
X31386905Y-183050057D01*
X31386905Y-183050057D02*
X31434524Y-183002438D01*
X31434524Y-183002438D02*
X31529762Y-182954819D01*
X31529762Y-182954819D02*
X31720238Y-182954819D01*
X31720238Y-182954819D02*
X31815476Y-183002438D01*
X31815476Y-183002438D02*
X31863095Y-183050057D01*
X31863095Y-183050057D02*
X31910714Y-183145295D01*
X31910714Y-183145295D02*
X31910714Y-183192914D01*
X31910714Y-183192914D02*
X31863095Y-183288152D01*
X31863095Y-183288152D02*
X31815476Y-183335771D01*
X31815476Y-183335771D02*
X31720238Y-183383390D01*
X31720238Y-183383390D02*
X31529762Y-183383390D01*
X31529762Y-183383390D02*
X31434524Y-183431009D01*
X31434524Y-183431009D02*
X31386905Y-183478628D01*
X31386905Y-183478628D02*
X31339286Y-183573866D01*
X31339286Y-183573866D02*
X31339286Y-183764342D01*
X31339286Y-183764342D02*
X31386905Y-183859580D01*
X31386905Y-183859580D02*
X31434524Y-183907200D01*
X31434524Y-183907200D02*
X31529762Y-183954819D01*
X31529762Y-183954819D02*
X31720238Y-183954819D01*
X31720238Y-183954819D02*
X31815476Y-183907200D01*
X31815476Y-183907200D02*
X31863095Y-183859580D01*
X31863095Y-183859580D02*
X31910714Y-183764342D01*
X31910714Y-183764342D02*
X31910714Y-183573866D01*
X31910714Y-183573866D02*
X31863095Y-183478628D01*
X31863095Y-183478628D02*
X31815476Y-183431009D01*
X31815476Y-183431009D02*
X31720238Y-183383390D01*
X61384819Y-160480357D02*
X60908628Y-160813690D01*
X61384819Y-161051785D02*
X60384819Y-161051785D01*
X60384819Y-161051785D02*
X60384819Y-160670833D01*
X60384819Y-160670833D02*
X60432438Y-160575595D01*
X60432438Y-160575595D02*
X60480057Y-160527976D01*
X60480057Y-160527976D02*
X60575295Y-160480357D01*
X60575295Y-160480357D02*
X60718152Y-160480357D01*
X60718152Y-160480357D02*
X60813390Y-160527976D01*
X60813390Y-160527976D02*
X60861009Y-160575595D01*
X60861009Y-160575595D02*
X60908628Y-160670833D01*
X60908628Y-160670833D02*
X60908628Y-161051785D01*
X61384819Y-159527976D02*
X61384819Y-160099404D01*
X61384819Y-159813690D02*
X60384819Y-159813690D01*
X60384819Y-159813690D02*
X60527676Y-159908928D01*
X60527676Y-159908928D02*
X60622914Y-160004166D01*
X60622914Y-160004166D02*
X60670533Y-160099404D01*
X60384819Y-159194642D02*
X60384819Y-158575595D01*
X60384819Y-158575595D02*
X60765771Y-158908928D01*
X60765771Y-158908928D02*
X60765771Y-158766071D01*
X60765771Y-158766071D02*
X60813390Y-158670833D01*
X60813390Y-158670833D02*
X60861009Y-158623214D01*
X60861009Y-158623214D02*
X60956247Y-158575595D01*
X60956247Y-158575595D02*
X61194342Y-158575595D01*
X61194342Y-158575595D02*
X61289580Y-158623214D01*
X61289580Y-158623214D02*
X61337200Y-158670833D01*
X61337200Y-158670833D02*
X61384819Y-158766071D01*
X61384819Y-158766071D02*
X61384819Y-159051785D01*
X61384819Y-159051785D02*
X61337200Y-159147023D01*
X61337200Y-159147023D02*
X61289580Y-159194642D01*
X40704819Y-164329166D02*
X40228628Y-164662499D01*
X40704819Y-164900594D02*
X39704819Y-164900594D01*
X39704819Y-164900594D02*
X39704819Y-164519642D01*
X39704819Y-164519642D02*
X39752438Y-164424404D01*
X39752438Y-164424404D02*
X39800057Y-164376785D01*
X39800057Y-164376785D02*
X39895295Y-164329166D01*
X39895295Y-164329166D02*
X40038152Y-164329166D01*
X40038152Y-164329166D02*
X40133390Y-164376785D01*
X40133390Y-164376785D02*
X40181009Y-164424404D01*
X40181009Y-164424404D02*
X40228628Y-164519642D01*
X40228628Y-164519642D02*
X40228628Y-164900594D01*
X39704819Y-163995832D02*
X39704819Y-163329166D01*
X39704819Y-163329166D02*
X40704819Y-163757737D01*
X73238095Y-166454819D02*
X73238095Y-167264342D01*
X73238095Y-167264342D02*
X73285714Y-167359580D01*
X73285714Y-167359580D02*
X73333333Y-167407200D01*
X73333333Y-167407200D02*
X73428571Y-167454819D01*
X73428571Y-167454819D02*
X73619047Y-167454819D01*
X73619047Y-167454819D02*
X73714285Y-167407200D01*
X73714285Y-167407200D02*
X73761904Y-167359580D01*
X73761904Y-167359580D02*
X73809523Y-167264342D01*
X73809523Y-167264342D02*
X73809523Y-166454819D01*
X74761904Y-166454819D02*
X74285714Y-166454819D01*
X74285714Y-166454819D02*
X74238095Y-166931009D01*
X74238095Y-166931009D02*
X74285714Y-166883390D01*
X74285714Y-166883390D02*
X74380952Y-166835771D01*
X74380952Y-166835771D02*
X74619047Y-166835771D01*
X74619047Y-166835771D02*
X74714285Y-166883390D01*
X74714285Y-166883390D02*
X74761904Y-166931009D01*
X74761904Y-166931009D02*
X74809523Y-167026247D01*
X74809523Y-167026247D02*
X74809523Y-167264342D01*
X74809523Y-167264342D02*
X74761904Y-167359580D01*
X74761904Y-167359580D02*
X74714285Y-167407200D01*
X74714285Y-167407200D02*
X74619047Y-167454819D01*
X74619047Y-167454819D02*
X74380952Y-167454819D01*
X74380952Y-167454819D02*
X74285714Y-167407200D01*
X74285714Y-167407200D02*
X74238095Y-167359580D01*
X21254819Y-149473809D02*
X20778628Y-149807142D01*
X21254819Y-150045237D02*
X20254819Y-150045237D01*
X20254819Y-150045237D02*
X20254819Y-149664285D01*
X20254819Y-149664285D02*
X20302438Y-149569047D01*
X20302438Y-149569047D02*
X20350057Y-149521428D01*
X20350057Y-149521428D02*
X20445295Y-149473809D01*
X20445295Y-149473809D02*
X20588152Y-149473809D01*
X20588152Y-149473809D02*
X20683390Y-149521428D01*
X20683390Y-149521428D02*
X20731009Y-149569047D01*
X20731009Y-149569047D02*
X20778628Y-149664285D01*
X20778628Y-149664285D02*
X20778628Y-150045237D01*
X21207200Y-149092856D02*
X21254819Y-148949999D01*
X21254819Y-148949999D02*
X21254819Y-148711904D01*
X21254819Y-148711904D02*
X21207200Y-148616666D01*
X21207200Y-148616666D02*
X21159580Y-148569047D01*
X21159580Y-148569047D02*
X21064342Y-148521428D01*
X21064342Y-148521428D02*
X20969104Y-148521428D01*
X20969104Y-148521428D02*
X20873866Y-148569047D01*
X20873866Y-148569047D02*
X20826247Y-148616666D01*
X20826247Y-148616666D02*
X20778628Y-148711904D01*
X20778628Y-148711904D02*
X20731009Y-148902380D01*
X20731009Y-148902380D02*
X20683390Y-148997618D01*
X20683390Y-148997618D02*
X20635771Y-149045237D01*
X20635771Y-149045237D02*
X20540533Y-149092856D01*
X20540533Y-149092856D02*
X20445295Y-149092856D01*
X20445295Y-149092856D02*
X20350057Y-149045237D01*
X20350057Y-149045237D02*
X20302438Y-148997618D01*
X20302438Y-148997618D02*
X20254819Y-148902380D01*
X20254819Y-148902380D02*
X20254819Y-148664285D01*
X20254819Y-148664285D02*
X20302438Y-148521428D01*
X20254819Y-148235713D02*
X20254819Y-147664285D01*
X21254819Y-147949999D02*
X20254819Y-147949999D01*
X21254819Y-146807142D02*
X21254819Y-147378570D01*
X21254819Y-147092856D02*
X20254819Y-147092856D01*
X20254819Y-147092856D02*
X20397676Y-147188094D01*
X20397676Y-147188094D02*
X20492914Y-147283332D01*
X20492914Y-147283332D02*
X20540533Y-147378570D01*
X24149819Y-159333333D02*
X24864104Y-159333333D01*
X24864104Y-159333333D02*
X25006961Y-159380952D01*
X25006961Y-159380952D02*
X25102200Y-159476190D01*
X25102200Y-159476190D02*
X25149819Y-159619047D01*
X25149819Y-159619047D02*
X25149819Y-159714285D01*
X25149819Y-158333333D02*
X25149819Y-158904761D01*
X25149819Y-158619047D02*
X24149819Y-158619047D01*
X24149819Y-158619047D02*
X24292676Y-158714285D01*
X24292676Y-158714285D02*
X24387914Y-158809523D01*
X24387914Y-158809523D02*
X24435533Y-158904761D01*
X71238095Y-161954819D02*
X71238095Y-162764342D01*
X71238095Y-162764342D02*
X71285714Y-162859580D01*
X71285714Y-162859580D02*
X71333333Y-162907200D01*
X71333333Y-162907200D02*
X71428571Y-162954819D01*
X71428571Y-162954819D02*
X71619047Y-162954819D01*
X71619047Y-162954819D02*
X71714285Y-162907200D01*
X71714285Y-162907200D02*
X71761904Y-162859580D01*
X71761904Y-162859580D02*
X71809523Y-162764342D01*
X71809523Y-162764342D02*
X71809523Y-161954819D01*
X72714285Y-161954819D02*
X72523809Y-161954819D01*
X72523809Y-161954819D02*
X72428571Y-162002438D01*
X72428571Y-162002438D02*
X72380952Y-162050057D01*
X72380952Y-162050057D02*
X72285714Y-162192914D01*
X72285714Y-162192914D02*
X72238095Y-162383390D01*
X72238095Y-162383390D02*
X72238095Y-162764342D01*
X72238095Y-162764342D02*
X72285714Y-162859580D01*
X72285714Y-162859580D02*
X72333333Y-162907200D01*
X72333333Y-162907200D02*
X72428571Y-162954819D01*
X72428571Y-162954819D02*
X72619047Y-162954819D01*
X72619047Y-162954819D02*
X72714285Y-162907200D01*
X72714285Y-162907200D02*
X72761904Y-162859580D01*
X72761904Y-162859580D02*
X72809523Y-162764342D01*
X72809523Y-162764342D02*
X72809523Y-162526247D01*
X72809523Y-162526247D02*
X72761904Y-162431009D01*
X72761904Y-162431009D02*
X72714285Y-162383390D01*
X72714285Y-162383390D02*
X72619047Y-162335771D01*
X72619047Y-162335771D02*
X72428571Y-162335771D01*
X72428571Y-162335771D02*
X72333333Y-162383390D01*
X72333333Y-162383390D02*
X72285714Y-162431009D01*
X72285714Y-162431009D02*
X72238095Y-162526247D01*
X52304819Y-146861904D02*
X53114342Y-146861904D01*
X53114342Y-146861904D02*
X53209580Y-146814285D01*
X53209580Y-146814285D02*
X53257200Y-146766666D01*
X53257200Y-146766666D02*
X53304819Y-146671428D01*
X53304819Y-146671428D02*
X53304819Y-146480952D01*
X53304819Y-146480952D02*
X53257200Y-146385714D01*
X53257200Y-146385714D02*
X53209580Y-146338095D01*
X53209580Y-146338095D02*
X53114342Y-146290476D01*
X53114342Y-146290476D02*
X52304819Y-146290476D01*
X52304819Y-145909523D02*
X52304819Y-145242857D01*
X52304819Y-145242857D02*
X53304819Y-145671428D01*
X48988095Y-164454819D02*
X48988095Y-165264342D01*
X48988095Y-165264342D02*
X49035714Y-165359580D01*
X49035714Y-165359580D02*
X49083333Y-165407200D01*
X49083333Y-165407200D02*
X49178571Y-165454819D01*
X49178571Y-165454819D02*
X49369047Y-165454819D01*
X49369047Y-165454819D02*
X49464285Y-165407200D01*
X49464285Y-165407200D02*
X49511904Y-165359580D01*
X49511904Y-165359580D02*
X49559523Y-165264342D01*
X49559523Y-165264342D02*
X49559523Y-164454819D01*
X50559523Y-165454819D02*
X49988095Y-165454819D01*
X50273809Y-165454819D02*
X50273809Y-164454819D01*
X50273809Y-164454819D02*
X50178571Y-164597676D01*
X50178571Y-164597676D02*
X50083333Y-164692914D01*
X50083333Y-164692914D02*
X49988095Y-164740533D01*
X20731009Y-172833333D02*
X20778628Y-172690476D01*
X20778628Y-172690476D02*
X20826247Y-172642857D01*
X20826247Y-172642857D02*
X20921485Y-172595238D01*
X20921485Y-172595238D02*
X21064342Y-172595238D01*
X21064342Y-172595238D02*
X21159580Y-172642857D01*
X21159580Y-172642857D02*
X21207200Y-172690476D01*
X21207200Y-172690476D02*
X21254819Y-172785714D01*
X21254819Y-172785714D02*
X21254819Y-173166666D01*
X21254819Y-173166666D02*
X20254819Y-173166666D01*
X20254819Y-173166666D02*
X20254819Y-172833333D01*
X20254819Y-172833333D02*
X20302438Y-172738095D01*
X20302438Y-172738095D02*
X20350057Y-172690476D01*
X20350057Y-172690476D02*
X20445295Y-172642857D01*
X20445295Y-172642857D02*
X20540533Y-172642857D01*
X20540533Y-172642857D02*
X20635771Y-172690476D01*
X20635771Y-172690476D02*
X20683390Y-172738095D01*
X20683390Y-172738095D02*
X20731009Y-172833333D01*
X20731009Y-172833333D02*
X20731009Y-173166666D01*
X20254819Y-171976190D02*
X20254819Y-171785714D01*
X20254819Y-171785714D02*
X20302438Y-171690476D01*
X20302438Y-171690476D02*
X20397676Y-171595238D01*
X20397676Y-171595238D02*
X20588152Y-171547619D01*
X20588152Y-171547619D02*
X20921485Y-171547619D01*
X20921485Y-171547619D02*
X21111961Y-171595238D01*
X21111961Y-171595238D02*
X21207200Y-171690476D01*
X21207200Y-171690476D02*
X21254819Y-171785714D01*
X21254819Y-171785714D02*
X21254819Y-171976190D01*
X21254819Y-171976190D02*
X21207200Y-172071428D01*
X21207200Y-172071428D02*
X21111961Y-172166666D01*
X21111961Y-172166666D02*
X20921485Y-172214285D01*
X20921485Y-172214285D02*
X20588152Y-172214285D01*
X20588152Y-172214285D02*
X20397676Y-172166666D01*
X20397676Y-172166666D02*
X20302438Y-172071428D01*
X20302438Y-172071428D02*
X20254819Y-171976190D01*
X20254819Y-170928571D02*
X20254819Y-170738095D01*
X20254819Y-170738095D02*
X20302438Y-170642857D01*
X20302438Y-170642857D02*
X20397676Y-170547619D01*
X20397676Y-170547619D02*
X20588152Y-170500000D01*
X20588152Y-170500000D02*
X20921485Y-170500000D01*
X20921485Y-170500000D02*
X21111961Y-170547619D01*
X21111961Y-170547619D02*
X21207200Y-170642857D01*
X21207200Y-170642857D02*
X21254819Y-170738095D01*
X21254819Y-170738095D02*
X21254819Y-170928571D01*
X21254819Y-170928571D02*
X21207200Y-171023809D01*
X21207200Y-171023809D02*
X21111961Y-171119047D01*
X21111961Y-171119047D02*
X20921485Y-171166666D01*
X20921485Y-171166666D02*
X20588152Y-171166666D01*
X20588152Y-171166666D02*
X20397676Y-171119047D01*
X20397676Y-171119047D02*
X20302438Y-171023809D01*
X20302438Y-171023809D02*
X20254819Y-170928571D01*
X20254819Y-170214285D02*
X20254819Y-169642857D01*
X21254819Y-169928571D02*
X20254819Y-169928571D01*
X21254819Y-168785714D02*
X21254819Y-169357142D01*
X21254819Y-169071428D02*
X20254819Y-169071428D01*
X20254819Y-169071428D02*
X20397676Y-169166666D01*
X20397676Y-169166666D02*
X20492914Y-169261904D01*
X20492914Y-169261904D02*
X20540533Y-169357142D01*
X37813095Y-150004819D02*
X37813095Y-150814342D01*
X37813095Y-150814342D02*
X37860714Y-150909580D01*
X37860714Y-150909580D02*
X37908333Y-150957200D01*
X37908333Y-150957200D02*
X38003571Y-151004819D01*
X38003571Y-151004819D02*
X38194047Y-151004819D01*
X38194047Y-151004819D02*
X38289285Y-150957200D01*
X38289285Y-150957200D02*
X38336904Y-150909580D01*
X38336904Y-150909580D02*
X38384523Y-150814342D01*
X38384523Y-150814342D02*
X38384523Y-150004819D01*
X39289285Y-150338152D02*
X39289285Y-151004819D01*
X39051190Y-149957200D02*
X38813095Y-150671485D01*
X38813095Y-150671485D02*
X39432142Y-150671485D01*
X31738095Y-131454819D02*
X31738095Y-132264342D01*
X31738095Y-132264342D02*
X31785714Y-132359580D01*
X31785714Y-132359580D02*
X31833333Y-132407200D01*
X31833333Y-132407200D02*
X31928571Y-132454819D01*
X31928571Y-132454819D02*
X32119047Y-132454819D01*
X32119047Y-132454819D02*
X32214285Y-132407200D01*
X32214285Y-132407200D02*
X32261904Y-132359580D01*
X32261904Y-132359580D02*
X32309523Y-132264342D01*
X32309523Y-132264342D02*
X32309523Y-131454819D01*
X32738095Y-131550057D02*
X32785714Y-131502438D01*
X32785714Y-131502438D02*
X32880952Y-131454819D01*
X32880952Y-131454819D02*
X33119047Y-131454819D01*
X33119047Y-131454819D02*
X33214285Y-131502438D01*
X33214285Y-131502438D02*
X33261904Y-131550057D01*
X33261904Y-131550057D02*
X33309523Y-131645295D01*
X33309523Y-131645295D02*
X33309523Y-131740533D01*
X33309523Y-131740533D02*
X33261904Y-131883390D01*
X33261904Y-131883390D02*
X32690476Y-132454819D01*
X32690476Y-132454819D02*
X33309523Y-132454819D01*
D13*
%TO.C, *%
G36*
X77500000Y-134500000D02*
G01*
X77500000Y-136500000D01*
X75500000Y-136500000D01*
X73500000Y-136500000D01*
X73500000Y-136300000D01*
X73700000Y-136300000D01*
X75500000Y-136300000D01*
X77300000Y-136300000D01*
X77300000Y-134500000D01*
X77300000Y-132700000D01*
X75500000Y-132700000D01*
X73700000Y-132700000D01*
X73700000Y-134500000D01*
X73700000Y-136300000D01*
X73500000Y-136300000D01*
X73500000Y-134500000D01*
X73500000Y-132500000D01*
X75500000Y-132500000D01*
X77500000Y-132500000D01*
X77500000Y-134500000D01*
G37*
G36*
X76138746Y-133220095D02*
G01*
X76199979Y-133220490D01*
X76246043Y-133221346D01*
X76279352Y-133222823D01*
X76302324Y-133225085D01*
X76317371Y-133228291D01*
X76326911Y-133232604D01*
X76333357Y-133238185D01*
X76333450Y-133238287D01*
X76345810Y-133261828D01*
X76350000Y-133285917D01*
X76346036Y-133301912D01*
X76334790Y-133333739D01*
X76317226Y-133379010D01*
X76294309Y-133435337D01*
X76267004Y-133500331D01*
X76236276Y-133571606D01*
X76215000Y-133620000D01*
X76182792Y-133692875D01*
X76153336Y-133759859D01*
X76127576Y-133818778D01*
X76106456Y-133867457D01*
X76090920Y-133903724D01*
X76081914Y-133925404D01*
X76080000Y-133930730D01*
X76085849Y-133940767D01*
X76101412Y-133962208D01*
X76123707Y-133991000D01*
X76131580Y-134000861D01*
X76183804Y-134076692D01*
X76229961Y-134164785D01*
X76266335Y-134257538D01*
X76279898Y-134304099D01*
X76293922Y-134382352D01*
X76300236Y-134471119D01*
X76298836Y-134562459D01*
X76289717Y-134648430D01*
X76280098Y-134695900D01*
X76240757Y-134813276D01*
X76185012Y-134921350D01*
X76114529Y-135018715D01*
X76030975Y-135103960D01*
X75936018Y-135175679D01*
X75831324Y-135232463D01*
X75718559Y-135272903D01*
X75599391Y-135295592D01*
X75566934Y-135298451D01*
X75468869Y-135305000D01*
X75366555Y-135536869D01*
X75337679Y-135601440D01*
X75310384Y-135660857D01*
X75285998Y-135712356D01*
X75265848Y-135753172D01*
X75251262Y-135780538D01*
X75244620Y-135790749D01*
X75229697Y-135805698D01*
X75213060Y-135817300D01*
X75192086Y-135825968D01*
X75164155Y-135832113D01*
X75126646Y-135836146D01*
X75076937Y-135838480D01*
X75012408Y-135839524D01*
X74932821Y-135839695D01*
X74843982Y-135839037D01*
X74774395Y-135837329D01*
X74724258Y-135834583D01*
X74693775Y-135830807D01*
X74685000Y-135828050D01*
X74660978Y-135809319D01*
X74651218Y-135784617D01*
X74650153Y-135767427D01*
X74654043Y-135751980D01*
X74665164Y-135720595D01*
X74682581Y-135675592D01*
X74705360Y-135619290D01*
X74732566Y-135554009D01*
X74763264Y-135482067D01*
X74789204Y-135422427D01*
X74821943Y-135347676D01*
X74852131Y-135278570D01*
X74878822Y-135217284D01*
X74901071Y-135165998D01*
X74917932Y-135126889D01*
X74928461Y-135102135D01*
X74931704Y-135094087D01*
X74927268Y-135082000D01*
X74912642Y-135058544D01*
X74890443Y-135027713D01*
X74875976Y-135009087D01*
X74804404Y-134904822D01*
X74751744Y-134794986D01*
X74717574Y-134678362D01*
X74701475Y-134553730D01*
X74700000Y-134500000D01*
X74704761Y-134397251D01*
X74720117Y-134305108D01*
X74747672Y-134216309D01*
X74778523Y-134145000D01*
X74837148Y-134044184D01*
X74910593Y-133953257D01*
X74996440Y-133873789D01*
X75092272Y-133807347D01*
X75195671Y-133755502D01*
X75304219Y-133719821D01*
X75415498Y-133701874D01*
X75464210Y-133700000D01*
X75545222Y-133699999D01*
X75640722Y-133482499D01*
X75672083Y-133411650D01*
X75697031Y-133356910D01*
X75716831Y-133315920D01*
X75732750Y-133286322D01*
X75746055Y-133265759D01*
X75758010Y-133251871D01*
X75769589Y-133242500D01*
X75780435Y-133235640D01*
X75791840Y-133230337D01*
X75806389Y-133226392D01*
X75826669Y-133223604D01*
X75855263Y-133221772D01*
X75894758Y-133220696D01*
X75947737Y-133220176D01*
X76016785Y-133220011D01*
X76059928Y-133220000D01*
X76138746Y-133220095D01*
G37*
D14*
%TO.C,R17*%
X42620276Y-184477500D02*
X43129724Y-184477500D01*
X42620276Y-185522500D02*
X43129724Y-185522500D01*
%TO.C,R16*%
X38620276Y-184477500D02*
X39129724Y-184477500D01*
X38620276Y-185522500D02*
X39129724Y-185522500D01*
%TO.C,D8*%
X41215000Y-187265000D02*
X41215000Y-188735000D01*
X41215000Y-188735000D02*
X43675000Y-188735000D01*
X43675000Y-187265000D02*
X41215000Y-187265000D01*
%TO.C,D7*%
X37215000Y-187265000D02*
X37215000Y-188735000D01*
X37215000Y-188735000D02*
X39675000Y-188735000D01*
X39675000Y-187265000D02*
X37215000Y-187265000D01*
D13*
%TO.C, *%
G36*
X72666667Y-186250000D02*
G01*
X72666667Y-188750000D01*
X66000000Y-188750000D01*
X59333334Y-188750000D01*
X59333334Y-188416666D01*
X59666667Y-188416666D01*
X66000000Y-188416666D01*
X72333334Y-188416666D01*
X72333334Y-186250000D01*
X72333334Y-184083333D01*
X66000000Y-184083333D01*
X59666667Y-184083333D01*
X59666667Y-186250000D01*
X59666667Y-188416666D01*
X59333334Y-188416666D01*
X59333334Y-186250000D01*
X59333334Y-183750000D01*
X66000000Y-183750000D01*
X72666667Y-183750000D01*
X72666667Y-186250000D01*
G37*
G36*
X71708820Y-186420131D02*
G01*
X71779650Y-186429119D01*
X71800000Y-186439030D01*
X71787036Y-186474204D01*
X71750447Y-186562275D01*
X71693685Y-186695222D01*
X71620205Y-186865024D01*
X71533458Y-187063660D01*
X71436898Y-187283107D01*
X71426919Y-187305697D01*
X71053838Y-188150000D01*
X70856686Y-188150000D01*
X70747396Y-188147780D01*
X70691484Y-188138182D01*
X70675727Y-188116794D01*
X70681806Y-188091666D01*
X70700728Y-188046347D01*
X70742580Y-187948675D01*
X70803584Y-187807382D01*
X70879963Y-187631198D01*
X70967940Y-187428854D01*
X71056790Y-187225000D01*
X71409502Y-186416666D01*
X71604751Y-186416666D01*
X71708820Y-186420131D01*
G37*
G36*
X61034208Y-186582944D02*
G01*
X61230626Y-186624953D01*
X61393269Y-186696701D01*
X61432605Y-186723960D01*
X61513461Y-186801550D01*
X61583452Y-186893234D01*
X61626596Y-186976348D01*
X61633114Y-187008333D01*
X61603189Y-187031671D01*
X61525008Y-187046473D01*
X61416401Y-187052988D01*
X61295199Y-187051462D01*
X61179231Y-187042143D01*
X61086326Y-187025280D01*
X61034316Y-187001120D01*
X61033334Y-187000000D01*
X60964621Y-186961638D01*
X60866699Y-186952027D01*
X60770394Y-186970931D01*
X60719048Y-187002380D01*
X60688451Y-187057070D01*
X60671718Y-187152927D01*
X60666667Y-187301208D01*
X60672506Y-187449052D01*
X60695848Y-187542621D01*
X60745431Y-187593729D01*
X60829993Y-187614188D01*
X60900000Y-187616666D01*
X60998863Y-187605484D01*
X61076150Y-187577711D01*
X61122027Y-187542001D01*
X61126656Y-187507013D01*
X61080203Y-187481402D01*
X61058334Y-187477318D01*
X61011452Y-187460908D01*
X60986540Y-187416894D01*
X60974462Y-187327143D01*
X60973174Y-187308333D01*
X60963014Y-187150000D01*
X61298174Y-187150000D01*
X61633334Y-187150000D01*
X61633334Y-187368321D01*
X61625172Y-187509949D01*
X61603477Y-187629122D01*
X61584531Y-187681018D01*
X61476520Y-187820239D01*
X61320705Y-187924152D01*
X61127565Y-187989819D01*
X60907576Y-188014301D01*
X60671214Y-187994662D01*
X60556795Y-187969179D01*
X60388200Y-187895777D01*
X60250919Y-187781104D01*
X60165808Y-187647927D01*
X60146813Y-187561083D01*
X60137227Y-187423668D01*
X60138106Y-187251253D01*
X60138386Y-187243510D01*
X60153970Y-187046118D01*
X60188466Y-186900567D01*
X60249091Y-186793063D01*
X60343059Y-186709813D01*
X60448538Y-186650707D01*
X60622541Y-186594286D01*
X60824639Y-186572210D01*
X61034208Y-186582944D01*
G37*
G36*
X67974650Y-186582926D02*
G01*
X68150349Y-186622485D01*
X68209483Y-186646522D01*
X68338723Y-186725255D01*
X68444772Y-186819930D01*
X68513878Y-186916138D01*
X68533334Y-186985890D01*
X68527023Y-187018269D01*
X68499074Y-187037381D01*
X68435956Y-187046529D01*
X68324142Y-187049015D01*
X68275000Y-187048939D01*
X68099801Y-187040661D01*
X67986936Y-187017251D01*
X67951963Y-186998939D01*
X67843219Y-186955011D01*
X67721059Y-186963690D01*
X67640750Y-187001890D01*
X67600427Y-187038965D01*
X67577927Y-187091221D01*
X67568340Y-187177097D01*
X67566667Y-187280057D01*
X67576012Y-187435954D01*
X67609076Y-187537158D01*
X67673396Y-187593649D01*
X67776514Y-187615407D01*
X67820958Y-187616666D01*
X67918920Y-187604885D01*
X67991982Y-187575817D01*
X68030863Y-187538877D01*
X68026283Y-187503478D01*
X67968961Y-187479034D01*
X67958334Y-187477318D01*
X67911603Y-187461023D01*
X67886698Y-187417319D01*
X67874568Y-187328131D01*
X67873125Y-187307146D01*
X67862917Y-187147626D01*
X68206459Y-187157146D01*
X68550000Y-187166666D01*
X68547607Y-187386749D01*
X68529444Y-187578832D01*
X68474896Y-187724034D01*
X68376702Y-187835441D01*
X68256197Y-187911957D01*
X68088943Y-187971513D01*
X67888106Y-188003562D01*
X67681722Y-188006034D01*
X67497832Y-187976858D01*
X67474120Y-187969689D01*
X67290823Y-187888757D01*
X67160881Y-187778843D01*
X67078937Y-187631991D01*
X67039631Y-187440249D01*
X67034251Y-187316666D01*
X67048144Y-187092090D01*
X67094790Y-186918446D01*
X67179724Y-186785809D01*
X67308481Y-186684253D01*
X67416667Y-186630889D01*
X67580869Y-186586597D01*
X67775843Y-186570786D01*
X67974650Y-186582926D01*
G37*
G36*
X63172601Y-187250000D02*
G01*
X63239826Y-187447916D01*
X63299140Y-187625637D01*
X63347262Y-187773070D01*
X63380908Y-187880125D01*
X63396795Y-187936709D01*
X63397601Y-187941666D01*
X63375378Y-187965526D01*
X63300758Y-187979008D01*
X63166908Y-187983331D01*
X63163771Y-187983333D01*
X63040340Y-187982037D01*
X62966736Y-187974054D01*
X62926125Y-187953237D01*
X62901671Y-187913443D01*
X62889797Y-187883333D01*
X62868168Y-187832930D01*
X62839845Y-187803160D01*
X62788866Y-187788591D01*
X62699270Y-187783790D01*
X62595953Y-187783333D01*
X62466555Y-187784316D01*
X62388030Y-187790883D01*
X62344580Y-187808463D01*
X62320413Y-187842484D01*
X62304995Y-187883333D01*
X62283833Y-187935462D01*
X62254752Y-187965346D01*
X62201053Y-187979172D01*
X62106037Y-187983125D01*
X62035067Y-187983333D01*
X61911045Y-187981198D01*
X61840052Y-187972522D01*
X61808523Y-187953900D01*
X61802715Y-187925000D01*
X61814227Y-187876733D01*
X61844744Y-187776227D01*
X61890838Y-187634020D01*
X61949079Y-187460653D01*
X61993650Y-187331529D01*
X62474589Y-187331529D01*
X62491052Y-187368850D01*
X62542255Y-187381880D01*
X62603614Y-187383333D01*
X62689567Y-187379931D01*
X62724722Y-187362842D01*
X62724864Y-187321741D01*
X62721249Y-187306388D01*
X62695730Y-187226008D01*
X62656646Y-187123091D01*
X62646255Y-187098054D01*
X62590573Y-186966666D01*
X62531203Y-187133333D01*
X62489196Y-187257246D01*
X62474589Y-187331529D01*
X61993650Y-187331529D01*
X62016040Y-187266665D01*
X62027715Y-187233333D01*
X62250000Y-186600000D01*
X62600000Y-186600000D01*
X62950000Y-186600000D01*
X63172601Y-187250000D01*
G37*
G36*
X64429130Y-186601169D02*
G01*
X64596908Y-186606756D01*
X64720598Y-186619882D01*
X64811482Y-186643665D01*
X64880843Y-186681227D01*
X64939964Y-186735686D01*
X65000129Y-186810163D01*
X65009052Y-186822062D01*
X65054073Y-186923838D01*
X65069024Y-187052545D01*
X65056918Y-187188603D01*
X65020769Y-187312435D01*
X64963589Y-187404461D01*
X64914119Y-187438923D01*
X64895601Y-187459587D01*
X64902272Y-187505668D01*
X64937522Y-187587818D01*
X64999195Y-187706434D01*
X65060162Y-187821014D01*
X65106642Y-187911320D01*
X65131250Y-187962887D01*
X65133334Y-187969226D01*
X65102547Y-187975587D01*
X65020366Y-187980458D01*
X64902058Y-187983082D01*
X64848606Y-187983333D01*
X64563879Y-187983333D01*
X64466667Y-187766666D01*
X64411035Y-187650608D01*
X64367378Y-187584420D01*
X64325017Y-187555273D01*
X64286318Y-187550000D01*
X64240699Y-187554542D01*
X64214648Y-187578376D01*
X64201325Y-187636812D01*
X64193893Y-187745159D01*
X64193257Y-187758333D01*
X64183334Y-187966666D01*
X63924496Y-187976411D01*
X63781356Y-187978268D01*
X63694298Y-187969871D01*
X63653346Y-187949980D01*
X63648750Y-187942095D01*
X63643958Y-187896323D01*
X63640629Y-187794943D01*
X63638887Y-187649002D01*
X63638859Y-187469546D01*
X63640668Y-187267621D01*
X63640921Y-187249017D01*
X63641789Y-187186986D01*
X64200000Y-187186986D01*
X64358334Y-187176826D01*
X64453875Y-187167842D01*
X64500375Y-187148892D01*
X64515421Y-187107741D01*
X64516667Y-187066666D01*
X64512148Y-187006034D01*
X64486869Y-186975044D01*
X64423241Y-186961458D01*
X64358334Y-186956506D01*
X64200000Y-186946347D01*
X64200000Y-187066666D01*
X64200000Y-187186986D01*
X63641789Y-187186986D01*
X63643472Y-187066666D01*
X63650000Y-186600000D01*
X64205981Y-186600000D01*
X64429130Y-186601169D01*
G37*
G36*
X66058786Y-186590584D02*
G01*
X66408631Y-186600000D01*
X66636422Y-187266666D01*
X66704168Y-187465905D01*
X66764011Y-187643761D01*
X66812762Y-187790596D01*
X66847227Y-187896770D01*
X66864216Y-187952642D01*
X66865440Y-187958333D01*
X66835470Y-187970347D01*
X66755138Y-187979204D01*
X66640732Y-187983244D01*
X66619928Y-187983333D01*
X66493360Y-187982232D01*
X66417278Y-187975100D01*
X66375505Y-187956191D01*
X66351860Y-187919760D01*
X66338328Y-187883333D01*
X66317833Y-187832270D01*
X66289922Y-187802448D01*
X66238456Y-187788156D01*
X66147296Y-187783682D01*
X66055778Y-187783333D01*
X65928739Y-187784506D01*
X65851823Y-187791840D01*
X65808489Y-187811057D01*
X65782195Y-187847879D01*
X65766667Y-187883333D01*
X65742702Y-187934276D01*
X65712349Y-187964092D01*
X65659150Y-187978437D01*
X65566645Y-187982969D01*
X65475723Y-187983333D01*
X65348950Y-187981818D01*
X65276534Y-187975168D01*
X65246197Y-187960227D01*
X65245660Y-187933839D01*
X65248775Y-187925000D01*
X65266062Y-187876645D01*
X65301152Y-187775693D01*
X65350419Y-187632676D01*
X65410238Y-187458125D01*
X65435765Y-187383333D01*
X65904372Y-187383333D01*
X66052186Y-187383333D01*
X66140923Y-187381170D01*
X66193659Y-187375707D01*
X66200000Y-187372604D01*
X66188950Y-187326468D01*
X66161613Y-187243188D01*
X66126711Y-187146684D01*
X66092966Y-187060879D01*
X66069099Y-187009695D01*
X66066207Y-187005637D01*
X66043997Y-187019845D01*
X66010027Y-187083891D01*
X65972823Y-187180637D01*
X65904372Y-187383333D01*
X65435765Y-187383333D01*
X65476982Y-187262571D01*
X65490145Y-187223917D01*
X65708940Y-186581168D01*
X66058786Y-186590584D01*
G37*
G36*
X69508334Y-186590976D02*
G01*
X70183334Y-186600000D01*
X70193374Y-186773991D01*
X70203414Y-186947982D01*
X69776707Y-186957324D01*
X69601282Y-186961794D01*
X69481833Y-186967410D01*
X69407673Y-186976075D01*
X69368116Y-186989693D01*
X69352475Y-187010167D01*
X69350000Y-187033333D01*
X69354669Y-187062877D01*
X69376406Y-187082674D01*
X69426811Y-187095178D01*
X69517481Y-187102840D01*
X69660014Y-187108115D01*
X69710036Y-187109478D01*
X70070071Y-187118956D01*
X70060036Y-187292811D01*
X70050000Y-187466666D01*
X69689444Y-187476150D01*
X69529933Y-187481418D01*
X69426147Y-187488565D01*
X69367145Y-187499677D01*
X69341985Y-187516841D01*
X69339726Y-187542143D01*
X69339853Y-187542816D01*
X69351930Y-187566824D01*
X69384505Y-187583700D01*
X69448267Y-187595074D01*
X69553905Y-187602581D01*
X69712109Y-187607852D01*
X69775409Y-187609329D01*
X70200000Y-187618658D01*
X70200000Y-187800995D01*
X70200000Y-187983333D01*
X69516667Y-187983333D01*
X68833334Y-187983333D01*
X68833334Y-187282643D01*
X68833334Y-186581952D01*
X69508334Y-186590976D01*
G37*
G36*
X62763601Y-184579723D02*
G01*
X62878650Y-184597575D01*
X62979861Y-184633729D01*
X63021784Y-184654153D01*
X63149042Y-184729774D01*
X63235072Y-184811866D01*
X63288242Y-184915877D01*
X63316919Y-185057251D01*
X63328355Y-185220084D01*
X63332703Y-185399870D01*
X63326802Y-185529681D01*
X63306920Y-185625889D01*
X63269324Y-185704866D01*
X63210284Y-185782986D01*
X63196381Y-185799028D01*
X63066086Y-185901526D01*
X62890915Y-185973137D01*
X62686691Y-186010541D01*
X62469238Y-186010417D01*
X62311342Y-185984746D01*
X62121139Y-185912530D01*
X61980937Y-185797282D01*
X61888945Y-185636844D01*
X61843370Y-185429058D01*
X61842511Y-185419989D01*
X61840829Y-185283333D01*
X62366667Y-185283333D01*
X62379853Y-185442771D01*
X62422446Y-185546987D01*
X62498997Y-185602619D01*
X62595224Y-185616666D01*
X62687989Y-185606565D01*
X62753912Y-185581746D01*
X62760000Y-185576666D01*
X62781786Y-185521188D01*
X62795832Y-185415138D01*
X62800000Y-185295714D01*
X62792382Y-185136955D01*
X62765293Y-185033452D01*
X62712386Y-184975096D01*
X62627312Y-184951779D01*
X62582843Y-184950000D01*
X62478093Y-184971867D01*
X62409516Y-185040840D01*
X62373833Y-185161976D01*
X62366667Y-185283333D01*
X61840829Y-185283333D01*
X61839364Y-185164253D01*
X61881814Y-184956852D01*
X61971400Y-184796089D01*
X62109663Y-184680265D01*
X62298143Y-184607684D01*
X62538379Y-184576645D01*
X62608560Y-184575173D01*
X62763601Y-184579723D01*
G37*
G36*
X64511711Y-184582232D02*
G01*
X64706017Y-184630888D01*
X64749873Y-184649938D01*
X64886975Y-184733023D01*
X64978822Y-184834472D01*
X65033593Y-184968507D01*
X65059468Y-185149350D01*
X65061898Y-185192439D01*
X65065430Y-185392793D01*
X65052598Y-185543231D01*
X65020006Y-185659232D01*
X64964259Y-185756273D01*
X64928552Y-185800353D01*
X64799276Y-185901830D01*
X64625005Y-185972911D01*
X64421666Y-186010275D01*
X64205186Y-186010598D01*
X64044675Y-185984746D01*
X63855779Y-185913095D01*
X63715403Y-185798492D01*
X63622037Y-185638733D01*
X63574174Y-185431618D01*
X63566667Y-185286794D01*
X63566709Y-185286118D01*
X64100000Y-185286118D01*
X64108648Y-185441236D01*
X64138917Y-185541331D01*
X64197301Y-185596305D01*
X64290289Y-185616062D01*
X64316667Y-185616666D01*
X64410118Y-185601586D01*
X64480002Y-185565219D01*
X64480953Y-185564285D01*
X64514444Y-185494536D01*
X64532493Y-185383457D01*
X64535217Y-185254544D01*
X64522734Y-185131292D01*
X64495164Y-185037197D01*
X64478167Y-185010958D01*
X64394361Y-184962295D01*
X64287193Y-184953759D01*
X64186951Y-184985904D01*
X64160958Y-185005166D01*
X64125941Y-185053389D01*
X64106937Y-185129425D01*
X64100206Y-185250520D01*
X64100000Y-185286118D01*
X63566709Y-185286118D01*
X63579841Y-185075279D01*
X63623351Y-184914156D01*
X63703178Y-184791758D01*
X63825304Y-184696420D01*
X63886030Y-184663887D01*
X64077256Y-184599126D01*
X64293970Y-184571777D01*
X64511711Y-184582232D01*
G37*
G36*
X60712406Y-184856711D02*
G01*
X60862063Y-185130090D01*
X60916807Y-185031711D01*
X60964181Y-184946838D01*
X61027290Y-184834100D01*
X61069783Y-184758333D01*
X61168015Y-184583333D01*
X61400674Y-184583333D01*
X61633334Y-184583333D01*
X61633334Y-185283333D01*
X61633334Y-185983333D01*
X61400000Y-185983333D01*
X61166667Y-185983333D01*
X61165711Y-185658333D01*
X61164755Y-185333333D01*
X61074044Y-185491530D01*
X61016716Y-185583787D01*
X60968537Y-185631008D01*
X60909286Y-185648006D01*
X60857900Y-185649864D01*
X60780845Y-185644671D01*
X60730949Y-185618403D01*
X60687788Y-185555341D01*
X60657900Y-185495934D01*
X60583334Y-185341868D01*
X60566667Y-185654267D01*
X60550000Y-185966666D01*
X60325000Y-185976522D01*
X60100000Y-185986379D01*
X60100000Y-185284856D01*
X60100000Y-184583333D01*
X60331374Y-184583333D01*
X60562748Y-184583333D01*
X60712406Y-184856711D01*
G37*
G36*
X65575000Y-184590076D02*
G01*
X65783334Y-184600000D01*
X66016667Y-184914225D01*
X66250000Y-185228451D01*
X66259541Y-184905892D01*
X66269081Y-184583333D01*
X66501207Y-184583333D01*
X66733334Y-184583333D01*
X66733334Y-185283333D01*
X66733334Y-185983333D01*
X66518476Y-185983333D01*
X66303619Y-185983333D01*
X66076809Y-185692663D01*
X65850000Y-185401993D01*
X65840369Y-185692663D01*
X65830738Y-185983333D01*
X65598702Y-185983333D01*
X65366667Y-185983333D01*
X65366667Y-185281742D01*
X65366667Y-184580152D01*
X65575000Y-184590076D01*
G37*
G36*
X67733334Y-185080839D02*
G01*
X67733334Y-185581149D01*
X68108334Y-185590574D01*
X68483334Y-185600000D01*
X68483334Y-185783333D01*
X68483334Y-185966666D01*
X67840988Y-185975722D01*
X67198643Y-185984777D01*
X67207655Y-185292388D01*
X67216667Y-184600000D01*
X67475000Y-184590264D01*
X67733334Y-184580529D01*
X67733334Y-185080839D01*
G37*
G36*
X70200000Y-184782657D02*
G01*
X70200000Y-184983333D01*
X69983334Y-184983333D01*
X69766667Y-184983333D01*
X69766667Y-185281742D01*
X69766667Y-185580152D01*
X69975000Y-185590076D01*
X70183334Y-185600000D01*
X70193330Y-185791666D01*
X70203327Y-185983333D01*
X69517284Y-185983333D01*
X69278543Y-185982540D01*
X69098741Y-185979823D01*
X68970164Y-185974676D01*
X68885100Y-185966593D01*
X68835835Y-185955068D01*
X68814657Y-185939594D01*
X68813518Y-185937146D01*
X68804777Y-185876716D01*
X68804269Y-185781138D01*
X68806231Y-185745480D01*
X68816667Y-185600000D01*
X69025000Y-185590076D01*
X69233334Y-185580152D01*
X69233334Y-185283333D01*
X69233334Y-184986514D01*
X69025000Y-184976590D01*
X68816667Y-184966666D01*
X68816667Y-184783333D01*
X68816667Y-184600000D01*
X69508334Y-184590990D01*
X70200000Y-184581980D01*
X70200000Y-184782657D01*
G37*
G36*
X71662647Y-184584781D02*
G01*
X71799057Y-184589960D01*
X71892761Y-184601105D01*
X71951743Y-184620461D01*
X71983990Y-184650274D01*
X71997486Y-184692792D01*
X72000218Y-184750260D01*
X72000000Y-184800000D01*
X71995253Y-184907118D01*
X71972099Y-184971603D01*
X71917167Y-185004174D01*
X71817086Y-185015552D01*
X71729767Y-185016666D01*
X71500000Y-185016666D01*
X71500000Y-185500000D01*
X71500000Y-185983333D01*
X71233334Y-185983333D01*
X70966667Y-185983333D01*
X70966667Y-185500000D01*
X70966667Y-185016666D01*
X70733334Y-185016666D01*
X70500000Y-185016666D01*
X70500000Y-184800000D01*
X70500000Y-184583333D01*
X71229767Y-184583333D01*
X71475546Y-184583320D01*
X71662647Y-184584781D01*
G37*
D14*
%TO.C,C13*%
X45490000Y-177146267D02*
X45490000Y-176853733D01*
X46510000Y-177146267D02*
X46510000Y-176853733D01*
%TO.C,C7*%
X46990000Y-168966233D02*
X46990000Y-169258767D01*
X48010000Y-168966233D02*
X48010000Y-169258767D01*
%TO.C,C10*%
X56010000Y-186116233D02*
X56010000Y-186408767D01*
X54990000Y-186116233D02*
X54990000Y-186408767D01*
%TO.C,J4*%
X72465000Y-155110000D02*
X72465000Y-154060000D01*
X74965000Y-155110000D02*
X72465000Y-155110000D01*
X72465000Y-154060000D02*
X71475000Y-154060000D01*
X76935000Y-153940000D02*
X76935000Y-150060000D01*
X72465000Y-148890000D02*
X72465000Y-149940000D01*
X74965000Y-148890000D02*
X72465000Y-148890000D01*
%TO.C,C14*%
X48490000Y-177146267D02*
X48490000Y-176853733D01*
X49510000Y-177146267D02*
X49510000Y-176853733D01*
%TO.C,C15*%
X51490000Y-177146267D02*
X51490000Y-176853733D01*
X52510000Y-177146267D02*
X52510000Y-176853733D01*
%TO.C,C22*%
X49203733Y-142590000D02*
X49496267Y-142590000D01*
X49203733Y-143610000D02*
X49496267Y-143610000D01*
%TO.C,D3*%
X33340000Y-187265000D02*
X33340000Y-188735000D01*
X33340000Y-188735000D02*
X35800000Y-188735000D01*
X35800000Y-187265000D02*
X33340000Y-187265000D01*
%TO.C,C17*%
X57490000Y-177146267D02*
X57490000Y-176853733D01*
X58510000Y-177146267D02*
X58510000Y-176853733D01*
%TO.C,C16*%
X54490000Y-177146267D02*
X54490000Y-176853733D01*
X55510000Y-177146267D02*
X55510000Y-176853733D01*
%TO.C,D5*%
X63075000Y-134485000D02*
X65535000Y-134485000D01*
X65535000Y-133015000D02*
X63075000Y-133015000D01*
X65535000Y-134485000D02*
X65535000Y-133015000D01*
%TO.C,C21*%
X70510000Y-160146267D02*
X70510000Y-159853733D01*
X69490000Y-160146267D02*
X69490000Y-159853733D01*
%TO.C,U3*%
X58637500Y-136390000D02*
X57837500Y-136390000D01*
X58637500Y-136390000D02*
X59437500Y-136390000D01*
X58637500Y-139510000D02*
X57837500Y-139510000D01*
X58637500Y-139510000D02*
X59437500Y-139510000D01*
X60177500Y-139790000D02*
X59697500Y-139790000D01*
X59937500Y-139460000D01*
X60177500Y-139790000D01*
G36*
X60177500Y-139790000D02*
G01*
X59697500Y-139790000D01*
X59937500Y-139460000D01*
X60177500Y-139790000D01*
G37*
%TO.C,C11*%
X53010000Y-186103733D02*
X53010000Y-186396267D01*
X51990000Y-186103733D02*
X51990000Y-186396267D01*
%TO.C,D6*%
X44230000Y-144170000D02*
X44230000Y-148410000D01*
X44230000Y-147570000D02*
X46470000Y-147570000D01*
X44230000Y-147690000D02*
X46470000Y-147690000D01*
X44230000Y-147810000D02*
X46470000Y-147810000D01*
X44230000Y-148410000D02*
X46470000Y-148410000D01*
X45350000Y-143520000D02*
X45350000Y-144170000D01*
X45350000Y-149060000D02*
X45350000Y-148410000D01*
X46470000Y-144170000D02*
X44230000Y-144170000D01*
X46470000Y-148410000D02*
X46470000Y-144170000D01*
%TO.C,C9*%
X51010000Y-168966233D02*
X51010000Y-169258767D01*
X49990000Y-168966233D02*
X49990000Y-169258767D01*
%TO.C,R3*%
X32504724Y-163522500D02*
X31995276Y-163522500D01*
X32504724Y-162477500D02*
X31995276Y-162477500D01*
%TO.C,R12*%
X58272500Y-155082776D02*
X58272500Y-155592224D01*
X57227500Y-155082776D02*
X57227500Y-155592224D01*
%TO.C,R9*%
X27477500Y-168907776D02*
X27477500Y-169417224D01*
X28522500Y-168907776D02*
X28522500Y-169417224D01*
%TO.C,C1*%
X27707498Y-139735000D02*
X28230002Y-139735000D01*
X27707498Y-138265000D02*
X28230002Y-138265000D01*
%TO.C,C5*%
X55765000Y-165223752D02*
X55765000Y-164701248D01*
X57235000Y-165223752D02*
X57235000Y-164701248D01*
%TO.C,J2*%
X73370000Y-139245000D02*
X73370000Y-139305000D01*
X73370000Y-139245000D02*
X76030000Y-139245000D01*
X73370000Y-145655000D02*
X73370000Y-145715000D01*
X73370000Y-145715000D02*
X76030000Y-145715000D01*
X76030000Y-139245000D02*
X76030000Y-139305000D01*
X76030000Y-139305000D02*
X77490000Y-139305000D01*
X76030000Y-145655000D02*
X76030000Y-145715000D01*
%TO.C,C2*%
X27744998Y-140765000D02*
X28267502Y-140765000D01*
X27744998Y-142235000D02*
X28267502Y-142235000D01*
%TO.C,Y2*%
X55400000Y-161525000D02*
X58200000Y-161525000D01*
X58200000Y-161525000D02*
X58200000Y-158225000D01*
%TO.C,C8*%
X54010000Y-168966233D02*
X54010000Y-169258767D01*
X52990000Y-168966233D02*
X52990000Y-169258767D01*
%TO.C,D2*%
X21890000Y-176100000D02*
X24550000Y-176100000D01*
X21890000Y-174400000D02*
X21890000Y-176100000D01*
X21890000Y-174400000D02*
X24550000Y-174400000D01*
%TO.C,R15*%
X49095276Y-150077500D02*
X49604724Y-150077500D01*
X49095276Y-151122500D02*
X49604724Y-151122500D01*
%TO.C,R4*%
X31995276Y-155522500D02*
X32504724Y-155522500D01*
X31995276Y-154477500D02*
X32504724Y-154477500D01*
%TO.C,C4*%
X58798752Y-134735000D02*
X58276248Y-134735000D01*
X58798752Y-133265000D02*
X58276248Y-133265000D01*
%TO.C,R1*%
X31995276Y-156227500D02*
X32504724Y-156227500D01*
X31995276Y-157272500D02*
X32504724Y-157272500D01*
%TO.C,R6*%
X28483750Y-135245276D02*
X28483750Y-135754724D01*
X29528750Y-135245276D02*
X29528750Y-135754724D01*
%TO.C,C6*%
X59985000Y-165223752D02*
X59985000Y-164701248D01*
X58515000Y-165223752D02*
X58515000Y-164701248D01*
%TO.C,R5*%
X26528750Y-135245276D02*
X26528750Y-135754724D01*
X25483750Y-135245276D02*
X25483750Y-135754724D01*
%TO.C,R11*%
X63907776Y-137477500D02*
X64417224Y-137477500D01*
X63907776Y-138522500D02*
X64417224Y-138522500D01*
%TO.C,C12*%
X50010000Y-186103733D02*
X50010000Y-186396267D01*
X48990000Y-186103733D02*
X48990000Y-186396267D01*
%TO.C,C3*%
X32761252Y-138265000D02*
X32238748Y-138265000D01*
X32761252Y-139735000D02*
X32238748Y-139735000D01*
%TO.C,R2*%
X31995276Y-160477500D02*
X32504724Y-160477500D01*
X31995276Y-161522500D02*
X32504724Y-161522500D01*
%TO.C,Q1*%
X37062500Y-140060000D02*
X37712500Y-140060000D01*
X37062500Y-140060000D02*
X36412500Y-140060000D01*
X37062500Y-136940000D02*
X37712500Y-136940000D01*
X37062500Y-136940000D02*
X36412500Y-136940000D01*
X35900000Y-136990000D02*
X35660000Y-136660000D01*
X36140000Y-136660000D01*
X35900000Y-136990000D01*
G36*
X35900000Y-136990000D02*
G01*
X35660000Y-136660000D01*
X36140000Y-136660000D01*
X35900000Y-136990000D01*
G37*
%TO.C,D1*%
X33506250Y-133140000D02*
X33506250Y-137150000D01*
X33506250Y-133140000D02*
X31506250Y-133140000D01*
X31506250Y-133140000D02*
X31506250Y-137150000D01*
%TO.C,D4*%
X29465000Y-187265000D02*
X29465000Y-188735000D01*
X29465000Y-188735000D02*
X31925000Y-188735000D01*
X31925000Y-187265000D02*
X29465000Y-187265000D01*
%TO.C,R10*%
X34620276Y-184477500D02*
X35129724Y-184477500D01*
X34620276Y-185522500D02*
X35129724Y-185522500D01*
%TO.C,R14*%
X38395276Y-155727500D02*
X38904724Y-155727500D01*
X38395276Y-156772500D02*
X38904724Y-156772500D01*
%TO.C,R8*%
X30870276Y-184477500D02*
X31379724Y-184477500D01*
X30870276Y-185522500D02*
X31379724Y-185522500D01*
%TO.C,R13*%
X60022500Y-159582776D02*
X60022500Y-160092224D01*
X58977500Y-159582776D02*
X58977500Y-160092224D01*
%TO.C,R7*%
X41227500Y-164417224D02*
X41227500Y-163907776D01*
X42272500Y-164417224D02*
X42272500Y-163907776D01*
D15*
%TO.C,U5*%
X72980000Y-168180000D02*
X73370000Y-168180000D01*
X72980000Y-168320000D02*
X72980000Y-168180000D01*
X72980000Y-170210000D02*
X72980000Y-170080000D01*
X73370000Y-170210000D02*
X72980000Y-170210000D01*
X74630000Y-168180000D02*
X75020000Y-168180000D01*
X75020000Y-168180000D02*
X75020000Y-168320000D01*
X75020000Y-170080000D02*
X75020000Y-170210000D01*
X75020000Y-170210000D02*
X74630000Y-170210000D01*
X74390000Y-168840000D02*
G75*
G02*
X74270000Y-168840000I-60000J0D01*
G01*
X74270000Y-168840000D02*
G75*
G02*
X74390000Y-168840000I60000J0D01*
G01*
D14*
%TO.C,RST1*%
X23550000Y-150700000D02*
X23450000Y-150700000D01*
X25050000Y-150700000D02*
X25050000Y-146300000D01*
X21950000Y-146300000D02*
X21950000Y-150700000D01*
X23550000Y-146300000D02*
X23450000Y-146300000D01*
%TO.C,J1*%
X26240000Y-163470000D02*
X24440000Y-163470000D01*
X26240000Y-154530000D02*
X24440000Y-154530000D01*
X20730000Y-163470000D02*
X22190000Y-163470000D01*
X20730000Y-163470000D02*
X20730000Y-154530000D01*
X20730000Y-154530000D02*
X22190000Y-154530000D01*
D12*
%TO.C,U6*%
X74570000Y-158660000D02*
G75*
G02*
X74430000Y-158660000I-70000J0D01*
G01*
X74430000Y-158660000D02*
G75*
G02*
X74570000Y-158660000I70000J0D01*
G01*
D10*
X72480000Y-158980000D02*
X72730000Y-158980000D01*
X72480000Y-159610000D02*
X72480000Y-158980000D01*
X72480000Y-161260000D02*
X72480000Y-160630000D01*
X72730000Y-161260000D02*
X72480000Y-161260000D01*
X74760000Y-161260000D02*
X75020000Y-161260000D01*
X75020000Y-158980000D02*
X74790000Y-158980000D01*
X75020000Y-159610000D02*
X75020000Y-158980000D01*
X75020000Y-161260000D02*
X75020000Y-160630000D01*
D12*
%TO.C,U7*%
X48350000Y-148100000D02*
G75*
G02*
X48050000Y-148100000I-150000J0D01*
G01*
X48050000Y-148100000D02*
G75*
G02*
X48350000Y-148100000I150000J0D01*
G01*
X51000000Y-144500000D02*
X51000000Y-144820000D01*
X50680000Y-144500000D02*
X51000000Y-144500000D01*
X47800000Y-144500000D02*
X48120000Y-144500000D01*
X47800000Y-144820000D02*
X47800000Y-144500000D01*
X51000000Y-147380000D02*
X51000000Y-147700000D01*
X51000000Y-147700000D02*
X50680000Y-147700000D01*
X48120000Y-147700000D02*
X47800000Y-147700000D01*
X47800000Y-147700000D02*
X47800000Y-147380000D01*
D14*
%TO.C,U1*%
X46190000Y-157102500D02*
X46190000Y-156692500D01*
X46190000Y-163672500D02*
X46190000Y-163022500D01*
X46840000Y-156452500D02*
X46490000Y-156452500D01*
X46840000Y-163672500D02*
X46190000Y-163672500D01*
X52760000Y-156452500D02*
X53410000Y-156452500D01*
X52760000Y-163672500D02*
X53410000Y-163672500D01*
X53410000Y-156452500D02*
X53410000Y-157102500D01*
X53410000Y-163672500D02*
X53410000Y-163022500D01*
X46190000Y-156452500D02*
X45950000Y-156122500D01*
X46430000Y-156122500D01*
X46190000Y-156452500D01*
G36*
X46190000Y-156452500D02*
G01*
X45950000Y-156122500D01*
X46430000Y-156122500D01*
X46190000Y-156452500D01*
G37*
%TO.C,BOOT1*%
X23550000Y-173200000D02*
X23450000Y-173200000D01*
X25050000Y-173200000D02*
X25050000Y-168800000D01*
X21950000Y-168800000D02*
X21950000Y-173200000D01*
X23550000Y-168800000D02*
X23450000Y-168800000D01*
%TO.C,U4*%
X37075000Y-151365000D02*
X40075000Y-151365000D01*
X37075000Y-153635000D02*
X40075000Y-153635000D01*
X36525000Y-151450000D02*
X36245000Y-151450000D01*
X36525000Y-151170000D01*
X36525000Y-151450000D01*
G36*
X36525000Y-151450000D02*
G01*
X36245000Y-151450000D01*
X36525000Y-151170000D01*
X36525000Y-151450000D01*
G37*
%TO.C,U2*%
X35562500Y-132940000D02*
X35322500Y-132610000D01*
X35802500Y-132610000D01*
X35562500Y-132940000D01*
G36*
X35562500Y-132940000D02*
G01*
X35322500Y-132610000D01*
X35802500Y-132610000D01*
X35562500Y-132940000D01*
G37*
X36862500Y-136010000D02*
X37662500Y-136010000D01*
X36862500Y-136010000D02*
X36062500Y-136010000D01*
X36862500Y-132890000D02*
X37662500Y-132890000D01*
X36862500Y-132890000D02*
X36062500Y-132890000D01*
%TD*%
M02*
