%TF.GenerationSoftware,KiCad,Pcbnew,8.0.3*%
%TF.CreationDate,2024-09-03T15:58:32-04:00*%
%TF.ProjectId,AeroCore,4165726f-436f-4726-952e-6b696361645f,rev?*%
%TF.SameCoordinates,Original*%
%TF.FileFunction,Legend,Bot*%
%TF.FilePolarity,Positive*%
%FSLAX46Y46*%
G04 Gerber Fmt 4.6, Leading zero omitted, Abs format (unit mm)*
G04 Created by KiCad (PCBNEW 8.0.3) date 2024-09-03 15:58:32*
%MOMM*%
%LPD*%
G01*
G04 APERTURE LIST*
%ADD10C,0.100000*%
%ADD11C,0.120000*%
G04 APERTURE END LIST*
D10*
G36*
X51345212Y-155323098D02*
G01*
X51345212Y-155619853D01*
X51354494Y-155641591D01*
X51372079Y-155650872D01*
X51386001Y-155649406D01*
X52283593Y-155325785D01*
X52323474Y-155293861D01*
X52330000Y-155262526D01*
X52330000Y-154934752D01*
X52312118Y-154887097D01*
X52288478Y-154872714D01*
X51399190Y-154546406D01*
X51380628Y-154544940D01*
X51357424Y-154553977D01*
X51345212Y-154575959D01*
X51345212Y-154872714D01*
X51360111Y-154914235D01*
X51392107Y-154936217D01*
X51936280Y-155097906D01*
X51392107Y-155259595D01*
X51351807Y-155290354D01*
X51345212Y-155323098D01*
G37*
G36*
X52020373Y-155819629D02*
G01*
X52072984Y-155829110D01*
X52120980Y-155844912D01*
X52172483Y-155872217D01*
X52217340Y-155908625D01*
X52249644Y-155945917D01*
X52272141Y-155979565D01*
X52296044Y-156025243D01*
X52315260Y-156074939D01*
X52329789Y-156128655D01*
X52339632Y-156186390D01*
X52344131Y-156235471D01*
X52345631Y-156287124D01*
X52344787Y-156326112D01*
X52341038Y-156375865D01*
X52332133Y-156434472D01*
X52318541Y-156489095D01*
X52300262Y-156539734D01*
X52277296Y-156586391D01*
X52249644Y-156629064D01*
X52217411Y-156666568D01*
X52172829Y-156703181D01*
X52121808Y-156730642D01*
X52074370Y-156746533D01*
X52022460Y-156756068D01*
X51966078Y-156759246D01*
X51709134Y-156759246D01*
X51653496Y-156755978D01*
X51602140Y-156746175D01*
X51555064Y-156729837D01*
X51504226Y-156701604D01*
X51459552Y-156663960D01*
X51427034Y-156625401D01*
X51409618Y-156599732D01*
X51384398Y-156554204D01*
X51363937Y-156505241D01*
X51348234Y-156452843D01*
X51337289Y-156397011D01*
X51331103Y-156337744D01*
X51329581Y-156287857D01*
X51610949Y-156287857D01*
X51612958Y-156308914D01*
X51636350Y-156353070D01*
X51651681Y-156365703D01*
X51700341Y-156379204D01*
X51974870Y-156379204D01*
X51994884Y-156377098D01*
X52038129Y-156352581D01*
X52050762Y-156336698D01*
X52064263Y-156287857D01*
X52062254Y-156267333D01*
X52038862Y-156223133D01*
X52023531Y-156210264D01*
X51974870Y-156196510D01*
X51700341Y-156196510D01*
X51680328Y-156198558D01*
X51637083Y-156222400D01*
X51623301Y-156240022D01*
X51610949Y-156287857D01*
X51329581Y-156287857D01*
X51329961Y-156262638D01*
X51334244Y-156201986D01*
X51343285Y-156144758D01*
X51357085Y-156090951D01*
X51375643Y-156040568D01*
X51398959Y-155993607D01*
X51427034Y-155950069D01*
X51433198Y-155941850D01*
X51466673Y-155904666D01*
X51512683Y-155868656D01*
X51555892Y-155845824D01*
X51603525Y-155829515D01*
X51655583Y-155819730D01*
X51712065Y-155816468D01*
X51963147Y-155816468D01*
X52020373Y-155819629D01*
G37*
G36*
X52001737Y-157330041D02*
G01*
X52001737Y-157625575D01*
X52012728Y-157652198D01*
X52038862Y-157663433D01*
X52292875Y-157663433D01*
X52319009Y-157652198D01*
X52330000Y-157625575D01*
X52330000Y-157330041D01*
X52319009Y-157303419D01*
X52292875Y-157292184D01*
X52038862Y-157292184D01*
X52012728Y-157303419D01*
X52001737Y-157330041D01*
G37*
G36*
X52020373Y-158199531D02*
G01*
X52072984Y-158209012D01*
X52120980Y-158224814D01*
X52172483Y-158252120D01*
X52217340Y-158288527D01*
X52249644Y-158325819D01*
X52272141Y-158359468D01*
X52296044Y-158405145D01*
X52315260Y-158454842D01*
X52329789Y-158508557D01*
X52339632Y-158566292D01*
X52344131Y-158615373D01*
X52345631Y-158667027D01*
X52344787Y-158706014D01*
X52341038Y-158755767D01*
X52332133Y-158814374D01*
X52318541Y-158868997D01*
X52300262Y-158919637D01*
X52277296Y-158966293D01*
X52249644Y-159008967D01*
X52217411Y-159046470D01*
X52172829Y-159083084D01*
X52121808Y-159110544D01*
X52074370Y-159126435D01*
X52022460Y-159135970D01*
X51966078Y-159139148D01*
X51709134Y-159139148D01*
X51653496Y-159135880D01*
X51602140Y-159126077D01*
X51555064Y-159109739D01*
X51504226Y-159081506D01*
X51459552Y-159043862D01*
X51427034Y-159005303D01*
X51409618Y-158979635D01*
X51384398Y-158934106D01*
X51363937Y-158885143D01*
X51348234Y-158832745D01*
X51337289Y-158776913D01*
X51331103Y-158717646D01*
X51329581Y-158667759D01*
X51610949Y-158667759D01*
X51612958Y-158688816D01*
X51636350Y-158732972D01*
X51651681Y-158745605D01*
X51700341Y-158759106D01*
X51974870Y-158759106D01*
X51994884Y-158757000D01*
X52038129Y-158732484D01*
X52050762Y-158716601D01*
X52064263Y-158667759D01*
X52062254Y-158647235D01*
X52038862Y-158603035D01*
X52023531Y-158590166D01*
X51974870Y-158576413D01*
X51700341Y-158576413D01*
X51680328Y-158578461D01*
X51637083Y-158602302D01*
X51623301Y-158619924D01*
X51610949Y-158667759D01*
X51329581Y-158667759D01*
X51329961Y-158642540D01*
X51334244Y-158581889D01*
X51343285Y-158524660D01*
X51357085Y-158470854D01*
X51375643Y-158420470D01*
X51398959Y-158373510D01*
X51427034Y-158329972D01*
X51433198Y-158321752D01*
X51466673Y-158284568D01*
X51512683Y-158248559D01*
X51555892Y-158225726D01*
X51603525Y-158209418D01*
X51655583Y-158199632D01*
X51712065Y-158196371D01*
X51963147Y-158196371D01*
X52020373Y-158199531D01*
G37*
G36*
X52001737Y-159709944D02*
G01*
X52001737Y-160005478D01*
X52012728Y-160032100D01*
X52038862Y-160043335D01*
X52292875Y-160043335D01*
X52319009Y-160032100D01*
X52330000Y-160005478D01*
X52330000Y-159709944D01*
X52319009Y-159683321D01*
X52292875Y-159672086D01*
X52038862Y-159672086D01*
X52012728Y-159683321D01*
X52001737Y-159709944D01*
G37*
G36*
X51383558Y-161277006D02*
G01*
X52048632Y-161277006D01*
X52048632Y-161500488D01*
X52059623Y-161527355D01*
X52085757Y-161538590D01*
X52292875Y-161538590D01*
X52319009Y-161527355D01*
X52330000Y-161500488D01*
X52330000Y-160650767D01*
X52319009Y-160624145D01*
X52292875Y-160612909D01*
X52085757Y-160612909D01*
X52059623Y-160624145D01*
X52048632Y-160650767D01*
X52048632Y-160911130D01*
X51708646Y-160911130D01*
X51802923Y-160768981D01*
X51811472Y-160742847D01*
X51791688Y-160715491D01*
X51612414Y-160601674D01*
X51586280Y-160596057D01*
X51556971Y-160614375D01*
X51350830Y-160926517D01*
X51345212Y-160949232D01*
X51345212Y-161238904D01*
X51356692Y-161265526D01*
X51383558Y-161277006D01*
G37*
G36*
X50141926Y-149088415D02*
G01*
X50160000Y-149132379D01*
X50160000Y-149663852D01*
X50144843Y-149728409D01*
X50068164Y-149790858D01*
X49878632Y-149861200D01*
X49878632Y-150547522D01*
X50068164Y-150617864D01*
X50124126Y-150652829D01*
X50160000Y-150744382D01*
X50160000Y-151276343D01*
X50142903Y-151319818D01*
X50109197Y-151338381D01*
X50085261Y-151335450D01*
X48283237Y-150721912D01*
X48223145Y-150688777D01*
X48190425Y-150595394D01*
X48190425Y-150204117D01*
X48738995Y-150204117D01*
X49315896Y-150403907D01*
X49315896Y-150004326D01*
X48738995Y-150204117D01*
X48190425Y-150204117D01*
X48190425Y-149813328D01*
X48203477Y-149747841D01*
X48283237Y-149686322D01*
X50081353Y-149073272D01*
X50106755Y-149070341D01*
X50141926Y-149088415D01*
G37*
G36*
X49597264Y-152364689D02*
G01*
X49597264Y-153487229D01*
X49620711Y-153540963D01*
X49675422Y-153563433D01*
X50081842Y-153563433D01*
X50137041Y-153540963D01*
X50160000Y-153487229D01*
X50160000Y-151709141D01*
X50137529Y-151655408D01*
X50083796Y-151632937D01*
X48266629Y-151632937D01*
X48212896Y-151655408D01*
X48190425Y-151709141D01*
X48190425Y-153459385D01*
X48213872Y-153512630D01*
X48268583Y-153535101D01*
X48675003Y-153535101D01*
X48730202Y-153512630D01*
X48753161Y-153459385D01*
X48753161Y-152364689D01*
X48909476Y-152364689D01*
X48909476Y-153304535D01*
X48932923Y-153357780D01*
X48987634Y-153380251D01*
X49362791Y-153380251D01*
X49417990Y-153357780D01*
X49440949Y-153304535D01*
X49440949Y-152364689D01*
X49597264Y-152364689D01*
G37*
G36*
X50137529Y-154038241D02*
G01*
X50160000Y-154091974D01*
X50160000Y-154699651D01*
X50137529Y-154752896D01*
X50084284Y-154775366D01*
X49534738Y-154775366D01*
X49534738Y-155011793D01*
X50090146Y-155259455D01*
X50126983Y-155285482D01*
X50160000Y-155377669D01*
X50160000Y-156016608D01*
X50141926Y-156059595D01*
X50103824Y-156078157D01*
X50073049Y-156072784D01*
X49426294Y-155726448D01*
X49415342Y-155744630D01*
X49354412Y-155826883D01*
X49283203Y-155894706D01*
X49184181Y-155957045D01*
X49090355Y-155993121D01*
X48986249Y-156014766D01*
X48871863Y-156021981D01*
X48832937Y-156021102D01*
X48722386Y-156007907D01*
X48621178Y-155978878D01*
X48529312Y-155934016D01*
X48446789Y-155873320D01*
X48373607Y-155796789D01*
X48311354Y-155706710D01*
X48261981Y-155605364D01*
X48230675Y-155512304D01*
X48208314Y-155411420D01*
X48194897Y-155302713D01*
X48190425Y-155186182D01*
X48190425Y-155127076D01*
X48721898Y-155127076D01*
X48722069Y-155135069D01*
X48765861Y-155224284D01*
X48771355Y-155228188D01*
X48867955Y-155256524D01*
X48871569Y-155256491D01*
X48964675Y-155222819D01*
X48967049Y-155220684D01*
X49003265Y-155127076D01*
X49003265Y-154775366D01*
X48721898Y-154775366D01*
X48721898Y-155127076D01*
X48190425Y-155127076D01*
X48190425Y-154091974D01*
X48212896Y-154038241D01*
X48266629Y-154015771D01*
X50083796Y-154015771D01*
X50137529Y-154038241D01*
G37*
G36*
X49431965Y-156292129D02*
G01*
X49533631Y-156305318D01*
X49643212Y-156333208D01*
X49743069Y-156374561D01*
X49833203Y-156429378D01*
X49880051Y-156465908D01*
X49953589Y-156536373D01*
X50016373Y-156615159D01*
X50068406Y-156702267D01*
X50109685Y-156797697D01*
X50114704Y-156812034D01*
X50145375Y-156916857D01*
X50165451Y-157012918D01*
X50179791Y-157114716D01*
X50188395Y-157222250D01*
X50191263Y-157335519D01*
X50188395Y-157448772D01*
X50179791Y-157556254D01*
X50165451Y-157657966D01*
X50141472Y-157769337D01*
X50109685Y-157872854D01*
X50087414Y-157928518D01*
X50039989Y-158019356D01*
X49981813Y-158101826D01*
X49912884Y-158175927D01*
X49833203Y-158241660D01*
X49756730Y-158289471D01*
X49658960Y-158332748D01*
X49551980Y-158362561D01*
X49452953Y-158377398D01*
X49347159Y-158382344D01*
X49003265Y-158382344D01*
X48951509Y-158381205D01*
X48829263Y-158368389D01*
X48717226Y-158341334D01*
X48615398Y-158300040D01*
X48523779Y-158244505D01*
X48442367Y-158174732D01*
X48371165Y-158090718D01*
X48358122Y-158072353D01*
X48299117Y-157975462D01*
X48250464Y-157870128D01*
X48212163Y-157756350D01*
X48188975Y-157659248D01*
X48172412Y-157556742D01*
X48162475Y-157448833D01*
X48159162Y-157335519D01*
X48721898Y-157335519D01*
X48722140Y-157351851D01*
X48737407Y-157454099D01*
X48783935Y-157545080D01*
X48858307Y-157603332D01*
X48958325Y-157622749D01*
X49392100Y-157622749D01*
X49486725Y-157605683D01*
X49566978Y-157545080D01*
X49581403Y-157524922D01*
X49618369Y-157433968D01*
X49628527Y-157335519D01*
X49628292Y-157319186D01*
X49613506Y-157216817D01*
X49568443Y-157125471D01*
X49494804Y-157067585D01*
X49395031Y-157048290D01*
X48955394Y-157048290D01*
X48861198Y-157065248D01*
X48782470Y-157125471D01*
X48768273Y-157145743D01*
X48731894Y-157236990D01*
X48721898Y-157335519D01*
X48159162Y-157335519D01*
X48159369Y-157306684D01*
X48164338Y-157194710D01*
X48175932Y-157088125D01*
X48194151Y-156986928D01*
X48218995Y-156891120D01*
X48259367Y-156778938D01*
X48310090Y-156675175D01*
X48371165Y-156579832D01*
X48412709Y-156527803D01*
X48490325Y-156452459D01*
X48578412Y-156391332D01*
X48676970Y-156344420D01*
X48785999Y-156311724D01*
X48905500Y-156293244D01*
X49008639Y-156288695D01*
X49341786Y-156288695D01*
X49431965Y-156292129D01*
G37*
G36*
X48190425Y-160072993D02*
G01*
X48190425Y-160596161D01*
X48212896Y-160649406D01*
X48266629Y-160671877D01*
X50083796Y-160671877D01*
X50137529Y-160649406D01*
X50160000Y-160596161D01*
X50160000Y-160143335D01*
X50124520Y-160051255D01*
X50101870Y-160030495D01*
X49331039Y-159416957D01*
X50085261Y-159416957D01*
X50138018Y-159394487D01*
X50160000Y-159341242D01*
X50160000Y-158818073D01*
X50137529Y-158764340D01*
X50083796Y-158741870D01*
X48266629Y-158741870D01*
X48212896Y-158764340D01*
X48190425Y-158818073D01*
X48190425Y-159273831D01*
X48228155Y-159366605D01*
X48247578Y-159383251D01*
X49108778Y-159996789D01*
X48267606Y-159996789D01*
X48213384Y-160019260D01*
X48190425Y-160072993D01*
G37*
G36*
X49431965Y-161051934D02*
G01*
X49533631Y-161065123D01*
X49643212Y-161093012D01*
X49743069Y-161134366D01*
X49833203Y-161189183D01*
X49880051Y-161225713D01*
X49953589Y-161296178D01*
X50016373Y-161374964D01*
X50068406Y-161462072D01*
X50109685Y-161557501D01*
X50114704Y-161571839D01*
X50145375Y-161676661D01*
X50165451Y-161772723D01*
X50179791Y-161874521D01*
X50188395Y-161982054D01*
X50191263Y-162095324D01*
X50188395Y-162208576D01*
X50179791Y-162316058D01*
X50165451Y-162417770D01*
X50141472Y-162529141D01*
X50109685Y-162632658D01*
X50087414Y-162688323D01*
X50039989Y-162779161D01*
X49981813Y-162861630D01*
X49912884Y-162935732D01*
X49833203Y-163001465D01*
X49756730Y-163049275D01*
X49658960Y-163092552D01*
X49551980Y-163122365D01*
X49452953Y-163137203D01*
X49347159Y-163142149D01*
X49003265Y-163142149D01*
X48951509Y-163141010D01*
X48829263Y-163128194D01*
X48717226Y-163101139D01*
X48615398Y-163059844D01*
X48523779Y-163004310D01*
X48442367Y-162934536D01*
X48371165Y-162850523D01*
X48358122Y-162832158D01*
X48299117Y-162735267D01*
X48250464Y-162629932D01*
X48212163Y-162516154D01*
X48188975Y-162419053D01*
X48172412Y-162316547D01*
X48162475Y-162208637D01*
X48159162Y-162095324D01*
X48721898Y-162095324D01*
X48722140Y-162111656D01*
X48737407Y-162213904D01*
X48783935Y-162304884D01*
X48858307Y-162363136D01*
X48958325Y-162382554D01*
X49392100Y-162382554D01*
X49486725Y-162365488D01*
X49566978Y-162304884D01*
X49581403Y-162284727D01*
X49618369Y-162193772D01*
X49628527Y-162095324D01*
X49628292Y-162078990D01*
X49613506Y-161976622D01*
X49568443Y-161885275D01*
X49494804Y-161827390D01*
X49395031Y-161808094D01*
X48955394Y-161808094D01*
X48861198Y-161825053D01*
X48782470Y-161885275D01*
X48768273Y-161905547D01*
X48731894Y-161996795D01*
X48721898Y-162095324D01*
X48159162Y-162095324D01*
X48159369Y-162066489D01*
X48164338Y-161954515D01*
X48175932Y-161847929D01*
X48194151Y-161746733D01*
X48218995Y-161650925D01*
X48259367Y-161538742D01*
X48310090Y-161434980D01*
X48371165Y-161339637D01*
X48412709Y-161287607D01*
X48490325Y-161212264D01*
X48578412Y-161151136D01*
X48676970Y-161104225D01*
X48785999Y-161071529D01*
X48905500Y-161053048D01*
X49008639Y-161048499D01*
X49341786Y-161048499D01*
X49431965Y-161051934D01*
G37*
G36*
X50137529Y-163515840D02*
G01*
X50160000Y-163569085D01*
X50160000Y-164466922D01*
X50157099Y-164580037D01*
X50148398Y-164687351D01*
X50133896Y-164788865D01*
X50107611Y-164907599D01*
X50072263Y-165017270D01*
X50027851Y-165117877D01*
X49974375Y-165209420D01*
X49919146Y-165280632D01*
X49839375Y-165356295D01*
X49747679Y-165417122D01*
X49644057Y-165463113D01*
X49528510Y-165494269D01*
X49427485Y-165508511D01*
X49318827Y-165513258D01*
X49031598Y-165513258D01*
X48943413Y-165509824D01*
X48843761Y-165496635D01*
X48736010Y-165468745D01*
X48637422Y-165427392D01*
X48547997Y-165372575D01*
X48501156Y-165336037D01*
X48427668Y-165265522D01*
X48364981Y-165186639D01*
X48313092Y-165099387D01*
X48272002Y-165003768D01*
X48266983Y-164989461D01*
X48236312Y-164884852D01*
X48216237Y-164788973D01*
X48201897Y-164687359D01*
X48193293Y-164580008D01*
X48190784Y-164481088D01*
X48753161Y-164481088D01*
X48753401Y-164497361D01*
X48768548Y-164599302D01*
X48814710Y-164690160D01*
X48888349Y-164748412D01*
X48987145Y-164767829D01*
X49363279Y-164767829D01*
X49456745Y-164750763D01*
X49536203Y-164690160D01*
X49550514Y-164670010D01*
X49587187Y-164579220D01*
X49597264Y-164481088D01*
X49597264Y-164224633D01*
X48753161Y-164224633D01*
X48753161Y-164481088D01*
X48190784Y-164481088D01*
X48190425Y-164466922D01*
X48190425Y-163569085D01*
X48212896Y-163515840D01*
X48266629Y-163493370D01*
X50083796Y-163493370D01*
X50137529Y-163515840D01*
G37*
G36*
X49597264Y-166644103D02*
G01*
X49597264Y-167766643D01*
X49620711Y-167820376D01*
X49675422Y-167842847D01*
X50081842Y-167842847D01*
X50137041Y-167820376D01*
X50160000Y-167766643D01*
X50160000Y-165988555D01*
X50137529Y-165934822D01*
X50083796Y-165912351D01*
X48266629Y-165912351D01*
X48212896Y-165934822D01*
X48190425Y-165988555D01*
X48190425Y-167738799D01*
X48213872Y-167792044D01*
X48268583Y-167814515D01*
X48675003Y-167814515D01*
X48730202Y-167792044D01*
X48753161Y-167738799D01*
X48753161Y-166644103D01*
X48909476Y-166644103D01*
X48909476Y-167583949D01*
X48932923Y-167637194D01*
X48987634Y-167659665D01*
X49362791Y-167659665D01*
X49417990Y-167637194D01*
X49440949Y-167583949D01*
X49440949Y-166644103D01*
X49597264Y-166644103D01*
G37*
X41000000Y-141000000D02*
X59000000Y-141000000D01*
X59000000Y-179000000D01*
X41000000Y-179000000D01*
X41000000Y-141000000D01*
D11*
%TO.C,J3*%
X46140000Y-131357500D02*
X47360000Y-131357500D01*
X46140000Y-133557500D02*
X47360000Y-133557500D01*
X46140000Y-139777500D02*
X46140000Y-131357500D01*
X47360000Y-131357500D02*
X47360000Y-133557500D01*
X47360000Y-133557500D02*
X47360000Y-138557500D01*
X47360000Y-138557500D02*
X46140000Y-138557500D01*
X48430000Y-134557500D02*
X48750000Y-134557500D01*
X48430000Y-137977500D02*
X48430000Y-134557500D01*
X48450000Y-130867500D02*
X48750000Y-131467500D01*
X48750000Y-131467500D02*
X49050000Y-130867500D01*
X48750000Y-134557500D02*
X49070000Y-134557500D01*
X48750000Y-138057500D02*
X48430000Y-137977500D01*
X49050000Y-130867500D02*
X48450000Y-130867500D01*
X49070000Y-134557500D02*
X49070000Y-137977500D01*
X49070000Y-137977500D02*
X48750000Y-138057500D01*
X50080000Y-133557500D02*
X49920000Y-133557500D01*
X50930000Y-134557500D02*
X51250000Y-134557500D01*
X50930000Y-137977500D02*
X50930000Y-134557500D01*
X51250000Y-134557500D02*
X51570000Y-134557500D01*
X51250000Y-138057500D02*
X50930000Y-137977500D01*
X51570000Y-134557500D02*
X51570000Y-137977500D01*
X51570000Y-137977500D02*
X51250000Y-138057500D01*
X52640000Y-131357500D02*
X53860000Y-131357500D01*
X52640000Y-133557500D02*
X52640000Y-131357500D01*
X52640000Y-133557500D02*
X52640000Y-138557500D01*
X52640000Y-134557500D02*
X47360000Y-134557500D01*
X52640000Y-138557500D02*
X53860000Y-138557500D01*
X53860000Y-131357500D02*
X53860000Y-139777500D01*
X53860000Y-133557500D02*
X52640000Y-133557500D01*
X53860000Y-139777500D02*
X46140000Y-139777500D01*
%TD*%
M02*
