%TF.GenerationSoftware,KiCad,Pcbnew,8.0.3*%
%TF.CreationDate,2024-09-03T16:00:55-04:00*%
%TF.ProjectId,AeroCore,4165726f-436f-4726-952e-6b696361645f,rev?*%
%TF.SameCoordinates,Original*%
%TF.FileFunction,Drillmap*%
%TF.FilePolarity,Positive*%
%FSLAX45Y45*%
G04 Gerber Fmt 4.5, Leading zero omitted, Abs format (unit mm)*
G04 Created by KiCad (PCBNEW 8.0.3) date 2024-09-03 16:00:55*
%MOMM*%
%LPD*%
G01*
G04 APERTURE LIST*
%ADD10C,0.050000*%
%ADD11C,0.200000*%
%ADD12C,0.100000*%
G04 APERTURE END LIST*
D10*
X3875000Y-14475000D02*
G75*
G02*
X3075000Y-14475000I-400000J0D01*
G01*
X3075000Y-14475000D02*
G75*
G02*
X3875000Y-14475000I400000J0D01*
G01*
X6925000Y-14475000D02*
G75*
G02*
X6125000Y-14475000I-400000J0D01*
G01*
X6125000Y-14475000D02*
G75*
G02*
X6925000Y-14475000I400000J0D01*
G01*
X8000000Y-18500000D02*
G75*
G02*
X7500000Y-19000000I-500000J0D01*
G01*
X2000000Y-13500000D02*
X2000000Y-18500000D01*
X8000000Y-18500000D02*
X8000000Y-13500000D01*
X2000000Y-13500000D02*
G75*
G02*
X2500000Y-13000000I500000J0D01*
G01*
X3875000Y-17525000D02*
G75*
G02*
X3075000Y-17525000I-400000J0D01*
G01*
X3075000Y-17525000D02*
G75*
G02*
X3875000Y-17525000I400000J0D01*
G01*
X2500000Y-19000000D02*
G75*
G02*
X2000000Y-18500000I0J500000D01*
G01*
X6925000Y-17525000D02*
G75*
G02*
X6125000Y-17525000I-400000J0D01*
G01*
X6125000Y-17525000D02*
G75*
G02*
X6925000Y-17525000I400000J0D01*
G01*
X2500000Y-19000000D02*
X7500000Y-19000000D01*
X7500000Y-13000000D02*
G75*
G02*
X8000000Y-13500000I0J-500000D01*
G01*
X2500000Y-13000000D02*
X7500000Y-13000000D01*
D11*
D12*
X2672000Y-15581000D02*
X2732000Y-15641000D01*
X2732000Y-15581000D02*
X2672000Y-15641000D01*
X2672000Y-16159000D02*
X2732000Y-16219000D01*
X2732000Y-16159000D02*
X2672000Y-16219000D01*
D11*
X2258277Y-19313984D02*
X2258277Y-19113984D01*
X2258277Y-19113984D02*
X2305896Y-19113984D01*
X2305896Y-19113984D02*
X2334467Y-19123508D01*
X2334467Y-19123508D02*
X2353515Y-19142555D01*
X2353515Y-19142555D02*
X2363039Y-19161603D01*
X2363039Y-19161603D02*
X2372563Y-19199698D01*
X2372563Y-19199698D02*
X2372563Y-19228270D01*
X2372563Y-19228270D02*
X2363039Y-19266365D01*
X2363039Y-19266365D02*
X2353515Y-19285412D01*
X2353515Y-19285412D02*
X2334467Y-19304460D01*
X2334467Y-19304460D02*
X2305896Y-19313984D01*
X2305896Y-19313984D02*
X2258277Y-19313984D01*
X2458277Y-19313984D02*
X2458277Y-19180650D01*
X2458277Y-19218746D02*
X2467801Y-19199698D01*
X2467801Y-19199698D02*
X2477324Y-19190174D01*
X2477324Y-19190174D02*
X2496372Y-19180650D01*
X2496372Y-19180650D02*
X2515420Y-19180650D01*
X2582086Y-19313984D02*
X2582086Y-19180650D01*
X2582086Y-19113984D02*
X2572563Y-19123508D01*
X2572563Y-19123508D02*
X2582086Y-19133031D01*
X2582086Y-19133031D02*
X2591610Y-19123508D01*
X2591610Y-19123508D02*
X2582086Y-19113984D01*
X2582086Y-19113984D02*
X2582086Y-19133031D01*
X2705896Y-19313984D02*
X2686848Y-19304460D01*
X2686848Y-19304460D02*
X2677324Y-19285412D01*
X2677324Y-19285412D02*
X2677324Y-19113984D01*
X2810658Y-19313984D02*
X2791610Y-19304460D01*
X2791610Y-19304460D02*
X2782086Y-19285412D01*
X2782086Y-19285412D02*
X2782086Y-19113984D01*
X3039229Y-19313984D02*
X3039229Y-19113984D01*
X3039229Y-19113984D02*
X3105896Y-19256841D01*
X3105896Y-19256841D02*
X3172562Y-19113984D01*
X3172562Y-19113984D02*
X3172562Y-19313984D01*
X3353515Y-19313984D02*
X3353515Y-19209222D01*
X3353515Y-19209222D02*
X3343991Y-19190174D01*
X3343991Y-19190174D02*
X3324943Y-19180650D01*
X3324943Y-19180650D02*
X3286848Y-19180650D01*
X3286848Y-19180650D02*
X3267801Y-19190174D01*
X3353515Y-19304460D02*
X3334467Y-19313984D01*
X3334467Y-19313984D02*
X3286848Y-19313984D01*
X3286848Y-19313984D02*
X3267801Y-19304460D01*
X3267801Y-19304460D02*
X3258277Y-19285412D01*
X3258277Y-19285412D02*
X3258277Y-19266365D01*
X3258277Y-19266365D02*
X3267801Y-19247317D01*
X3267801Y-19247317D02*
X3286848Y-19237793D01*
X3286848Y-19237793D02*
X3334467Y-19237793D01*
X3334467Y-19237793D02*
X3353515Y-19228270D01*
X3448753Y-19180650D02*
X3448753Y-19380650D01*
X3448753Y-19190174D02*
X3467801Y-19180650D01*
X3467801Y-19180650D02*
X3505896Y-19180650D01*
X3505896Y-19180650D02*
X3524943Y-19190174D01*
X3524943Y-19190174D02*
X3534467Y-19199698D01*
X3534467Y-19199698D02*
X3543991Y-19218746D01*
X3543991Y-19218746D02*
X3543991Y-19275889D01*
X3543991Y-19275889D02*
X3534467Y-19294936D01*
X3534467Y-19294936D02*
X3524943Y-19304460D01*
X3524943Y-19304460D02*
X3505896Y-19313984D01*
X3505896Y-19313984D02*
X3467801Y-19313984D01*
X3467801Y-19313984D02*
X3448753Y-19304460D01*
X3629705Y-19294936D02*
X3639229Y-19304460D01*
X3639229Y-19304460D02*
X3629705Y-19313984D01*
X3629705Y-19313984D02*
X3620182Y-19304460D01*
X3620182Y-19304460D02*
X3629705Y-19294936D01*
X3629705Y-19294936D02*
X3629705Y-19313984D01*
X3629705Y-19190174D02*
X3639229Y-19199698D01*
X3639229Y-19199698D02*
X3629705Y-19209222D01*
X3629705Y-19209222D02*
X3620182Y-19199698D01*
X3620182Y-19199698D02*
X3629705Y-19190174D01*
X3629705Y-19190174D02*
X3629705Y-19209222D01*
D12*
X1937500Y-19612500D02*
X1997500Y-19672500D01*
X1997500Y-19612500D02*
X1937500Y-19672500D01*
D11*
X2296372Y-19533984D02*
X2315420Y-19533984D01*
X2315420Y-19533984D02*
X2334467Y-19543508D01*
X2334467Y-19543508D02*
X2343991Y-19553031D01*
X2343991Y-19553031D02*
X2353515Y-19572079D01*
X2353515Y-19572079D02*
X2363039Y-19610174D01*
X2363039Y-19610174D02*
X2363039Y-19657793D01*
X2363039Y-19657793D02*
X2353515Y-19695889D01*
X2353515Y-19695889D02*
X2343991Y-19714936D01*
X2343991Y-19714936D02*
X2334467Y-19724460D01*
X2334467Y-19724460D02*
X2315420Y-19733984D01*
X2315420Y-19733984D02*
X2296372Y-19733984D01*
X2296372Y-19733984D02*
X2277324Y-19724460D01*
X2277324Y-19724460D02*
X2267801Y-19714936D01*
X2267801Y-19714936D02*
X2258277Y-19695889D01*
X2258277Y-19695889D02*
X2248753Y-19657793D01*
X2248753Y-19657793D02*
X2248753Y-19610174D01*
X2248753Y-19610174D02*
X2258277Y-19572079D01*
X2258277Y-19572079D02*
X2267801Y-19553031D01*
X2267801Y-19553031D02*
X2277324Y-19543508D01*
X2277324Y-19543508D02*
X2296372Y-19533984D01*
X2448753Y-19714936D02*
X2458277Y-19724460D01*
X2458277Y-19724460D02*
X2448753Y-19733984D01*
X2448753Y-19733984D02*
X2439229Y-19724460D01*
X2439229Y-19724460D02*
X2448753Y-19714936D01*
X2448753Y-19714936D02*
X2448753Y-19733984D01*
X2629705Y-19533984D02*
X2591610Y-19533984D01*
X2591610Y-19533984D02*
X2572563Y-19543508D01*
X2572563Y-19543508D02*
X2563039Y-19553031D01*
X2563039Y-19553031D02*
X2543991Y-19581603D01*
X2543991Y-19581603D02*
X2534467Y-19619698D01*
X2534467Y-19619698D02*
X2534467Y-19695889D01*
X2534467Y-19695889D02*
X2543991Y-19714936D01*
X2543991Y-19714936D02*
X2553515Y-19724460D01*
X2553515Y-19724460D02*
X2572563Y-19733984D01*
X2572563Y-19733984D02*
X2610658Y-19733984D01*
X2610658Y-19733984D02*
X2629705Y-19724460D01*
X2629705Y-19724460D02*
X2639229Y-19714936D01*
X2639229Y-19714936D02*
X2648753Y-19695889D01*
X2648753Y-19695889D02*
X2648753Y-19648270D01*
X2648753Y-19648270D02*
X2639229Y-19629222D01*
X2639229Y-19629222D02*
X2629705Y-19619698D01*
X2629705Y-19619698D02*
X2610658Y-19610174D01*
X2610658Y-19610174D02*
X2572563Y-19610174D01*
X2572563Y-19610174D02*
X2553515Y-19619698D01*
X2553515Y-19619698D02*
X2543991Y-19629222D01*
X2543991Y-19629222D02*
X2534467Y-19648270D01*
X2772563Y-19533984D02*
X2791610Y-19533984D01*
X2791610Y-19533984D02*
X2810658Y-19543508D01*
X2810658Y-19543508D02*
X2820182Y-19553031D01*
X2820182Y-19553031D02*
X2829705Y-19572079D01*
X2829705Y-19572079D02*
X2839229Y-19610174D01*
X2839229Y-19610174D02*
X2839229Y-19657793D01*
X2839229Y-19657793D02*
X2829705Y-19695889D01*
X2829705Y-19695889D02*
X2820182Y-19714936D01*
X2820182Y-19714936D02*
X2810658Y-19724460D01*
X2810658Y-19724460D02*
X2791610Y-19733984D01*
X2791610Y-19733984D02*
X2772563Y-19733984D01*
X2772563Y-19733984D02*
X2753515Y-19724460D01*
X2753515Y-19724460D02*
X2743991Y-19714936D01*
X2743991Y-19714936D02*
X2734467Y-19695889D01*
X2734467Y-19695889D02*
X2724944Y-19657793D01*
X2724944Y-19657793D02*
X2724944Y-19610174D01*
X2724944Y-19610174D02*
X2734467Y-19572079D01*
X2734467Y-19572079D02*
X2743991Y-19553031D01*
X2743991Y-19553031D02*
X2753515Y-19543508D01*
X2753515Y-19543508D02*
X2772563Y-19533984D01*
X2963039Y-19533984D02*
X2982086Y-19533984D01*
X2982086Y-19533984D02*
X3001134Y-19543508D01*
X3001134Y-19543508D02*
X3010658Y-19553031D01*
X3010658Y-19553031D02*
X3020182Y-19572079D01*
X3020182Y-19572079D02*
X3029705Y-19610174D01*
X3029705Y-19610174D02*
X3029705Y-19657793D01*
X3029705Y-19657793D02*
X3020182Y-19695889D01*
X3020182Y-19695889D02*
X3010658Y-19714936D01*
X3010658Y-19714936D02*
X3001134Y-19724460D01*
X3001134Y-19724460D02*
X2982086Y-19733984D01*
X2982086Y-19733984D02*
X2963039Y-19733984D01*
X2963039Y-19733984D02*
X2943991Y-19724460D01*
X2943991Y-19724460D02*
X2934467Y-19714936D01*
X2934467Y-19714936D02*
X2924943Y-19695889D01*
X2924943Y-19695889D02*
X2915420Y-19657793D01*
X2915420Y-19657793D02*
X2915420Y-19610174D01*
X2915420Y-19610174D02*
X2924943Y-19572079D01*
X2924943Y-19572079D02*
X2934467Y-19553031D01*
X2934467Y-19553031D02*
X2943991Y-19543508D01*
X2943991Y-19543508D02*
X2963039Y-19533984D01*
X3115420Y-19733984D02*
X3115420Y-19600650D01*
X3115420Y-19619698D02*
X3124943Y-19610174D01*
X3124943Y-19610174D02*
X3143991Y-19600650D01*
X3143991Y-19600650D02*
X3172563Y-19600650D01*
X3172563Y-19600650D02*
X3191610Y-19610174D01*
X3191610Y-19610174D02*
X3201134Y-19629222D01*
X3201134Y-19629222D02*
X3201134Y-19733984D01*
X3201134Y-19629222D02*
X3210658Y-19610174D01*
X3210658Y-19610174D02*
X3229705Y-19600650D01*
X3229705Y-19600650D02*
X3258277Y-19600650D01*
X3258277Y-19600650D02*
X3277324Y-19610174D01*
X3277324Y-19610174D02*
X3286848Y-19629222D01*
X3286848Y-19629222D02*
X3286848Y-19733984D01*
X3382086Y-19733984D02*
X3382086Y-19600650D01*
X3382086Y-19619698D02*
X3391610Y-19610174D01*
X3391610Y-19610174D02*
X3410658Y-19600650D01*
X3410658Y-19600650D02*
X3439229Y-19600650D01*
X3439229Y-19600650D02*
X3458277Y-19610174D01*
X3458277Y-19610174D02*
X3467801Y-19629222D01*
X3467801Y-19629222D02*
X3467801Y-19733984D01*
X3467801Y-19629222D02*
X3477324Y-19610174D01*
X3477324Y-19610174D02*
X3496372Y-19600650D01*
X3496372Y-19600650D02*
X3524943Y-19600650D01*
X3524943Y-19600650D02*
X3543991Y-19610174D01*
X3543991Y-19610174D02*
X3553515Y-19629222D01*
X3553515Y-19629222D02*
X3553515Y-19733984D01*
X3943991Y-19524460D02*
X3772563Y-19781603D01*
X4201134Y-19533984D02*
X4220182Y-19533984D01*
X4220182Y-19533984D02*
X4239229Y-19543508D01*
X4239229Y-19543508D02*
X4248753Y-19553031D01*
X4248753Y-19553031D02*
X4258277Y-19572079D01*
X4258277Y-19572079D02*
X4267801Y-19610174D01*
X4267801Y-19610174D02*
X4267801Y-19657793D01*
X4267801Y-19657793D02*
X4258277Y-19695889D01*
X4258277Y-19695889D02*
X4248753Y-19714936D01*
X4248753Y-19714936D02*
X4239229Y-19724460D01*
X4239229Y-19724460D02*
X4220182Y-19733984D01*
X4220182Y-19733984D02*
X4201134Y-19733984D01*
X4201134Y-19733984D02*
X4182086Y-19724460D01*
X4182086Y-19724460D02*
X4172563Y-19714936D01*
X4172563Y-19714936D02*
X4163039Y-19695889D01*
X4163039Y-19695889D02*
X4153515Y-19657793D01*
X4153515Y-19657793D02*
X4153515Y-19610174D01*
X4153515Y-19610174D02*
X4163039Y-19572079D01*
X4163039Y-19572079D02*
X4172563Y-19553031D01*
X4172563Y-19553031D02*
X4182086Y-19543508D01*
X4182086Y-19543508D02*
X4201134Y-19533984D01*
X4353515Y-19714936D02*
X4363039Y-19724460D01*
X4363039Y-19724460D02*
X4353515Y-19733984D01*
X4353515Y-19733984D02*
X4343991Y-19724460D01*
X4343991Y-19724460D02*
X4353515Y-19714936D01*
X4353515Y-19714936D02*
X4353515Y-19733984D01*
X4486848Y-19533984D02*
X4505896Y-19533984D01*
X4505896Y-19533984D02*
X4524944Y-19543508D01*
X4524944Y-19543508D02*
X4534468Y-19553031D01*
X4534468Y-19553031D02*
X4543991Y-19572079D01*
X4543991Y-19572079D02*
X4553515Y-19610174D01*
X4553515Y-19610174D02*
X4553515Y-19657793D01*
X4553515Y-19657793D02*
X4543991Y-19695889D01*
X4543991Y-19695889D02*
X4534468Y-19714936D01*
X4534468Y-19714936D02*
X4524944Y-19724460D01*
X4524944Y-19724460D02*
X4505896Y-19733984D01*
X4505896Y-19733984D02*
X4486848Y-19733984D01*
X4486848Y-19733984D02*
X4467801Y-19724460D01*
X4467801Y-19724460D02*
X4458277Y-19714936D01*
X4458277Y-19714936D02*
X4448753Y-19695889D01*
X4448753Y-19695889D02*
X4439229Y-19657793D01*
X4439229Y-19657793D02*
X4439229Y-19610174D01*
X4439229Y-19610174D02*
X4448753Y-19572079D01*
X4448753Y-19572079D02*
X4458277Y-19553031D01*
X4458277Y-19553031D02*
X4467801Y-19543508D01*
X4467801Y-19543508D02*
X4486848Y-19533984D01*
X4629706Y-19553031D02*
X4639229Y-19543508D01*
X4639229Y-19543508D02*
X4658277Y-19533984D01*
X4658277Y-19533984D02*
X4705896Y-19533984D01*
X4705896Y-19533984D02*
X4724944Y-19543508D01*
X4724944Y-19543508D02*
X4734468Y-19553031D01*
X4734468Y-19553031D02*
X4743991Y-19572079D01*
X4743991Y-19572079D02*
X4743991Y-19591127D01*
X4743991Y-19591127D02*
X4734468Y-19619698D01*
X4734468Y-19619698D02*
X4620182Y-19733984D01*
X4620182Y-19733984D02*
X4743991Y-19733984D01*
X4810658Y-19533984D02*
X4934468Y-19533984D01*
X4934468Y-19533984D02*
X4867801Y-19610174D01*
X4867801Y-19610174D02*
X4896372Y-19610174D01*
X4896372Y-19610174D02*
X4915420Y-19619698D01*
X4915420Y-19619698D02*
X4924944Y-19629222D01*
X4924944Y-19629222D02*
X4934468Y-19648270D01*
X4934468Y-19648270D02*
X4934468Y-19695889D01*
X4934468Y-19695889D02*
X4924944Y-19714936D01*
X4924944Y-19714936D02*
X4915420Y-19724460D01*
X4915420Y-19724460D02*
X4896372Y-19733984D01*
X4896372Y-19733984D02*
X4839229Y-19733984D01*
X4839229Y-19733984D02*
X4820182Y-19724460D01*
X4820182Y-19724460D02*
X4810658Y-19714936D01*
X5105896Y-19533984D02*
X5067801Y-19533984D01*
X5067801Y-19533984D02*
X5048753Y-19543508D01*
X5048753Y-19543508D02*
X5039229Y-19553031D01*
X5039229Y-19553031D02*
X5020182Y-19581603D01*
X5020182Y-19581603D02*
X5010658Y-19619698D01*
X5010658Y-19619698D02*
X5010658Y-19695889D01*
X5010658Y-19695889D02*
X5020182Y-19714936D01*
X5020182Y-19714936D02*
X5029706Y-19724460D01*
X5029706Y-19724460D02*
X5048753Y-19733984D01*
X5048753Y-19733984D02*
X5086849Y-19733984D01*
X5086849Y-19733984D02*
X5105896Y-19724460D01*
X5105896Y-19724460D02*
X5115420Y-19714936D01*
X5115420Y-19714936D02*
X5124944Y-19695889D01*
X5124944Y-19695889D02*
X5124944Y-19648270D01*
X5124944Y-19648270D02*
X5115420Y-19629222D01*
X5115420Y-19629222D02*
X5105896Y-19619698D01*
X5105896Y-19619698D02*
X5086849Y-19610174D01*
X5086849Y-19610174D02*
X5048753Y-19610174D01*
X5048753Y-19610174D02*
X5029706Y-19619698D01*
X5029706Y-19619698D02*
X5020182Y-19629222D01*
X5020182Y-19629222D02*
X5010658Y-19648270D01*
X5201134Y-19533984D02*
X5201134Y-19572079D01*
X5277325Y-19533984D02*
X5277325Y-19572079D01*
X5572563Y-19810174D02*
X5563039Y-19800650D01*
X5563039Y-19800650D02*
X5543991Y-19772079D01*
X5543991Y-19772079D02*
X5534468Y-19753031D01*
X5534468Y-19753031D02*
X5524944Y-19724460D01*
X5524944Y-19724460D02*
X5515420Y-19676841D01*
X5515420Y-19676841D02*
X5515420Y-19638746D01*
X5515420Y-19638746D02*
X5524944Y-19591127D01*
X5524944Y-19591127D02*
X5534468Y-19562555D01*
X5534468Y-19562555D02*
X5543991Y-19543508D01*
X5543991Y-19543508D02*
X5563039Y-19514936D01*
X5563039Y-19514936D02*
X5572563Y-19505412D01*
X5639229Y-19553031D02*
X5648753Y-19543508D01*
X5648753Y-19543508D02*
X5667801Y-19533984D01*
X5667801Y-19533984D02*
X5715420Y-19533984D01*
X5715420Y-19533984D02*
X5734468Y-19543508D01*
X5734468Y-19543508D02*
X5743991Y-19553031D01*
X5743991Y-19553031D02*
X5753515Y-19572079D01*
X5753515Y-19572079D02*
X5753515Y-19591127D01*
X5753515Y-19591127D02*
X5743991Y-19619698D01*
X5743991Y-19619698D02*
X5629706Y-19733984D01*
X5629706Y-19733984D02*
X5753515Y-19733984D01*
X5991610Y-19733984D02*
X5991610Y-19533984D01*
X6077325Y-19733984D02*
X6077325Y-19629222D01*
X6077325Y-19629222D02*
X6067801Y-19610174D01*
X6067801Y-19610174D02*
X6048753Y-19600650D01*
X6048753Y-19600650D02*
X6020182Y-19600650D01*
X6020182Y-19600650D02*
X6001134Y-19610174D01*
X6001134Y-19610174D02*
X5991610Y-19619698D01*
X6201134Y-19733984D02*
X6182087Y-19724460D01*
X6182087Y-19724460D02*
X6172563Y-19714936D01*
X6172563Y-19714936D02*
X6163039Y-19695889D01*
X6163039Y-19695889D02*
X6163039Y-19638746D01*
X6163039Y-19638746D02*
X6172563Y-19619698D01*
X6172563Y-19619698D02*
X6182087Y-19610174D01*
X6182087Y-19610174D02*
X6201134Y-19600650D01*
X6201134Y-19600650D02*
X6229706Y-19600650D01*
X6229706Y-19600650D02*
X6248753Y-19610174D01*
X6248753Y-19610174D02*
X6258277Y-19619698D01*
X6258277Y-19619698D02*
X6267801Y-19638746D01*
X6267801Y-19638746D02*
X6267801Y-19695889D01*
X6267801Y-19695889D02*
X6258277Y-19714936D01*
X6258277Y-19714936D02*
X6248753Y-19724460D01*
X6248753Y-19724460D02*
X6229706Y-19733984D01*
X6229706Y-19733984D02*
X6201134Y-19733984D01*
X6382087Y-19733984D02*
X6363039Y-19724460D01*
X6363039Y-19724460D02*
X6353515Y-19705412D01*
X6353515Y-19705412D02*
X6353515Y-19533984D01*
X6534468Y-19724460D02*
X6515420Y-19733984D01*
X6515420Y-19733984D02*
X6477325Y-19733984D01*
X6477325Y-19733984D02*
X6458277Y-19724460D01*
X6458277Y-19724460D02*
X6448753Y-19705412D01*
X6448753Y-19705412D02*
X6448753Y-19629222D01*
X6448753Y-19629222D02*
X6458277Y-19610174D01*
X6458277Y-19610174D02*
X6477325Y-19600650D01*
X6477325Y-19600650D02*
X6515420Y-19600650D01*
X6515420Y-19600650D02*
X6534468Y-19610174D01*
X6534468Y-19610174D02*
X6543991Y-19629222D01*
X6543991Y-19629222D02*
X6543991Y-19648270D01*
X6543991Y-19648270D02*
X6448753Y-19667317D01*
X6620182Y-19724460D02*
X6639230Y-19733984D01*
X6639230Y-19733984D02*
X6677325Y-19733984D01*
X6677325Y-19733984D02*
X6696372Y-19724460D01*
X6696372Y-19724460D02*
X6705896Y-19705412D01*
X6705896Y-19705412D02*
X6705896Y-19695889D01*
X6705896Y-19695889D02*
X6696372Y-19676841D01*
X6696372Y-19676841D02*
X6677325Y-19667317D01*
X6677325Y-19667317D02*
X6648753Y-19667317D01*
X6648753Y-19667317D02*
X6629706Y-19657793D01*
X6629706Y-19657793D02*
X6620182Y-19638746D01*
X6620182Y-19638746D02*
X6620182Y-19629222D01*
X6620182Y-19629222D02*
X6629706Y-19610174D01*
X6629706Y-19610174D02*
X6648753Y-19600650D01*
X6648753Y-19600650D02*
X6677325Y-19600650D01*
X6677325Y-19600650D02*
X6696372Y-19610174D01*
X6772563Y-19810174D02*
X6782087Y-19800650D01*
X6782087Y-19800650D02*
X6801134Y-19772079D01*
X6801134Y-19772079D02*
X6810658Y-19753031D01*
X6810658Y-19753031D02*
X6820182Y-19724460D01*
X6820182Y-19724460D02*
X6829706Y-19676841D01*
X6829706Y-19676841D02*
X6829706Y-19638746D01*
X6829706Y-19638746D02*
X6820182Y-19591127D01*
X6820182Y-19591127D02*
X6810658Y-19562555D01*
X6810658Y-19562555D02*
X6801134Y-19543508D01*
X6801134Y-19543508D02*
X6782087Y-19514936D01*
X6782087Y-19514936D02*
X6772563Y-19505412D01*
X7134468Y-19810174D02*
X7124944Y-19800650D01*
X7124944Y-19800650D02*
X7105896Y-19772079D01*
X7105896Y-19772079D02*
X7096372Y-19753031D01*
X7096372Y-19753031D02*
X7086849Y-19724460D01*
X7086849Y-19724460D02*
X7077325Y-19676841D01*
X7077325Y-19676841D02*
X7077325Y-19638746D01*
X7077325Y-19638746D02*
X7086849Y-19591127D01*
X7086849Y-19591127D02*
X7096372Y-19562555D01*
X7096372Y-19562555D02*
X7105896Y-19543508D01*
X7105896Y-19543508D02*
X7124944Y-19514936D01*
X7124944Y-19514936D02*
X7134468Y-19505412D01*
X7210658Y-19600650D02*
X7210658Y-19733984D01*
X7210658Y-19619698D02*
X7220182Y-19610174D01*
X7220182Y-19610174D02*
X7239230Y-19600650D01*
X7239230Y-19600650D02*
X7267801Y-19600650D01*
X7267801Y-19600650D02*
X7286849Y-19610174D01*
X7286849Y-19610174D02*
X7296372Y-19629222D01*
X7296372Y-19629222D02*
X7296372Y-19733984D01*
X7420182Y-19733984D02*
X7401134Y-19724460D01*
X7401134Y-19724460D02*
X7391611Y-19714936D01*
X7391611Y-19714936D02*
X7382087Y-19695889D01*
X7382087Y-19695889D02*
X7382087Y-19638746D01*
X7382087Y-19638746D02*
X7391611Y-19619698D01*
X7391611Y-19619698D02*
X7401134Y-19610174D01*
X7401134Y-19610174D02*
X7420182Y-19600650D01*
X7420182Y-19600650D02*
X7448753Y-19600650D01*
X7448753Y-19600650D02*
X7467801Y-19610174D01*
X7467801Y-19610174D02*
X7477325Y-19619698D01*
X7477325Y-19619698D02*
X7486849Y-19638746D01*
X7486849Y-19638746D02*
X7486849Y-19695889D01*
X7486849Y-19695889D02*
X7477325Y-19714936D01*
X7477325Y-19714936D02*
X7467801Y-19724460D01*
X7467801Y-19724460D02*
X7448753Y-19733984D01*
X7448753Y-19733984D02*
X7420182Y-19733984D01*
X7543992Y-19600650D02*
X7620182Y-19600650D01*
X7572563Y-19533984D02*
X7572563Y-19705412D01*
X7572563Y-19705412D02*
X7582087Y-19724460D01*
X7582087Y-19724460D02*
X7601134Y-19733984D01*
X7601134Y-19733984D02*
X7620182Y-19733984D01*
X7839230Y-19600650D02*
X7839230Y-19800650D01*
X7839230Y-19610174D02*
X7858277Y-19600650D01*
X7858277Y-19600650D02*
X7896373Y-19600650D01*
X7896373Y-19600650D02*
X7915420Y-19610174D01*
X7915420Y-19610174D02*
X7924944Y-19619698D01*
X7924944Y-19619698D02*
X7934468Y-19638746D01*
X7934468Y-19638746D02*
X7934468Y-19695889D01*
X7934468Y-19695889D02*
X7924944Y-19714936D01*
X7924944Y-19714936D02*
X7915420Y-19724460D01*
X7915420Y-19724460D02*
X7896373Y-19733984D01*
X7896373Y-19733984D02*
X7858277Y-19733984D01*
X7858277Y-19733984D02*
X7839230Y-19724460D01*
X8048753Y-19733984D02*
X8029706Y-19724460D01*
X8029706Y-19724460D02*
X8020182Y-19705412D01*
X8020182Y-19705412D02*
X8020182Y-19533984D01*
X8210658Y-19733984D02*
X8210658Y-19629222D01*
X8210658Y-19629222D02*
X8201134Y-19610174D01*
X8201134Y-19610174D02*
X8182087Y-19600650D01*
X8182087Y-19600650D02*
X8143992Y-19600650D01*
X8143992Y-19600650D02*
X8124944Y-19610174D01*
X8210658Y-19724460D02*
X8191611Y-19733984D01*
X8191611Y-19733984D02*
X8143992Y-19733984D01*
X8143992Y-19733984D02*
X8124944Y-19724460D01*
X8124944Y-19724460D02*
X8115420Y-19705412D01*
X8115420Y-19705412D02*
X8115420Y-19686365D01*
X8115420Y-19686365D02*
X8124944Y-19667317D01*
X8124944Y-19667317D02*
X8143992Y-19657793D01*
X8143992Y-19657793D02*
X8191611Y-19657793D01*
X8191611Y-19657793D02*
X8210658Y-19648270D01*
X8277325Y-19600650D02*
X8353515Y-19600650D01*
X8305896Y-19533984D02*
X8305896Y-19705412D01*
X8305896Y-19705412D02*
X8315420Y-19724460D01*
X8315420Y-19724460D02*
X8334468Y-19733984D01*
X8334468Y-19733984D02*
X8353515Y-19733984D01*
X8496373Y-19724460D02*
X8477325Y-19733984D01*
X8477325Y-19733984D02*
X8439230Y-19733984D01*
X8439230Y-19733984D02*
X8420182Y-19724460D01*
X8420182Y-19724460D02*
X8410658Y-19705412D01*
X8410658Y-19705412D02*
X8410658Y-19629222D01*
X8410658Y-19629222D02*
X8420182Y-19610174D01*
X8420182Y-19610174D02*
X8439230Y-19600650D01*
X8439230Y-19600650D02*
X8477325Y-19600650D01*
X8477325Y-19600650D02*
X8496373Y-19610174D01*
X8496373Y-19610174D02*
X8505896Y-19629222D01*
X8505896Y-19629222D02*
X8505896Y-19648270D01*
X8505896Y-19648270D02*
X8410658Y-19667317D01*
X8677325Y-19733984D02*
X8677325Y-19533984D01*
X8677325Y-19724460D02*
X8658277Y-19733984D01*
X8658277Y-19733984D02*
X8620182Y-19733984D01*
X8620182Y-19733984D02*
X8601135Y-19724460D01*
X8601135Y-19724460D02*
X8591611Y-19714936D01*
X8591611Y-19714936D02*
X8582087Y-19695889D01*
X8582087Y-19695889D02*
X8582087Y-19638746D01*
X8582087Y-19638746D02*
X8591611Y-19619698D01*
X8591611Y-19619698D02*
X8601135Y-19610174D01*
X8601135Y-19610174D02*
X8620182Y-19600650D01*
X8620182Y-19600650D02*
X8658277Y-19600650D01*
X8658277Y-19600650D02*
X8677325Y-19610174D01*
X8753516Y-19810174D02*
X8763039Y-19800650D01*
X8763039Y-19800650D02*
X8782087Y-19772079D01*
X8782087Y-19772079D02*
X8791611Y-19753031D01*
X8791611Y-19753031D02*
X8801135Y-19724460D01*
X8801135Y-19724460D02*
X8810658Y-19676841D01*
X8810658Y-19676841D02*
X8810658Y-19638746D01*
X8810658Y-19638746D02*
X8801135Y-19591127D01*
X8801135Y-19591127D02*
X8791611Y-19562555D01*
X8791611Y-19562555D02*
X8782087Y-19543508D01*
X8782087Y-19543508D02*
X8763039Y-19514936D01*
X8763039Y-19514936D02*
X8753516Y-19505412D01*
M02*
